<svg xmlns="http://www.w3.org/2000/svg" width="16" height="16" fill="none"><path fill="#636363" d="M9.014 2.8H12.8A2.2 2.2 0 0 1 15 5v.956l-.313-.312-.01-.012A1.85 1.85 0 0 0 13 5.126V5a.2.2 0 0 0-.2-.2H8.186L6.386 3H3.2a.2.2 0 0 0-.2.2V11c0 .11.09.2.2.2h3.008a1.84 1.84 0 0 0-.387.955l-.01.19.01.188c.024.239.093.464.199.667H3.2A2.2 2.2 0 0 1 1 11V3.2A2.2 2.2 0 0 1 3.2 1h4.014zm-1.619 9.902-.036-.03zm7.514-1.081c-.112.383-.325.72-.609.985q.033-.233.007-.466.201-.116.374-.287l-.001-.001zm-2.007.829-.011.036q.006-.018.01-.037m-5.643-.295q.012-.027.026-.051-.014.024-.026.05m.101-.14q.016-.015.034-.027-.018.012-.034.027m.065-.05"/><path fill="#B2CCD6" d="M10.88 10.122a.45.45 0 1 0-.637.636l1.032 1.032H7.561a.45.45 0 0 0 0 .9h3.714l-1.032 1.033a.45.45 0 0 0 .636.636l1.8-1.8a.45.45 0 0 0 0-.637z" opacity=".6"/><path fill="#B2CCD6" d="M13.58 6.52a.45.45 0 1 0-.637.638l1.033 1.032H7.56a.45.45 0 0 0 0 .9h6.415l-1.033 1.032a.45.45 0 0 0 .636.637l1.8-1.8a.45.45 0 0 0 0-.637l-1.8-1.8z"/></svg>