<svg xmlns="http://www.w3.org/2000/svg" width="16" height="16" fill="none"><path fill="#E9A581" d="M9.014 2.8H12.8A2.2 2.2 0 0 1 15 5v.96a2.02 2.02 0 0 0-1.452-1.256 4.5 4.5 0 0 0-2.349.096H8.186L6.386 3H3.2a.2.2 0 0 0-.2.2V11c0 .11.09.2.2.2h2.976l-.316.315a2.7 2.7 0 0 0-.78 1.685H3.2A2.2 2.2 0 0 1 1 11V3.2A2.2 2.2 0 0 1 3.2 1h4.014zM6.64 13.18l.011-.046zm.027-.104.02-.054zm.034-.095q.015-.037.034-.072-.018.034-.034.072m.146-.252q-.022.027-.04.055.019-.029.04-.055m5.868-.658q-.051.002-.104.003zm-.372-.004-.074-.007zm.553-.012-.07.007zm.871-.238-.041.018zM15 10.795q-.03.045-.063.086.032-.044.063-.089zM13.077 9.61c.04.016.084.016.123 0l-.062.012a.17.17 0 0 1-.116-.048zm-.056-3.435.187.037A3 3 0 0 0 13 6.172z"/><path fill="#E9A581" d="M15.061 8.661a.45.45 0 0 0-.319-.336.45.45 0 0 0-.445.112l-1.254 1.254a.15.15 0 0 1-.215 0l-.859-.859a.15.15 0 0 1 0-.214l1.254-1.254a.45.45 0 0 0 .113-.446.44.44 0 0 0-.337-.319 2.72 2.72 0 0 0-2.532.73 2.72 2.72 0 0 0-.704 2.637l-2.516 2.517a1.06 1.06 0 0 0 0 1.502l.429.43a1.06 1.06 0 0 0 1.503 0l2.516-2.516a2.72 2.72 0 0 0 2.637-.705 2.72 2.72 0 0 0 .73-2.533"/></svg>