<svg xmlns="http://www.w3.org/2000/svg" width="16" height="16" fill="none"><path fill="#4DC4A0" d="M9.014 2.8H12.8A2.2 2.2 0 0 1 15 5v.493a2 2 0 0 0-.217-.105l-.172-.062-.002-.001-2.917-.934h-.003l-.169-.047a2 2 0 0 0-.344-.054L11 4.284c-.328 0-.627.082-.786.133l-.109.038a35 35 0 0 1-1.04.345h-.88L6.385 3H3.2a.2.2 0 0 0-.2.2V11c0 .11.09.2.2.2h2.613c.02.804.318 1.467.711 2H3.2A2.2 2.2 0 0 1 1 11V3.2A2.2 2.2 0 0 1 3.2 1h4.015z"/><path fill="#4DC4A0" fill-rule="evenodd" d="M10.539 5.682c.09-.032.278-.098.461-.098q.151 0 .296.046l2.917.933c.402.13.676.503.676.926v3.622c0 1.04-.776 1.795-1.514 2.286-.623.414-1.316.719-2.023.957-.03.01-.078.027-.126.038a.96.96 0 0 1-.526-.02c-.362-.118-1.227-.426-2.01-.933-.76-.491-1.579-1.259-1.579-2.328V7.49c0-.423.273-.797.676-.926.916-.293 1.845-.562 2.752-.881" clip-rule="evenodd" opacity=".3"/><path fill="#4DC4A0" fill-rule="evenodd" d="M12.642 8.417c.183.14.22.4.081.584l-1.887 2.5a.417.417 0 0 1-.617.054l-.894-.834a.417.417 0 1 1 .569-.61l.555.519 1.609-2.131c.139-.184.4-.22.584-.082" clip-rule="evenodd"/></svg>