<svg xmlns="http://www.w3.org/2000/svg" width="16" height="16" fill="none"><path fill="#57D7FF" d="M9.014 2.8H12.8A2.2 2.2 0 0 1 15 5v5.985l-.354-.354-.134-.12a1.75 1.75 0 0 0-.744-.354A3.27 3.27 0 0 0 13 8.367V5a.2.2 0 0 0-.2-.2H8.812l-.105-.095a1.75 1.75 0 0 0-1.007-.39L6.386 3H3.2a.2.2 0 0 0-.2.2V11c0 .11.09.2.2.2h4.09a3.3 3.3 0 0 0 1.337 2H3.2A2.2 2.2 0 0 1 1 11V3.2A2.2 2.2 0 0 1 3.2 1h4.015zm1.027 9.63q-.053-.011-.104-.026.051.015.104.026m-.814-.406-.078-.07zm-.186-.18q-.034-.035-.066-.072.032.037.066.072m-.115-.137q-.03-.037-.058-.077.027.04.058.077m-.284-.507.013.034z"/><path fill="#57D7FF" d="M10.5 12.486a1.986 1.986 0 1 0 0-3.972 1.986 1.986 0 0 0 0 3.972" opacity=".6"/><path fill="#57D7FF" d="M7.176 8.056h2.255a.459.459 0 0 0 0-.917H7.176l.746-.746a.458.458 0 1 0-.649-.648L5.746 7.273c-.18.18-.18.47 0 .649L7.273 9.45a.457.457 0 1 0 .648-.649zM15.254 13.079l-1.527-1.528a.458.458 0 0 0-.649.649l.746.745h-2.255a.458.458 0 0 0 0 .917h2.255l-.746.745a.458.458 0 0 0 .648.649l1.528-1.528c.179-.18.179-.47 0-.649"/></svg>