<svg xmlns="http://www.w3.org/2000/svg" width="16" height="16" fill="none"><path fill="#39EA5F" d="M9.014 2.8H12.8A2.2 2.2 0 0 1 15 5v.956l-.313-.311-.01-.012A1.85 1.85 0 0 0 13 5.127V5a.2.2 0 0 0-.2-.2H8.186L6.386 3H3.2a.2.2 0 0 0-.2.2V11c0 .11.09.2.2.2h3.008c-.212.269-.35.597-.387.955l-.01.19.01.19c.024.238.094.462.2.665H3.2A2.2 2.2 0 0 1 1 11V3.2A2.2 2.2 0 0 1 3.2 1h4.014zm-1.517 9.962q.078.031.169.033l-.091-.009a.5.5 0 0 1-.078-.024m-.036-.019-.039-.02zm7.448-1.122c-.113.382-.325.72-.609.984q.033-.232.007-.465.202-.117.373-.287v-.001zm-2.029.899-.022.04q.012-.02.021-.04m-5.633-.012q-.009-.023-.014-.045.005.023.014.045m.176-.542q.018-.011.038-.02-.02.008-.038.02"/><path fill="#39EA5F" d="M10.88 10.122a.45.45 0 1 0-.637.636l1.032 1.032H7.561a.45.45 0 0 0 0 .9h3.714l-1.032 1.033a.45.45 0 0 0 .636.636l1.8-1.8a.45.45 0 0 0 0-.637z" opacity=".6"/><path fill="#39EA5F" d="M13.58 6.52a.45.45 0 1 0-.637.638l1.033 1.032H7.56a.45.45 0 0 0 0 .9h6.415l-1.033 1.032a.45.45 0 0 0 .636.637l1.8-1.8a.45.45 0 0 0 0-.637l-1.8-1.8z"/></svg>