<svg xmlns="http://www.w3.org/2000/svg" width="16" height="16" fill="none"><path fill="#4A616C" d="M9.014 2.8H12.8A2.2 2.2 0 0 1 15 5v.529a6 6 0 0 0-9.075 7.67H3.2A2.2 2.2 0 0 1 1 11V3.2A2.2 2.2 0 0 1 3.2 1h4.014z"/><path fill="#FA6068" d="M11 13.333a3.333 3.333 0 1 0 0-6.666 3.333 3.333 0 0 0 0 6.666" opacity=".4"/><path fill="#FF8B8B" d="M12.229 11.646a.42.42 0 0 1-.295-.123l-1.228-1.228a.416.416 0 1 1 .589-.59l1.229 1.23a.417.417 0 0 1-.295.71M11 5.833A.417.417 0 1 0 11 5a.417.417 0 0 0 0 .833M14.241 7.176a.417.417 0 1 0 0-.834.417.417 0 0 0 0 .834M15.583 10.417a.417.417 0 1 0 0-.834.417.417 0 0 0 0 .834M14.241 13.658a.417.417 0 1 0 0-.834.417.417 0 0 0 0 .834M7.759 13.658a.417.417 0 1 0 0-.834.417.417 0 0 0 0 .834M6.417 10.417a.417.417 0 1 0 0-.834.417.417 0 0 0 0 .834M7.759 7.176a.417.417 0 1 0 0-.834.417.417 0 0 0 0 .834"/></svg>