<svg xmlns="http://www.w3.org/2000/svg" width="24" height="24" fill="none"><g fill-rule="evenodd" clip-rule="evenodd"><path fill="#FA6068" d="M15.262 7.868q-.511 0-.97.13a2.3 2.3 0 0 0-.808.395q-.346.272-.548.693-.202.418-.202 1.002 0 .745.369 1.272.373.525 1.126.89.297.142.553.277.255.135.439.282.188.146.296.317a.7.7 0 0 1 .108.392q0 .161-.067.303a.7.7 0 0 1-.207.239q-.135.099-.34.156a1.8 1.8 0 0 1-.477.057q-.466 0-.924-.187a2.7 2.7 0 0 1-.848-.573v1.667q.35.21.826.314.48.104 1.009.104.516 0 .979-.115a2.25 2.25 0 0 0 .817-.375 1.85 1.85 0 0 0 .552-.688q.207-.428.207-1.053 0-.454-.117-.793a1.9 1.9 0 0 0-.337-.61 2.5 2.5 0 0 0-.53-.474 5 5 0 0 0-.69-.401 9 9 0 0 1-.508-.26 3 3 0 0 1-.382-.262 1.1 1.1 0 0 1-.241-.28.68.68 0 0 1-.01-.647.7.7 0 0 1 .216-.24q.14-.099.341-.151.202-.058.449-.059.179 0 .376.033.203.03.404.098a2.3 2.3 0 0 1 .746.39V8.154a3 3 0 0 0-.718-.214 5 5 0 0 0-.889-.071m-6.58.124L6.34 15.467h1.57l.454-1.662h2.29l.457 1.662h1.58l-2.29-7.475zm.84 1.335h-.036a3.3 3.3 0 0 1-.113.651l-.7 2.533h1.648L9.63 10a3.7 3.7 0 0 1-.109-.672" style="fill:#fa6068;fill:color(display-p3 .9803 .3759 .4092);fill-opacity:1"/><path fill="#82AAFF" d="M6.558 4.523q-1.303 0-1.882.698-.58.688-.579 2.398v1.85q0 1.584-.9 1.583v1.527q.9 0 .9 1.526v1.99q0 1.7.585 2.365.585.663 1.876.663v-1.55q-.503 0-.728-.34-.218-.34-.218-1.153v-1.701q0-2.032-.911-2.546v-.034q.91-.522.91-2.513V7.519q0-1.443.947-1.444zM17.553 4.523v1.552q.946 0 .946 1.444v1.7q0 2.074.906 2.596v.034q-.906.497-.906 2.48v1.767q0 .804-.224 1.136-.224.34-.722.34v1.552q1.296 0 1.87-.664.58-.664.58-2.414V14.13q0-1.551.906-1.552v-1.526q-.906 0-.907-1.567v-1.9q0-1.676-.578-2.364-.58-.698-1.87-.698" style="fill:#82aaff;fill:color(display-p3 .5098 .6667 1);fill-opacity:1"/></g></svg>