<svg xmlns="http://www.w3.org/2000/svg" width="24" height="24" fill="none"><path fill="#300" d="M5.219 1.502H18.78c2.057 0 3.719 1.704 3.719 3.813v13.369c0 2.109-1.663 3.813-3.719 3.813H5.22c-2.056 0-3.719-1.704-3.719-3.813V5.315c0-2.109 1.663-3.813 3.719-3.813" style="fill:#300;fill:color(display-p3 .2 0 0);fill-opacity:1"/><path fill="#FFCB6B" d="M11.676 14.1H8.421l-.665 2.108a.154.154 0 0 1-.166.126H5.945c-.096 0-.123-.054-.096-.162l2.817-8.317c.027-.09.053-.189.088-.296q.052-.285.052-.584c-.008-.044.027-.09.07-.098h2.267c.07 0 .104.027.113.071l3.194 9.242c.026.099 0 .144-.087.144h-1.83c-.06.009-.122-.036-.14-.099zM8.93 12.278h2.222a13 13 0 0 0-.201-.646 28 28 0 0 1-.236-.771c-.088-.279-.167-.548-.254-.826a20 20 0 0 1-.236-.799q-.103-.375-.193-.7h-.017c-.079.386-.175.772-.298 1.158-.131.43-.262.88-.402 1.328-.123.458-.254.88-.385 1.256m7.429-3.867a1.07 1.07 0 0 1-.78-.314 1.18 1.18 0 0 1-.297-.825 1.07 1.07 0 0 1 .315-.8c.21-.205.49-.313.779-.313.341 0 .604.108.796.314.193.215.298.502.289.798.009.306-.096.602-.306.826a1.01 1.01 0 0 1-.796.314m-.98 7.788V9.29c0-.09.034-.125.113-.125h1.733c.078 0 .113.045.113.125v6.91c0 .098-.035.143-.113.143h-1.715c-.088 0-.132-.054-.132-.144" style="fill:#ffcb6b;fill:color(display-p3 1 .7961 .4196);fill-opacity:1"/></svg>