<svg xmlns="http://www.w3.org/2000/svg" width="24" height="24" fill="none"><path fill="#C3E88D" d="M3 15.501h18c-.14-.993-.598-1.955-1.344-2.82-.745-.866-1.76-1.615-2.977-2.196l1.449-1.932a.3.3 0 0 0 .065-.143.26.26 0 0 0-.024-.148.4.4 0 0 0-.108-.13.6.6 0 0 0-.177-.092.8.8 0 0 0-.437-.019.7.7 0 0 0-.192.076.4.4 0 0 0-.133.12l-1.41 1.888a11.4 11.4 0 0 0-3.706-.604c-1.29 0-2.562.207-3.707.604L6.878 8.218a.4.4 0 0 0-.132-.12.7.7 0 0 0-.193-.077.8.8 0 0 0-.437.019.6.6 0 0 0-.177.092.4.4 0 0 0-.108.13.26.26 0 0 0-.024.148q.011.076.065.143l1.45 1.932c-1.217.581-2.233 1.33-2.978 2.195-.746.866-1.204 1.828-1.344 2.821m12.938-3c.222 0 .44.044.624.126.185.083.33.2.415.337a.52.52 0 0 1 .064.433.73.73 0 0 1-.308.384 1.4 1.4 0 0 1-.576.206 1.7 1.7 0 0 1-.65-.043 1.15 1.15 0 0 1-.505-.276.6.6 0 0 1-.19-.417c0-.199.119-.39.33-.53s.497-.22.796-.22m-7.876 0c.223 0 .44.044.626.126.185.083.329.2.414.337a.52.52 0 0 1 .064.433.73.73 0 0 1-.308.384 1.4 1.4 0 0 1-.576.206 1.7 1.7 0 0 1-.65-.043 1.15 1.15 0 0 1-.505-.276.6.6 0 0 1-.19-.417c0-.199.119-.39.33-.53s.497-.22.795-.22" style="fill:#c3e88d;fill:color(display-p3 .7647 .9098 .5529);fill-opacity:1"/></svg>