<svg xmlns="http://www.w3.org/2000/svg" width="24" height="24" fill="none"><g fill="#C792EA"><path d="m21 4.751-.65 10.446L14.136 1.5zm-4.304 13.507L12 21l-4.696-2.742.955-2.369h7.482zM12 6.699l2.46 6.122H9.54zm-8.357 8.498L3 4.75 9.864 1.5z" style="fill:#c792ea;fill:color(display-p3 .7804 .5725 .9176);fill-opacity:1"/><path d="m21 4.751-.65 10.446L14.136 1.5zm-4.304 13.507L12 21l-4.696-2.742.955-2.369h7.482zM12 6.699l2.46 6.122H9.54zm-8.357 8.498L3 4.75 9.864 1.5z" style="fill:#c792ea;fill:color(display-p3 .7804 .5725 .9176);fill-opacity:1"/></g><path fill="#fff" fill-rule="evenodd" d="m24 11.247-3.256 3.468a.903.903 0 0 1-1.316-1.235l2.096-2.233-2.095-2.227a.902.902 0 1 1 1.315-1.236zM0 11.247l3.256 3.468a.903.903 0 1 0 1.316-1.235l-2.096-2.233L4.571 9.02a.902.902 0 0 0-1.314-1.236z" clip-rule="evenodd" style="fill:#fff;fill-opacity:1"/></svg>