<svg xmlns="http://www.w3.org/2000/svg" width="24" height="24" fill="none"><path fill="#B2CCD6" d="M12 1.5c5.799 0 10.5 4.701 10.5 10.5S17.799 22.5 12 22.5 1.5 17.799 1.5 12 6.201 1.5 12 1.5m2.89 6.136c-1.192 0-2.245.629-2.808.629-.588 0-1.445-.66-2.408-.63-1.257.024-2.408.73-3.053 1.771-.457.746-.636 1.623-.62 2.516.025 1.685.718 3.44 1.534 4.558.629.854 1.34 1.77 2.343 1.77.906 0 1.241-.574 2.425-.574 1.101 0 1.444.574 2.4.574 1.003 0 1.664-.87 2.26-1.731.75-1.002 1.004-1.958 1.037-1.996-.033 0-1.927-.73-2-2.811 0-1.825 1.56-2.648 1.625-2.687-.849-1.242-2.221-1.39-2.735-1.39m.074-3.386c-.767 0-1.658.427-2.22 1.056-.442.52-.914 1.336-.743 2.151.792.093 1.648-.381 2.138-1.01a2.93 2.93 0 0 0 .825-2.197" style="fill:#b2ccd6;fill:color(display-p3 .698 .8 .8392);fill-opacity:1"/></svg>