<svg xmlns="http://www.w3.org/2000/svg" width="24" height="24" fill="none"><path stroke="#80CBC4" stroke-width="1.016" d="M7.65 7.911c-2.457-.195-4.522 2.714-3.514 4.962.982 2.44 4.677 3.101 6.435 1.147 1.703-1.669 2.36-4.238 4.445-5.556 2.118-1.447 5.53-.08 5.943 2.492.403 2.462-2.25 4.858-4.651 4.134-1.776-.4-3.05-1.917-3.773-3.514-.892-1.525-2.057-3.153-3.877-3.566a4.4 4.4 0 0 0-.987-.102z" style="stroke:#80cbc4;stroke:color(display-p3 .502 .7961 .7686);stroke-opacity:1"/><path stroke="#80CBC4" stroke-width=".431" d="M6.203 11.4h3.101" style="stroke:#80cbc4;stroke:color(display-p3 .502 .7961 .7686);stroke-opacity:1"/><path stroke="#80CBC4" stroke-width=".551" d="M16.98 10.108v2.584M15.713 11.4h2.584z" style="stroke:#80cbc4;stroke:color(display-p3 .502 .7961 .7686);stroke-opacity:1"/></svg>