<svg xmlns="http://www.w3.org/2000/svg" width="24" height="24" fill="none"><g fill-rule="evenodd" clip-rule="evenodd"><path fill="#F78C6C" d="M3.572 20.55V3.448H6.34v1.71H4.956v13.686H6.34v1.708zM17.66 5.158v-1.71l2.768.001v17.105H17.66v-1.71h1.386V5.157z" style="fill:#f78c6c;fill:color(display-p3 .9686 .549 .4235);fill-opacity:1"/><path fill="#FFCB6B" d="M13.535 5.645q.442-.183 1.054-.184.64 0 1.073.191.435.188.711.561.273.368.397.906.123.535.124 1.239 0 .703-.127 1.26-.127.553-.397.91a1.74 1.74 0 0 1-.71.549q-.434.184-1.07.184-.626 0-1.067-.189a1.7 1.7 0 0 1-.714-.553 2.35 2.35 0 0 1-.401-.909 5.7 5.7 0 0 1-.123-1.25q0-.725.127-1.26.128-.535.404-.906.277-.366.719-.55m-4.633.289a.8.8 0 0 0 .112-.374h1.238v4.611H11.4v.973H7.682v-.973h1.175V7.227H7.682v-.909q.27 0 .517-.03a1.4 1.4 0 0 0 .411-.112.7.7 0 0 0 .292-.242m5.688.556q.46.001.658.431.197.427.197 1.437 0 1-.202 1.436-.201.438-.654.437-.452 0-.655-.437-.202-.438-.202-1.43 0-1.016.2-1.443.196-.43.658-.43m-6.234 6.433q.441-.182 1.055-.182.64 0 1.074.19.434.188.71.561.273.366.397.905.124.535.123 1.24 0 .702-.127 1.26-.127.553-.397.909a1.74 1.74 0 0 1-.71.55q-.435.182-1.07.183-.625 0-1.066-.187a1.7 1.7 0 0 1-.715-.553 2.4 2.4 0 0 1-.401-.91 5.7 5.7 0 0 1-.123-1.25q0-.725.127-1.26.128-.534.404-.905.277-.367.719-.55m5.837-.085h1.237v4.612h1.15v.973H12.86v-.973h1.175v-2.943H12.86v-.91q.27 0 .516-.03.247-.034.412-.112a.7.7 0 0 0 .292-.243.8.8 0 0 0 .112-.374M10.069 14.2q-.199-.43-.658-.431-.46 0-.659.43-.197.428-.197 1.445-.001.99.2 1.429.203.438.656.437.452 0 .655-.437.201-.437.2-1.437 0-1.01-.197-1.436" style="fill:#ffcb6b;fill:color(display-p3 1 .7961 .4196);fill-opacity:1"/></g></svg>