<svg xmlns="http://www.w3.org/2000/svg" width="24" height="24" fill="none"><path fill="#4775D1" d="M4 4v16h16V4h-6.15c0 .937-.693 1.875-1.837 1.875A1.844 1.844 0 0 1 10.156 4zm12.136 7.298q.707 0 1.213.275.517.264.887.907l-1.15.739q-.19-.338-.412-.486a.95.95 0 0 0-.538-.148q-.327 0-.517.18a.6.6 0 0 0-.19.454q0 .337.211.516.222.17.697.38l.369.159q.474.2.833.422.37.21.612.485.254.264.38.612.138.337.138.802a2 2 0 0 1-.19.887q-.18.38-.507.643a2.3 2.3 0 0 1-.78.401q-.444.127-.971.127a3.5 3.5 0 0 1-.94-.116 3 3 0 0 1-.76-.317 2.6 2.6 0 0 1-.59-.475 3 3 0 0 1-.402-.601l1.204-.697q.243.39.57.644.337.252.887.253.463 0 .727-.2a.64.64 0 0 0 .275-.529q0-.379-.285-.569a5.3 5.3 0 0 0-.792-.412l-.369-.158a5.4 5.4 0 0 1-.728-.37 2.4 2.4 0 0 1-.56-.463 1.9 1.9 0 0 1-.358-.602 2.3 2.3 0 0 1-.127-.792q0-.41.148-.77a1.9 1.9 0 0 1 .433-.622q.285-.264.686-.412.4-.148.897-.148zm-5.864.021h.127l3.281 7.239h-1.551l-.338-.813H8.88l-.338.813H7.117zm.042 2.659q-.065.233-.137.465l-.137.432a5 5 0 0 1-.148.39l-.517 1.246h1.889l-.517-1.246q-.084-.21-.158-.422-.15-.428-.275-.865" style="fill:#4775d1;fill:color(display-p3 .28 .46 .82);fill-opacity:1"/></svg>