<svg xmlns="http://www.w3.org/2000/svg" width="24" height="24" fill="none"><path fill="#935EDD" d="M9.186 20.773c-.909-.863-1.174-2.676-.795-3.99.656.829 1.565 1.091 2.507 1.24 1.454.228 2.882.142 4.232-.548.155-.08.298-.185.467-.291.126.382.16.768.115 1.16-.108.957-.566 1.695-1.294 2.255-.291.224-.6.424-.9.636-.924.649-1.174 1.41-.827 2.517l.035.12a2.46 2.46 0 0 1-1.08-.96 2.77 2.77 0 0 1-.416-1.464c-.003-.258-.003-.519-.037-.773-.081-.621-.361-.899-.89-.915-.542-.016-.97.332-1.084.88q-.015.061-.034.133" style="fill:#935edd;fill:color(display-p3 .5755 .3673 .8671);fill-opacity:1"/><path fill="#B2CCD6" d="M4.617 17.186s2.484-1.271 4.975-1.271l1.878-6.106c.07-.296.275-.496.507-.496s.437.2.508.496l1.878 6.106c2.95 0 4.974 1.27 4.974 1.27L15.11 5.088c-.121-.357-.325-.587-.601-.587H9.446c-.276 0-.472.23-.601.587-.01.024-4.228 12.099-4.228 12.099" style="fill:#b2ccd6;fill:color(display-p3 .698 .8 .8392);fill-opacity:1"/></svg>