<svg xmlns="http://www.w3.org/2000/svg" width="24" height="24" fill="none"><path fill="url(#a)" d="M9.25 4.227h4.883L9.065 19.243a.78.78 0 0 1-.737.53h-3.8a.776.776 0 0 1-.736-1.026l4.721-13.99a.78.78 0 0 1 .738-.53"/><path fill="#0078D4" d="M16.345 14.299H8.603a.358.358 0 0 0-.244.62l4.975 4.643c.144.136.335.21.533.21h4.384z" style="fill:#0078d4;fill:color(display-p3 0 .4706 .8314);fill-opacity:1"/><path fill="url(#b)" d="M9.25 4.227a.77.77 0 0 0-.738.54L3.797 18.734a.776.776 0 0 0 .733 1.039h3.898a.83.83 0 0 0 .639-.544l.94-2.77 3.358 3.131c.141.117.317.181.5.183h4.368l-1.916-5.474-5.584.001 3.418-10.073z"/><path fill="#4775D1" d="M15.487 4.756a.78.78 0 0 0-.737-.53H9.309a.78.78 0 0 1 .737.53l4.722 13.99a.778.778 0 0 1-.737 1.027h5.441a.776.776 0 0 0 .736-1.026z" style="fill:#4775d1;fill:color(display-p3 .28 .46 .82);fill-opacity:1"/><path fill="#89DDFF" d="M15.487 4.756a.78.78 0 0 0-.737-.53H9.309a.78.78 0 0 1 .737.53l4.722 13.99a.778.778 0 0 1-.737 1.027h5.441a.776.776 0 0 0 .736-1.026z" opacity=".4" style="fill:#89ddff;fill:color(display-p3 .5373 .8667 1);fill-opacity:1"/><defs><linearGradient id="a" x1="11.03" x2="5.96" y1="5.379" y2="20.358" gradientUnits="userSpaceOnUse"><stop stop-color="#114A8B" style="stop-color:#114a8b;stop-color:color(display-p3 .0667 .2902 .5451);stop-opacity:1"/><stop offset="1" stop-color="#0669BC" style="stop-color:#0669bc;stop-color:color(display-p3 .0235 .4118 .7373);stop-opacity:1"/></linearGradient><linearGradient id="b" x1="12.614" x2="11.441" y1="12.359" y2="12.756" gradientUnits="userSpaceOnUse"><stop stop-opacity=".3" style="stop-color:black;stop-opacity:.3"/><stop offset=".071" stop-opacity=".2" style="stop-color:black;stop-opacity:.2"/><stop offset=".321" stop-opacity=".1" style="stop-color:black;stop-opacity:.1"/><stop offset=".623" stop-opacity=".05" style="stop-color:black;stop-opacity:.05"/><stop offset="1" stop-opacity="0" style="stop-color:none;stop-opacity:0"/></linearGradient></defs></svg>