<svg xmlns="http://www.w3.org/2000/svg" width="24" height="24" fill="none"><path fill="#FFCB6B" fill-rule="evenodd" d="M16.733 10.523c-.022-.136.51.127-.265-.722zm.934.755q-.035-.204-1.199-1.477-.02-.249.82-.714l1.582-1.376q.53-.675.63-2.163l-.02-.232c-.062-.7-.575-1.264-1.54-1.7q-.854-.572-3.076-.616-1.843.156-4.802 1.288a19 19 0 0 1-1.853 1.157l.01.121a.5.5 0 0 0 .185-.073q.12-.007.13.101l.123-.068.061-.002.002.056q.008.086-1.294.996l.067.107-.061.004-.133-.047q.005.055-.185.07l.008.067.145.156a.5.5 0 0 1-.196-.039q-.421.037-.828.603l.07.107q.353-.32.411-.325l.015.176a.6.6 0 0 0-.184.07l.149.222c.283-.302.6-.564.942-.782.17.042.259.097.263.155l.13-.012q1.398-1.021 2.767-1.478l.01.121q-.254.376-.346.385a.38.38 0 0 0 .09.226c.014.153-.402 1.19-1.242 3.102-1.91 4.449-3.513 7.74-4.818 9.869a.4.4 0 0 0 .075.171c.323-.074.524-.153.61-.227l.07-.009.01.122.12-.01.122-.07q.005.057.127.047l.012.121c.01.12-.06.298-.204.544q-.195.218-.418.922l.004.056.118-.012q.78-.861 1.185-1.69c1.517-.437 2.67-.868 3.474-1.293.806-.067 1.42-.28 1.837-.625l-.006-.065-.304.089-.07.008-.005-.064c.591-.09 1-.218 1.227-.397q1.728-1.316 2.612-1.867 1.816-1.319 2.355-2.566zM6.977 7.197l-.06.006-.011-.17.249-.032.004.087c-.041.006-.102.038-.182.109M5.76 19.164a.8.8 0 0 0-.385-.077l-.017-.175q-.008-.105.12-.131.122-.01.133.163.315-.381.347-.387l.134.054q-.065.534-.332.553M18.764 5.715c-.061.008-.183-.181-.36-.556l-.011-.111q.173-.016.36.558zm-.173-1.33-.05.117-1.765-.728q1.767.057 1.815.61m-7.457 6.387-.25.033-.01-.17.25-.032zm-.203-3.862.063-.002.014.176q-.086.005-.228.252l-.01-.121c.112-.131.169-.232.16-.305m-.435 1.222.055.234-.15.002-.053-.232zm-.363.437.12-.012q-.016.292-.162.305l-.062.004q.116-.196.104-.297m-.206.607.07-.008.004.056-.112.188-.12.01-.003-.059q.178-.013.161-.187m-.12.546-.061.293-.102.004-.04-.29zM7.7 15.417q-.12.6-.257.608l-.002-.056q-.032-.296.259-.552m-.285.794.008.064c.012.085-.053.135-.196.14l-.006-.063c-.012-.075.05-.121.194-.141m-.196 1.66.19-.023.006.088a.4.4 0 0 0-.184.099l-.118.014a.16.16 0 0 1 .106-.177m5.346-1.638q-1.582.774-1.86 1.048-1.712.587-1.698.732c-1.013.395-1.682.69-2.002.868q-.115.013-.33-.084c-.017-.204.077-.367.275-.5q.265-.023.51.079c.187-.095.515-.204.982-.319l-.012-.119-.375.03q.07-.096 1.086-.503l.188-.017.004.057c-.322.03-.5.12-.538.288.006.077.05.107.13.1.243-.148.361-.239.357-.263q.689-.131 3.803-1.967l.01.108c.004.057-.173.206-.53.462m-3.185 1.036c.304-.024.563-.147.779-.357q.132-.012.139.101-.226.02-.849.369l-.063.004zm5.14-3.902-1.594 1.25c-1.185.767-1.819 1.154-1.915 1.158-1.884 1.026-3.058 1.559-3.513 1.597l-.067.008c.057-.21.893-1.907 2.52-5.098.714-.062 1.841-.389 3.376-.99l.375-.032q1.166-.097 1.742.44l.02.232q-.428 1.225-.944 1.435m-3.113-1.698.255-.054.004.145-.257.057zm3.598-.636.19-.019q.26.123.269.218l.004.057q-.248.021-.463-.256m.51-2.867q-.248.294-1.364 1.002c-.247.022-1.16.37-2.742 1.058a.5.5 0 0 0-.253-.044l-.01-.111q-.029-.335.308-.85.181-.963.403-1.1l1.317-2.93q-.018-.272.847-.417l.187-.018.014.167a27 27 0 0 1 1.059-.147c1.048-.089 1.592.123 1.635.625l.12-.01-.024-.297.128-.01q.462.252.495.609.022.247-.267.613-.121.008-.134-.166l-.129.013-.03.356c-.53.784-.918 1.188-1.154 1.21-.218.296-.35.443-.406.447m.81 2.052q-.163-.108-.262-.1l-.012-.176.119-.01.262.153q.017.123-.108.133m.837.982c.119.046.19.097.204.143l-.059.014.004.004a.1.1 0 0 0-.036.006l-.09.069zm.082.613-.012-.115.19-.087.014.113z" clip-rule="evenodd" style="fill:#ffcb6b;fill:color(display-p3 1 .7961 .4196);fill-opacity:1"/></svg>