<svg xmlns="http://www.w3.org/2000/svg" width="24" height="24" fill="none"><path fill="#C3E88D" fill-rule="evenodd" d="M7.279 13.791c.433-.65 1.13-1.191 2.021-1.191s1.588.542 2.021 1.191c.438.656.679 1.51.679 2.409s-.241 1.753-.679 2.409c-.433.65-1.13 1.191-2.021 1.191s-1.588-.542-2.021-1.191c-.438-.656-.679-1.51-.679-2.409s.241-1.753.679-2.409m1.497.999c-.214.321-.376.817-.376 1.41s.162 1.089.376 1.41c.219.328.422.39.524.39s.305-.062.524-.39c.214-.321.376-.817.376-1.41s-.162-1.089-.376-1.41c-.219-.328-.422-.39-.524-.39s-.305.062-.524.39M9.53 4.23a.9.9 0 0 1 .67.87v5.4a.9.9 0 1 1-1.8 0V7.045a3.7 3.7 0 0 1-.862.278.9.9 0 1 1-.338-1.768c.44-.084.773-.31 1.006-.531.118-.113.23-.238.316-.377A.9.9 0 0 1 9.53 4.23M12.679 5.391c.433-.65 1.13-1.191 2.021-1.191s1.588.542 2.021 1.191c.438.656.679 1.51.679 2.409s-.241 1.753-.679 2.409c-.433.649-1.13 1.191-2.021 1.191s-1.588-.542-2.021-1.191C12.24 9.553 12 8.699 12 7.8s.241-1.753.679-2.409m1.497.999c-.214.321-.376.817-.376 1.41s.162 1.089.376 1.41c.219.328.422.39.524.39s.305-.062.524-.39c.214-.321.376-.817.376-1.41s-.162-1.089-.376-1.41c-.219-.328-.422-.39-.524-.39s-.305.062-.524.39M15.53 12.63a.9.9 0 0 1 .67.87v5.4a.9.9 0 0 1-1.8 0v-3.455a3.7 3.7 0 0 1-.862.278.9.9 0 0 1-.338-1.768c.44-.084.773-.31 1.006-.531.118-.113.23-.238.316-.377a.9.9 0 0 1 1.008-.417" clip-rule="evenodd" style="fill:#c3e88d;fill:color(display-p3 .7647 .9098 .5529);fill-opacity:1"/><path fill="#AEE33E" fill-rule="evenodd" d="M5.1 4.8a.3.3 0 0 0-.3.3v5.7c0 .446-.14.86-.377 1.2.238.34.377.754.377 1.2v5.7a.3.3 0 0 0 .3.3.9.9 0 0 1 0 1.8A2.1 2.1 0 0 1 3 18.9v-5.7a.3.3 0 0 0-.3-.3.9.9 0 1 1 0-1.8.3.3 0 0 0 .3-.3V5.1C3 3.94 3.94 3 5.1 3a.9.9 0 0 1 0 1.8M18 3.9a.9.9 0 0 1 .9-.9c1.16 0 2.1.94 2.1 2.1v5.7a.3.3 0 0 0 .3.3.9.9 0 0 1 0 1.8.3.3 0 0 0-.3.3v5.7a2.1 2.1 0 0 1-2.1 2.1.9.9 0 0 1 0-1.8.3.3 0 0 0 .3-.3v-5.7c0-.446.14-.86.377-1.2a2.1 2.1 0 0 1-.377-1.2V5.1a.3.3 0 0 0-.3-.3.9.9 0 0 1-.9-.9" clip-rule="evenodd" opacity=".4" style="fill:#aee33e;fill:color(display-p3 .6824 .8902 .2431);fill-opacity:1"/></svg>