<svg xmlns="http://www.w3.org/2000/svg" width="24" height="24" fill="none"><mask id="a" width="21" height="21" x="2" y=".5" fill="#000" maskUnits="userSpaceOnUse"><path fill="#fff" d="M2 .5h21v21H2z"/><path d="M22.488 5.912a.3.3 0 0 1 .012.081v4.184c0 .11-.061.211-.158.265l-3.616 2.023v4.009a.3.3 0 0 1-.043.153.3.3 0 0 1-.114.112l-7.55 4.22a.3.3 0 0 1-.056.022l-.02.008a.3.3 0 0 1-.16 0q-.014-.003-.025-.01-.027-.008-.052-.02l-7.548-4.22A.299.299 0 0 1 3 16.474V3.917q0-.04.012-.08.005-.013.011-.026a.3.3 0 0 1 .02-.047q.007-.014.019-.027L3.09 3.7l.03-.021q.018-.015.035-.028L6.93 1.54a.32.32 0 0 1 .313 0l3.774 2.11h.002l.034.027.031.022c.011.011.017.024.028.036.007.01.017.017.02.027l.021.047q.005.014.01.026a.3.3 0 0 1 .013.08v7.842L14.322 10V5.99q0-.04.01-.079.006-.012.011-.026l.02-.048c.006-.01.016-.016.021-.026q.014-.02.028-.035.015-.014.031-.023.017-.014.034-.026l3.776-2.111a.32.32 0 0 1 .314 0l3.775 2.11.035.026.03.023q.015.017.029.036.01.014.02.026.013.025.02.05.008.011.012.025m-.619 4.089V6.52l-3.145 1.758v3.48zm-3.772 6.297v-3.484l-6.92 3.838v3.514zM3.627 4.445v11.853l6.92 3.868v-3.514L6.93 14.665l-.001-.002h-.002c-.012-.008-.02-.017-.033-.025l-.03-.022v-.002q-.015-.014-.026-.032-.014-.014-.024-.03h-.001q-.01-.017-.017-.038-.009-.018-.015-.035l-.007-.046q-.004-.017-.005-.033V6.204zm3.46-2.287L3.942 3.917l3.145 1.758 3.143-1.758zm3.461 9.953V4.445L7.402 6.204v7.666zm7.862-7.877-3.145 1.758 3.145 1.757 3.145-1.758zm-.314 4.045-1.824-1.02-1.322-.738v3.48l3.147 1.759zm-7.236 7.844 6.918-3.835-3.143-1.758-6.912 3.867z"/></mask><path fill="#FA6068" d="M22.488 5.912a.3.3 0 0 1 .012.081v4.184c0 .11-.061.211-.158.265l-3.616 2.023v4.009a.3.3 0 0 1-.043.153.3.3 0 0 1-.114.112l-7.55 4.22a.3.3 0 0 1-.056.022l-.02.008a.3.3 0 0 1-.16 0q-.014-.003-.025-.01-.027-.008-.052-.02l-7.548-4.22A.299.299 0 0 1 3 16.474V3.917q0-.04.012-.08.005-.013.011-.026a.3.3 0 0 1 .02-.047q.007-.014.019-.027L3.09 3.7l.03-.021q.018-.015.035-.028L6.93 1.54a.32.32 0 0 1 .313 0l3.774 2.11h.002l.034.027.031.022c.011.011.017.024.028.036.007.01.017.017.02.027l.021.047q.005.014.01.026a.3.3 0 0 1 .013.08v7.842L14.322 10V5.99q0-.04.01-.079.006-.012.011-.026l.02-.048c.006-.01.016-.016.021-.026q.014-.02.028-.035.015-.014.031-.023.017-.014.034-.026l3.776-2.111a.32.32 0 0 1 .314 0l3.775 2.11.035.026.03.023q.015.017.029.036.01.014.02.026.013.025.02.05.008.011.012.025m-.619 4.089V6.52l-3.145 1.758v3.48zm-3.772 6.297v-3.484l-6.92 3.838v3.514zM3.627 4.445v11.853l6.92 3.868v-3.514L6.93 14.665l-.001-.002h-.002c-.012-.008-.02-.017-.033-.025l-.03-.022v-.002q-.015-.014-.026-.032-.014-.014-.024-.03h-.001q-.01-.017-.017-.038-.009-.018-.015-.035l-.007-.046q-.004-.017-.005-.033V6.204zm3.46-2.287L3.942 3.917l3.145 1.758 3.143-1.758zm3.461 9.953V4.445L7.402 6.204v7.666zm7.862-7.877-3.145 1.758 3.145 1.757 3.145-1.758zm-.314 4.045-1.824-1.02-1.322-.738v3.48l3.147 1.759zm-7.236 7.844 6.918-3.835-3.143-1.758-6.912 3.867z" style="fill:#fa6068;fill:color(display-p3 .9803 .3759 .4092);fill-opacity:1"/><path stroke="#FA6068" stroke-width=".4" d="M22.488 5.912a.3.3 0 0 1 .012.081v4.184c0 .11-.061.211-.158.265l-3.616 2.023v4.009a.3.3 0 0 1-.043.153.3.3 0 0 1-.114.112l-7.55 4.22a.3.3 0 0 1-.056.022l-.02.008a.3.3 0 0 1-.16 0q-.014-.003-.025-.01-.027-.008-.052-.02l-7.548-4.22A.299.299 0 0 1 3 16.474V3.917q0-.04.012-.08.005-.013.011-.026a.3.3 0 0 1 .02-.047q.007-.014.019-.027L3.09 3.7l.03-.021q.018-.015.035-.028L6.93 1.54a.32.32 0 0 1 .313 0l3.774 2.11h.002l.034.027.031.022c.011.011.017.024.028.036.007.01.017.017.02.027l.021.047q.005.014.01.026a.3.3 0 0 1 .013.08v7.842L14.322 10V5.99q0-.04.01-.079.006-.012.011-.026l.02-.048c.006-.01.016-.016.021-.026q.014-.02.028-.035.015-.014.031-.023.017-.014.034-.026l3.776-2.111a.32.32 0 0 1 .314 0l3.775 2.11.035.026.03.023q.015.017.029.036.01.014.02.026.013.025.02.05.008.011.012.025Zm-.619 4.089V6.52l-3.145 1.758v3.48zm-3.772 6.297v-3.484l-6.92 3.838v3.514zM3.627 4.445v11.853l6.92 3.868v-3.514L6.93 14.665l-.001-.002h-.002c-.012-.008-.02-.017-.033-.025l-.03-.022v-.002q-.015-.014-.026-.032-.014-.014-.024-.03h-.001q-.01-.017-.017-.038-.009-.018-.015-.035l-.007-.046q-.004-.017-.005-.033V6.204zm3.46-2.287L3.942 3.917l3.145 1.758 3.143-1.758zm3.461 9.953V4.445L7.402 6.204v7.666zm7.862-7.877-3.145 1.758 3.145 1.757 3.145-1.758zm-.314 4.045-1.824-1.02-1.322-.738v3.48l3.147 1.759zm-7.236 7.844 6.918-3.835-3.143-1.758-6.912 3.867z" mask="url(#a)" style="stroke:#fa6068;stroke:color(display-p3 .9803 .3759 .4092);stroke-opacity:1"/></svg>