<svg xmlns="http://www.w3.org/2000/svg" width="24" height="24" fill="none"><path fill="#8472F3" d="M20.56 9.025a10.064 10.064 0 0 1-9.868 8.478 7.3 7.3 0 0 1-1.443-.087 4.42 4.42 0 0 1-3.676-4.168 4.293 4.293 0 0 1 8.584-.06c.018.711-.29 1.335-.924 1.353-.677 0-.994-.483-.994-1.133v-1.809a1.11 1.11 0 0 0-1.099-1.109H9.624a2.64 2.64 0 1 0 1.95 4.398l.052-.08.053.089a1.87 1.87 0 0 0 1.592.758 2.104 2.104 0 0 0 1.95-2.2c.005-.47-.048-.94-.157-1.398a5.356 5.356 0 0 0-10.59 1.16 5.423 5.423 0 0 0 5.285 5.356s.397.036.845.026a11.43 11.43 0 0 0 6.13-1.829c.027-.018.053.018.035.045a9 9 0 0 1-7.01 2.866 6.326 6.326 0 0 1-6.437-6.49A6.55 6.55 0 0 1 5.95 7.949a6.4 6.4 0 0 1 3.783-1.25h2.034a5.73 5.73 0 0 0 4.224-1.864.08.08 0 0 1 .14.062 5.74 5.74 0 0 1-.887 2.567.08.08 0 0 0 .006.086.08.08 0 0 0 .081.03 6.15 6.15 0 0 0 4.278-3.528.108.108 0 0 1 .185 0 7.8 7.8 0 0 1 .765 4.973M9.754 11.576a1.584 1.584 0 1 0 1.583 1.583v-1.478a.114.114 0 0 0-.109-.108z" style="fill:#8472f3;fill:color(display-p3 .5162 .4471 .9529);fill-opacity:1"/></svg>