<svg xmlns="http://www.w3.org/2000/svg" width="24" height="24" fill="none"><g fill="#FFCB6B"><path fill-rule="evenodd" d="M14.527 9.384c1.582.168 6.598.748 7.6 1.675.52.481.757 2.38-1.097 2.503.218.768-1.106 1.402-2.26 1.113-.117.584-1.597.96-2.547.243-.181.591-1.673.46-2.262 0 .297.435 1.06 1.696 1.132 2.048.097.477-.121 1.077-.565 1.1-.017.619-.817 1.138-1.72.954-.47.67-1.332.518-1.8.267-.366.385-1.2.064-1.38-.307-.109-.222-.411-1.017-.564-1.418l-.051-.135c-.145.462-.76.978-1.476.978C5.9 18.405 3 14.823 3 10.735 3 5.873 6.943 3 10.56 3c2.858 0 3.947 2.262 4.156 3.074q.438.072.88.233c.784-1.731 3.123-2.894 4.749-2.438-.968.99-1.073 1.582-1.172 2.144q-.018.109-.04.216l-.029.16c-.138.807-.488 2.841-3.446 2.763a7 7 0 0 1-.246-.554 7 7 0 0 0-.69.246q-.08.279-.195.54m-10.692 1.35c0 .94.197 1.822.55 2.616 1.054 2.376 3.499 3.962 6.206 3.962 2.28 0 3.29-2.24 3.069-2.833a9 9 0 0 0-.123-.296l.05.105-.001-.003c.61.64 2.153.573 2.137-.006 1.231.603 2.315.082 2.047-.497 1.217.39 2.09-.318 1.64-.908.833.187 1.385-.082 1.628-.463-.365-.09-1.528-.314-2.742-.54a135 135 0 0 0-3.282-.58c.207.01.55.033.98.065 1.408.104 3.737.306 5.18.5-.092-.451-.34-.58-1.124-.783-1.363-.332-4.146-.818-6.068-.937a2.7 2.7 0 0 1-.538.563c-.622.5-1.703.927-3.392.927 1.504-.328 2.799-1.05 3.457-2.103-.463-.71-.965-2.278.307-3.519-.196-.604-1.148-2.201-3.255-2.201-3.678 0-6.726 2.962-6.726 6.932m13.13-3.724c.4-.762.901-1.595 1.535-2.11-.697.27-1.386 1.08-1.793 1.944a6 6 0 0 0-.63-.34c.567-1.166 1.887-2.141 3.342-2.217-.52.454-.665 1.17-.808 1.88-.124.62-.248 1.237-.622 1.674-.23-.222-.756-.65-1.024-.83m-.63 1.242c.001-.03.012-.255.034-.357a3.5 3.5 0 0 0-.584-.074c-.014.219.095.59.203.815.74-.015 1.274-.228 1.589-.424-.268-.12-.725-.227-1.073-.291l-.035.07c-.045.091-.107.217-.133.26m-2.51.47-.093.05c-.448-.951-.063-1.85.293-2.266 1.594.003 2.882 1.057 3.275 1.406-.488-.184-1.108-.3-1.542-.3-.28 0-.525.08-.778.162-.404.133-.826.27-1.436.094.396.393 1.041.214 1.495.088q.126-.037.23-.06.006.106.022.213c-.583.134-1.191.464-1.466.614" clip-rule="evenodd" style="fill:#ffcb6b;fill:color(display-p3 1 .7961 .4196);fill-opacity:1"/><path d="M10.66 7.538c0 .683-.57 1.237-1.276 1.237-.705 0-1.277-.554-1.277-1.238S8.68 6.3 9.384 6.3s1.277.554 1.277 1.237" style="fill:#ffcb6b;fill:color(display-p3 1 .7961 .4196);fill-opacity:1"/></g></svg>