<svg xmlns="http://www.w3.org/2000/svg" width="24" height="24" fill="none"><g fill-rule="evenodd" clip-rule="evenodd"><path fill="#FFCB6B" d="M12 20.873a8.873 8.873 0 1 0 0-17.746 8.873 8.873 0 0 0 0 17.746" style="fill:#ffcb6b;fill:color(display-p3 1 .7961 .4196);fill-opacity:1"/><path fill="#000" d="M11.662 5.944a5.6 5.6 0 0 1-.38-1.514c-.725.513-1.316 1.26-1.75 2.114a5.6 5.6 0 0 1-.905-1.286c-.492.739-.776 1.646-.876 2.596a5.6 5.6 0 0 1-1.277-.863c-.195.865-.136 1.813.111 2.735a5.6 5.6 0 0 1-1.534-.35c.128.878.524 1.743 1.086 2.516-.441.131-.932.203-1.526.214.436.776 1.118 1.442 1.923 1.964-.371.29-.813.54-1.378.769.682.566 1.553.943 2.487 1.142-.24.392-.557.774-.99 1.178h-.001c.838.284 1.785.324 2.727.176a5.6 5.6 0 0 1-.507 1.477c.887-.036 1.787-.339 2.616-.817.088.46.11.965.058 1.57 1.787-.77 3.176-2.767 3.665-4.742.132-.357.202-.873.202-1.584q0-.285-.01-.555c1.445-.245 2.496-.743 3.1-1.097.222-.13.446-.32.519-.476a.76.76 0 1 0-1.318-.676c-1.175-.612-2.522-1.852-2.193-3.644.245-.34.588-.68 1.06-1.038-.883-.103-1.822.056-2.717.4a5.6 5.6 0 0 1 .19-1.545c-.858.218-1.673.7-2.382 1.336m3.73 6.485q.243-.042.482-.096a8.7 8.7 0 0 0 2.502-.965q.102-.06.191-.13c.052-.079.05-.136.01-.184-.717-.183-1.62-.675-2.27-1.31-.71-.693-1.106-1.514-1.1-2.425-.361.818-.249 1.676-.082 2.79a.317.317 0 0 0 .042-.62.507.507 0 1 1 .014.994c.085.573.171 1.213.21 1.946" style="fill:#000;fill-opacity:1"/><path fill="#fff" d="M15.4 12.315a7 7 0 0 1-.033-.374 25 25 0 0 0-.154-1.326l-.017-.11.142-.016a.517.517 0 0 0 .356-.81.68.68 0 0 0-.427-.215h-.102l.109.102c.08.076.108.128.108.2 0 .128-.07.255-.164.298-.072.034-.078.03-.094-.062-.128-.73-.17-1.594-.096-2.012.026-.15.075-.35.108-.441l.06-.167.002.136c.001.076.028.26.06.41.206.999.885 1.872 1.978 2.547.29.178.802.422 1.09.518.122.041.235.088.251.103.052.053-.008.127-.198.248-.582.367-1.518.737-2.39.943-.619.147-.57.145-.589.028" style="fill:#fff;fill-opacity:1"/></g></svg>