<svg xmlns="http://www.w3.org/2000/svg" width="24" height="24" fill="none"><path fill="#B2CCD6" d="M11.975 19.924c4.956 0 8.974-3.244 8.974-7.245 0-2.481-1.538-4.673-3.903-5.973-.962-.534-1.718-1.014-2.347-1.413-1.185-.753-1.917-1.218-2.724-1.218-.821 0-1.746.588-2.967 1.362q-1.032.67-2.106 1.27C4.538 8.006 3 10.196 3 12.678c0 4 4.018 7.245 8.975 7.245M10.927 6.552c.25-.568.376-1.182.373-1.802 0-.108.15-.14.171-.021.492 2.08-.675 3.112-1.538 3.457-.093.036-.15-.09-.077-.156.458-.41.823-.915 1.07-1.478m1.539-.077a4.34 4.34 0 0 0-.585-1.725v-.01c-.051-.093.064-.198.139-.13 1.467 1.579.977 3.041.415 3.778-.062.076-.172-.002-.141-.095a4.4 4.4 0 0 0 .172-1.818m1.328-.419a4.3 4.3 0 0 0-1.205-1.35v-.011c-.084-.064-.018-.206.085-.164 1.94.813 2.074 2.379 1.838 3.297a.087.087 0 0 1-.097.067.08.08 0 0 1-.053-.034.1.1 0 0 1-.017-.062 4.4 4.4 0 0 0-.551-1.743m-3.804.42c-.462.407-.96.568-1.543.747-.087 0-.146-.058-.117-.135 1.31-.68 1.777-1.234 2.243-2.078 0 0 .116-.088.14.064 0 .227-.26.993-.723 1.401m3.698 8.403a2.2 2.2 0 0 1-.701 1.162 1.62 1.62 0 0 1-.962.463 1.62 1.62 0 0 1-.992-.463 2.2 2.2 0 0 1-.692-1.162.18.18 0 0 1 .048-.148.2.2 0 0 1 .066-.042q.038-.014.078-.01h2.966a.17.17 0 0 1 .182.121q.012.04.007.08m-4.082-1.627a1.39 1.39 0 0 1-1.783-.183 1.48 1.48 0 0 1-.175-1.83 1.4 1.4 0 0 1 .635-.534 1.38 1.38 0 0 1 1.54.315 1.485 1.485 0 0 1 .305 1.581c-.106.264-.288.49-.522.65m6.353.003a1.39 1.39 0 0 1-1.78-.189 1.47 1.47 0 0 1-.41-1.021c0-.287.083-.569.24-.807.155-.239.376-.425.635-.533a1.38 1.38 0 0 1 1.541.318 1.485 1.485 0 0 1 .3 1.583c-.108.264-.29.49-.526.65" style="fill:#b2ccd6;fill:color(display-p3 .698 .8 .8392);fill-opacity:1"/></svg>