<svg xmlns="http://www.w3.org/2000/svg" width="24" height="24" fill="none"><path fill="#4775D1" fill-rule="evenodd" d="m17.266 17.104.519 3.137c-.329.18-.86.348-1.569.502-.72.167-1.568.257-2.542.257-2.795-.051-4.895-.9-6.299-2.52Q5.25 16.03 5.25 12.27c.063-2.97.91-5.246 2.53-6.84C9.45 3.823 11.524 3 14.028 3c.949 0 1.771.09 2.454.244.683.155 1.19.322 1.518.515l-.734 3.201-1.34-.437c-.506-.129-1.088-.193-1.759-.193-1.467-.013-2.681.463-3.63 1.414-.961.939-1.454 2.379-1.492 4.295 0 1.748.468 3.111 1.366 4.114.898.99 2.163 1.504 3.782 1.517l1.682-.154c.544-.103 1-.245 1.391-.412" clip-rule="evenodd" style="fill:#4775d1;fill:color(display-p3 .28 .46 .82);fill-opacity:1"/></svg>