<svg xmlns="http://www.w3.org/2000/svg" width="24" height="24" fill="none"><path fill="#80CBC4" d="m7.737 2.856 6.394-1.18c.526-.097 1.214.17 1.536.597l6.25 8.293c.322.427.157.852-.37.95l-6.394 1.18c-.525.096-1.213-.171-1.535-.599l-6.25-8.292c-.322-.427-.157-.852.37-.95" style="fill:#80cbc4;fill:color(display-p3 .502 .7961 .7686);fill-opacity:1"/><path fill="#935EDD" d="m14.674 13.42 6.741-1.17c.458-.08.572.206.256.637l-4.588 6.25c-.316.43-.944.844-1.402.924l-6.74 1.17c-.459.079-.573-.206-.256-.638l4.587-6.249c.316-.431.944-.845 1.402-.925" style="fill:#935edd;fill:color(display-p3 .5755 .3673 .8671);fill-opacity:1"/><path fill="#4775D1" fill-rule="evenodd" d="M4.755 10.878c-.105.277-2.068 1.83-2.025 2.146.043.317 2.345 1.261 2.52 1.497.176.237.83 3.279 1.071 3.345.24.065 1.481-2.461 1.695-2.592.214-.13 2.582.197 2.688-.08.105-.276-1.43-2.78-1.474-3.098-.043-.317.766-3.157.59-3.393-.175-.236-2.365.742-2.605.676S5.107 7.231 4.893 7.361s-.032 3.24-.138 3.517" clip-rule="evenodd" style="fill:#4775d1;fill:color(display-p3 .28 .46 .82);fill-opacity:1"/></svg>