<svg xmlns="http://www.w3.org/2000/svg" width="24" height="24" fill="none"><path fill="#FFCB6B" d="m15.15 15.3-3.9-2.925V6.75h1.5v4.875l3.3 2.475z" style="fill:#ffcb6b;fill:color(display-p3 1 .7961 .4196);fill-opacity:1"/><path fill="#89DDFF" d="M12 3.75c-4.549 0-8.25 3.701-8.25 8.25v.75h1.5V12A6.76 6.76 0 0 1 12 5.25 6.76 6.76 0 0 1 18.75 12 6.76 6.76 0 0 1 12 18.75a6.72 6.72 0 0 1-5.019-2.25H9.75V15H4.5v5.25H6v-2.608a8.2 8.2 0 0 0 6 2.608c4.549 0 8.25-3.701 8.25-8.25S16.549 3.75 12 3.75" style="fill:#89ddff;fill:color(display-p3 .5373 .8667 1);fill-opacity:1"/></svg>