<svg xmlns="http://www.w3.org/2000/svg" width="24" height="24" fill="none"><path fill="#AEE33E" d="M16.145 17.458c-.63-.079-1.15-.174-1.606-.335A5.718 5.718 0 0 1 6.791 9.64a5.7 5.7 0 0 1 1.44-1.937 4.2 4.2 0 0 0-.992-.122c-1.677.015-3.448.944-4.185 3.452-.07.364-.053.64-.053.967a9 9 0 0 0 9 9 8.99 8.99 0 0 0 7.362-3.826c-.88.22-1.73.325-2.454.327q-.407 0-.764-.043" style="fill:#aee33e;fill:color(display-p3 .6824 .8902 .2431);fill-opacity:1"/><path fill="#4775D1" d="M12 3a8.99 8.99 0 0 0-7.313 3.76 4.57 4.57 0 0 1 2.475-.718c1.046.003 1.869.327 2.263.549q.142.083.275.175a5.719 5.719 0 0 1 6.318 9.303c.258.028.531.047.813.046.996 0 2.074-.22 2.881-.899.527-.444.968-1.093 1.213-2.068A9 9 0 0 0 12 3" style="fill:#4775d1;fill:color(display-p3 .28 .46 .82);fill-opacity:1"/><path fill="#C3E88D" d="M9.266 8.11A4.76 4.76 0 0 0 7.243 12a4.76 4.76 0 0 0 1.968 3.85c.293-1.216 1.025-2.33 2.123-4.562q-.098-.272-.223-.582c-.304-.763-.743-1.648-1.135-2.05a3.2 3.2 0 0 0-.71-.546M11.627 12.162c-.09.194-.188.412-.29.643-.362.82-.762 1.816-.908 2.454q-.088.406-.084.822.001.186.017.385a4.8 4.8 0 0 0 1.64.293 4.8 4.8 0 0 0 1.5-.245 3 3 0 0 1-.313-.33c-.64-.817-.997-2.012-1.562-4.022" style="fill:#c3e88d;fill:color(display-p3 .7647 .9098 .5529);fill-opacity:1"/><path fill="#89DDFF" d="M14.455 15.714c.055.027.181.073.356.122A4.76 4.76 0 0 0 16.76 12h-.002a4.766 4.766 0 0 0-4.758-4.759c-.508 0-1.012.083-1.494.243.966 1.101 1.43 2.675 1.88 4.397v.002s.145.478.39 1.11c.244.631.59 1.414.969 1.984.249.382.523.657.709.737" style="fill:#89ddff;fill:color(display-p3 .5373 .8667 1);fill-opacity:1"/></svg>