<svg xmlns="http://www.w3.org/2000/svg" width="24" height="24" fill="none"><path fill="#89DDFF" d="M6 6V3.75H3.75A.75.75 0 0 0 3 4.5V6zM21 6V4.5a.75.75 0 0 0-.75-.75H7.5V6z" style="fill:#89ddff;fill:color(display-p3 .5373 .8667 1);fill-opacity:1"/><path fill="#4775D1" d="M21 19.5a.75.75 0 0 1-.75.75H3.75A.75.75 0 0 1 3 19.5v-12h18zM5.69 11.25l2.25 2.25-2.25 2.25 1.06 1.06 2.78-2.78a.75.75 0 0 0 0-1.06l-2.78-2.78zM11.25 15v1.5h4.5V15z" style="fill:#4775d1;fill:color(display-p3 .28 .46 .82);fill-opacity:1"/></svg>