<svg xmlns="http://www.w3.org/2000/svg" width="24" height="24" fill="none"><g fill="#F78C6C"><path d="M12.506 9.076C6.639 9.1.838 7.434 5.076 5.821 3.31 7.283 7.889 8.26 12.479 8.284c4.58.025 9.168-.9 7.798-2.31 3.51 1.546-2.199 3.08-7.771 3.102" style="fill:#f78c6c;fill:color(display-p3 .9686 .549 .4235);fill-opacity:1"/><path d="M4.44 11.315a15 15 0 0 1-.694-2.767c1.629 2.387 16.008 2.451 17.622 0-.324 1.857-.903 3.596-1.739 5.112-.63.955-1.26 1.79-1.891 2.693a6.5 6.5 0 0 0-.554 1.585c-1.3 2-7.711 2.285-9.228 0a6.6 6.6 0 0 0-.58-1.585c-1.07-1.392-2.166-3.003-2.674-4.35-.675.65-.822 1.445-.7 2.322.11.783.528 1.432 1.159 1.892.58.46 1.159.681 1.84.681-.323.103-.681.273-1.005.324-.835.154-1.568 0-2.25-.528-.647-.528-1.056-1.21-1.107-2.045s.204-1.687.784-2.42c.308-.39.646-.69 1.017-.914" style="fill:#f78c6c;fill:color(display-p3 .9686 .549 .4235);fill-opacity:1"/></g><path fill="#FFCB6B" d="M8.774 4.823c1.294-.11 1.536.426 1.09.614-2.068-.685-2.579.863-.613.698 1.79-.153 1.772-1.363 4.397-1.602 2.045-.187 3.187.443 3.34 1.21.12.597-.378 1.147-1.858 1.295-1.934.195-2.94-.896-1.448-1.124.068.29.426.596 1.278.511.613-.051 1.125-.273 1.057-.614-.069-.357-.716-.562-1.739-.477-2.079.188-2.59 1.33-4.362 1.483-2.304.268-3.561-1.746-1.142-1.994" style="fill:#ffcb6b;fill:color(display-p3 1 .7961 .4196);fill-opacity:1"/></svg>