<svg xmlns="http://www.w3.org/2000/svg" width="24" height="24" fill="none"><path fill="#000436" d="M4.719 2H18.28C20.338 2 22 3.705 22 5.813v13.37c0 2.108-1.663 3.813-3.719 3.813H4.72C2.663 22.996 1 21.29 1 19.182V5.813C1 3.705 2.663 2 4.719 2" style="fill:#000436;fill:color(display-p3 0 .0141 .2118);fill-opacity:1"/><g fill="#82AAFF"><path d="M9.24 17C6.626 17 5 15.332 5 12.497v-.006C5 9.656 6.637 8 9.24 8c2.278 0 3.855 1.457 3.933 3.401v.06h-2.132l-.012-.09c-.14-.903-.773-1.54-1.788-1.54-1.215 0-1.982.992-1.982 2.654v.006c0 1.68.774 2.679 1.988 2.679.96 0 1.643-.596 1.794-1.565l.012-.066h2.132l-.006.066C13.101 15.549 11.506 17 9.241 17M14.623 16.844v-4.991h-.876v-1.565h.876v-.38c0-1.294.628-1.89 2.35-1.89.375 0 .791.042 1.027.09v1.325c-.12-.024-.29-.03-.453-.03-.592 0-.84.222-.84.602v.283h1.28v1.565h-1.22v4.99z" style="fill:#82aaff;fill:color(display-p3 .5098 .6667 1);fill-opacity:1"/></g></svg>