<svg xmlns="http://www.w3.org/2000/svg" width="24" height="24" fill="none"><path fill="#89DDFF" d="M8.646 6v.753h1.543v5.297q0 1.014.47 1.567.476.55 1.338.55h1.218v-.811h-1.123q-.465 0-.706-.329-.234-.33-.234-.978V6.001zM5.773 8.17q-1.36 0-2.129.816-.763.814-.763 2.258t.763 2.259q.769.815 2.129.816c.282 0 .563-.038.835-.115a3.3 3.3 0 0 0 .801-.334v-1a2.3 2.3 0 0 1-.737.48 2.5 2.5 0 0 1-.9.151q-.899 0-1.39-.585-.486-.59-.487-1.673 0-1.088.487-1.673t1.39-.585q.487 0 .868.151c.284.117.544.284.77.492V8.62a3.6 3.6 0 0 0-.812-.34 3.1 3.1 0 0 0-.825-.11" style="fill:#89ddff;fill:color(display-p3 .5373 .8667 1);fill-opacity:1"/><path fill="#FA6068" d="M14.694 14.23v-.942h6.425v.943zM15.408 18l1.924-2.827h1.15L20.405 18h-1.087l-1.407-1.842L16.495 18z" style="fill:#fa6068;fill:color(display-p3 .9803 .3759 .4092);fill-opacity:1"/></svg>