<svg xmlns="http://www.w3.org/2000/svg" width="24" height="24" fill="none"><path fill="#FFCB6B" fill-rule="evenodd" d="M3.75 3h15a.75.75 0 0 1 .75.75v16.5a.75.75 0 0 1-.75.75h-15a.75.75 0 0 1-.75-.75V3.75A.75.75 0 0 1 3.75 3m1.5 2.25v13.5h12V5.25H15V7.5h-2.25a1.5 1.5 0 1 0-3 0H7.5V5.25z" clip-rule="evenodd" style="fill:#ffcb6b;fill:color(display-p3 1 .7961 .4196);fill-opacity:1"/><path fill="#F69DD5" d="M10.5 15.75a.75.75 0 0 1-.53-.22L7.94 13.5 9 12.44l1.5 1.5 3-3L14.56 12l-3.53 3.53a.75.75 0 0 1-.53.22" style="fill:#f69dd5;fill:color(display-p3 .9645 .6138 .8359);fill-opacity:1"/></svg>