<svg xmlns="http://www.w3.org/2000/svg" width="24" height="24" fill="none"><path fill="#89DDFF" d="M6 6V3.75H3.75A.75.75 0 0 0 3 4.5V6zM21 6V4.5a.75.75 0 0 0-.75-.75H7.5V6z" style="fill:#89ddff;fill:color(display-p3 .5373 .8667 1);fill-opacity:1"/><path fill="#343944" d="M3 7.5v12c0 .414.336.75.75.75h16.5a.75.75 0 0 0 .75-.75v-12z" style="fill:#343944;fill:color(display-p3 .2039 .2235 .2667);fill-opacity:1"/><path fill="#F69DD5" d="m9.53 14.03-2.78 2.78-1.06-1.06 2.25-2.25-2.25-2.25 1.06-1.06 2.78 2.78a.75.75 0 0 1 0 1.06M15.75 16.5h-4.5V15h4.5z" style="fill:#f69dd5;fill:color(display-p3 .9645 .6138 .8359);fill-opacity:1"/></svg>