<svg xmlns="http://www.w3.org/2000/svg" width="24" height="24" fill="none"><path fill="#82AAFF" fill-rule="evenodd" d="M18.75 4.5h-1.5v3.75H6.75V4.5h-1.5a.75.75 0 0 0-.75.75V19.5c0 .415.335.75.75.75h13.5a.75.75 0 0 0 .75-.75V5.25a.75.75 0 0 0-.75-.75m-2.25 12h-9V15h9zm-9-3.75h9v-1.5h-9z" clip-rule="evenodd" style="fill:#82aaff;fill:color(display-p3 .5098 .6667 1);fill-opacity:1"/><path fill="#F69DD5" d="M13.5 3.75a1.5 1.5 0 1 0-3 0H8.25v3h7.5v-3z" style="fill:#f69dd5;fill:color(display-p3 .9645 .6138 .8359);fill-opacity:1"/></svg>