<svg xmlns="http://www.w3.org/2000/svg" width="24" height="24" fill="none"><path fill="#4775D1" d="M20.774 6.75a1.6 1.6 0 0 0-.55-.603l-7.442-4.454c-.43-.257-1.131-.257-1.56 0L3.78 6.147C3.35 6.403 3 7.033 3 7.547v8.907c0 .257.088.543.229.796.14.254.336.475.55.604l7.442 4.454c.428.256 1.13.256 1.56 0l7.44-4.454c.215-.129.41-.35.551-.604.141-.253.228-.539.228-.796V7.547a1.66 1.66 0 0 0-.226-.797M12 18.221c-3.308 0-6-2.79-6-6.22S8.692 5.778 12 5.778A5.86 5.86 0 0 1 15 6.615a6.14 6.14 0 0 1 2.197 2.273l-2.596 1.557a3.07 3.07 0 0 0-1.1-1.138 2.93 2.93 0 0 0-1.5-.419c-.796 0-1.56.329-2.122.912a3.17 3.17 0 0 0-.88 2.2c.001.825.318 1.616.88 2.199A2.95 2.95 0 0 0 12 15.11a2.93 2.93 0 0 0 1.5-.418 3.07 3.07 0 0 0 1.1-1.138l2.598 1.558A6.14 6.14 0 0 1 15 17.386a5.86 5.86 0 0 1-2.999.835" style="fill:#4775d1;fill:color(display-p3 .28 .46 .82);fill-opacity:1"/><g fill="#B2CCD6"><path d="M16.778 12.5h.889v-1h-.89v-1h-.888v1H15v1h.889v1h.889zM20.111 12.5H21v-1h-.889v-1h-.889v1h-.889v1h.89v1h.888z" style="fill:#b2ccd6;fill:color(display-p3 .698 .8 .8392);fill-opacity:1"/></g></svg>