<svg xmlns="http://www.w3.org/2000/svg" width="24" height="24" fill="none"><path fill="#B2CCD6" d="m20.973 14.454-6.515 6.515c-.026.026-.065.039-.091.026l-8.9-2.39c-.038-.012-.064-.038-.064-.064L3.005 9.637c-.013-.04 0-.065.026-.091L9.546 3.03c.026-.026.065-.039.091-.026l8.9 2.39c.038.012.064.038.064.064l2.385 8.904c.026.04.013.065-.013.091m-8.73-7.089L3.5 9.702c-.013 0-.026.026-.013.04l6.398 6.396c.013.013.039.013.039-.013l2.345-8.746c.013 0-.013-.027-.026-.014" style="fill:#b2ccd6;fill:color(display-p3 .698 .8 .8392);fill-opacity:1"/></svg>