<svg xmlns="http://www.w3.org/2000/svg" width="24" height="24" fill="none"><path fill="#C792EA" d="M13.666 3.066v4.47l-2.808.376v2.643l2.808-.376v2.68l2.619-.35v-2.68L21 9.198l-.347-2.596-4.368.584v-4.12zm-5.95.793V8.33L3 8.961l.348 2.596 4.388-.587 2.598-.348V3.859zm2.64 7.289-2.62.35v2.684l-4.637.62.347 2.596 4.368-.584v4.12h2.62v-4.471l2.708-.363v-2.642l-2.787.373zm10.297 1.305-4.368.584-2.62.35v6.764h2.62V15.68L21 15.049z" style="fill:#c792ea;fill:color(display-p3 .7804 .5725 .9176);fill-opacity:1"/></svg>