<svg xmlns="http://www.w3.org/2000/svg" width="24" height="24" fill="none"><path fill="#89DDFF" d="M18.12 3A2.88 2.88 0 0 1 21 5.88v12.24A2.88 2.88 0 0 1 18.12 21H5.88A2.88 2.88 0 0 1 3 18.12V3zm-3.7 9.558c-.63-.763-2.271-.729-2.9.015-.646.603-.689 2.092-.228 2.77q.306.458 1.003.79c.325.163.94.405 1.111.678.245.283.213 1.016.042 1.27q-.135.208-.468.208c-.496.038-.703-.51-.665-1.113h-1.402c-.037 1.297.524 2.275 1.777 2.376l.26.008c1.989.084 2.545-2.12 1.735-3.562-.272-.473-1.022-.864-1.61-1.093-.456-.21-.652-.415-.656-.916q0-.708.593-.708.332 0 .452.219c.113.172.14.644.129.937h1.351c.033-.712-.136-1.486-.524-1.88m4.53 0c-.629-.763-2.27-.729-2.9.015-.646.604-.689 2.092-.228 2.77q.308.458 1.003.79c.325.163.941.405 1.113.678.244.283.212 1.016.04 1.27q-.135.208-.467.208c-.497.038-.704-.51-.665-1.113h-1.403c-.04 1.383.603 2.403 2.037 2.384 1.99.084 2.545-2.12 1.735-3.562-.272-.473-1.021-.864-1.61-1.093-.456-.21-.65-.415-.655-.916q0-.708.592-.708.332 0 .452.219c.114.172.142.644.13.937h1.35c.033-.712-.136-1.486-.524-1.88m-9.123-.005c-.7-.742-2.36-.7-3.076-.011q-.598.531-.598 1.552v3.393c-.015 1.342.784 2.071 2.078 2.073 1.42.017 2.253-.972 2.152-2.384H8.896c.012.277-.01.659-.156.832a.53.53 0 0 1-.457.219q-.644-.011-.643-.937v-2.947q0-.49.14-.74c.152-.306.728-.34.946-.045.167.163.182.595.17.88h1.487c.039-.726-.124-1.504-.556-1.885" style="fill:#89ddff;fill:color(display-p3 .5373 .8667 1);fill-opacity:1"/></svg>