<svg xmlns="http://www.w3.org/2000/svg" width="24" height="24" fill="none"><path fill="#C3E88D" d="M9.457 9.58V8.497a6 6 0 0 1 .353-.013c3.268-.094 5.41 2.55 5.41 2.55s-2.31 2.912-4.79 2.912c-.332 0-.657-.047-.966-.14V10.52c1.274.14 1.531.648 2.29 1.803l1.7-1.295S12.21 9.553 10.12 9.553a6 6 0 0 0-.663.026m0-3.58v1.616l.353-.02c4.542-.14 7.508 3.379 7.508 3.379s-3.4 3.752-6.941 3.752q-.462-.001-.913-.073v1.002c.25.026.508.047.758.047 3.298 0 5.684-1.53 7.995-3.333.382.28 1.95.955 2.275 1.25-2.195 1.668-7.31 3.011-10.211 3.011-.28 0-.544-.014-.81-.04V18H22V6zm0 7.806v.855c-3.048-.494-3.895-3.372-3.895-3.372s1.465-1.47 3.895-1.71v.936H9.45c-1.273-.141-2.275.94-2.275.94s.567 1.824 2.282 2.352m-5.41-2.639s1.803-2.416 5.416-2.67v-.882C5.461 7.91 2 10.982 2 10.982s1.958 5.142 7.457 5.609v-.935c-4.034-.454-5.41-4.488-5.41-4.488" style="fill:#c3e88d;fill:color(display-p3 .7647 .9098 .5529);fill-opacity:1"/></svg>