<svg xmlns="http://www.w3.org/2000/svg" width="24" height="24" fill="none"><path fill="#AEE33E" d="M9.716 9.581V8.497q.157-.011.318-.017c2.942-.093 4.873 2.548 4.873 2.548s-2.085 2.915-4.321 2.915a2.7 2.7 0 0 1-.87-.14v-3.285c1.146.14 1.376.648 2.065 1.806l1.532-1.301a4.034 4.034 0 0 0-3.003-1.477 6 6 0 0 0-.594.035m0-3.581v1.62a7 7 0 0 1 .318-.02c4.092-.139 6.758 3.381 6.758 3.381s-3.063 3.752-6.253 3.752q-.415 0-.823-.073v1q.341.045.686.045c2.969 0 5.116-1.527 7.195-3.335.344.278 1.755.955 2.045 1.251-1.976 1.667-6.583 3.011-9.193 3.011a7 7 0 0 1-.731-.039V18H21V6zm0 7.805v.855c-2.746-.494-3.508-3.368-3.508-3.368a5.92 5.92 0 0 1 3.508-1.71v.937h-.004a2.62 2.62 0 0 0-2.047.943s.503 1.821 2.05 2.345m-4.876-2.64a6.8 6.8 0 0 1 2.156-1.86 6.8 6.8 0 0 1 2.72-.81v-.878C6.118 7.91 3 10.981 3 10.981s1.765 5.142 6.716 5.612v-.932c-3.63-.46-4.877-4.494-4.877-4.494" style="fill:#aee33e;fill:color(display-p3 .6824 .8902 .2431);fill-opacity:1"/></svg>