<svg xmlns="http://www.w3.org/2000/svg" width="24" height="24" fill="none"><path fill="#2ECC71" d="M11.999 3c-.649 0-1.262.083-1.609.145v.002A8.96 8.96 0 0 0 3 12c0 .847.118 1.678.349 2.482.029.109.068.224.102.336 1.205 3.654 4.669 6.18 8.545 6.181.048 0 .188 0 .376-.009a1.67 1.67 0 0 0 1.463-1.028l.356-.867 4.128-10.069h-1.353l-1.738 4.41-1.75-4.41h-1.431l2.455 6.019-1.827 4.44a.4.4 0 0 1-.354.252 9 9 0 0 1-.324.008c-3.439 0-6.5-2.306-7.446-5.608a7.8 7.8 0 0 1-.299-2.136 7.71 7.71 0 0 1 6.453-7.636 8 8 0 0 1 1.293-.109 7.7 7.7 0 0 1 7.298 5.145c.042.108.074.22.11.33.225.732.34 1.494.34 2.27a7.7 7.7 0 0 1-5.487 7.408l.364 1.201A8.95 8.95 0 0 0 21 12.003a9 9 0 0 0-.488-2.924l-.098-.273h-.002A8.95 8.95 0 0 0 12 3M9.325 8.913c-.9 0-1.63.29-2.235.883-.6.59-.904 1.333-.904 2.206 0 .867.305 1.605.904 2.193.604.594 1.335.882 2.235.882 1.279 0 2.367-.718 2.84-1.87l.026-.061-1.222-.417c-.126.343-.567 1.118-1.644 1.118-.506 0-.933-.176-1.27-.525-.343-.353-.515-.799-.515-1.32 0-.526.169-.963.515-1.333q.51-.525 1.27-.527c1.079 0 1.518.813 1.645 1.119l1.22-.416-.024-.063c-.472-1.153-1.562-1.869-2.84-1.869" style="fill:#2ecc71;fill:color(display-p3 .1804 .8 .4431);fill-opacity:1"/></svg>