<svg xmlns="http://www.w3.org/2000/svg" width="24" height="24" fill="none"><path fill="#916B53" d="M5.75 6.5a.75.75 0 0 0-.75.75v4.25c0 .428.227.807.587 1.13.36.324.876.61 1.505.848 1.259.478 2.994.772 4.908.772s3.65-.294 4.908-.772c.629-.238 1.144-.524 1.505-.848.36-.323.587-.703.587-1.13V7.25a.75.75 0 0 0-.75-.75z" style="fill:#916b53;fill:color(display-p3 .5686 .4196 .3255);fill-opacity:1"/><path fill="#916B53" d="M19 14.463c0-.162-.185-.259-.323-.175-.385.234-.806.43-1.237.593-1.469.557-3.392.869-5.44.869s-3.971-.312-5.44-.87a7.5 7.5 0 0 1-1.237-.592c-.138-.084-.323.013-.323.175v2.287c0 .615.348 1.1.755 1.447.41.349.959.63 1.571.85 1.232.443 2.885.703 4.674.703s3.442-.26 4.674-.703c.612-.22 1.161-.501 1.571-.85.407-.346.755-.832.755-1.447z" style="fill:#916b53;fill:color(display-p3 .5686 .4196 .3255);fill-opacity:1"/><path fill="#FFCB6B" d="M7.327 4.953C8.558 4.51 10.21 4.25 12 4.25s3.441.26 4.673.703c.613.22 1.162.501 1.572.85.407.346.755.832.755 1.447s-.348 1.1-.755 1.447c-.41.349-.959.63-1.572.85-1.231.443-2.884.703-4.673.703s-3.442-.26-4.673-.703c-.613-.22-1.162-.501-1.572-.85C5.348 8.351 5 7.865 5 7.25s.348-1.1.755-1.447c.41-.349.959-.63 1.572-.85" style="fill:#ffcb6b;fill:color(display-p3 1 .7961 .4196);fill-opacity:1"/></svg>