<svg xmlns="http://www.w3.org/2000/svg" width="24" height="24" fill="none"><path fill="#C3E88D" d="M3.1 16.918a9.7 9.7 0 0 1-.904-4.113 9.8 9.8 0 0 1 .253-2.22 9.8 9.8 0 0 1 3.036-5.104 9.8 9.8 0 0 1 4.46-2.264 9.8 9.8 0 0 1 2.8-.188 9.8 9.8 0 0 1 3.332.858 9.82 9.82 0 0 1 5.582 7.232 9.8 9.8 0 0 1 .115 2.433 9.8 9.8 0 0 1-.594 2.7 9.8 9.8 0 0 1-1.945 3.165C18.15 20.526 16.768 21.02 15.616 21a3.6 3.6 0 0 1-2.226-.837c-.808-.696-1.136-1.495-1.25-2.384a4.1 4.1 0 0 1 .105-1.24c.086-.31.302-.912.621-1.174-.372-.161-.85-.51-1.002-.678-.036-.04-.032-.106 0-.15a.13.13 0 0 1 .145-.043c.32.11.71.219 1.12.286.54.091 1.213.205 1.894.239 1.658.082 3.393-.664 3.931-2.146s.33-2.949-1.601-3.828c-1.93-.879-2.822-1.925-4.382-2.555-1.018-.413-2.153-.168-3.316.475-3.136 1.733-5.946 7.208-4.65 12.281a.156.156 0 0 1-.256.155 9.8 9.8 0 0 1-1.65-2.482m8.549-9.749c.53-.041.992.41 1.07 1.01.106.8-.186 1.626-1.152 1.645-.825.016-1.074-.815-1.02-1.319.054-.503.47-1.287 1.103-1.336" style="fill:#c3e88d;fill:color(display-p3 .7647 .9098 .5529);fill-opacity:1"/></svg>