<svg xmlns="http://www.w3.org/2000/svg" width="24" height="24" fill="none"><path fill="#2ECC71" d="M10.345 3h2.943v13.625c-1.51.286-2.618.4-3.822.4-3.593 0-5.466-1.624-5.466-4.74 0-3 1.987-4.95 5.065-4.95.478 0 .84.038 1.28.153zm0 6.857a2.9 2.9 0 0 0-.994-.153c-1.49 0-2.35.917-2.35 2.524 0 1.568.822 2.427 2.331 2.427.325 0 .593-.019 1.013-.076zm7.626-2.312v6.823c0 2.351-.172 3.479-.688 4.453-.478.937-1.108 1.53-2.408 2.179l-2.733-1.3c1.3-.611 1.93-1.147 2.332-1.968.42-.841.554-1.816.554-4.377v-5.81zm-2.943-4.53h2.943v3.02h-2.943z" style="fill:#2ecc71;fill:color(display-p3 .1804 .8 .4431);fill-opacity:1"/></svg>