<svg xmlns="http://www.w3.org/2000/svg" width="24" height="24" fill="none"><path fill="#FA6068" fill-rule="evenodd" d="M20.328 8.191c-.988-1.9-3.713-3.274-6.375-1.2-1.986-1.55-4.107-2.09-7.736-2.105l-5.722.009c-.277.033-.494.252-.495.515l.017 13.45c-.02.424.224.582.584.623h5.288c7.456.31 10.073-3.644 10.561-6.3 3.68.085 4.86-3.101 3.878-4.992m-15.6-.533c5.533-.256 7.003 2.497 6.95 4.417-.198 4.01-3.927 4.611-6.867 4.623l-2.519.003v-9.04z" clip-rule="evenodd" style="fill:#fa6068;fill:color(display-p3 .9803 .3759 .4092);fill-opacity:1"/><path fill="#FA6068" d="M20.581 4.655c-.85.443-.85 1.556 0 1.998.85.443 1.919-.114 1.919-.999s-1.069-1.441-1.919-.999" style="fill:#fa6068;fill:color(display-p3 .9803 .3759 .4092);fill-opacity:1"/></svg>