<svg xmlns="http://www.w3.org/2000/svg" width="24" height="24" fill="none"><path fill="#4775D1" d="M13.653 10.843h1.765a.155.155 0 0 0 .155-.155V9.116a.155.155 0 0 0-.155-.155h-1.765a.154.154 0 0 0-.155.154v1.573c0 .085.07.155.155.155M11.19 6.318h1.765a.155.155 0 0 0 .155-.155V4.589a.155.155 0 0 0-.155-.154H11.19a.154.154 0 0 0-.154.154v1.574c0 .085.068.155.154.155m0 2.262h1.765a.156.156 0 0 0 .155-.155V6.853a.155.155 0 0 0-.155-.154H11.19a.154.154 0 0 0-.154.154v1.572c0 .085.068.154.154.155m-2.442 0h1.767a.155.155 0 0 0 .153-.155V6.853a.154.154 0 0 0-.154-.154H8.75a.154.154 0 0 0-.154.154v1.572c0 .085.069.154.154.155m-2.47 0h1.766a.155.155 0 0 0 .154-.155V6.853a.154.154 0 0 0-.154-.154H6.28a.155.155 0 0 0-.155.154v1.572c0 .085.07.154.155.155m4.91 2.263h1.766a.155.155 0 0 0 .155-.155V9.116a.155.155 0 0 0-.155-.155H11.19a.154.154 0 0 0-.154.154v1.573c0 .085.068.155.154.155m-2.44 0h1.766a.154.154 0 0 0 .153-.155V9.116a.15.15 0 0 0-.094-.143.2.2 0 0 0-.06-.012H8.75a.154.154 0 0 0-.153.154v1.573c0 .085.069.155.154.155m-2.47 0h1.766a.154.154 0 0 0 .154-.155V9.116a.154.154 0 0 0-.153-.155H6.28a.155.155 0 0 0-.155.155v1.572c0 .085.07.155.155.155m-2.433 0h1.766a.154.154 0 0 0 .154-.155V9.116a.154.154 0 0 0-.154-.155H3.847a.154.154 0 0 0-.154.154v1.573c0 .085.068.155.154.155m17.956-.99c-.055-.043-.56-.425-1.629-.425q-.423 0-.841.072c-.207-1.416-1.378-2.108-1.43-2.138l-.287-.166-.189.273a3.8 3.8 0 0 0-.51 1.191c-.191.809-.075 1.569.336 2.218-.495.276-1.291.344-1.453.35H2.626A.626.626 0 0 0 2 11.85a9.5 9.5 0 0 0 .577 3.385c.454 1.19 1.129 2.067 2.008 2.603.983.603 2.583.948 4.396.948.819.002 1.636-.072 2.441-.222a10.2 10.2 0 0 0 3.186-1.157 8.8 8.8 0 0 0 2.175-1.78c1.044-1.182 1.665-2.498 2.128-3.667h.184c1.143 0 1.846-.457 2.233-.84a2.4 2.4 0 0 0 .59-.873l.081-.24z" style="fill:#4775d1;fill:color(display-p3 .28 .46 .82);fill-opacity:1"/></svg>