<svg xmlns="http://www.w3.org/2000/svg" width="24" height="24" fill="none"><path fill="#935EDD" fill-rule="evenodd" d="M6.75 13.826c0 3.674 2.504 6.652 5.593 6.652q.571-.001 1.1-.125V16.38c0-.732.59-1.33 1.31-1.33h1.178v-.473c0-1 .436-1.899 1.126-2.509-.582-1.09-1.541-2.168-2.683-3.08C12.242 7.287 13.028 3 13.028 3s-1.533.84-2.345 1.9C8.97 7.14 6.75 10.816 6.75 13.826" clip-rule="evenodd" style="fill:#935edd;fill:color(display-p3 .5755 .3673 .8671);fill-opacity:1"/><path fill="#FFCB6B" fill-rule="evenodd" d="M22.875 16h-.562v-1.143c0-1.577-1.26-2.857-2.813-2.857-1.552 0-2.812 1.28-2.812 2.857V16h-.563c-.619 0-1.125.514-1.125 1.143v5.714c0 .629.506 1.143 1.125 1.143h6.75c.619 0 1.125-.514 1.125-1.143v-5.714c0-.629-.506-1.143-1.125-1.143M19.5 21.143A1.137 1.137 0 0 1 18.375 20c0-.629.506-1.143 1.125-1.143s1.125.514 1.125 1.143-.506 1.143-1.125 1.143m-1.744-6.286V16h3.488v-1.143c0-.977-.782-1.771-1.744-1.771s-1.744.794-1.744 1.771" clip-rule="evenodd" style="fill:#ffcb6b;fill:color(display-p3 1 .7961 .4196);fill-opacity:1"/></svg>