<svg xmlns="http://www.w3.org/2000/svg" width="24" height="24" fill="none"><path fill="#FA6068" d="M3.268 4.405H0v15.188h3.764C1.9 17.62.814 14.893.814 11.64c0-2.877.9-5.352 2.454-7.234m17.7 15.19c.803-.86 1.522-1.872 2.174-3.029l-3.616-1.808c-1.27 2.064-3.127 3.964-5.695 3.977-3.738-.013-5.206-3.208-5.198-7.322h13.966c.019-.465 0-.904 0-.904.091-2.447-.558-4.502-1.737-6.104H24v15.19zM8.859 7.887c.155-1.862 1.624-3.115 3.346-3.119 1.733.004 2.985 1.256 3.028 3.12z" style="fill:#fa6068;fill:color(display-p3 .9803 .3759 .4092);fill-opacity:1"/></svg>