<svg xmlns="http://www.w3.org/2000/svg" width="24" height="24" fill="none"><path fill="#C792EA" d="m8.153 10.018 3.737-2.155a.3.3 0 0 1 .302 0l3.737 2.155a.3.3 0 0 1 .151.262v4.31a.3.3 0 0 1-.151.262l-3.737 2.155a.3.3 0 0 1-.302 0l-3.737-2.155A.3.3 0 0 1 8 14.59v-4.31c0-.108.058-.208.152-.262" style="fill:#c792ea;fill:color(display-p3 .7804 .5725 .9176);fill-opacity:1"/><path fill="#4775D1" d="M16.506 3.735c.324 0 .624.207.786.487l4.465 7.76c.163.28.162.609 0 .89l-4.465 7.708c-.162.28-.462.42-.786.42h-8.93c-.325 0-.625-.143-.787-.424L2.324 12.88a.92.92 0 0 1 0-.916L6.79 4.222c.162-.28.462-.487.786-.487zm-4.307 1.868a.32.32 0 0 0-.321 0L6.191 8.88a.33.33 0 0 0-.167.277v6.556c0 .114.069.22.167.277l5.692 3.278a.33.33 0 0 0 .322 0l5.688-3.279a.33.33 0 0 0 .168-.276V9.157a.33.33 0 0 0-.17-.277z" style="fill:#4775d1;fill:color(display-p3 .28 .46 .82);fill-opacity:1"/></svg>