<svg xmlns="http://www.w3.org/2000/svg" width="72" height="72" fill="none"><path fill="#935EDD" d="M58.5 48.007c0 9.849-8.45 19.493-22.356 19.493C20.99 67.5 13.5 57.761 13.5 45.739c0-13.676 11.237-33.999 23.098-41.073a1.234 1.234 0 0 1 1.216-.014c.183.101.331.248.428.422a.96.96 0 0 1 .117.565c-.666 6.052 1.07 12.12 4.89 17.11 1.508 2.087 3.154 3.88 5.09 6.174 2.715 3.221 4.727 5.003 7.635 10.085l.043.074c1.635 2.74 2.488 5.808 2.483 8.925" style="fill:#935edd;fill:color(display-p3 .5755 .3673 .8671);fill-opacity:1"/></svg>