<svg xmlns="http://www.w3.org/2000/svg" width="24" height="24" fill="none"><g fill="#80CBC4"><path d="M15.857 2.857H9A3.143 3.143 0 0 0 5.857 6v10.857A3.143 3.143 0 0 0 9 20h6.857A3.143 3.143 0 0 0 19 16.857V6a3.143 3.143 0 0 0-3.143-3.143" opacity=".4" style="fill:#80cbc4;fill:color(display-p3 .502 .7961 .7686);fill-opacity:1"/><path d="M14.714 8.571h-4.582a.857.857 0 0 0 0 1.715h2.513L3.251 19.68a.857.857 0 1 0 1.212 1.212l9.394-9.394v2.513a.857.857 0 0 0 1.715 0V9.428a.857.857 0 0 0-.858-.857" style="fill:#80cbc4;fill:color(display-p3 .502 .7961 .7686);fill-opacity:1"/></g></svg>