<svg xmlns="http://www.w3.org/2000/svg" width="24" height="24" fill="none"><path fill="#F78C6C" d="M8.961 20.377c.749.301 1.561.48 2.414.51a7.1 7.1 0 0 0 3.233-.652 10.1 10.1 0 0 1-3.152-1.979 5.4 5.4 0 0 1-2.495 2.12" style="fill:#f78c6c;fill:color(display-p3 .9686 .549 .4235);fill-opacity:1"/><path fill="#FFCB6B" d="M11.456 18.257a10.05 10.05 0 0 1-3.214-8.043 5.4 5.4 0 0 0-2.807.029 7.125 7.125 0 0 0 3.527 10.134 5.4 5.4 0 0 0 2.494-2.12" style="fill:#ffcb6b;fill:color(display-p3 1 .7961 .4196);fill-opacity:1"/><path fill="#F78C6C" d="M11.456 18.257a5.375 5.375 0 0 0-3.214-8.043q-.009.147-.015.296a10.05 10.05 0 0 0 3.23 7.747" style="fill:#f78c6c;fill:color(display-p3 .9686 .549 .4235);fill-opacity:1"/><path fill="#FA6068" d="M11.998 3a10.041 10.041 0 0 0-3.757 7.214 5.375 5.375 0 0 1 3.214 8.043c.91.842 1.975 1.517 3.152 1.979a7.12 7.12 0 0 0 4.134-6.219c.062-1.8-.63-3.404-1.607-4.758C16.102 7.826 11.998 3 11.998 3" style="fill:#fa6068;fill:color(display-p3 .9803 .3759 .4092);fill-opacity:1"/></svg>