<svg xmlns="http://www.w3.org/2000/svg" width="24" height="24" fill="none"><path fill="#FA6068" d="M6 19.5v-1.203l1.972-.116c.232-.017.278-.084.278-.332V6H4.641c-.182 0-.232.017-.265.182L4.11 7.5H3v-3h12v3h-1.11l-.266-1.318C13.591 6.017 13.541 6 13.36 6H9.75v11.849c0 .232.029.299.277.315l1.973.133V19.5z" style="fill:#fa6068;fill:color(display-p3 .9803 .3759 .4092);fill-opacity:1"/><path fill="#9883EC" d="M14.25 19.5v-1.203l1.222-.116c.232-.017.278-.084.278-.332V11.25h-2.109c-.182 0-.232.017-.265.182l-.265 1.318H12v-3h9v3h-1.11l-.266-1.318c-.033-.165-.083-.182-.265-.182H17.25v6.599c0 .232.029.299.277.315l1.223.133V19.5z" style="fill:#9883ec;fill:color(display-p3 .5974 .5156 .9244);fill-opacity:1"/></svg>