<svg xmlns="http://www.w3.org/2000/svg" width="24" height="24" fill="none"><path fill="#F69DD5" fill-rule="evenodd" d="M12 3c-5.009 0-9 3.991-9 9 0 5.007 3.991 9 9 9 5.007 0 9-3.991 9-9s-3.991-9-9-9m-7.044 9.078 6.966 6.966c-3.835 0-6.966-3.13-6.966-6.966m.157-1.643 8.452 8.452c3.13-.704 5.479-3.522 5.479-6.887h-4.618v1.33h3.053c-.392 1.88-1.8 3.444-3.6 4.07l-7.357-7.357a5.67 5.67 0 0 1 5.4-3.834 5.75 5.75 0 0 1 4.774 2.504l1.017-.86a7.11 7.11 0 0 0-5.714-2.897c-3.364 0-6.183 2.348-6.886 5.479" clip-rule="evenodd" style="fill:#f69dd5;fill:color(display-p3 .9645 .6138 .8359);fill-opacity:1"/></svg>