<svg xmlns="http://www.w3.org/2000/svg" width="24" height="24" fill="none"><path fill="#FA6068" d="m14.97 8.752 1.565-1.565.105-.658c-2.851-2.593-7.384-2.299-9.954.613a7.2 7.2 0 0 0-1.526 2.859l.56-.08 3.13-.516.241-.247c1.392-1.528 3.746-1.734 5.353-.433z" style="fill:#fa6068;fill:color(display-p3 .9803 .3759 .4092);fill-opacity:1"/><path fill="#4775D1" d="M18.764 9.954A7.05 7.05 0 0 0 16.64 6.53l-2.196 2.196a3.9 3.9 0 0 1 1.433 3.096v.39c1.079 0 1.954.875 1.954 1.954 0 1.08-.875 1.933-1.954 1.933h-3.915l-.384.417v2.344l.384.368h3.915c2.807.022 5.101-2.214 5.123-5.022a5.08 5.08 0 0 0-2.236-4.25" style="fill:#4775d1;fill:color(display-p3 .28 .46 .82);fill-opacity:1"/><path fill="#2ECC71" d="M8.053 19.227h3.91v-3.13h-3.91c-.278 0-.548-.06-.801-.175l-.555.17-1.575 1.565-.138.532a5.07 5.07 0 0 0 3.07 1.038" style="fill:#2ecc71;fill:color(display-p3 .1804 .8 .4431);fill-opacity:1"/><path fill="#FFCB6B" d="M8.053 9.076a5.084 5.084 0 0 0-3.069 9.113l2.268-2.267a1.954 1.954 0 1 1 2.586-2.586l2.267-2.267a5.08 5.08 0 0 0-4.052-1.993" style="fill:#ffcb6b;fill:color(display-p3 1 .7961 .4196);fill-opacity:1"/></svg>