<svg xmlns="http://www.w3.org/2000/svg" width="24" height="24" fill="none"><path fill="#80CBC4" d="M7.833 6.167H6.167v1.876c-.698.9-1.152 2.3-1.166 3.88q-.238.076-.501.077.263 0 .501.076c.014 1.58.468 2.98 1.166 3.88v1.877h1.666V19.5H6.167c-.892-.225-1.667-.75-1.667-1.667V14.5c0-.92-.747-1.667-1.667-1.667H2v-1.666h.833c.92 0 1.667-.746 1.667-1.667V6.167c0-.92.747-1.667 1.667-1.667h1.666zM17.834 4.5c.92 0 1.666.747 1.666 1.667V9.5c0 .92.746 1.667 1.667 1.667H22v1.666h-.833c-.92 0-1.667.746-1.667 1.667v3.333c0 .92-.746 1.667-1.666 1.667h-1.667v-1.667h1.667v-1.878c.697-.9 1.15-2.3 1.164-3.878q.238-.076.502-.077-.264-.002-.502-.078c-.015-1.578-.467-2.978-1.164-3.878V6.167h-1.667V4.5z" style="fill:#80cbc4;fill:color(display-p3 .502 .7961 .7686);fill-opacity:1"/><path stroke="#FFCB6B" stroke-linecap="round" stroke-linejoin="round" stroke-width=".833" d="M12 13.666c2.224 0 4.027-.746 4.027-1.666S14.224 10.333 12 10.333 7.972 11.08 7.972 12c0 .92 1.803 1.666 4.027 1.666" style="stroke:#ffcb6b;stroke:color(display-p3 1 .7961 .4196);stroke-opacity:1"/><path stroke="#FFCB6B" stroke-linecap="round" stroke-linejoin="round" stroke-width=".833" d="M12 16.027c.92 0 1.666-1.803 1.666-4.027S12.92 7.972 12 7.972c-.92 0-1.666 1.803-1.666 4.028s.746 4.027 1.666 4.027" style="stroke:#ffcb6b;stroke:color(display-p3 1 .7961 .4196);stroke-opacity:1"/><path stroke="#FFCB6B" stroke-linecap="round" stroke-linejoin="round" stroke-width=".833" d="M12 16.027a4.028 4.028 0 1 0 0-8.055 4.028 4.028 0 0 0 0 8.055" style="stroke:#ffcb6b;stroke:color(display-p3 1 .7961 .4196);stroke-opacity:1"/></svg>