<svg xmlns="http://www.w3.org/2000/svg" width="24" height="24" fill="none"><path fill="#FF8B8B" d="M20.66 11.197 12.8 3.34a1.16 1.16 0 0 0-1.64 0L9.53 4.97l2.07 2.07a1.379 1.379 0 0 1 1.745 1.756l1.994 1.995a1.378 1.378 0 0 1 1.425 2.28c-.54.538-1.411.538-1.95 0a1.38 1.38 0 0 1-.303-1.498l-1.867-1.857v4.894c.132.064.257.152.366.26.535.542.535 1.413 0 1.95-.54.542-1.417.542-1.957 0-.539-.538-.539-1.408 0-1.948q.207-.203.454-.304V9.626a1.375 1.375 0 0 1-.747-1.807L8.727 5.775l-5.39 5.386a1.167 1.167 0 0 0 0 1.641l7.86 7.858a1.16 1.16 0 0 0 1.64 0l7.823-7.822a1.16 1.16 0 0 0 0-1.64" style="fill:#ff8b8b;fill:color(display-p3 1 .5434 .5434);fill-opacity:1"/></svg>