<svg xmlns="http://www.w3.org/2000/svg" width="24" height="24" fill="none"><path fill="#F69DD5" fill-rule="evenodd" d="M12.844 7.781a.844.844 0 1 0-1.688 0v3.094H9.47a3.093 3.093 0 0 0-3.094 3.094v2.25a.844.844 0 0 0 1.687 0v-2.25c0-.777.63-1.406 1.407-1.406h5.062c.777 0 1.406.629 1.406 1.406v2.25a.844.844 0 0 0 1.688 0v-2.25a3.093 3.093 0 0 0-3.094-3.094h-1.687z" clip-rule="evenodd" opacity=".4" style="fill:#f69dd5;fill:color(display-p3 .9645 .6138 .8359);fill-opacity:1"/><path fill="#AEE33E" fill-rule="evenodd" d="M9.187 4.969A1.97 1.97 0 0 1 11.157 3h1.687a1.97 1.97 0 0 1 1.969 1.969v1.687a1.97 1.97 0 0 1-1.97 1.969h-1.687a1.97 1.97 0 0 1-1.969-1.969z" clip-rule="evenodd" style="fill:#aee33e;fill:color(display-p3 .6824 .8902 .2431);fill-opacity:1"/><path fill="#C3E88D" fill-rule="evenodd" d="M13.969 17.344a1.97 1.97 0 0 1 1.969-1.969h1.687a1.97 1.97 0 0 1 1.969 1.969v1.687a1.97 1.97 0 0 1-1.969 1.97h-1.687a1.97 1.97 0 0 1-1.97-1.97zM4.406 17.344a1.97 1.97 0 0 1 1.969-1.969h1.687a1.97 1.97 0 0 1 1.97 1.969v1.687a1.97 1.97 0 0 1-1.97 1.97H6.375a1.97 1.97 0 0 1-1.969-1.97z" clip-rule="evenodd" style="fill:#c3e88d;fill:color(display-p3 .7647 .9098 .5529);fill-opacity:1"/></svg>