<svg xmlns="http://www.w3.org/2000/svg" width="24" height="24" fill="none"><path fill="#6B7394" d="M12.375 3C7.198 3 3 7.131 3 12.227c0 4.077 2.686 7.535 6.412 8.755.469.085.64-.2.64-.444 0-.22-.008-.948-.013-1.717-2.607.557-3.158-1.088-3.158-1.088-.427-1.066-1.041-1.35-1.041-1.35-.853-.572.064-.561.064-.561.94.064 1.437.95 1.437.95.837 1.411 2.196 1.003 2.729.767.085-.595.327-1.003.595-1.233-2.081-.232-4.27-1.024-4.27-4.56 0-1.008.366-1.83.964-2.476-.095-.235-.419-1.173.093-2.443 0 0 .786-.248 2.578.946a9 9 0 0 1 2.345-.31 9 9 0 0 1 2.348.311c1.788-1.195 2.576-.945 2.576-.945.512 1.27.19 2.208.094 2.441.6.646.963 1.469.963 2.477 0 3.545-2.193 4.325-4.28 4.554.337.286.635.847.635 1.707 0 1.234-.012 2.228-.012 2.533 0 .245.17.532.645.442 3.723-1.222 6.406-4.68 6.406-8.755C21.75 7.133 17.552 3 12.375 3z" style="fill:#6b7394;fill:color(display-p3 .42 .4493 .58);fill-opacity:1"/></svg>