<svg xmlns="http://www.w3.org/2000/svg" width="24" height="24" fill="none"><path fill="#FA6068" d="m12.005 20.186 3.312-10.093H8.693z" style="fill:#fa6068;fill:color(display-p3 .9803 .3759 .4092);fill-opacity:1"/><path fill="#FFCB6B" d="M12.005 20.186 8.693 10.093H4.052z" style="fill:#ffcb6b;fill:color(display-p3 1 .7961 .4196);fill-opacity:1"/><path fill="#F78C6C" d="M4.052 10.093 3.045 13.16a.675.675 0 0 0 .25.759l8.71 6.267z" style="fill:#f78c6c;fill:color(display-p3 .9686 .549 .4235);fill-opacity:1"/><path fill="#FA6068" d="M4.052 10.093h4.641l-1.995-6.08c-.102-.312-.549-.312-.652 0z" style="fill:#fa6068;fill:color(display-p3 .9803 .3759 .4092);fill-opacity:1"/><path fill="#FFCB6B" d="m12.005 20.186 3.312-10.093h4.642z" style="fill:#ffcb6b;fill:color(display-p3 1 .7961 .4196);fill-opacity:1"/><path fill="#F78C6C" d="m19.959 10.093 1.006 3.067a.675.675 0 0 1-.249.759l-8.71 6.267z" style="fill:#f78c6c;fill:color(display-p3 .9686 .549 .4235);fill-opacity:1"/><path fill="#FA6068" d="M19.959 10.093h-4.642l1.995-6.08c.103-.312.55-.312.652 0z" style="fill:#fa6068;fill:color(display-p3 .9803 .3759 .4092);fill-opacity:1"/></svg>