<svg xmlns="http://www.w3.org/2000/svg" width="24" height="24" fill="none"><path fill="#FF8B8B" d="m1.755 10.228.34-.434 4.327-.003-.278.435zm3.924 1.07.144-.435-5.482.003-.341.435zm-.158 1.072.042-.435-2.494.002-.242.435zm15.905 3.403c-2.399 1.322-5.676.762-6.553-2.104A5.18 5.18 0 0 1 12.503 16c-2.388 1.129-5.63.145-6.047-2.948-.305-2.964 2.094-4.796 3.512-5.259 2.254-.702 4.477.123 5.246 2.177l-2.421.634c-.257-.716-1.655-1.231-2.73-.454-1.69 1.043-1.66 3.667.383 4.057 1.06.136 1.772-.388 2.306-1.194l-2.629.006.845-1.822h3.94c1.707-4.814 8.362-4.603 9.039-.277.24 1.537-.285 3.621-2.52 4.853M19.24 9.817c-1.822.392-2.276 2-1.995 3.032.3 1.097 1.458 1.816 2.93 1.128 2.356-1.103 1.738-4.736-.935-4.16" style="fill:#ff8b8b;fill:color(display-p3 1 .5434 .5434);fill-opacity:1"/></svg>