<svg xmlns="http://www.w3.org/2000/svg" width="24" height="24" fill="none"><path fill="#89DDFF" fill-rule="evenodd" d="m2.095 9.794-.34.434 4.389-.002.278-.435zm3.728 1.069-.144.434L0 11.301l.34-.435zm-.26 1.072-.042.435-2.694.002.242-.435zm17.755 2.09a4.6 4.6 0 0 0 .629-3.105c-.677-4.326-7.332-4.537-9.039.277h-3.94l-.845 1.822 2.63-.006c-.535.806-1.247 1.33-2.307 1.194-2.042-.39-2.073-3.014-.383-4.057 1.075-.777 2.473-.262 2.73.454l2.42-.634c-.768-2.054-2.99-2.879-5.245-2.177-1.418.463-3.817 2.295-3.512 5.259.417 3.093 3.659 4.077 6.046 2.948a5.18 5.18 0 0 0 2.371-2.33q.16.517.416.935v-1.94c0-1.775 1.656-3.215 3.4-3.215.515 0 1.04.125 1.522.348.477.1.842.37 1.083.732.595.568.989 1.315.989 2.134v1.286h.632q.223 0 .403.075m-7.643 1.107q.052-.025.105-.046a.7.7 0 0 0-.127-.385l-.15.22q.083.11.172.21" clip-rule="evenodd" style="fill:#89ddff;fill:color(display-p3 .5373 .8667 1);fill-opacity:1"/><path fill="#FFCB6B" d="M20.719 15.75a.656.656 0 0 1-.657-.656v-1.969c0-.724-.588-1.312-1.312-1.312s-1.312.588-1.312 1.312v1.969a.656.656 0 0 1-1.313 0v-1.969A2.63 2.63 0 0 1 18.75 10.5a2.63 2.63 0 0 1 2.625 2.625v1.969a.656.656 0 0 1-.656.656" style="fill:#ffcb6b;fill:color(display-p3 1 .7961 .4196);fill-opacity:1"/><path fill="#FFCB6B" d="M21.594 14.438h-5.688a1.97 1.97 0 0 0-1.969 1.968v2.625A1.97 1.97 0 0 0 15.908 21h5.687a1.97 1.97 0 0 0 1.968-1.969v-2.625a1.97 1.97 0 0 0-1.968-1.968m-2.188 3.718a.656.656 0 0 1-1.312 0v-.875a.656.656 0 0 1 1.312 0z" style="fill:#ffcb6b;fill:color(display-p3 1 .7961 .4196);fill-opacity:1"/></svg>