<svg xmlns="http://www.w3.org/2000/svg" width="24" height="24" fill="none"><path fill="#C3E88D" d="M13.687 4c.811.18 1.614.432 2.367.81-.018.665-.06 1.301-.148 1.948.292.187.6.348.872.567.278.214.56.418.812.667a16 16 0 0 1 1.58-.919c.59.635 1.14 1.32 1.59 2.086a17 17 0 0 1-1.074 1.549h-.01v4.328l-.001.001v.375s-.026-.158-.041-.157l-2.883.278a.47.47 0 0 0-.424.435l-.079 1.134-2.23.16-.152-1.029a.47.47 0 0 0-.465-.401H10.36a.47.47 0 0 0-.464.401l-.152 1.029-2.23-.16-.08-1.134a.47.47 0 0 0-.423-.436l-2.884-.277c-.015-.002-.026.157-.041.157v-4.704h-.01c-.383-.487-.736-1-1.075-1.549.45-.766 1.001-1.451 1.59-2.086a16 16 0 0 1 1.58.92c.252-.25.535-.455.812-.668.273-.219.58-.38.872-.567a18 18 0 0 1-.146-1.947c.752-.38 1.555-.63 2.366-.811.325.545.621 1.134.88 1.71.305-.05.613-.07.921-.073h.012c.308.004.616.023.922.074.258-.577.554-1.166.878-1.711m-6.03 5.985a2.686 2.686 0 1 0-.001 5.373 2.686 2.686 0 0 0 0-5.373m8.449 0a2.687 2.687 0 1 0-.001 5.375 2.687 2.687 0 0 0 0-5.375m-4.225 1.913c-.309 0-.56.227-.56.507v1.6c0 .281.251.509.56.509s.56-.228.56-.508v-1.6c0-.28-.252-.508-.56-.508" style="fill:#c3e88d;fill:color(display-p3 .7647 .9098 .5529);fill-opacity:1"/><path fill="#C3E88D" d="m17.088 16.284-.09 1.28a.31.31 0 0 1-.287.288l-3.072.22h-.022a.31.31 0 0 1-.307-.265l-.176-1.195h-2.507l-.176 1.195a.31.31 0 0 1-.329.264l-3.072-.22a.31.31 0 0 1-.287-.287l-.09-1.28-2.593-.25.005.645c0 2.738 3.474 4.055 7.79 4.07h.011c4.316-.015 7.789-1.332 7.789-4.07l.005-.645z" style="fill:#c3e88d;fill:color(display-p3 .7647 .9098 .5529);fill-opacity:1"/><path fill="#fff" d="M9.53 12.618a1.738 1.738 0 1 1-3.475 0 1.738 1.738 0 0 1 3.476 0" style="fill:#fff;fill-opacity:1"/><path fill="#293252" d="M9.112 12.72a1.153 1.153 0 1 1-2.306 0 1.153 1.153 0 0 1 2.306 0" style="fill:#293252;fill:color(display-p3 .1608 .1961 .3216);fill-opacity:1"/><path fill="#fff" d="M14.23 12.618a1.738 1.738 0 1 0 3.476 0 1.738 1.738 0 0 0-3.476 0" style="fill:#fff;fill-opacity:1"/><path fill="#293252" d="M14.649 12.72a1.153 1.153 0 1 0 2.306.001 1.153 1.153 0 0 0-2.306 0" style="fill:#293252;fill:color(display-p3 .1608 .1961 .3216);fill-opacity:1"/><path fill="#2ECC71" d="M7.656 9.31a3.362 3.362 0 1 0 3.363 3.362 3.4 3.4 0 0 0-.052-.565c.326-.364.638-.512.91-.51.276.001.584.151.908.553a3.362 3.362 0 1 0 1.463-2.279c-.55.366-.981.886-1.238 1.495-.344-.304-.725-.477-1.127-.48-.407-.002-.791.166-1.14.456A3.36 3.36 0 0 0 7.657 9.31m0 .675a2.687 2.687 0 1 1 0 5.374 2.687 2.687 0 0 1 0-5.374m8.449 0a2.687 2.687 0 1 1 0 5.374 2.687 2.687 0 0 1 0-5.374" style="fill:#2ecc71;fill:color(display-p3 .1804 .8 .4431);fill-opacity:1"/></svg>