<svg xmlns="http://www.w3.org/2000/svg" width="24" height="24" fill="none"><path fill="#4775D1" d="M17.52 5.193c.71.015 1.694.304 2.307 1.243l.117.197c1.15 1.995.134 4.273-.937 6.136s-2.772 2.861-2.206 6.038h-2.019c-.017-.022-3.473-4.646-4.839 0H8.396c-.317-2.297-2.167-2.385-2.684 0h-2.03c-.004-.03-1.095-6.481 2.981-7.945.009.02.376.889.849 1.643.53.846 1.914 1.431 3.526-.99-.005.005-2.166 2.394-3.154.755-.623-1.034-.41-.65-1.052-1.9-.473-.918.077-1.316 1.273-1.711s3.838-1.045 6.554.916 4.887-.871 4.184-2.247c-.299-.585-.744-.796-1.08-.835-.35-.042-.66.01-.948.166-.098.052-.373.228-.528-.001a5 5 0 0 1-.311-.617c-.145-.344.617-.867 1.545-.848m-3.465 6.139c-.006.017-.328.954.5 1.361l.184.074c.807.269 1.434-.374 1.507-.71-1.244-.413-2.168-.718-2.191-.725" style="fill:#4775d1;fill:color(display-p3 .28 .46 .82);fill-opacity:1"/></svg>