<svg xmlns="http://www.w3.org/2000/svg" width="24" height="24" fill="none"><g fill="#FFCB6B"><path d="M11.95 7.242c1.612 0 2.885-.864 2.928-2.012 0-.312-.08-.62-.233-.893a1.9 1.9 0 0 0-.642-.68 3.8 3.8 0 0 0-2.056-.652 3.8 3.8 0 0 0-2.099.504 1.9 1.9 0 0 0-.692.63 1.84 1.84 0 0 0-.3.875C8.81 6.2 10.098 7.178 11.789 7.238q.076.003.16.003m-.162-3.524h.132c.589.009 1.161.187 1.644.512.172.104.314.247.415.416.1.17.157.361.164.557-.028.76-1.096 1.362-2.333 1.32-1.238-.04-2.25-.723-2.222-1.484.022-.194.093-.38.206-.542.114-.162.267-.294.445-.385a3 3 0 0 1 1.547-.396zM16.559 21a3.74 3.74 0 0 0 1.955-.517c.28-.152.518-.37.69-.634s.273-.565.295-.876c.04-1.187-1.257-2.158-2.942-2.21s-3.042.837-3.081 2.024c.001.312.083.62.238.893s.376.506.646.675a3.8 3.8 0 0 0 2.06.643zm-.13-3.524h.109c1.233.038 2.255.713 2.23 1.473a1.2 1.2 0 0 1-.203.544 1.2 1.2 0 0 1-.442.387 3.03 3.03 0 0 1-1.677.402 3 3 0 0 1-1.646-.504 1.2 1.2 0 0 1-.416-.414 1.17 1.17 0 0 1-.167-.555c.02-.736 1.022-1.334 2.209-1.334zM7.577 20.985c.69.011 1.37-.168 1.96-.516.28-.153.518-.37.69-.634s.273-.565.295-.876c.039-1.187-1.257-2.158-2.942-2.21a3.8 3.8 0 0 0-2.095.514c-.288.144-.531.36-.704.625a1.73 1.73 0 0 0-.058 1.786c.155.276.384.507.662.668a3.8 3.8 0 0 0 2.192.643m2.208-2.049c-.021.195-.09.382-.203.544a1.2 1.2 0 0 1-.443.387 3.27 3.27 0 0 1-3.322-.102 1.07 1.07 0 0 1-.433-.403 1.03 1.03 0 0 1 .037-1.119 1.1 1.1 0 0 1 .458-.375 3 3 0 0 1 1.676-.402c1.234.038 2.255.713 2.23 1.473z" style="fill:#ffcb6b;fill:color(display-p3 1 .7961 .4196);fill-opacity:1"/><path d="M16.699 17.067a18.13 18.13 0 0 0-2.493-9.819l-.48.265c1.702 2.9 2.54 6.2 2.424 9.536z" style="fill:#ffcb6b;fill:color(display-p3 1 .7961 .4196);fill-opacity:1"/><path d="M13.45 6.551c.104.518.122 1.049.051 1.572l.53-.63.822-.156a5 5 0 0 1-1.404-.786M7.163 17.067l.552-.018a17.5 17.5 0 0 1 .639-5.342 17.8 17.8 0 0 1 1.783-4.194l-.48-.265a18.3 18.3 0 0 0-1.836 4.318 18 18 0 0 0-.658 5.501" style="fill:#ffcb6b;fill:color(display-p3 1 .7961 .4196);fill-opacity:1"/><path d="M10.413 6.551c-.42.334-.895.6-1.404.785l.822.156.53.63a4.7 4.7 0 0 1 .052-1.57M12.131 6.97l.04 2.382-.553.008-.039-2.381z" style="fill:#ffcb6b;fill:color(display-p3 1 .7961 .4196);fill-opacity:1"/><path d="M11.912 10.327c.177-.5.436-.968.768-1.387l-.783.289-.793-.264c.344.408.617.868.808 1.361M13.257 13.53l1.78 2.722-.467.287-1.78-2.722z" style="fill:#ffcb6b;fill:color(display-p3 1 .7961 .4196);fill-opacity:1"/><path d="M15.339 17.214a4.7 4.7 0 0 1-.093-1.57l-.513.643-.817.176c.513.174.994.427 1.423.751M10.625 13.487l.475.274-1.755 2.865-.475-.273z" style="fill:#ffcb6b;fill:color(display-p3 1 .7961 .4196);fill-opacity:1"/><path d="M8.597 17.324c.42-.336.893-.603 1.401-.792l-.823-.152-.532-.628a4.7 4.7 0 0 1-.046 1.572M11.927 14.128c1.612 0 2.885-.863 2.928-2.011 0-.312-.08-.62-.233-.894a1.9 1.9 0 0 0-.642-.678 3.8 3.8 0 0 0-2.056-.653 3.8 3.8 0 0 0-2.099.504 1.9 1.9 0 0 0-.692.63 1.84 1.84 0 0 0-.3.874c-.046 1.188 1.242 2.165 2.933 2.225q.076.003.16.003m-.162-3.523h.132c.589.008 1.16.187 1.644.512.172.104.314.247.415.416.1.17.157.36.164.556-.028.761-1.095 1.363-2.333 1.322-1.238-.042-2.251-.725-2.222-1.485.022-.194.093-.38.206-.543.114-.161.267-.293.445-.384a3 3 0 0 1 1.547-.396z" style="fill:#ffcb6b;fill:color(display-p3 1 .7961 .4196);fill-opacity:1"/></g></svg>