<svg xmlns="http://www.w3.org/2000/svg" width="24" height="24" fill="none"><g fill="#F69DD5"><path stroke="#F69DD5" stroke-width=".5" d="m6.006 16.693-.645-.38 7.184-12.68.645.38z" style="fill:#f69dd5;fill:color(display-p3 .9645 .6138 .8359);fill-opacity:1;stroke:#f69dd5;stroke:color(display-p3 .9645 .6138 .8359);stroke-opacity:1"/><path stroke="#F69DD5" stroke-width=".5" d="M5.213 15.3h14.368v.76H5.213z" style="fill:#f69dd5;fill:color(display-p3 .9645 .6138 .8359);fill-opacity:1;stroke:#f69dd5;stroke:color(display-p3 .9645 .6138 .8359);stroke-opacity:1"/><path fill-rule="evenodd" d="m11.74 4.706 7.187 4.229.373-.657-7.187-4.229zm-6.242 11.02 7.186 4.23.373-.658L5.87 15.07z" clip-rule="evenodd" style="fill:#f69dd5;fill:color(display-p3 .9645 .6138 .8359);fill-opacity:1"/><path d="m18.927 8.935-.126.215.219.13.125-.222zm-7.186-4.229-.218-.123-.121.214.212.125zM19.3 8.278l.217.123.122-.214-.212-.125zm-7.187-4.229.127-.215-.22-.13-.124.222zm.571 15.906-.127.216.22.129.125-.222zm-7.186-4.228-.218-.123-.121.214.212.124zm7.559 3.571.217.123.121-.214-.212-.124zM5.87 15.07l.127-.216-.22-.129-.125.222zm13.184-6.35-7.186-4.23-.254.432 7.187 4.228zm.028-.566-.372.658.435.246.372-.657zm-7.096-3.89 7.187 4.23.254-.432-7.187-4.228zm-.028.566.373-.658-.435-.246-.373.657zm.853 14.91L5.624 15.51l-.253.431 7.186 4.229zm.028-.565-.372.657.435.246.372-.657zm-7.096-3.89 7.187 4.229.253-.431-7.186-4.229zm-.028.565.373-.657-.436-.246-.372.657z" style="fill:#f69dd5;fill:color(display-p3 .9645 .6138 .8359);fill-opacity:1"/><path stroke="#F69DD5" stroke-width=".5" d="M5.872 8.932 5.5 8.275l7.186-4.229.373.657z" style="fill:#f69dd5;fill:color(display-p3 .9645 .6138 .8359);fill-opacity:1;stroke:#f69dd5;stroke:color(display-p3 .9645 .6138 .8359);stroke-opacity:1"/><path fill-rule="evenodd" d="m18.271 15.769-6.66-11.756.645-.38 6.015 10.618zm.26.46h-.26v-.46zm0 0h.485v-.663l.424.747-.645.38zm.485-.663-.745-1.315v-6.48h.745zM5.783 7.77h.744v8.457h-.744z" clip-rule="evenodd" style="fill:#f69dd5;fill:color(display-p3 .9645 .6138 .8359);fill-opacity:1"/><path d="m11.61 4.013-.126-.216-.212.125.121.214zm.646-.38.217-.123-.125-.221-.22.129zm6.015 12.595h-.25v.25h.25zm.745 0v.25h.25v-.25zm.424.085.127.216.212-.125-.122-.214zm-.645.38-.218.123.126.221.219-.129zM18.27 7.77v-.25h-.25v.25zm.745 0h.25v-.25h-.25zm-12.489 0h.25v-.25h-.25zm-.744 0v-.25h-.25v.25zm.744 8.457v.25h.25v-.25zm-.744 0h-.25v.25h.25zm5.61-12.092 6.66 11.756.436-.246-6.66-11.756zm.736-.718-.645.38.254.43.644-.38zm6.36 10.71L12.473 3.51l-.435.247 6.016 10.617zm.032 1.64v-1.517h-.5v1.518zm.01.21h-.26v.5h.26zm-.01.25v-.46h-.5v.46zm-.467-.336.26.46.435-.247-.26-.46zm.962.086h-.484v.5h.484zm-.25-.412v.662h.5v-.663zm.891.624-.424-.748-.434.247.423.748zm-.735.718.645-.38-.254-.43-.645.38zm-.608-.556.263.464.435-.246-.263-.465zm.92-.91-.745-1.314-.435.246.745 1.315zm-.713-1.19v-6.48h-.5v6.48zm-.25-6.23h.745v-.5h-.745zm.495-.25v7.794h.5V7.77zm-12.239-.25h-.744v.5h.744zm.25 8.706V7.771h-.5v8.457zm-.994.25h.744v-.5h-.744zm-.25-8.707v8.457h.5V7.771z" style="fill:#f69dd5;fill:color(display-p3 .9645 .6138 .8359);fill-opacity:1"/><path stroke="#F69DD5" stroke-width=".5" d="m12.558 19.634-.325-.574 6.25-3.677.325.574z" style="fill:#f69dd5;fill:color(display-p3 .9645 .6138 .8359);fill-opacity:1;stroke:#f69dd5;stroke:color(display-p3 .9645 .6138 .8359);stroke-opacity:1"/><path fill-rule="evenodd" d="M10.834 4.645c0 .882.7 1.595 1.565 1.595.866 0 1.566-.713 1.566-1.595s-.7-1.595-1.566-1.595c-.865 0-1.565.713-1.565 1.595m-5.468 5.06c.749.44 1.709.179 2.14-.585a1.616 1.616 0 0 0-.575-2.18 1.55 1.55 0 0 0-2.14.585c-.43.763-.174 1.742.575 2.18m12.497 7.355c.75.44 1.71.179 2.14-.585a1.61 1.61 0 0 0-.574-2.18 1.55 1.55 0 0 0-2.14.585c-.43.763-.175 1.742.574 2.18m-13.067-.585a1.616 1.616 0 0 1 .574-2.18 1.553 1.553 0 0 1 2.14.585c.43.763.175 1.737-.574 2.18a1.55 1.55 0 0 1-2.14-.585M17.868 6.94a1.616 1.616 0 0 0-.575 2.18 1.55 1.55 0 0 0 2.14.585 1.616 1.616 0 0 0 .574-2.18 1.553 1.553 0 0 0-2.14-.585m-5.469 14.01c-.865 0-1.565-.712-1.565-1.595 0-.882.7-1.595 1.565-1.595.866 0 1.566.713 1.566 1.595 0 .878-.7 1.596-1.566 1.596" clip-rule="evenodd" style="fill:#f69dd5;fill:color(display-p3 .9645 .6138 .8359);fill-opacity:1"/><path d="m7.505 9.12-.217-.123zm-2.14.585.127-.215zM6.932 6.94l.128-.215h-.001zm-2.14.585.218.123zm15.212 8.95-.217-.123zm-2.14.585.127-.215zm1.566-2.765.127-.216zm-2.14.585.218.123zM5.37 14.295l-.126-.216h-.001zm-.574 2.18-.218.123zM7.51 14.88l.218-.123zm-.574 2.18.126.216h.001zm10.357-7.94-.217.123zm.575-2.18-.127-.216zm1.565 2.765.127.216zm.574-2.18.218-.123zM12.4 5.99c-.723 0-1.315-.596-1.315-1.345h-.5c0 1.016.807 1.845 1.815 1.845zm1.316-1.345c0 .749-.592 1.345-1.316 1.345v.5c1.009 0 1.816-.83 1.816-1.845zM12.399 3.3c.724 0 1.316.596 1.316 1.345h.5c0-1.016-.807-1.845-1.816-1.845zm-1.315 1.345c0-.749.592-1.345 1.315-1.345v-.5c-1.008 0-1.815.83-1.815 1.845zM7.288 8.997a1.3 1.3 0 0 1-1.796.493l-.253.431c.871.51 1.986.206 2.484-.678zm-.484-1.842c.63.373.848 1.196.484 1.842l.435.246a1.866 1.866 0 0 0-.664-2.518zm-1.795.493a1.3 1.3 0 0 1 1.796-.493l.253-.431a1.8 1.8 0 0 0-2.484.678zm.483 1.842a1.365 1.365 0 0 1-.483-1.842l-.435-.246c-.496.88-.204 2.01.665 2.52zm14.293 6.862a1.3 1.3 0 0 1-1.796.493l-.252.431c.87.51 1.985.206 2.484-.678zm-.483-1.842c.634.373.852 1.196.484 1.842l.434.247a1.86 1.86 0 0 0-.665-2.52zm-1.795.493a1.3 1.3 0 0 1 1.795-.492l.253-.432a1.8 1.8 0 0 0-2.484.678zm.482 1.842a1.364 1.364 0 0 1-.482-1.842l-.436-.246c-.496.88-.204 2.01.666 2.52zM5.243 14.08a1.866 1.866 0 0 0-.665 2.518l.436-.246a1.366 1.366 0 0 1 .483-1.842zm2.484.676a1.803 1.803 0 0 0-2.483-.677l.253.431a1.303 1.303 0 0 1 1.796.494zm-.664 2.52a1.866 1.866 0 0 0 .665-2.519l-.436.246c.365.646.147 1.47-.484 1.842zm-2.485-.678a1.8 1.8 0 0 0 2.484.678l-.252-.432a1.3 1.3 0 0 1-1.796-.492zm12.933-7.6a1.366 1.366 0 0 1 .484-1.843l-.255-.43a1.866 1.866 0 0 0-.664 2.518zm1.796.492a1.3 1.3 0 0 1-1.796-.493l-.435.246a1.8 1.8 0 0 0 2.484.678zm.483-1.842c.364.646.146 1.47-.484 1.842l.255.43a1.866 1.866 0 0 0 .664-2.518zm-1.796-.493a1.303 1.303 0 0 1 1.796.494l.434-.248a1.803 1.803 0 0 0-2.483-.677zm-7.41 12.2c0 1.016.807 1.846 1.815 1.846v-.5c-.723 0-1.315-.597-1.315-1.346zm1.815-1.845c-1.008 0-1.815.83-1.815 1.845h.5c0-.748.592-1.345 1.315-1.345zm1.816 1.845c0-1.015-.807-1.845-1.816-1.845v.5c.724 0 1.316.597 1.316 1.345zm-1.816 1.846c1.01 0 1.816-.835 1.816-1.846h-.5c0 .745-.593 1.346-1.316 1.346z" style="fill:#f69dd5;fill:color(display-p3 .9645 .6138 .8359);fill-opacity:1"/></g></svg>