<svg xmlns="http://www.w3.org/2000/svg" width="24" height="24" fill="none"><path fill="#2ECC71" d="M12.02 3h-.082c-5.26.089-9.015 4.475-8.937 8.967.017 5.505 4.514 9.143 9.061 9.03 5.406-.15 9.242-4.852 8.919-9.05a1.65 1.65 0 0 0-1.644-1.503h-2.363a1.615 1.615 0 0 0-1.62 1.613c0 .891.725 1.613 1.62 1.613h.59c-.652 2.096-2.714 4.097-5.58 4.176-2.852.071-5.707-2.181-5.825-5.685v-.12c-.111-2.793 2.171-5.735 5.91-5.891a1.57 1.57 0 0 0 1.502-1.64A1.574 1.574 0 0 0 12.018 3zm-.014 7.444a1.61 1.61 0 0 0-1.61 1.615 1.616 1.616 0 0 0 1.61 1.617 1.61 1.61 0 0 0 1.61-1.617 1.616 1.616 0 0 0-1.61-1.615" style="fill:#2ecc71;fill:color(display-p3 .1804 .8 .4431);fill-opacity:1"/></svg>