<svg xmlns="http://www.w3.org/2000/svg" width="24" height="24" fill="none"><path fill="#FFCB6B" d="M4.21 5.82s.413 1.583.472 2.11-1.063 1.7-1.063 2.285.236 1.64 1.535 2.168c1.299.527 1.476 1.875 1.476 2.695s-.472 2.402-.472 2.402-.295 3.926 1.299 4.629 1.24.703 1.594.703 2.952 1.055 4.487.644 1.949-.878 1.949-.878 1.535.117 2.007-1.23c.473-1.348.768-4.16.59-5.45-.176-1.289-.412-2.988.65-3.574s2.185-1.288 2.008-1.874-1.122-1.407-1.122-1.407-.236-1.464-.059-1.816c.177-.351 1.24-1.23.65-1.875-.59-.644-1.654-.644-1.654-.644l-1.358.117s-2.303-2.05-5.314-1.934c-3.011.118-4.9 1.934-4.9 1.934s-1.005-.352-1.89 0c-.886.351-1.063 0-.886.996" style="fill:#ffcb6b;fill:color(display-p3 1 .7961 .4196);fill-opacity:1"/><path fill="#F78C6C" fill-rule="evenodd" d="M9.616 12.201c.193-.462.545-1.335.545-1.335l-.544-.075s-.596.182-.596.64c0 1.092-.414 1.523-.414 1.523s.8-.25 1.009-.753m-.011 2.343c-.01.014-1.173 1.78-2.027 3.033-.133.195.857.208.857.208z" clip-rule="evenodd" style="fill:#f78c6c;fill:color(display-p3 .9686 .549 .4235);fill-opacity:1"/><path fill="#F78C6C" fill-rule="evenodd" d="M6.803 2.654c-.825-.648-2.063-.41-2.063-.41.622.135.67.417.762.963.025.148.054.316.098.505.206.887.878 1.196.878 1.196L7.87 3.814s-.24-.512-1.066-1.16m.94 9.08c1.34.478 2.062-.375 2.062-.375.344-.58-.309-1.399-.653-1.603-.344-.205-2.888-1.16-2.888-.683 0 .478.137 2.184 1.478 2.662" clip-rule="evenodd" style="fill:#f78c6c;fill:color(display-p3 .9686 .549 .4235);fill-opacity:1"/><path fill="#F78C6C" fill-rule="evenodd" d="M8.986 3.58c-.447.614-.238 1.169-.238 1.169s.738 1.207.99 1.975A138 138 0 0 0 7.751 5.27l-.504-.227s.023-.045.07-.12l-.492-.244s1.248-.64 2.16-1.1M7.332 7.763c.701.054 1.58.382 2.112 1.133q.077.11.156.234c.12.187.246.383.39.519.335.313.646.452.93.438-.245.301-1.778.19-2.829-1.18-.564-.735-2.523-.817-2.523-.817s.568-.42 1.764-.327m-2.953 2.295c-.413.75 1.76 1.492 1.76 1.492.907.33.972 1.422.995 2.222.076 2.605-1.037 3.173-1.103 3.15-.007-.001.006-.078.028-.212.11-.68.46-2.84-.241-4.133-1.75-.814-2.07-1.238-2.26-1.825-.309-.955.905-1.854.905-1.854s.328.41-.084 1.16M8.263 20.89s.949 1.41 3.75 1.41l-.005 1.529c-1.377 0-3.142-1.424-3.307-1.881z" clip-rule="evenodd" style="fill:#f78c6c;fill:color(display-p3 .9686 .549 .4235);fill-opacity:1"/><path fill="#F78C6C" fill-rule="evenodd" d="M5.119 9.268c-.172 1.262-.757 1.467-.757 1.467l-.035-.034c-.152-.145-.428-.41-.206-.819.137-.25.251-.393.362-.53.085-.106.168-.209.257-.357.207-.341.172-2.081.172-2.081s.379 1.092.207 2.354m1.735 8.313c.091-.25.412-1.263.515-2.184.124-1.103.079-2.717.079-2.717s-.275 1.058-.516 1.229c-.24.17-.688 1.33-.688 1.33s-.24 1.727-.353 2.308c.13.026.254.01.38-.008.176-.024.36-.05.583.042m1.716 2.356S8.828 21.5 9.86 21.5c.876 0 1.135-1.32 1.135-1.593z" clip-rule="evenodd" style="fill:#f78c6c;fill:color(display-p3 .9686 .549 .4235);fill-opacity:1"/><path fill="#FFCB6B" d="M9.461 3.206s-.55-.09-.825-.5S7.582 1.477 6.34 1.468c-1.242-.009-2.471.328-2.471.328l1.073.673c.113-.004.312-.003.64.008 1.346.045 2.415 1.526 2.415 1.526l3.884-.808" style="fill:#ffcb6b;fill:color(display-p3 1 .7961 .4196);fill-opacity:1"/><path fill="#fff" d="M9.92 10.505s-.642.637-1.628.432c-.986-.204-1.582-.636-1.628-1.387-.046-.75.207-1.047.207-1.047s1.1.342 1.628.797.917 1.183 1.42 1.205" style="fill:#fff;fill-opacity:1"/><path fill="#C9C9C9" d="M9.143 10.278s-.557.252-1.18.046c-.814-.27-.868-1.11-.868-1.11s-.5 1.455.901 1.736c1.124.224 1.789-.422 1.789-.422z" style="fill:#c9c9c9;fill:color(display-p3 .7882 .7882 .7882);fill-opacity:1"/><path fill="#916B53" d="M9.539 2.897c-.06-1.248.97-2.241 1.328-2.284.02.212-.02 1.037.337 1.29.104-.674.456-1.416 1.844-1.903-.297.783-.04 1.438.083 1.742.948-.854 1.587-.713 1.587-.713s-.659 1.128-.4 1.868c-1.904-.148-4.77.2-4.78 0" style="fill:#916b53;fill:color(display-p3 .5686 .4196 .3255);fill-opacity:1"/><path fill="#000" fill-rule="evenodd" d="m7.308 4.087.594-.234c-.01-.065-.121-.651-1.049-1.298-.922-.643-1.922-.33-1.965-.317l.127.39h.001c.031-.01.893-.296 1.6.262.506.4.69 1.188.692 1.197M5.842 8.855c-.054.47.246.896.246.896.095-1.078.6-1.202.6-1.202s-.16-.404-.518-.247c-.193.084-.301.322-.328.553" clip-rule="evenodd" style="fill:#000;fill-opacity:1"/><path fill="#000" d="m9.384 10.4.019.037s-.937.697-1.896-.01c-.514-.38-.465-1.317-.308-1.715a3.1 3.1 0 0 1 1.046.452c-.366-.325-.687-.564-.686-.57l-.417-.116-.81-.276c-.01.061-.305 1.435.547 2.371.378.415 2.15 1.345 2.991-.245z" style="fill:#000;fill-opacity:1"/><path fill="#000" d="M9.296 10.503c.527.796 1.857.34 1.834-.5 0 0-.889.486-1.674-.41-.458-.523-1.927-1.965-3.919-1.486 1.376.3 3.197 1.547 3.759 2.396" style="fill:#000;fill-opacity:1"/><path fill="#000" fill-rule="evenodd" d="m9.296 10.503.734.046c.428.788-.55 1.887-.55 1.887s.262-.701.125-1.181c-.122-.424-.31-.752-.31-.752m-.034 10.425a.87.87 0 0 0 .555.197.7.7 0 0 0 .52-.21c.354-.375.563-.78.614-.904.029-.07.062-.206-.042-.311q-.122-.124-.418-.125H9.104c-.258 0-.385.074-.446.136q-.134.134-.042.369c.164.415.536.754.646.848" clip-rule="evenodd" style="fill:#000;fill-opacity:1"/><path fill="#fff" d="M8.38 18.66a1.7 1.7 0 0 1 .005-.673c-.199-.148-.555-.203-.822-.29-.218-.136-1.336.141-2.147-.833-1.017-1.22-.803-1.947-.803-1.947-.26.287-.513.178-.91 1.517-.398 1.34.187 2.273 1.276 3.21.514.444 1.242.626 1.868.696-.21-.209.358-.23.749-.375-.031-.313.02-.617.256-.863.142-.147.325-.236.515-.306l.03-.07z" style="fill:#fff;fill-opacity:1"/><path fill="#C9C9C9" d="M7.59 19.957a2 2 0 0 1-.056-.2c-.018-.074-.108-.283.003-.044a1 1 0 0 1-.061-.188c-1.764-.002-3.299-1.204-3.002-3.73-.231-.304-.554.613-.554.613s-.884 2.544 1.397 3.53c.76.33 1.432.565 1.59.47.33.066.628-.162.74-.312a2 2 0 0 1-.056-.139" style="fill:#c9c9c9;fill:color(display-p3 .7882 .7882 .7882);fill-opacity:1"/><path fill="#000" d="M8.562 17.008c-.367 1.069-1.117 1.934-1.117 1.934s1.031-.047 1.088-.228c.042-.133.931-2.198 1.273-4.617-.321.523-1.213 2.82-1.244 2.911" style="fill:#000;fill-opacity:1"/><path fill="#F78C6C" fill-rule="evenodd" d="M14.393 12.201c-.193-.462-.545-1.335-.545-1.335l.543-.075s.597.182.597.64c0 1.092.414 1.523.414 1.523s-.8-.25-1.01-.753m.011 2.343 1.17 3.241s.99-.013.857-.208c-.854-1.254-2.017-3.019-2.027-3.033" clip-rule="evenodd" style="fill:#f78c6c;fill:color(display-p3 .9686 .549 .4235);fill-opacity:1"/><path fill="#F78C6C" fill-rule="evenodd" d="M17.206 2.654c.825-.648 2.063-.41 2.063-.41-.622.135-.67.417-.762.963-.025.148-.054.316-.098.505-.206.887-.878 1.196-.878 1.196L16.14 3.814s.24-.512 1.066-1.16m-.939 9.08c-1.341.478-2.063-.375-2.063-.375-.344-.58.31-1.399.653-1.603.344-.205 2.889-1.16 2.889-.683 0 .478-.138 2.184-1.479 2.662" clip-rule="evenodd" style="fill:#f78c6c;fill:color(display-p3 .9686 .549 .4235);fill-opacity:1"/><path fill="#F78C6C" fill-rule="evenodd" d="M15.024 3.58c.91.46 2.159 1.099 2.159 1.099l-.491.244c.046.075.07.12.07.12l-.505.227s-1.231.885-1.985 1.454c.251-.768.99-1.975.99-1.975s.209-.555-.238-1.17m1.653 4.183c-.701.054-1.58.382-2.112 1.133q-.077.11-.156.234c-.12.187-.246.383-.39.519-.334.313-.646.452-.93.438.245.301 1.778.19 2.829-1.18.564-.735 2.523-.817 2.523-.817s-.568-.42-1.764-.327m2.954 2.295c.412.75-1.76 1.492-1.76 1.492-.908.33-.973 1.421-.996 2.221-.076 2.606 1.037 3.174 1.103 3.152a1 1 0 0 0-.027-.212c-.11-.68-.462-2.84.24-4.134 1.75-.814 2.07-1.238 2.26-1.825.309-.955-.905-1.854-.905-1.854s-.328.41.085 1.16M15.745 20.89s-.948 1.41-3.748 1.41L12 23.83c1.377 0 3.142-1.424 3.307-1.881z" clip-rule="evenodd" style="fill:#f78c6c;fill:color(display-p3 .9686 .549 .4235);fill-opacity:1"/><path fill="#F78C6C" fill-rule="evenodd" d="M18.89 9.268c.172 1.262.757 1.467.757 1.467l.035-.034c.152-.146.428-.41.206-.819a3 3 0 0 0-.362-.53c-.085-.106-.168-.209-.257-.357-.207-.341-.172-2.081-.172-2.081s-.379 1.092-.207 2.354m-1.734 8.313c-.092-.25-.413-1.263-.516-2.184-.124-1.103-.079-2.717-.079-2.717s.276 1.058.516 1.229c.24.17.688 1.33.688 1.33s.24 1.727.353 2.308c-.131.026-.254.01-.38-.008-.176-.024-.36-.05-.582.042m-1.717 2.356s-.258 1.563-1.29 1.563c-.876 0-1.134-1.32-1.134-1.593z" clip-rule="evenodd" style="fill:#f78c6c;fill:color(display-p3 .9686 .549 .4235);fill-opacity:1"/><path fill="#FFCB6B" d="M14.548 3.206s.55-.09.825-.5 1.054-1.229 2.297-1.238c1.242-.009 2.471.328 2.471.328l-1.073.673a11 11 0 0 0-.64.008c-1.346.045-2.427 1.526-2.427 1.526l-3.872-.808" style="fill:#ffcb6b;fill:color(display-p3 1 .7961 .4196);fill-opacity:1"/><path fill="#fff" d="M14.09 10.505s.641.637 1.627.432c.986-.204 1.582-.636 1.628-1.387.045-.75-.207-1.047-.207-1.047s-1.1.342-1.627.797c-.528.455-.917 1.183-1.422 1.205" style="fill:#fff;fill-opacity:1"/><path fill="#C9C9C9" d="M14.866 10.278s.557.252 1.179.046c.815-.27.869-1.11.869-1.11s.5 1.455-.902 1.736c-1.123.224-1.788-.422-1.788-.422z" style="fill:#c9c9c9;fill:color(display-p3 .7882 .7882 .7882);fill-opacity:1"/><path fill="#000" fill-rule="evenodd" d="M17.393 2.89c-.508.401-.691 1.196-.692 1.197l-.594-.234c.01-.065.121-.651 1.049-1.298.922-.643 1.922-.33 1.965-.317l-.128.39c-.025-.009-.89-.298-1.6.262m.774 5.965c.054.47-.246.896-.246.896-.094-1.078-.6-1.202-.6-1.202s.16-.404.518-.247c.194.084.302.322.328.553" clip-rule="evenodd" style="fill:#000;fill-opacity:1"/><path fill="#000" d="m14.626 10.4-.02.037s.937.697 1.896-.01c.514-.38.465-1.317.308-1.715-.41.092-.756.258-1.046.452.366-.325.687-.564.686-.57l.417-.116.81-.276c.01.061.305 1.435-.547 2.371-.378.415-2.15 1.345-2.991-.244z" style="fill:#000;fill-opacity:1"/><path fill="#000" d="M14.713 10.503c-.527.796-1.857.34-1.834-.5 0 0 .889.486 1.674-.41.458-.523 1.927-1.965 3.92-1.486-1.376.3-3.198 1.547-3.76 2.396" style="fill:#000;fill-opacity:1"/><path fill="#000" fill-rule="evenodd" d="m14.713 10.503-.733.046c-.429.788.55 1.887.55 1.887s-.263-.701-.126-1.181c.122-.424.309-.752.309-.752m-1.654 9.508c.05.124.26.529.614.905a.7.7 0 0 0 .52.209c.203 0 .41-.073.554-.197.11-.094.482-.433.646-.849q.091-.234-.041-.369c-.062-.06-.189-.134-.446-.134h-1.388q-.295 0-.418.124c-.103.105-.07.24-.041.311" clip-rule="evenodd" style="fill:#000;fill-opacity:1"/><path fill="#F78C6C" d="M12.005 7.95c-.468 0-1.078-.012-1.535-.338 0 0 .599 1.042 1.534 1.042v-.132l.002.132c.934 0 1.533-1.042 1.533-1.042-.457.326-1.067.339-1.534.339" style="fill:#f78c6c;fill:color(display-p3 .9686 .549 .4235);fill-opacity:1"/><path fill="#000" d="M13.292 7.946c-.469.281-.888.379-1.287.388a2.5 2.5 0 0 1-1.288-.388s.683.827 1.284.833h.007c.6-.006 1.284-.833 1.284-.833" style="fill:#000;fill-opacity:1"/><path fill="#fff" d="M15.63 18.66a1.7 1.7 0 0 0-.006-.673c.2-.148.555-.203.822-.29.218-.136 1.337.141 2.148-.833 1.016-1.22.802-1.947.802-1.947.26.287.513.178.91 1.517.398 1.34-.187 2.273-1.276 3.21-.514.444-1.242.626-1.867.696.21-.209-.358-.23-.75-.375.032-.313-.02-.617-.256-.863-.142-.147-.325-.236-.514-.306l-.03-.07z" style="fill:#fff;fill-opacity:1"/><path fill="#C9C9C9" d="M16.418 19.957q.033-.1.057-.2c.018-.074.108-.283-.003-.044a1 1 0 0 0 .06-.188c1.765-.002 3.3-1.204 3.003-3.73.23-.304.554.613.554.613s.883 2.544-1.397 3.53c-.76.33-1.432.565-1.59.47-.33.066-.629-.162-.74-.312q.031-.069.056-.139" style="fill:#c9c9c9;fill:color(display-p3 .7882 .7882 .7882);fill-opacity:1"/><path fill="#000" fill-rule="evenodd" d="M14.76 18.253c1.033 0 1.48.312 1.724.573.355.38.411.91.165 1.571-.653 1.76-1.57 3.55-4.641 3.552H12c-3.071-.003-3.988-1.791-4.641-3.552-.246-.661-.19-1.19.165-1.57.244-.262.692-.574 1.724-.574l2.752-.001h.007zm-2.755 5.049c2.854-.004 3.69-2.144 4.001-3.028.172-.49.16-.854-.04-1.08-.136-.153-.449-.337-1.162-.337H9.205c-.713 0-1.026.184-1.162.338-.2.225-.212.588-.04 1.079.31.884 1.147 3.024 4.002 3.028" clip-rule="evenodd" style="fill:#000;fill-opacity:1"/><path fill="#000" d="M15.447 17.008c.367 1.069 1.117 1.934 1.117 1.934s-1.031-.047-1.088-.228c-.042-.133-.931-2.198-1.273-4.617.321.523 1.213 2.82 1.244 2.911" style="fill:#000;fill-opacity:1"/></svg>