<svg xmlns="http://www.w3.org/2000/svg" width="24" height="24" fill="none"><g clip-path="url(#a)"><path fill="#FA6068" d="M7.249 10.828c-.002.052.26 2.846.584 6.208l.502 5.209a1 1 0 0 0 .995.904h5.37a1 1 0 0 0 .995-.904l.514-5.304.601-6.208H18V8.325H6.018v2.408h.617c.34 0 .616.042.614.095" style="fill:#fa6068;fill:color(display-p3 .9803 .3759 .4092);fill-opacity:1"/><path fill="#FF8B8B" d="M10.5 2.802v4.673h2.34l.034-1.735.035-1.736 1.606-.987c.883-.543 1.675-1.085 1.76-1.203s.154-.408.154-.644c0-.54-.566-1.17-1.052-1.17-.201 0-1.22.548-2.604 1.401z" style="fill:#ff8b8b;fill:color(display-p3 1 .5434 .5434);fill-opacity:1"/></g><defs><clipPath id="a"><path fill="#fff" d="M0 0h24v24H0z" style="fill:#fff;fill-opacity:1"/></clipPath></defs></svg>