<svg xmlns="http://www.w3.org/2000/svg" width="24" height="24" fill="none"><path fill="#FFCB6B" fill-rule="evenodd" d="M4.5 3.43S5.517 2.98 6.341 3q.178.005.338.042l2.957 5.85 5.124-4.57s1.725.628 1.88 1.23l-1.997 1.832a2 2 0 0 1-.04.316c-.03.11-.06.204-.09.298v.001c-.03.094-.06.187-.075.28-.075.377-.06.737.09.972.074.125.179.22.328.313q.045.02.091.044.07.036.148.066l.135.047.164.047c.418.141.837.345 1.21.595.389.235.748.533 1.046.893.15.188.284.392.389.611.104.22.194.47.21.72.014.267-.06.534-.18.753-.12.22-.284.392-.463.548-.15.126-.299.22-.448.313v.016l-.046.423v.016l-.014.015c-.12.33-.314.643-.583.878a1.84 1.84 0 0 1-.957.423 3 3 0 0 1-.986-.047 3.6 3.6 0 0 1-.911-.36h-.015a.09.09 0 0 1-.045-.079c-.015-.329.06-.626.18-.909a8.166 8.166 0 0 1-1.987-.517 5 5 0 0 1-1.136-.626 4 4 0 0 1-.327-.286l-.827 6.187s-1.795.69-3.424-.753l1.784-7.996zm9.161 5.335c0-.176.014-.353.044-.52l-3.099 2.843-.164 1.231c.145.204.344.382.56.551.298.235.642.439 1 .611.343.187.715.344 1.087.5l.004.001q.202.081.396.157.196.075.396.157c.06-.126.12-.235.195-.36l.056-.086c.082-.124.16-.241.258-.369a.14.14 0 0 1 .134-.031l.03.015.007.003c.221.077.443.155.665.217.224.062.448.11.657.094a1 1 0 0 0 .583-.22c.165-.14.314-.344.404-.58 0-.015.015-.015.03-.015a.36.36 0 0 1 .124.167l.01.021a2.033 2.033 0 0 1 .105.642c.06-.047.134-.11.194-.172.134-.141.254-.298.329-.47.074-.157.104-.345.09-.595-.03-.36-.24-.72-.509-1.003a4.4 4.4 0 0 0-.941-.736 4.6 4.6 0 0 0-1.106-.47l-.15-.032-.179-.046a2 2 0 0 1-.343-.141 1.6 1.6 0 0 1-.613-.549 1.7 1.7 0 0 1-.254-.815" clip-rule="evenodd" style="fill:#ffcb6b;fill:color(display-p3 1 .7961 .4196);fill-opacity:1"/></svg>