<svg xmlns="http://www.w3.org/2000/svg" width="24" height="24" fill="none"><path fill="#FFCB6B" d="M9.462 7.33a3 3 0 0 0-.348.012c-2.084.164-2.913 1.236-3.412 1.695s-1.45 1.543-2.08 1.352-.808-.968-.585-1.208c.222-.24.397-.197.536 0 .085.157.127.335.122.514a1.2 1.2 0 0 0 .384-.582.693.693 0 0 0-.388-.89c-1.137-.577-1.872.45-1.977.688-.107.24-.294.62-.175 1.484.118.865.535 1.664 1.84 1.978 1.25.29 2.56.137 3.709-.433l3.859-1.61q.24-.057.486-.088v8.63c0 .443.277.8.62.8s.618-.357.618-.8v-8.618q.193.03.383.077l3.858 1.61c1.149.57 2.46.723 3.709.432 1.305-.315 1.722-1.113 1.841-1.977.119-.866-.07-1.246-.175-1.485-.106-.238-.841-1.265-1.978-.688a.693.693 0 0 0-.388.89c.067.227.2.43.383.582a1.04 1.04 0 0 1 .123-.514c.14-.197.314-.24.537 0 .222.24.044 1.019-.587 1.21-.63.19-1.578-.893-2.079-1.354-.5-.459-1.328-1.53-3.412-1.695A3.02 3.02 0 0 0 12 8.822a3.02 3.02 0 0 0-2.538-1.493m10.842 2.365v.003l.005.002-.005-.004zm-16.609 0q-.001.002-.004.003h.005v-.004" style="fill:#ffcb6b;fill:color(display-p3 1 .7961 .4196);fill-opacity:1"/></svg>