<svg xmlns="http://www.w3.org/2000/svg" width="24" height="24" fill="none"><path fill="#FFCB6B" d="M5.25 5.25h13.5v13.5H5.25z" style="fill:#ffcb6b;fill:color(display-p3 1 .7961 .4196);fill-opacity:1"/><path fill="#F78C6C" d="m3 3 .563 4.5L5.25 12 12 5.25 7.5 3.563zM3 21l4.5-.562L12 18.75 5.25 12l-1.687 4.5zM21 21l-.562-4.5L18.75 12 12 18.75l4.5 1.688zM21 3l-4.5.563L12 5.25 18.75 12l1.688-4.5z" style="fill:#f78c6c;fill:color(display-p3 .9686 .549 .4235);fill-opacity:1"/><path fill="#FFCB6B" d="m3 3 9 2.25L7.5 3zM3 3v4.5L5.25 12zM3 21l2.25-9L3 16.5z" style="fill:#ffcb6b;fill:color(display-p3 1 .7961 .4196);fill-opacity:1"/><path fill="#F78C6C" d="M3 21h4.5l4.5-2.25z" style="fill:#f78c6c;fill:color(display-p3 .9686 .549 .4235);fill-opacity:1"/><path fill="#FFCB6B" d="m21 21-9-2.25L16.5 21z" style="fill:#ffcb6b;fill:color(display-p3 1 .7961 .4196);fill-opacity:1"/><path fill="#FA6068" d="M21 21v-4.5L18.75 12zM21 3l-2.25 9L21 7.5z" style="fill:#fa6068;fill:color(display-p3 .9803 .3759 .4092);fill-opacity:1"/><path fill="#FFCB6B" d="M21 3h-4.5L12 5.25z" style="fill:#ffcb6b;fill:color(display-p3 1 .7961 .4196);fill-opacity:1"/></svg>