<svg xmlns="http://www.w3.org/2000/svg" width="72" height="72" fill="none"><path fill="#F78C6C" d="m16.157 58.197 18.212 8.897c1.05.466 2.216.612 3.656 0l18.145-8.896a4.17 4.17 0 0 0 2.301-3.909l4.47-40.774c.453-2.287-1.748-4.421-4.13-4.515H13.177c-2.303.182-4.534 1.857-4.13 4.65l4.604 41.11c.298 1.701.82 2.49 2.505 3.437m10.765-9.368L16.834 38.79c-2.04-1.506-1.316-3.91 0-5.123l10.155-10.109c3.572-3.114 7.997 1.524 4.943 4.92l-7.719 7.818 7.651 7.615c3.172 3.861-1.88 7.872-4.942 4.92m29.315-10.108L46.082 48.829c-3.464 3.045-8.098-1.436-4.943-4.919l7.651-7.615-7.718-7.683c-2.989-3.024 1.146-8.108 4.943-4.92l10.087 10.042c1.456 1.508 1.38 3.744.136 4.987" style="fill:#f78c6c;fill:color(display-p3 .9686 .549 .4235);fill-opacity:1"/></svg>