<svg xmlns="http://www.w3.org/2000/svg" width="24" height="24" fill="none"><path fill="#C792EA" d="M16.679 10.104h-1.17l-1.373 3.635a9.5 9.5 0 0 1-3.472-1.595 9.4 9.4 0 0 0 2.324-4.737h1.703a.654.654 0 0 0 0-1.308H10.36V4.654a.654.654 0 0 0-1.308 0v1.445H4.717a.654.654 0 1 0 0 1.308h1.706a9.4 9.4 0 0 0 2.322 4.737 9.65 9.65 0 0 1-3.747 1.664.657.657 0 1 0 .14 1.307.5.5 0 0 0 .144-.016 10.64 10.64 0 0 0 4.424-2.043 10.5 10.5 0 0 0 3.965 1.929L11.393 21h1.69l.883-2.537h4.23L19.088 21h1.707zm-5.002-2.697a7.77 7.77 0 0 1-1.961 3.877 7.75 7.75 0 0 1-1.962-3.877zm2.838 9.53 1.579-4.522 1.566 4.521z" style="fill:#c792ea;fill:color(display-p3 .7804 .5725 .9176);fill-opacity:1"/></svg>