<svg xmlns="http://www.w3.org/2000/svg" width="24" height="24" fill="none"><mask id="a" width="22" height="18" x="1" y="3" maskUnits="userSpaceOnUse" style="mask-type:alpha"><rect width="20.769" height="18" x="1.615" y="3" fill="#00B6C2" rx="1.731" style="fill:#00b6c2;fill:color(display-p3 0 .7144 .76);fill-opacity:1"/></mask><g mask="url(#a)"><path fill="#343944" d="M1.615 3h20.769v18H1.615z" style="fill:#343944;fill:color(display-p3 .2039 .2235 .2667);fill-opacity:1"/><g fill="#AEE33E"><path d="M18.385 11.253c-1.541-1.67-4.05-1.67-5.592 0L5 19.703c.42.19.88.297 1.364.297h11.422c1.941 0 3.514-1.705 3.514-3.81v-1.776z" style="fill:#aee33e;fill:color(display-p3 .6824 .8902 .2431);fill-opacity:1"/><path d="M17 16h4.3v3a1 1 0 0 1-1 1H17z" style="fill:#aee33e;fill:color(display-p3 .6824 .8902 .2431);fill-opacity:1"/></g><path fill="#FFCB6B" d="M6.27 10a2.346 2.346 0 1 0 0-4.692 2.346 2.346 0 0 0 0 4.692" style="fill:#ffcb6b;fill:color(display-p3 1 .7961 .4196);fill-opacity:1"/></g></svg>