<svg xmlns="http://www.w3.org/2000/svg" width="24" height="24" fill="none"><g fill="#4775D1"><path d="M5.16 12a6.84 6.84 0 0 1 10.9-5.505 2.58 2.58 0 0 1 1.638-1.462 9 9 0 1 0 2.799 3.994 2.57 2.57 0 0 1-1.933 1.04c.18.613.276 1.26.276 1.933a6.84 6.84 0 0 1-13.68 0" style="fill:#4775d1;fill:color(display-p3 .28 .46 .82);fill-opacity:1"/><path d="M21 10.355a10 10 0 0 0-.336-1.226 2.72 2.72 0 0 1-2.047 1.11c.136.469.226.951.267 1.438A2.96 2.96 0 0 0 21 10.355M17.921 8.7a2.07 2.07 0 0 0 1.474-.615 2.1 2.1 0 0 0 .61-1.485 2.11 2.11 0 0 0-.61-1.485A2.08 2.08 0 0 0 17.92 4.5c-.552 0-1.083.221-1.473.615a2.11 2.11 0 0 0 0 2.97c.39.394.92.615 1.473.615M15.18 15.18A4.5 4.5 0 0 1 12 16.5 4.507 4.507 0 0 1 7.5 12 4.505 4.505 0 0 1 12 7.5a4.505 4.505 0 0 1 4.5 4.5 4.5 4.5 0 0 1-1.32 3.18" style="fill:#4775d1;fill:color(display-p3 .28 .46 .82);fill-opacity:1"/></g></svg>