<svg xmlns="http://www.w3.org/2000/svg" width="24" height="24" fill="none"><mask id="a" width="18" height="18" x="3" y="3" maskUnits="userSpaceOnUse" style="mask-type:alpha"><circle cx="12" cy="12" r="9" fill="#D9D9D9" style="fill:#d9d9d9;fill:color(display-p3 .851 .851 .851);fill-opacity:1"/></mask><g mask="url(#a)"><path fill="#FA6068" stroke="#FA6068" stroke-width=".09" d="M12.066 20.969c4.332 0 7.845-3.593 7.845-8.026 0-4.434-3.513-8.028-7.845-8.028-4.333 0-7.847 3.594-7.847 8.028 0 4.433 3.514 8.026 7.847 8.026Z" style="fill:#fa6068;fill:color(display-p3 .9803 .3759 .4092);fill-opacity:1;stroke:#fa6068;stroke:color(display-p3 .9803 .3759 .4092);stroke-opacity:1"/><path fill="#FF8B8B" d="M4.496 14.941s-.572-8.417 7.184-8.658l-.54-.901-4.21 1.413-1.202 1.382-1.052 2.015-.601 2.344.18 1.564" style="fill:#ff8b8b;fill:color(display-p3 1 .5434 .5434);fill-opacity:1"/><path fill="#231F20" d="M6.66 7.436a7.9 7.9 0 0 0-2.24 5.536c0 2.164.856 4.12 2.24 5.536a7.53 7.53 0 0 0 5.405 2.29c2.11 0 4.02-.873 5.405-2.29a7.9 7.9 0 0 0 2.241-5.536c0-2.164-.857-4.12-2.241-5.536a7.54 7.54 0 0 0-5.405-2.29c-2.11 0-4.02.874-5.405 2.29M6.31 18.85a8.39 8.39 0 0 1-2.381-5.879c0-2.294.91-4.374 2.381-5.879a8.02 8.02 0 0 1 5.755-2.438c2.248 0 4.284.933 5.755 2.438a8.39 8.39 0 0 1 2.381 5.88c0 2.293-.91 4.373-2.38 5.878a8.03 8.03 0 0 1-5.756 2.438A8.03 8.03 0 0 1 6.31 18.85" style="fill:#231f20;fill:color(display-p3 .1373 .1216 .1255);fill-opacity:1"/><path fill="#F0D6B7" fill-rule="evenodd" d="m15.387 12.987-1.202.18-1.624.18-1.052.03-1.022-.03-.782-.24-.691-.751-.541-1.533-.12-.331-.722-.24-.42-.692-.302-.992.331-.872.782-.27.631.3.3.662.361-.06.12-.15-.12-.692-.03-.872.18-1.203-.006-.686.548-.877.962-.691 1.683-.722 1.864.27 1.624 1.173.751 1.203.481.872.12 2.164-.36 1.864-.662 1.653-.631.872" clip-rule="evenodd" style="fill:#f0d6b7;fill:color(display-p3 .9412 .8392 .7176);fill-opacity:1"/><path fill="#6B7394" fill-rule="evenodd" d="m14.365 18.188-4.299.18v.722l.36 2.525-.18.21-3.006-1.022-.21-.36-.3-3.398-.692-2.044-.15-.48 2.404-1.654.752-.3.661.81.571.512.662.21.3.09.361 1.564.27.33.692-.24-.48.932 2.614 1.232zM7.24 7.696l.782-.27.631.3.3.661.361-.06.09-.36-.18-.692.18-1.653-.15-.902.541-.632 1.173-.931-.33-.451-1.654.811-.692.541-.39.842-.602.812-.18.962z" clip-rule="evenodd" style="fill:#6b7394;fill:color(display-p3 .42 .4493 .58);fill-opacity:1"/><path fill="#DCD9D8" fill-rule="evenodd" d="M8.473 4.87s.45-1.112 2.254-1.653.09-.391.09-.391l-1.953.752-.752.751-.33.601zM7.57 7.485S6.94 5.381 9.345 5.08l-.09-.36-1.653.39-.481 1.564.12 1.022z" clip-rule="evenodd" style="fill:#dcd9d8;fill:color(display-p3 .8627 .851 .8471);fill-opacity:1"/><path fill="#F7E4CD" fill-rule="evenodd" d="m8.533 10.281.393-.381s.178.02.208.231c.03.21.12 2.104 1.413 3.127.118.093-.962-.15-.962-.15l-.962-1.504M14.064 9.71s.07-.911.316-.841c.245.07.245.316.245.316s-.596.385-.56.525" clip-rule="evenodd" style="fill:#f7e4cd;fill:color(display-p3 .9686 .8941 .8039);fill-opacity:1"/><path fill="#F7E4CD" d="M16.56 6.373s-.496.105-.542.541c-.045.437.541.09.632.06M12.922 6.403s-.662.09-.662.511.752.391.963.21" style="fill:#f7e4cd;fill:color(display-p3 .9686 .8941 .8039);fill-opacity:1"/><path fill="#F7E4CD" fill-rule="evenodd" d="M8.833 8.357s-1.142-.691-1.262-.03c-.12.662-.391 1.143.18 1.834l-.39-.12L7 9.109l-.12-.902.69-.721.782.06.451.36zM9.375 6.464s.51-2.646 3.096-3.157c2.129-.42 3.247.09 3.668.571 0 0-1.894-2.254-3.698-1.563S9.314 4.269 9.344 5.081c.052 1.382.03 1.383.03 1.383M16.349 4.179s-.872-.03-.902.751c0 0 0 .12.06.24 0 0 .692-.78 1.113-.36" clip-rule="evenodd" style="fill:#f7e4cd;fill:color(display-p3 .9686 .8941 .8039);fill-opacity:1"/><path fill="#F7E4CD" fill-rule="evenodd" d="M12.532 5.252s-.15-1.2-1.173-.502c-.662.45-.601 1.082-.481 1.202s.087.363.179.197c.091-.167.061-.708.392-.858.33-.15.873-.318 1.083-.039" clip-rule="evenodd" style="fill:#f7e4cd;fill:color(display-p3 .9686 .8941 .8039);fill-opacity:1"/><path fill="#B2CCD6" fill-rule="evenodd" d="M9.705 13.378 6.88 14.64s1.173 4.66.572 6.103l-.421-.15L7 18.819l-.782-3.367-.33-.932 2.945-1.984zM9.996 15.955l.4.49v1.803h-.48s-.06-1.263-.06-1.413.06-.692.06-.692M10.006 18.518l-1.353.06.39.271.963.15" clip-rule="evenodd" style="fill:#b2ccd6;fill:color(display-p3 .698 .8 .8392);fill-opacity:1"/><path fill="#6B7394" fill-rule="evenodd" d="m14.636 18.218 1.112-.03.27 2.765-1.142.15z" clip-rule="evenodd" style="fill:#6b7394;fill:color(display-p3 .42 .4493 .58);fill-opacity:1"/><path fill="#6B7394" fill-rule="evenodd" d="m14.936 18.218 1.684-.09s.691-1.744.691-1.834.601-2.525.601-2.525l-1.353-1.413-.27-.24-.722.72v2.796z" clip-rule="evenodd" style="fill:#6b7394;fill:color(display-p3 .42 .4493 .58);fill-opacity:1"/><path fill="#B2CCD6" fill-rule="evenodd" d="m15.688 18.007-1.053.21.15.843c.392.18 1.053-.301 1.053-.301M15.718 12.746l2.104 1.564.06-.722-1.593-1.473z" clip-rule="evenodd" style="fill:#b2ccd6;fill:color(display-p3 .698 .8 .8392);fill-opacity:1"/><path fill="#fff" fill-rule="evenodd" d="m11.05 24.14-.623-2.525-.31-1.864-.051-1.383 2.817-.15h1.753l-.16 3.157.27 2.435-.03.45-2.284.18z" clip-rule="evenodd" style="fill:#fff;fill-opacity:1"/><path fill="#DCD9D8" fill-rule="evenodd" d="M14.245 18.188s-.15 3.126.3 5.35c0 0-.902.572-2.224.722l2.525-.09.3-.18-.36-4.93-.09-1.053" clip-rule="evenodd" style="fill:#dcd9d8;fill:color(display-p3 .8627 .851 .8471);fill-opacity:1"/><path fill="#fff" fill-rule="evenodd" d="m16.07 20.713 1.172-.33 2.224-.12.331-1.023-.601-1.774-.692-.09-.962.3-.922.452-.49-.09-.382.15" clip-rule="evenodd" style="fill:#fff;fill-opacity:1"/><path fill="#DCD9D8" fill-rule="evenodd" d="M16.048 20.112s.782-.361.902-.331l-.33-1.653.39-.15s.27 1.563.27 1.743c0 0 1.684.09 1.835.09 0 0 .36-.691.27-1.413l.33.962.031.541-.481.722-.541.12-.902-.03-.3-.39-1.053.15-.33.12" clip-rule="evenodd" style="fill:#dcd9d8;fill:color(display-p3 .8627 .851 .8471);fill-opacity:1"/><path fill="#fff" d="m14.867 17.978-.661-1.684-.692-.992s.15-.42.36-.42h.692l.662.24-.06 1.112z" style="fill:#fff;fill-opacity:1"/><path fill="#DCD9D8" fill-rule="evenodd" d="M14.996 17.406s-.842-1.623-.842-1.864c0 0 .15-.36.361-.27.21.09.662.33.662.33v-.57l-1.023-.211-.69.09 1.172 2.766.24.03" clip-rule="evenodd" style="fill:#dcd9d8;fill:color(display-p3 .8627 .851 .8471);fill-opacity:1"/><path fill="#fff" d="m11.32 13.438-.833-.09-.782-.24v.27l.382.42 1.203.542" style="fill:#fff;fill-opacity:1"/><path fill="#DCD9D8" fill-rule="evenodd" d="M9.976 13.528s.932.391 1.233.3l.03.361-.842-.18-.511-.36z" clip-rule="evenodd" style="fill:#dcd9d8;fill:color(display-p3 .8627 .851 .8471);fill-opacity:1"/><path fill="#FA6068" stroke="#FA6068" stroke-width=".09" d="M16.042 14.937a.6.6 0 0 0 .082-.228c.019-.104.024-.223.018-.342a4 4 0 0 0-.072-.564 1.5 1.5 0 0 0-.079-.263q-.049-.11-.098-.139c-.081-.047-.181-.049-.296-.017a1.5 1.5 0 0 0-.367.17c-.125.076-.246.162-.357.236-.09.06-.175.113-.246.146l.01.024.029.065a.5.5 0 0 1 .03.115.87.87 0 0 1 .504.068l.139.068-.154.017c-.09.01-.173.014-.255.026a.5.5 0 0 0-.181.058.6.6 0 0 0-.009.174q.007.096-.002.209.578.155 1.304.177Z" style="fill:#fa6068;fill:color(display-p3 .9803 .3759 .4092);fill-opacity:1;stroke:#fa6068;stroke:color(display-p3 .9803 .3759 .4092);stroke-opacity:1"/><path fill="#FA6068" stroke="#FA6068" stroke-width=".18" d="M16.066 14.983a5.7 5.7 0 0 1-1.374-.19c.027-.164-.024-.327.017-.446.113-.08.301-.08.471-.099a.82.82 0 0 0-.523-.059c-.004-.115-.056-.186-.087-.275.287-.103.964-.774 1.345-.552.181.106.259.71.273 1.003.011.244-.022.49-.122.618Z" style="fill:#fa6068;fill:color(display-p3 .9803 .3759 .4092);fill-opacity:1;stroke:#fa6068;stroke:color(display-p3 .9803 .3759 .4092);stroke-opacity:1"/><path fill="#FA6068" stroke="#FA6068" stroke-width=".09" d="M12.03 15.813a3.455 3.455 0 0 0 .702-.258c.168-.091.318-.21.463-.333.139-.116.275-.236.416-.335l.01-.239a1.5 1.5 0 0 0-.592-.145l-.173-.008.155-.078c.093-.047.209-.07.312-.093a1 1 0 0 0 .255-.085l.002-.05c-.273-.033-.397-.163-.568-.257a4.4 4.4 0 0 0-1.176-.43c-.113-.022-.188.006-.242.061a.53.53 0 0 0-.12.268c-.046.235-.03.54-.019.775.008.178.06.364.12.536q.046.13.091.245.046.116.08.21.015.046.025.088t.024.074c.017.042.036.061.063.068a.5.5 0 0 0 .172-.014Z" style="fill:#fa6068;fill:color(display-p3 .9803 .3759 .4092);fill-opacity:1;stroke:#fa6068;stroke:color(display-p3 .9803 .3759 .4092);stroke-opacity:1"/><path fill="#FA6068" stroke="#FA6068" stroke-width=".18" d="m13.627 14.15-.005.116c-.159.105-.416.103-.59.191.257.012.46.074.635.161l-.011.292c-.292.2-.559.497-.902.684-.163.09-.733.317-.906.277-.098-.023-.107-.144-.146-.259-.083-.245-.275-.635-.292-1.004-.021-.466-.068-1.246.434-1.15.405.077.876.264 1.19.435.191.105.302.234.593.257Z" style="fill:#fa6068;fill:color(display-p3 .9803 .3759 .4092);fill-opacity:1;stroke:#fa6068;stroke:color(display-p3 .9803 .3759 .4092);stroke-opacity:1"/><path fill="#FA6068" stroke="#FA6068" stroke-width=".09" d="M13.955 14.669c.157.042.259.01.32-.05a.32.32 0 0 0 .086-.266c-.012-.1-.062-.188-.14-.227-.074-.037-.184-.036-.336.06a.8.8 0 0 0 .014.225c.014.066.035.147.056.258Z" style="fill:#fa6068;fill:color(display-p3 .9803 .3759 .4092);fill-opacity:1;stroke:#fa6068;stroke:color(display-p3 .9803 .3759 .4092);stroke-opacity:1"/><path fill="#FA6068" stroke="#FA6068" stroke-width=".18" d="M13.917 14.706c-.045-.254-.096-.327-.076-.548.677-.451.804.775.076.548Z" style="fill:#fa6068;fill:color(display-p3 .9803 .3759 .4092);fill-opacity:1;stroke:#fa6068;stroke:color(display-p3 .9803 .3759 .4092);stroke-opacity:1"/><path fill="#FF8B8B" fill-rule="evenodd" d="M14.897 14.911s-.21-.3-.06-.39.3 0 .39-.151c.09-.15 0-.24.03-.42.03-.181.181-.211.331-.241s.572-.09.632.06l-.18-.541-.361-.12-1.143.66-.06.332v.66M11.74 15.903q-.053-.703-.116-1.406c-.064-.7.168-.578.774-.578.093 0 .57.11.605.18.164.335-.274.261.189.514.39.213 1.081-.13.923-.604-.088-.105-.46-.032-.594-.102l-.704-.365c-.299-.155-.99-.38-1.308-.164-.807.549.05 1.92.339 2.493" clip-rule="evenodd" style="fill:#ff8b8b;fill:color(display-p3 1 .5434 .5434);fill-opacity:1"/><path fill="#231F20" fill-rule="evenodd" d="M12.532 5.252c-.82-.19-1.227.343-1.475.897-.222-.054-.134-.356-.078-.51.147-.403.738-.94 1.22-.867.209.032.49.222.333.48M16.524 6.185l.039.002c.185.384.345.792.579 1.131-.157.365-1.185.687-1.17.033.223-.097.607-.02.804-.144-.114-.313-.278-.58-.252-1.022M12.951 6.195c.176.322.233.66.483.904.112.11.33.243.222.548-.025.072-.21.232-.317.264-.39.115-1.3.023-.992-.463.323.015.757.21.998-.025-.185-.296-.516-.882-.394-1.228M16.377 9.468c-.588.378-1.243.789-2.206.694-.206-.18-.284-.578-.085-.84.104.178.04.507.33.557.546.093 1.182-.334 1.575-.484.244-.41-.021-.562-.24-.827-.45-.541-1.053-1.213-1.031-2.025.181-.131.197.202.223.262.235.55.826 1.252 1.257 1.722.106.116.28.227.3.304.055.223-.146.49-.123.637M8.628 9.07c-.185-.104-.228-.567-.445-.58-.309-.02-.253.6-.251.963-.213-.193-.25-.788-.094-1.094-.178-.087-.258.097-.357.162.127-.923 1.35-.428 1.147.55M16.752 9.853c-.274.52-.661 1.094-1.464 1.11-.017-.167-.029-.423 0-.525.615-.059.994-.371 1.463-.585M12.905 10.19c.512.27 1.453.299 2.15.278.037.153.036.341.037.527-.895.045-1.953-.177-2.187-.805M12.807 10.693c.355.889 1.572.786 2.598.762-.045.115-.143.252-.265.3-.329.135-1.236.236-1.693-.006-.29-.154-.475-.502-.634-.706-.076-.098-.458-.35-.006-.35" clip-rule="evenodd" style="fill:#231f20;fill:color(display-p3 .1373 .1216 .1255);fill-opacity:1"/><path fill="#B2CCD6" fill-rule="evenodd" d="M16.334 15.597c-.415.712-.813 1.443-1.306 2.07.207-.607.295-1.624.327-2.4.432-.202.802.046.98.33" clip-rule="evenodd" style="fill:#b2ccd6;fill:color(display-p3 .698 .8 .8392);fill-opacity:1"/><path fill="#231F20" fill-rule="evenodd" d="M18.57 18.155c-.465.093-.791.546-1.245.517.25-.352.686-.5 1.246-.517M18.776 18.883c-.38.04-.825.102-1.21.07.183-.278.884-.182 1.21-.07M18.907 19.511c-.426.01-.956 0-1.36-.033.239-.258 1.084-.096 1.36.033" clip-rule="evenodd" style="fill:#231f20;fill:color(display-p3 .1373 .1216 .1255);fill-opacity:1"/><path fill="#F0D6B7" fill-rule="evenodd" d="M14.845 13.34c-.214.14-.396.315-.601.464-.456.022-.705-.032-1.04-.294.006-.02.04-.011.04-.037.489.217 1.109-.089 1.601-.133" clip-rule="evenodd" style="fill:#f0d6b7;fill:color(display-p3 .9412 .8392 .7176);fill-opacity:1"/><path fill="#B2CCD6" fill-rule="evenodd" d="M12.284 16.666c.134-.58.66-.882 1.136-1.201.493.624.792 1.428 1.122 2.203-.78-.234-1.575-.616-2.258-1.002" clip-rule="evenodd" style="fill:#b2ccd6;fill:color(display-p3 .698 .8 .8392);fill-opacity:1"/><path fill="#231F20" fill-rule="evenodd" d="M15.024 21.307c-.02.475.046 1.236.069 1.735.315 0 .45-.07.686-.15.027-.585-.185-1.128-.246-1.663-.125-.033-.354.088-.51.078m-4.917-2.701c.208 1.914.51 3.523 1.063 5.218 1.228.372 2.707.405 3.792.068-.199-.956-.112-2.12-.228-3.142-.088-.767-.043-1.539-.164-2.322-1.314-.273-3.173-.064-4.463.178m4.774-.166c-.01.822.037 1.633.1 2.456.316-.047.53-.079.823-.143-.095-.792-.084-1.684-.277-2.385-.225.002-.422-.002-.646.072m1.602-.132c-.15-.035-.325-.002-.468.001.067.67.23 1.41.288 2.113.225.007.346-.099.531-.135.01-.617-.054-1.468-.351-1.98m2.424 2.215c.47-.114.765-.689.633-1.28-.088-.396-.245-1.143-.412-1.397-.125-.188-.461-.434-.73-.262-.437.28-1.207.361-1.525.7.16.532.209 1.263.275 1.937.546.034 1.218-.15 1.672.046-.317.102-.729.103-1.003.253.224.108.748.086 1.09.003m-4.365-2.855c-.33-.775-.63-1.579-1.122-2.203-.477.32-1.002.62-1.136 1.201.683.386 1.479.767 2.258 1.002m.813-2.4c-.032.775-.12 1.792-.327 2.4.493-.628.89-1.36 1.306-2.071-.177-.284-.547-.532-.98-.33m-.922-.328c-.187-.02-.345.215-.588.113-.056.061-.106.128-.163.188.537.647.78 1.564 1.195 2.323.222-.73.196-1.529.245-2.325-.305.02-.475-.277-.689-.3m-.592-.782c-.02.221.031.294.076.548.728.227.6-1-.076-.548m-.807-.265a4.5 4.5 0 0 0-1.19-.435c-.502-.096-.455.684-.434 1.15.017.37.209.76.292 1.004.04.115.048.236.146.259.173.04.743-.188.906-.277.343-.187.61-.484.902-.684l.011-.292a1.5 1.5 0 0 0-.636-.16c.175-.089.432-.087.591-.192l.005-.116c-.29-.023-.402-.152-.593-.257m-2.996-.544c-.26.264.73.624 1.046.644-.002-.168.095-.325.075-.445-.374-.066-.866-.023-1.12-.2m3.207.124c-.002.026-.035.016-.04.037.334.262.583.316 1.039.294.205-.15.387-.324.601-.464-.492.044-1.113.35-1.6.133m2.943.892c-.014-.293-.092-.897-.273-1.003-.38-.222-1.058.45-1.345.552.031.09.083.16.087.275a.82.82 0 0 1 .523.06c-.17.018-.358.017-.47.098-.042.12.01.282-.018.447.403.114.864.175 1.374.19.1-.13.133-.375.122-.619m-6.588-.76c-.082-.059-.634-.778-.71-.748-1 .394-1.936 1.076-2.772 1.722.797 1.71 1.119 3.805 1.175 5.825.914.427 1.716 1.043 2.955 1.107-.144-1.014-.275-1.92-.356-2.875-.311-.13-.758.006-1.05-.04-.002-.351.446-.154.483-.39.028-.179-.246-.192-.157-.473.228.082.347.265.59.334.222-.486-.003-1.345.03-1.75.005-.077.037-.423.208-.362.15.054-.009.92.008 1.304.015.354-.043.696.1.919a34 34 0 0 1 3.71-.304c-.285-.123-.624-.238-.995-.447-.201-.114-.836-.35-.894-.541-.092-.305.243-.467.3-.728-.604.33-.721-.316-.864-.773a6 6 0 0 1-.236-.963c-.52-.248-1.077-.5-1.525-.818m6.059-.661c.833-.405.984 1.51.657 2.127.05.184.224.255.295.42-.465.833-.982 1.611-1.457 2.435.354-.22.858-.04 1.273-.204.152-.06.262-.408.377-.686.317-.765.649-1.73.796-2.46.034-.167.124-.53.104-.677-.036-.265-.396-.462-.579-.626-.337-.303-.55-.57-.901-.852-.143.21-.449.351-.565.523M7.694 5.55c-.397.437-.314 1.256-.266 1.839.718-.452 1.67.035 1.662.804.343-.01.128-.428.066-.698-.203-.882.341-1.84.024-2.646-.614.046-1.12.298-1.486.701m2.842-2.536c-.9.255-2.052.908-2.421 1.716.286-.042.484-.186.767-.204.106-.007.246.045.369.014.244-.06.45-.608.635-.812.18-.199.395-.284.543-.466.095-.045.235-.042.24-.185-.04-.044-.084-.077-.133-.063m4.68.24c-.932-.527-2.512-.923-3.505-.428-.801.399-1.884 1.06-2.253 1.897.345.809-.102 1.55-.131 2.37-.015.436.206.817.222 1.293-.118.194-.478.218-.728.205-.084-.42-.23-.893-.664-.94-.612-.068-1.06.44-1.088.97-.033.622.478 1.655 1.203 1.584.28-.028.35-.309.654-.306.166.33-.255.434-.298.67-.011.06.035.299.062.41.131.545.425 1.249.714 1.663.367.525 1.087.605 1.862.656.139-.298.649-.274.981-.196-.398-.157-.768-.54-1.075-.878-.353-.389-.71-.805-.728-1.313.666.924 1.217 1.731 2.428 2.138.916.307 1.986-.141 2.69-.636.293-.205.467-.531.675-.83.777-1.117 1.14-2.713 1.06-4.26-.033-.637-.031-1.273-.245-1.702-.224-.449-.98-.85-1.423-.444-.082-.437.368-.707.897-.55-.377-.486-.773-1.071-1.31-1.374m1.74 14.39c.729-.363 2.092-.976 2.549.001.169.36.367.97.454 1.341.123.525-.134 1.628-.673 1.804-.476.155-1.032.146-1.606.03a.9.9 0 0 1-.195-.256c-.41-.016-.793.022-1.117.19.03.303-.174.352-.366.415-.142.564.285 1.302.183 1.816-.073.367-.525.424-.856.493-.011.203.014.374.037.546-.076.28-.416.439-.739.478-1.06.127-2.67.184-3.69-.182-.285-.699-.51-1.548-.746-2.345-.995.106-1.8-.43-2.558-.78-.263-.122-.626-.189-.724-.398-.096-.202-.057-.59-.08-.957-.06-.936-.112-1.838-.359-2.797-.11-.43-.304-.809-.44-1.223-.124-.384-.342-.859-.399-1.242-.084-.567.45-.599.792-.845.529-.38.943-.59 1.515-.934.17-.101.68-.359.739-.477.115-.235-.198-.566-.282-.75a2.3 2.3 0 0 1-.221-.826 1.6 1.6 0 0 1-1.064-.684c-.363-.533-.616-1.519-.301-2.27.025-.058.148-.174.166-.265.036-.179-.068-.416-.074-.606-.033-.975.165-1.815.821-2.11.267-1.06 1.22-1.414 2.119-1.941.336-.197.706-.323 1.088-.464 1.372-.505 3.476-.41 4.615.451.482.365 1.254 1.136 1.53 1.694.729 1.474.677 3.936.167 5.728-.069.24-.168.595-.307.884-.097.202-.397.605-.36.784.037.184.685.676.824.81.25.241.726.562.764.867.042.324-.143.767-.236 1.08a43 43 0 0 1-.97 2.94" clip-rule="evenodd" style="fill:#231f20;fill:color(display-p3 .1373 .1216 .1255);fill-opacity:1"/><path fill="#F7E4CD" fill-rule="evenodd" d="M12.09 10.418c.04-.053.257-.133.561.014 0 0-.36.06-.33.661l-.15-.03s-.156-.545-.081-.645" clip-rule="evenodd" style="fill:#f7e4cd;fill:color(display-p3 .9686 .8941 .8039);fill-opacity:1"/><path fill="#000" fill-rule="evenodd" d="M14.726 15.587a.165.165 0 1 1-.331 0 .165.165 0 0 1 .33 0M14.891 16.354a.165.165 0 1 1-.33 0 .165.165 0 0 1 .33 0" clip-rule="evenodd" style="fill:#000;fill-opacity:1"/></g></svg>