<svg xmlns="http://www.w3.org/2000/svg" width="24" height="24" fill="none"><g fill="#FF8B8B"><path d="m15.18 8.21-1.013 2.052c.333.31.568.717.66 1.178h.764c.088-.436.304-.83.612-1.133z" style="fill:#ff8b8b;fill:color(display-p3 1 .5434 .5434);fill-opacity:1"/><path d="m13.315 9.767 1.865-3.78 1.86 3.804q.11-.035.22-.064L19.027 4.5h-7.699l1.762 5.213c.074.014.152.034.225.054M12.674 13.11a1.236 1.236 0 0 0 1.033-1.915 1.2 1.2 0 0 0-.137-.177l-.005-.005a1 1 0 0 0-.166-.142l-.005-.005q-.024-.017-.054-.034c-.005 0-.005-.005-.01-.005-.02-.01-.04-.025-.059-.034h-.005l-.063-.035h-.005q-.03-.016-.059-.024c-.005 0-.01-.005-.015-.005-.014-.005-.034-.015-.049-.02-.004 0-.01-.005-.02-.005q-.028-.01-.058-.02h-.005l-.068-.014q-.006.001-.02-.005c-.02-.005-.034-.005-.054-.01-.01 0-.014 0-.024-.005-.015 0-.034-.005-.05-.005h-.18999999999999997c-.02 0-.034.005-.054.005h-.02c-.019.005-.039.005-.058.01h-.015l-.068.015c-.539.132-.94.623-.94 1.202.01.673.563 1.232 1.243 1.232M17.862 10.636h-.01c-.02 0-.034-.005-.053-.005h-.064q-.035-.001-.078.005h-.025c-.02 0-.039.004-.059.004-.004 0-.014 0-.019.005l-.073.015h-.005l-.069.015c-.005 0-.015.005-.02.005a.3.3 0 0 0-.058.02c-.005 0-.01.004-.015.004q-.038.015-.068.03l-.069.03c-.005 0-.01.004-.015.004a.4.4 0 0 0-.058.034s-.005 0-.005.005a.7.7 0 0 0-.128.089l-.004.004a1.3 1.3 0 0 0-.172.162 1.247 1.247 0 0 0-.299.81c0 .683.554 1.237 1.234 1.237s1.234-.554 1.234-1.237a1.247 1.247 0 0 0-1.102-1.236M7.56 13.11a1.236 1.236 0 0 0 0-2.474 1.236 1.236 0 0 0 0 2.473" style="fill:#ff8b8b;fill:color(display-p3 1 .5434 .5434);fill-opacity:1"/><path d="M17.74 14.066a2.2 2.2 0 0 1-2.12-1.644h-.822a2.196 2.196 0 0 1-2.457 1.62q-.424.655-1.018 1.212a6.7 6.7 0 0 1-2.35 1.463l-.2.074-.186-.099c-1.028-.53-1.556-1.605-1.37-2.645a2 2 0 0 1-.338-.089c-.02.035-.034.074-.054.113-.313.648-.641 1.316-.759 2.032-.127.766-.18 2.165.896 2.911.47.324.964.486 1.517.486 1.063 0 2.208-.57 3.422-1.173.95-.471 1.928-.962 2.946-1.213.387-.093.779-.152 1.155-.206.69-.098 1.346-.196 1.88-.505a2.17 2.17 0 0 0 1.062-1.507c.069-.383.03-.77-.098-1.129-.323.187-.7.3-1.106.3" style="fill:#ff8b8b;fill:color(display-p3 1 .5434 .5434);fill-opacity:1"/></g></svg>