<svg xmlns="http://www.w3.org/2000/svg" width="24" height="24" fill="none"><path fill="#FFCB6B" d="M17.492 16.555c.987 1.319-1.648 2.277-2.71.371l-1.444.838.089.146c.543.916 1.393 1.452 2.54 1.606 2.513.3 4.154-1.302 3.264-3.578-.633-1.301-2.292-1.547-3.258-2.189-.569-.331-.45-1.032.006-1.314.355-.218 1.171-.246 1.592.626l1.38-.89c-1.089-1.964-3.664-1.569-4.436-.676-1.05 1.233-.75 2.61.175 3.493.718.688 1.845.922 2.802 1.567m-6.524 2.78c.795-.322 1.262-.987 1.386-1.976.01-.1.017-6.49.017-6.49h-1.75l-.013 6.32c-.04.41-.285.703-.643.76-.61.099-1.016-.079-1.44-.872l-1.425.861c.61 1.436 2.452 1.963 3.868 1.397M4.578 3h14.844C20.296 3 21 3.704 21 4.578v14.844c0 .874-.704 1.578-1.578 1.578H4.578A1.574 1.574 0 0 1 3 19.422V4.578C3 3.704 3.704 3 4.578 3" style="fill:#ffcb6b;fill:color(display-p3 1 .7961 .4196);fill-opacity:1"/></svg>