<svg xmlns="http://www.w3.org/2000/svg" width="24" height="24" fill="none"><path fill="#FF8B8B" d="M17.224 8.252v1.789h.789a1 1 0 0 1 1 1v6.944a1 1 0 0 1-1 1h-6.944a1 1 0 0 1-1-1v-.79h-1.79v2.579a1 1 0 0 0 1 1h10.523a1 1 0 0 0 1-1V9.252a1 1 0 0 0-1-1z" style="fill:#ff8b8b;fill:color(display-p3 1 .5434 .5434);fill-opacity:1"/><path fill="#FFCB6B" d="M13.87 13.166c.74.99-1.237 1.708-2.034.279l-1.082.628.066.11q.613 1.03 1.906 1.204c1.884.225 3.115-.977 2.447-2.683-.475-.977-1.718-1.161-2.443-1.642-.427-.249-.338-.774.004-.985.267-.165.879-.185 1.194.469l1.036-.668c-.817-1.473-2.749-1.176-3.328-.507-.787.925-.562 1.957.131 2.62.539.516 1.384.691 2.102 1.175m-4.894 2.085c.596-.241.946-.74 1.04-1.482.007-.075.012-4.867.012-4.867H8.717l-.01 4.74c-.03.307-.214.527-.482.57-.457.074-.762-.06-1.08-.655l-1.069.647c.458 1.076 1.84 1.472 2.9 1.047M4.183 3h11.134A1.18 1.18 0 0 1 16.5 4.183v11.134a1.18 1.18 0 0 1-1.183 1.183H4.183A1.18 1.18 0 0 1 3 15.317V4.183A1.18 1.18 0 0 1 4.183 3" style="fill:#ffcb6b;fill:color(display-p3 1 .7961 .4196);fill-opacity:1"/></svg>