<svg xmlns="http://www.w3.org/2000/svg" width="24" height="24" fill="none"><g fill-rule="evenodd" clip-rule="evenodd"><path fill="#80CBC4" d="M7.833 4.5H6.167c-.92 0-1.667.746-1.667 1.667V9.5c0 .92-.746 1.667-1.667 1.667H2v1.666h.833c.92 0 1.667.746 1.667 1.667v3.333c0 .917.775 1.442 1.667 1.667h1.666v-1.667H6.167v-2.95a3.001 3.001 0 0 1 0-5.766v-2.95h1.666zM19.5 6.167c0-.92-.746-1.667-1.667-1.667h-1.666v1.667h1.666v2.95a3.001 3.001 0 0 1 0 5.766v2.95h-1.666V19.5h1.666c.92 0 1.667-.746 1.667-1.667V14.5c0-.92.746-1.667 1.667-1.667H22v-1.666h-.833c-.92 0-1.667-.746-1.667-1.667z" style="fill:#80cbc4;fill:color(display-p3 .502 .7961 .7686);fill-opacity:1"/><path fill="#FFCB6B" d="M7 10.5a1.5 1.5 0 1 1 0 3 1.5 1.5 0 0 1 0-3m5 0a1.5 1.5 0 1 1 0 3 1.5 1.5 0 0 1 0-3m6.5 1.5a1.5 1.5 0 1 0-3 0 1.5 1.5 0 0 0 3 0" style="fill:#ffcb6b;fill:color(display-p3 1 .7961 .4196);fill-opacity:1"/></g></svg>