<svg xmlns="http://www.w3.org/2000/svg" width="24" height="24" fill="none"><path fill="#6B7394" d="M17.747 3.935a.971.971 0 0 1-1.116 1.008.97.97 0 0 1-.793-.734.99.99 0 0 1 .369-1.02.96.96 0 0 1 1.227.068.98.98 0 0 1 .313.678" style="fill:#6b7394;fill:color(display-p3 .42 .4493 .58);fill-opacity:1"/><path fill="#F78C6C" d="M12.096 15.428c-2.58 0-4.834-.945-6.004-2.345a6.4 6.4 0 0 0 2.324 3.114 6.33 6.33 0 0 0 3.682 1.184c1.319 0 2.606-.414 3.682-1.184a6.4 6.4 0 0 0 2.324-3.114c-1.173 1.4-3.427 2.345-6.008 2.345M12.096 6.323c2.58 0 4.834.946 6.004 2.346a6.4 6.4 0 0 0-2.324-3.115 6.33 6.33 0 0 0-3.682-1.183c-1.319 0-2.606.413-3.682 1.183A6.4 6.4 0 0 0 6.088 8.67c1.173-1.397 3.427-2.346 6.008-2.346" style="fill:#f78c6c;fill:color(display-p3 .9686 .549 .4235);fill-opacity:1"/><path fill="#6B7394" d="M8.553 18.15a1.24 1.24 0 0 1-.705 1.17 1.21 1.21 0 0 1-1.342-.209 1.236 1.236 0 0 1 .777-2.138c.323-.013.638.103.876.324.239.221.38.528.394.853M6.386 6.007a.71.71 0 0 1-.681-.418.73.73 0 0 1 .122-.794.72.72 0 0 1 .774-.19.727.727 0 0 1 .281 1.168.71.71 0 0 1-.496.233" style="fill:#6b7394;fill:color(display-p3 .42 .4493 .58);fill-opacity:1"/></svg>