<svg xmlns="http://www.w3.org/2000/svg" width="24" height="24" fill="none"><path fill="#FFCB6B" fill-rule="evenodd" d="M16.5 3h3.75a.75.75 0 0 1 .75.75v3c0 .199-.079.39-.22.53l-1.5 1.5a.75.75 0 0 1-.53.22H16.5v2.25c0 .199-.079.39-.22.53l-1.527 1.528A6 6 0 0 1 15 15c0 3.308-2.692 6-6 6s-6-2.692-6-6c0-3.665 3.332-6.601 7.086-5.896L15.97 3.22c.14-.141.33-.22.53-.22M6.75 15.75a1.5 1.5 0 1 0 3 0 1.5 1.5 0 0 0-3 0" clip-rule="evenodd" style="fill:#ffcb6b;fill:color(display-p3 1 .7961 .4196);fill-opacity:1"/></svg>