<svg xmlns="http://www.w3.org/2000/svg" width="24" height="24" fill="none"><path fill="#C792EA" fill-rule="evenodd" d="M5.76 8.29c0-.283-.04-.402-.189-.606-.103-.138-.946-1.028-1.88-1.97L2 4v8.567l1.627-1.647C5.68 8.837 5.759 8.745 5.759 8.29m10.622 4.989c-.032-.099-2.041-2.201-4.517-4.719-2.45-2.49-4.472-4.527-4.498-4.527-.033 0-.052 1.845-.052 4.099 0 4.567.006 4.613.428 5.51.22.474.363.639 2.028 2.339.986 1.008 1.867 1.878 1.964 1.93.227.12.726.12.985-.006.273-.132 3.578-3.506 3.662-3.743.091-.237.091-.646 0-.883m3.928-2.985C21.807 8.77 23 7.506 23 7.447c0-.086-.052-.119-.175-.112-.246.013-9.528 1.094-9.612 1.127-.032.006.94 1.04 2.171 2.293l2.236 2.273zM6.356 17.938c.032 0 .051-1.898.051-4.217s-.019-4.218-.051-4.218c-.065 0-3.533 3.552-3.669 3.756-.117.185-.136.666-.032.877.077.164 3.63 3.802 3.7 3.802" clip-rule="evenodd" style="fill:#c792ea;fill:color(display-p3 .7804 .5725 .9176);fill-opacity:1"/></svg>