<svg xmlns="http://www.w3.org/2000/svg" width="24" height="24" fill="none"><path fill="#4775D1" d="m10.503 14.018.006.009-.832 2.072a4.42 4.42 0 0 1-1.73-2.23l2.149-.375.003.004a.36.36 0 0 1 .353.136.39.39 0 0 1 .05.384zM9.81 12.19a.36.36 0 0 0 .168-.103.38.38 0 0 0 .084-.378.4.4 0 0 0-.108-.168l.002-.01-1.634-1.506a4.53 4.53 0 0 0-.609 2.795l2.095-.622zm.954-1.7a.36.36 0 0 0 .523-.098.4.4 0 0 0 .06-.192l.008-.004.125-2.25c-.946.114-1.829.55-2.508 1.238l1.789 1.308zm.634 2.361.602.3.602-.298.15-.67-.417-.535h-.67l-.416.535zm1.25-2.658a.39.39 0 0 0 .207.325.36.36 0 0 0 .376-.036l.007.002 1.778-1.3a4.27 4.27 0 0 0-2.493-1.237l.123 2.245zm9.063 5.127-4.81 6.167a1.34 1.34 0 0 1-.464.377 1.3 1.3 0 0 1-.577.133L8.142 22a1.3 1.3 0 0 1-.576-.134 1.34 1.34 0 0 1-.464-.378L2.29 15.322a1.4 1.4 0 0 1-.256-1.15L3.75 6.48a1.35 1.35 0 0 1 .72-.922l6.95-3.424a1.3 1.3 0 0 1 1.155 0l6.954 3.422c.365.18.63.519.72.922l1.718 7.69c.09.404-.004.827-.257 1.151m-2.74-1.766c-.036-.009-.086-.023-.121-.03-.146-.028-.263-.021-.4-.032-.291-.032-.531-.058-.746-.127-.087-.035-.15-.142-.18-.186l-.167-.05a5.7 5.7 0 0 0-.868-3.86l.148-.137c.007-.078 0-.157.078-.243.164-.158.37-.29.62-.448.118-.072.227-.117.345-.208.027-.02.064-.053.092-.076.2-.164.246-.447.102-.632-.143-.186-.421-.203-.62-.039-.029.023-.067.053-.093.076-.112.1-.18.197-.275.3-.205.215-.375.394-.56.523-.082.048-.2.032-.253.029l-.159.116a5.4 5.4 0 0 0-3.455-1.72l-.01-.192c-.054-.053-.119-.099-.136-.215-.018-.23.013-.478.048-.777.02-.14.05-.256.057-.408l-.001-.122c0-.263-.187-.477-.417-.477s-.416.214-.416.477l.001.012c0 .035-.002.08 0 .11.005.152.037.268.056.408.035.299.065.547.047.778a.47.47 0 0 1-.135.222l-.01.18A5.3 5.3 0 0 0 8.07 8.528l-.15-.11c-.075.01-.15.034-.248-.025-.185-.129-.355-.307-.56-.522-.095-.103-.163-.2-.275-.3l-.092-.075a.5.5 0 0 0-.29-.114.39.39 0 0 0-.332.152c-.143.185-.097.468.103.633l.006.004.086.071c.119.09.227.137.345.208.25.159.455.29.62.448.063.07.074.194.083.248l.133.122a5.69 5.69 0 0 0-.85 3.87l-.173.052c-.046.062-.111.158-.18.186-.214.07-.454.095-.745.126-.137.012-.254.006-.4.034-.031.006-.075.017-.111.026l-.003.001-.006.002c-.246.061-.404.294-.353.522.051.23.291.369.538.314l.006-.001.008-.003.107-.025c.142-.04.245-.097.374-.147.275-.102.503-.187.725-.22.093-.008.191.059.24.087l.18-.032a5.55 5.55 0 0 0 2.4 3.088l-.074.187c.027.072.057.171.036.242-.08.217-.219.444-.376.699-.076.116-.155.207-.224.342-.016.032-.037.082-.053.115-.107.236-.028.508.177.61.207.103.464-.006.575-.242v-.002l.052-.109c.058-.139.078-.258.12-.393.11-.285.171-.584.323-.77.041-.052.108-.071.179-.09l.094-.177a5.23 5.23 0 0 0 3.84.01l.09.165c.07.024.15.036.213.133.113.2.19.436.285.722.041.134.061.253.12.392l.052.111c.11.237.368.345.575.242.206-.101.284-.373.178-.61-.017-.033-.038-.082-.055-.114-.069-.134-.147-.225-.223-.342-.158-.255-.288-.465-.37-.681-.032-.112.007-.18.033-.253-.015-.019-.05-.123-.07-.173a5.56 5.56 0 0 0 2.4-3.11c.054.008.147.025.178.032.063-.043.12-.098.233-.09.222.034.45.119.725.22.129.052.231.11.374.149.03.008.073.016.108.024l.008.003h.005c.248.055.487-.084.538-.313.05-.229-.107-.461-.353-.522m-3.303-3.528-1.625 1.5v.004a.38.38 0 0 0-.117.37.4.4 0 0 0 .092.177q.072.075.169.103l.002.008 2.105.625a4.6 4.6 0 0 0-.626-2.788m-3.344 4.573a.37.37 0 0 0-.14-.15.36.36 0 0 0-.378.008.4.4 0 0 0-.13.143l-1.058 1.968a4.18 4.18 0 0 0 2.772.003l-1.058-1.972zm1.573-1.11a.36.36 0 0 0-.225.03.37.37 0 0 0-.185.209.4.4 0 0 0 .007.283l-.003.003.842 2.094a4.4 4.4 0 0 0 1.734-2.246l-2.167-.378z" style="fill:#4775d1;fill:color(display-p3 .28 .46 .82);fill-opacity:1"/></svg>