<svg xmlns="http://www.w3.org/2000/svg" width="24" height="24" fill="none"><path fill="#80CBC4" d="M2.995 3.58c.213.384.436.714.669.999.226-.012 1.038.418 1.203.479.465.259.974.578 1.436.886.463.308.88.606 1.166.825.143.11.255.2.323.262q.04.033.071.075l.01.02a.06.06 0 0 1-.02.06.1.1 0 0 1-.021.01.1.1 0 0 1-.026 0c-.052 0-.186-.15-.455-.38A21.5 21.5 0 0 0 4.82 5.14c-.461-.257-.875-.497-1.157-.562a2 2 0 0 0-.331-.023 2.5 2.5 0 0 0-.722.122c.452.38.834.656 1.173.87a2.24 2.24 0 0 0-1.744.121c.483.302.887.52 1.242.683 1.01.143 2.07.638 2.955 1.2.443.282.829.564 1.117.795.144.115.266.217.358.3.09.084.16.142.18.193.028.067-.017.096-.077.053-.029-.02-.08-.093-.168-.175a7 7 0 0 0-.352-.3c-.286-.229-.668-.505-1.109-.785-.818-.515-2.045-.929-2.908-1.28a2.25 2.25 0 0 0-1.747.357c.411.183.767.32 1.083.424.745 0 1.735.335 2.69.845.956.51 1.87 1.113 2.313 1.627.06.07-.014.115-.067.064-.477-.454-1.341-1.104-2.29-1.61-.586-.309-1.974-.926-2.646-.926l.004.002c-.52.018-1.036.179-1.54.656.438.109.812.18 1.141.229-.403.08-.797.275-1.181.662q.444.094.808.148c-.3.146-.586.37-.846.715.342.028.644.039.917.04-.33.153-.638.395-.913.78.488.024.898.023 1.25.002-.387.158-.744.426-1.05.888.607.009 1.09-.02 1.493-.07l-.006.002c.908-.067 2.106.116 2.715.776.048.053-.022.108-.066.068-.594-.532-1.368-.758-2.649-.844H2.69c-.497.136-.958.409-1.338.984.491.008.9-.012 1.252-.046-.43.236-.8.59-1.044 1.198a12 12 0 0 0 1.134-.268c-.333.243-.612.583-.8 1.095.297-.066.56-.134.798-.203a2.3 2.3 0 0 0-.47 1.004c.323-.12.6-.233.849-.346a2.3 2.3 0 0 0-.504 1.09c.453-.181.824-.355 1.135-.52-.285.306-.498.697-.583 1.243q.685-.295 1.322-.682c-.397.332-.7.773-.806 1.455a10 10 0 0 0 1.62-.875 2.26 2.26 0 0 0-.215 1.235c.698-.535 1.14-.968 1.468-1.35-.022.247-.002.513.07.81.501-.86 1-1.11 1.513-1.399-.82.414-.698.725-.698 1.086.626-.66 1.499-1.359 1.766-1.797-.357.536-.501 1.045-.595 1.494-1.827.966-2.94 1.219-4.188 1.604.484.178 1.002.352.788.598l-.572.57c.365-.113.737-.275 1.061-.054-.032.3-.41.451-.733.626.569-.205.693-.157.843-.11.074.36-.186.553-.356.79 1.435-1.09 3.306-1.952 4.624-2.311 1.854-.625 4.244-1.274 4.894-2.856l.653-2.61-.004.004c-.102-.031-.225-.058-.32-.122a.6.6 0 0 1-.216-.272c-.231.06-.403.027-.513-.08-.108-.108-.153-.272-.186-.45q-.282.056-.429-.071c-.106-.093-.155-.239-.181-.407l-.007-.036.034-.014a.8.8 0 0 0 .276-.178.24.24 0 0 0 .064-.206l-.005-.034.027-.014c.15-.086.317-.155.393-.257a.25.25 0 0 0 .048-.193.8.8 0 0 0-.142-.327l-.024-.037.036-.024c.108-.083.224-.164.283-.239q.044-.055.043-.1c0-.03-.014-.065-.059-.108l-.09-.086.124.006c.195.009.362-.007.493-.049a.46.46 0 0 0 .251-.18c-.006-.03-.018-.058-.018-.09a.444.444 0 0 1 .886 0c0 .04-.013.077-.024.114.163.013.319.01.465-.055l.002.001.032-.012c.216-.078.306.041.66-.418-1.549-2.007-3.81-.582-4.562 1.487-.193.528-1.288.53-1.605 0-1.256-2.704-5.07-5.562-8.314-6.617m.788 1.966c.83.268 1.754.717 2.54 1.217.393.25.744.498 1.02.714s.52.434.569.527c.05.094 0 .129-.075.055-.075-.071-.278-.293-.55-.507a13 13 0 0 0-1.014-.712c-.71-.45-1.817-.878-2.49-1.294M2.225 8.02c1.023.013 2.154.41 3.147.914.496.252.938.52 1.28.76.34.242.615.48.672.603.056.123-.018.119-.08.05a4 4 0 0 0-.645-.574q-.609-.424-1.27-.757c-.882-.442-2.093-.85-3.104-.996m13.673.707a.35.35 0 1 0 0 .7.35.35 0 0 0 0-.7m-13.34.043c.754.066 1.577.338 2.323.688.996.467 1.866 1.062 2.231 1.528.032.041-.013.12-.073.057-.392-.403-1.212-1.037-2.197-1.499-.837-.386-2.092-.797-2.99-.715.23-.027.455-.08.706-.059m14.978.01c-.336.435-.486.387-.645.425.087.394.321.537.537.706l-.055.01c2.122-.409 3.837-.261 5.627-.216zm-.163 1.142h-.002l-.004.014zm-.573-.694c-.168.068-.342.07-.516.054a.44.44 0 0 1-.385.238.44.44 0 0 1-.4-.255.56.56 0 0 1-.25.173 1.5 1.5 0 0 1-.452.05c.018.032.05.063.05.096a.25.25 0 0 1-.063.159c-.067.084-.173.156-.27.227q.12.194.136.332a.36.36 0 0 1-.064.26c-.097.129-.264.193-.402.27a.34.34 0 0 1-.083.245.8.8 0 0 1-.272.181c.024.143.068.26.14.325.08.07.194.094.39.043l.05-.013.01.05c.03.19.08.353.172.443s.223.124.46.05l.046-.013.014.044c.046.13.11.204.192.258.08.055.226.103.328.135.731-.796 1.398-1.624 1.727-2.622-.206-.162-.464-.31-.558-.73m-14.878.354c1.068-.074 2.093.18 2.935.574.844.394 1.52.86 1.81 1.198.069.08-.018.11-.066.066a7.5 7.5 0 0 0-1.785-1.183c-.829-.38-2.01-.59-2.894-.655m.792.735c.56.018 1.137.142 1.656.323.693.24 1.302.562 1.601.898.041.046-.006.116-.068.063-.32-.279-.88-.635-1.564-.872-.526-.178-1.478-.338-2.079-.364.181-.02.268-.054.454-.048m.963 1.639c.387.031.812.122 1.229.373.04.024.045.125-.045.082-.785-.368-1.215-.449-2.252-.284.354-.117.678-.202 1.067-.171m-.037.722a2.4 2.4 0 0 1 1.189.187c.04.017.073.116-.03.086-.786-.222-1.07-.3-2.097.096.257-.21.57-.336.938-.369m1.178.63c.29-.021.582-.024.856.006.048.005.05.096-.005.093a7.2 7.2 0 0 0-1.684.105c-.223.043-.388.04-1.288.42.263-.213.728-.414 1.27-.513q.422-.077.852-.11zm1.173.45c.091.002.057.095.006.094-.668-.01-1.196.12-1.719.27q-.622.196-1.208.481c.26-.21.653-.419 1.183-.57.531-.152 1.144-.299 1.738-.277zm.484.364c.033-.005.097.077.017.092-.67.125-1.14.244-1.645.416-.198.068-.531.19-1.14.538.24-.247.602-.451 1.113-.623a9.7 9.7 0 0 1 1.655-.422zm.285.465c.07-.011.09.08.019.093-1.116.221-1.614.51-2.329 1.049.462-.48 1.19-.963 2.31-1.142m.546.41c.08-.011.1.08.019.092-.8.12-1.354.507-2.067 1.22.27-.453.92-1.137 2.048-1.312m.34.358c.043-.006.105.067.022.092a2.4 2.4 0 0 0-.613.275c-.167.108-.275.183-.548.464.102-.224.272-.398.497-.54.227-.144.468-.27.643-.291" style="fill:#80cbc4;fill:color(display-p3 .502 .7961 .7686);fill-opacity:1"/></svg>