<svg xmlns="http://www.w3.org/2000/svg" width="24" height="24" fill="none"><g fill-rule="evenodd" clip-rule="evenodd"><path fill="#82AAFF" d="M9.102 10.15c-1.169 0-2.29.966-2.257 2.486 0 1.568 1.04 2.486 2.417 2.486.577 0 1.217-.206 1.713-.538l-.48-.84c-.352.207-.688.302-1.04.302-.641 0-1.137-.301-1.265-1.03h2.897c.016-.11.049-.332.049-.586.016-1.282-.689-2.28-2.034-2.28m4.514 1.997q.102.037.21.078c.624.205 1.312.57 1.312 1.44 0 .872-.688 1.537-1.97 1.537-.608 0-1.344-.27-1.824-.665l.624-.919c.432.333.832.49 1.233.49.432 0 .624-.157.624-.395 0-.294-.415-.452-.873-.625l-.104-.04c-.576-.222-1.264-.618-1.264-1.393 0-.871.736-1.489 1.825-1.489.736 0 1.28.317 1.68.618l-.64.839c-.352-.253-.672-.396-1.024-.396s-.545.143-.545.38c0 .271.33.392.736.54m3.868-.005.215.083c.625.205 1.313.57 1.313 1.44 0 .872-.688 1.537-1.969 1.537-.608 0-1.345-.27-1.825-.665l.64-.919c.433.333.833.49 1.233.49.432 0 .624-.157.624-.395 0-.294-.415-.452-.872-.625l-.104-.04c-.576-.222-1.265-.618-1.265-1.393 0-.871.737-1.489 1.825-1.489.737 0 1.281.317 1.681.618l-.64.839c-.352-.253-.672-.396-1.025-.396s-.544.143-.544.38c0 .268.322.389.713.535m-8.366-.93c-.448 0-.832.3-.928.933h1.729c0-.538-.224-.934-.8-.934" style="fill:#82aaff;fill:color(display-p3 .5098 .6667 1);fill-opacity:1"/><path fill="#B2CCD6" d="M5.086 8.25h-.85c-.865 0-1.25.333-1.25 1.362 0 .68.097 1.06.097 1.647 0 .332-.209.68-.833.712v.824c.624.015.833.364.833.696 0 .586-.097.935-.097 1.616 0 1.029.385 1.361 1.233 1.361h.625v-.728H4.65c-.4 0-.528-.158-.528-.681 0-.522.048-.966.048-1.552 0-.728-.24-1.013-.72-1.124v-.048c.48-.11.72-.396.72-1.124 0-.57-.048-1.03-.048-1.552s.112-.665.528-.665h.435zM20.918 11.259c0-.618.096-.982.096-1.647 0-1.03-.385-1.362-1.233-1.362h-.625v.728h.193c.432 0 .528.143.528.665 0 .491-.048.982-.048 1.552 0 .729.24 1.014.72 1.125v.047c-.48.11-.72.396-.72 1.124 0 .57.048 1.03.048 1.552 0 .539-.112.681-.528.681v.016h-.193v.76h.625c.848 0 1.233-.332 1.233-1.362 0-.68-.096-1.03-.096-1.647 0-.332.208-.68.832-.712v-.824c-.624-.015-.832-.364-.832-.696" style="fill:#b2ccd6;fill:color(display-p3 .698 .8 .8392);fill-opacity:1"/><path fill="#82AAFF" d="M6.509 13.618V8.25H5.084v5.289c0 .966.336 1.6 1.313 1.6.304 0 .544-.048.72-.112l-.16-1.029c-.096.016-.448-.08-.448-.38" style="fill:#82aaff;fill:color(display-p3 .5098 .6667 1);fill-opacity:1"/></g></svg>