<svg xmlns="http://www.w3.org/2000/svg" width="24" height="24" fill="none"><path fill="url(#a)" d="M20.457 10.557 19.001 9.1V7.04A2.044 2.044 0 0 0 16.96 5H14.9l-1.457-1.457a2.047 2.047 0 0 0-2.886 0L9.1 4.999H7.04A2.044 2.044 0 0 0 5 7.04V9.1l-1.457 1.457a2.046 2.046 0 0 0 0 2.886L4.999 14.9v2.06c0 1.125.916 2.041 2.042 2.041H9.1l1.457 1.457c.398.397.92.596 1.443.596s1.045-.198 1.443-.596l1.456-1.456h2.06A2.044 2.044 0 0 0 19 16.96V14.9l1.457-1.457a2.046 2.046 0 0 0 0-2.886m-4.414-.934-4.577 5.834a.88.88 0 0 1-.658.335h-.03a.88.88 0 0 1-.65-.288l-2.132-2.36a.877.877 0 0 1 .063-1.237.877.877 0 0 1 1.237.063l1.435 1.589 3.936-5.016a.875.875 0 1 1 1.376 1.08"/><defs><radialGradient id="a" cx="0" cy="0" r="1" gradientTransform="matrix(8 18.99997 -21.01918 8.8502 8 2.5)" gradientUnits="userSpaceOnUse"><stop stop-color="#89DDFF" style="stop-color:#89ddff;stop-color:color(display-p3 .5373 .8667 1);stop-opacity:1"/><stop offset=".38" stop-color="#DCF7B5" stop-opacity=".76" style="stop-color:#dcf7b5;stop-color:color(display-p3 .8639 .9705 .7083);stop-opacity:.76"/><stop offset=".705" stop-color="#F9B7A4" style="stop-color:#f9b7a4;stop-color:color(display-p3 .9776 .7196 .6424);stop-opacity:1"/><stop offset="1" stop-color="#fff" stop-opacity=".61" style="stop-color:white;stop-opacity:.61"/></radialGradient></defs></svg>