<svg xmlns="http://www.w3.org/2000/svg" width="24" height="24" fill="none"><path fill="#FFCB6B" d="M7.844 4a7.96 7.96 0 0 0-4.039 1.11 2 2 0 0 0-.98 1.727v10.419c0 1.377 1.382 2.4 2.716 1.875a6.3 6.3 0 0 1 2.29-.44 6.35 6.35 0 0 1 3.172.855 2 2 0 0 0 .997.269V5.189C11.197 4.7 9.738 4 7.844 4" style="fill:#ffcb6b;fill:color(display-p3 1 .7961 .4196);fill-opacity:1"/><path fill="#916B53" d="M16.156 4c1.822 0 3.223.627 4.039 1.11.62.365.98 1.025.98 1.727v10.419c0 1.377-1.382 2.4-2.716 1.875a6.3 6.3 0 0 0-2.29-.44 6.35 6.35 0 0 0-3.174.856 2 2 0 0 1-.995.268V5.189C12.803 4.7 14.262 4 16.156 4" style="fill:#916b53;fill:color(display-p3 .5686 .4196 .3255);fill-opacity:1"/><path fill="#FFCB6B" fill-rule="evenodd" d="M14.82 8.79a7.8 7.8 0 0 1 3.537 0 .86.86 0 0 1-.387 1.676 6.1 6.1 0 0 0-2.763 0 .86.86 0 1 1-.388-1.676" clip-rule="evenodd" style="fill:#ffcb6b;fill:color(display-p3 1 .7961 .4196);fill-opacity:1"/><path fill="#916B53" fill-rule="evenodd" d="M5.784 8.79a7.8 7.8 0 0 1 3.538 0 .86.86 0 0 1-.388 1.676 6.1 6.1 0 0 0-2.762 0 .86.86 0 1 1-.388-1.676" clip-rule="evenodd" style="fill:#916b53;fill:color(display-p3 .5686 .4196 .3255);fill-opacity:1"/><path fill="#FFCB6B" fill-rule="evenodd" d="M14.82 12.805a7.8 7.8 0 0 1 3.537 0 .86.86 0 0 1-.387 1.676 6.1 6.1 0 0 0-2.763 0 .86.86 0 0 1-.388-1.676" clip-rule="evenodd" style="fill:#ffcb6b;fill:color(display-p3 1 .7961 .4196);fill-opacity:1"/><path fill="#916B53" fill-rule="evenodd" d="M5.784 12.805a7.8 7.8 0 0 1 3.538 0 .86.86 0 0 1-.388 1.676 6.1 6.1 0 0 0-2.762 0 .86.86 0 0 1-.388-1.676" clip-rule="evenodd" style="fill:#916b53;fill:color(display-p3 .5686 .4196 .3255);fill-opacity:1"/></svg>