<svg xmlns="http://www.w3.org/2000/svg" width="24" height="24" fill="none"><g clip-rule="evenodd"><path stroke="#6B7394" stroke-width="1.043" d="M12.391 20.47a8.078 8.078 0 1 0 0-16.157 8.078 8.078 0 0 0 0 16.157Z" style="stroke:#6b7394;stroke:color(display-p3 .42 .4493 .58);stroke-opacity:1"/><path fill="#4775D1" fill-rule="evenodd" d="M12.49 7.417c-2.801 0-5.073 2.236-5.073 4.994s2.272 4.993 5.073 4.994a5.12 5.12 0 0 0 3.589-1.463 4.96 4.96 0 0 0 1.486-3.531A4.96 4.96 0 0 0 16.08 8.88a5.12 5.12 0 0 0-3.589-1.463m1.456 1.5c.483 0 .947.189 1.29.525.341.337.533.793.533 1.27 0 .99-.817 1.793-1.823 1.792s-1.822-.803-1.822-1.793.815-1.794 1.822-1.794M18.204 8.327c1.007 0 1.823-.804 1.823-1.795s-.816-1.794-1.823-1.794c-1.006 0-1.823.804-1.823 1.794 0 .991.817 1.795 1.823 1.795" style="fill:#4775d1;fill:color(display-p3 .28 .46 .82);fill-opacity:1"/></g></svg>