<svg xmlns="http://www.w3.org/2000/svg" width="24" height="24" fill="none"><path fill="#6B7394" fill-rule="evenodd" d="M7 7.75A2.75 2.75 0 0 1 9.75 5h4.5A2.75 2.75 0 0 1 17 7.75v8.5A2.75 2.75 0 0 1 14.25 19h-4.5A2.75 2.75 0 0 1 7 16.25z" clip-rule="evenodd" opacity=".4" style="fill:#6b7394;fill:color(display-p3 .42 .4493 .58);fill-opacity:1"/><path fill="#6B7394" fill-rule="evenodd" d="M19.25 6.5a.75.75 0 0 1 .75.75v9.5a.75.75 0 0 1-1.5 0v-9.5a.75.75 0 0 1 .75-.75M4.75 6.5a.75.75 0 0 1 .75.75v9.5a.75.75 0 0 1-1.5 0v-9.5a.75.75 0 0 1 .75-.75" clip-rule="evenodd" style="fill:#6b7394;fill:color(display-p3 .42 .4493 .58);fill-opacity:1"/><path fill="#B2CCD6" d="m14.2 11.349-2.98-1.74c-.52-.303-1.183.06-1.183.651v3.48c0 .59.662.954 1.183.65l2.98-1.739a.749.749 0 0 0 0-1.302" style="fill:#b2ccd6;fill:color(display-p3 .698 .8 .8392);fill-opacity:1"/></svg>