<svg xmlns="http://www.w3.org/2000/svg" width="24" height="24" fill="none"><path fill="#FA6068" d="M2.97 6.083A3.083 3.083 0 0 1 6.053 3h6.263a1.96 1.96 0 0 1 1.388.576l4.388 4.387c.368.369.575.867.575 1.388v3.195a2.523 2.523 0 0 0-2.803 2.507v.28h-.28a2.523 2.523 0 0 0 0 5.046h.28v.28q0 .135.014.267-.145.013-.295.013h-9.53a3.083 3.083 0 0 1-3.083-3.083z" opacity=".4" style="fill:#fa6068;fill:color(display-p3 .9803 .3759 .4092);fill-opacity:1"/><path fill="#C3E88D" fill-rule="evenodd" d="M19.227 15.053a.84.84 0 0 0-1.681 0v1.962h-1.963a.84.84 0 0 0 0 1.682h1.963v1.962a.84.84 0 0 0 1.681 0v-1.962h1.962a.84.84 0 0 0 0-1.682h-1.962z" clip-rule="evenodd" style="fill:#c3e88d;fill:color(display-p3 .7647 .9098 .5529);fill-opacity:1"/><path fill="#FF8B8B" d="M13.621 13.09a2.242 2.242 0 1 0 .001-4.483 2.242 2.242 0 0 0 0 4.484M10.37 13.09H8.464a1.01 1.01 0 0 0-1.01 1.01v1.906c0 .557.452 1.01 1.01 1.01h1.906a1.01 1.01 0 0 0 1.009-1.01V14.1a1.01 1.01 0 0 0-1.01-1.01M10.148 10.454a.79.79 0 0 0-.004-.786L8.654 7.11c-.282-.482-1.076-.48-1.355 0L5.807 9.667a.786.786 0 0 0 .678 1.181h2.98c.281 0 .544-.15.683-.394" style="fill:#ff8b8b;fill:color(display-p3 1 .5434 .5434);fill-opacity:1"/></svg>