<svg xmlns="http://www.w3.org/2000/svg" width="24" height="24" fill="none"><path fill="#4775D1" d="m3 13.241 5.285-2.135a13.7 13.7 0 0 1 1.803-1.956c.438-.232 1.26-.106 2.765-1.976 1.459-1.823 1.923-3.382 2.606-3.382 1.08 0 1.877 2.334 3.083 5.868.86 2.7 1.87 5.35 3.024 7.937-1.26-1.173-2.334-2.44-3.56-2.407-1.141.027-2.408 1.38-3.793 3.117-1.101 1.392-2.56 2.347-3.13 2.327 0 0-1.472-4.164-2.706-4.84a1.75 1.75 0 0 0-1.584.133L3 13.234z" style="fill:#4775d1;fill:color(display-p3 .28 .46 .82);fill-opacity:1"/><path fill="#82AAFF" d="M14.803 4.27c-.445.597-.982 1.69-1.95 2.904-1.505 1.87-2.32 1.744-2.765 1.976a13 13 0 0 0-1.803 1.956l2.188 1.598c1.856-2.533 2.851-5.278 3.627-7.055q.292-.72.703-1.38" style="fill:#82aaff;fill:color(display-p3 .5098 .6667 1);fill-opacity:1"/><path fill="#F78C6C" d="M15.466 3.792c-1.446 0-2.434 7.612-7.771 11.863 1.498-.246 2.798 3.474 3.394 4.98 2.653-.452 4.775-5.524 6.916-5.445 1.227.047 2.301 1.234 3.561 2.407-2.878-6.047-4.224-13.805-6.1-13.805" style="fill:#f78c6c;fill:color(display-p3 .9686 .549 .4235);fill-opacity:1"/></svg>