<svg xmlns="http://www.w3.org/2000/svg" width="24" height="24" fill="none"><path fill="#FA6068" d="M5.22 3.97h8.116a2.05 2.05 0 0 1 2.053 2.043 2.05 2.05 0 0 1-2.053 2.042H5.22a2.05 2.05 0 0 1-2.054-2.042A2.05 2.05 0 0 1 5.22 3.97" style="fill:#fa6068;fill:color(display-p3 .9803 .3759 .4092);fill-opacity:1"/><path fill="#FFCB6B" d="M18.633 8.055c1.158 0 2.096-.914 2.096-2.042 0-1.129-.938-2.043-2.096-2.043s-2.096.914-2.096 2.043c0 1.128.938 2.042 2.096 2.042" style="fill:#ffcb6b;fill:color(display-p3 1 .7961 .4196);fill-opacity:1"/><path fill="#FA6068" d="M10.616 10.07h8.017a2.056 2.056 0 0 1 2.195 1.902c.085 1.127-.779 2.1-1.912 2.184h-8.3a2.056 2.056 0 0 1-2.195-1.902c-.085-1.127.779-2.1 1.912-2.184h.283" style="fill:#fa6068;fill:color(display-p3 .9803 .3759 .4092);fill-opacity:1"/><path fill="#FFCB6B" d="M5.263 10.028a2.086 2.086 0 1 1 0 4.17c-1.162-.014-2.097-.944-2.097-2.085 0-1.155.935-2.085 2.097-2.085" style="fill:#ffcb6b;fill:color(display-p3 1 .7961 .4196);fill-opacity:1"/><path fill="#FA6068" d="M5.22 15.945h8.116a2.05 2.05 0 0 1 2.053 2.043 2.05 2.05 0 0 1-2.053 2.042H5.22a2.05 2.05 0 0 1-2.054-2.043 2.05 2.05 0 0 1 2.054-2.042" style="fill:#fa6068;fill:color(display-p3 .9803 .3759 .4092);fill-opacity:1"/><path fill="#FFCB6B" d="M18.633 20.03c1.158 0 2.096-.914 2.096-2.043 0-1.128-.938-2.042-2.096-2.042s-2.096.914-2.096 2.043c0 1.128.938 2.042 2.096 2.042" style="fill:#ffcb6b;fill:color(display-p3 1 .7961 .4196);fill-opacity:1"/></svg>