<svg xmlns="http://www.w3.org/2000/svg" width="24" height="24" fill="none"><path fill="#FF8B8B" fill-rule="evenodd" d="M4.5 8.25h15a.75.75 0 0 1 .75.75v10.5a.75.75 0 0 1-.75.75h-15a.75.75 0 0 1-.75-.75V9a.75.75 0 0 1 .75-.75m10.5 6-5.25-3v6z" clip-rule="evenodd" style="fill:#ff8b8b;fill:color(display-p3 1 .5434 .5434);fill-opacity:1"/><path fill="#FFCB6B" d="M3.165 6.21a.75.75 0 0 1 .585-.885l14.477-2.953a.75.75 0 1 1 .3 1.47L4.05 6.794a.75.75 0 0 1-.885-.585" style="fill:#ffcb6b;fill:color(display-p3 1 .7961 .4196);fill-opacity:1"/></svg>