<svg xmlns="http://www.w3.org/2000/svg" width="24" height="24" fill="none"><path fill="#89DDFF" d="M7.703 19.034h-.197l-.969-.977v-.197l1.483-1.466H9.05l.128.129v1.028l-1.465 1.483zM6.537 8.123v-.18l.969-.969h.197L9.17 8.44v1.029l-.129.128H8.012zm1.363 5.7H2.26l-.12-.12v-1.406l.12-.12H7.9l.12.12v1.406zm14.692 0h-5.64l-.12-.12v-1.406l.12-.12h5.64l.12.12v1.406zm-10.98-5.494V4.12l.12-.12h1.414l.12.12v4.2l-.12.12h-1.414zm0 13.551v-4.2l.12-.12h1.414l.12.111v4.209l-.12.12h-1.414zM15.074 15.914l-.008.009zH13.66l-.12-.111V12.52c0-.583-.231-1.028-.943-1.054-.36 0-.771 0-1.225.017l-.06.069v4.25l-.12.12H9.769l-.112-.12v-5.605l.112-.12h3.171a2.227 2.227 0 0 1 2.237 2.229v3.497z" style="fill:#89ddff;fill:color(display-p3 .5373 .8667 1);fill-opacity:1"/></svg>