<svg xmlns="http://www.w3.org/2000/svg" width="24" height="24" fill="none"><path fill="#2ECC71" d="M11.47 3.298a.9.9 0 0 1 .797-.053l.107.053 6.8 3.926c.28.16.453.46.451.782v7.851a.89.89 0 0 1-.451.783l-6.8 3.926a.9.9 0 0 1-.796.054l-.107-.054-6.8-3.925a.9.9 0 0 1-.267-.231l-.065-.099a.9.9 0 0 1-.12-.453V8.006a.89.89 0 0 1 .453-.782zm-2.48 4.77c-.582 0-.993.386-.993.85v6.003c0 .48.394.874.873.874.48 0 .875-.394.875-.874v-4.347l3.917 4.688c.3.344.736.538 1.191.532.582 0 .993-.383.994-.848V8.943a.88.88 0 0 0-.873-.873.88.88 0 0 0-.875.873v4.348l-3.653-4.373-.264-.316A1.56 1.56 0 0 0 8.99 8.07" style="fill:#2ecc71;fill:color(display-p3 .1804 .8 .4431);fill-opacity:1"/></svg>