<svg xmlns="http://www.w3.org/2000/svg" width="24" height="24" fill="none"><path fill="#89DDFF" fill-rule="evenodd" d="m13.71 9.68 3.9 7.296.91-1.668-1.051-1.954 2.086-.006.445-.833-.454-.852-2.97.01-1.068-1.989zM13.412 15.512H5.615l.881 1.686 2.092-.006-1.039 1.956.445.832.91.001 1.477-2.784 2.128-.005zM8.874 12.315l3.898-7.297L10.98 5 9.94 6.96 8.892 5.01h-.89l-.456.852 1.493 2.775-1.06 1.993z" clip-rule="evenodd" style="fill:#89ddff;fill:color(display-p3 .5373 .8667 1);fill-opacity:1"/><path fill="#82AAFF" fill-rule="evenodd" d="m15.118 12.685-3.898 7.297 1.79.018 1.042-1.96 1.048 1.95h.89l.455-.852-1.493-2.775 1.06-1.993zM10.596 9.471h7.796l-.88-1.686-2.092.007 1.038-1.956-.445-.833-.91-.001-1.477 2.785-2.127.004zM10.29 15.32l-3.9-7.297-.91 1.667 1.051 1.955-2.086.005-.445.834.454.852 2.97-.01 1.068 1.988z" clip-rule="evenodd" style="fill:#82aaff;fill:color(display-p3 .5098 .6667 1);fill-opacity:1"/></svg>