<svg xmlns="http://www.w3.org/2000/svg" width="24" height="24" fill="none"><path fill="#2ECC71" d="m19.619 8.882-.518-.298c.796-1.175 1.273-2.942.676-5.584 0 0-1.345 3.768-4.048 3.643l-3.164-1.82a.8.8 0 0 0-.389-.114h-.073a.84.84 0 0 0-.39.113L8.55 6.643C5.846 6.77 4.5 3 4.5 3c-.597 2.642-.12 4.408.676 5.584l-.518.298a.85.85 0 0 0-.426.74l.015 10.932c0 .152.08.294.213.368.13.079.293.079.423 0l4.193-2.4a.86.86 0 0 0 .426-.74v-5.107c0-.304.162-.587.426-.738l1.785-1.028a.84.84 0 0 1 .85 0l1.785 1.028c.264.151.426.434.426.738v5.107a.86.86 0 0 0 .428.74l4.19 2.4a.41.41 0 0 0 .427 0 .42.42 0 0 0 .212-.368l.013-10.931a.85.85 0 0 0-.426-.741" style="fill:#2ecc71;fill:color(display-p3 .1804 .8 .4431);fill-opacity:1"/></svg>