<svg xmlns="http://www.w3.org/2000/svg" width="24" height="24" fill="none"><path fill="#2ECC71" fill-rule="evenodd" d="M12 3a.9.9 0 0 0-.447.118l-7.44 4.23a.9.9 0 0 0-.446.781v8.49c0 .318.169.608.447.767l7.439 4.245a.9.9 0 0 0 .894 0l7.44-4.245a.88.88 0 0 0 .446-.767V8.13a.9.9 0 0 0-.447-.78l-7.439-4.231A.9.9 0 0 0 12 3" clip-rule="evenodd" opacity=".6" style="fill:#2ecc71;fill:color(display-p3 .1804 .8 .4431);fill-opacity:1"/><mask id="a" width="18" height="19" x="3" y="3" maskUnits="userSpaceOnUse" style="mask-type:luminance"><path fill="#fff" fill-rule="evenodd" d="M12 3a.9.9 0 0 0-.447.118l-7.44 4.23a.9.9 0 0 0-.446.781v8.49c0 .318.169.608.447.767l7.439 4.245a.9.9 0 0 0 .894 0l7.44-4.245a.88.88 0 0 0 .446-.767V8.13a.9.9 0 0 0-.447-.78l-7.439-4.231A.9.9 0 0 0 12 3" clip-rule="evenodd" style="fill:#fff;fill-opacity:1"/></mask><g mask="url(#a)"><path fill="#2ECC71" fill-rule="evenodd" d="m11.237 1.407 9.723 16.84-8.355 4.823L2.883 6.23z" clip-rule="evenodd" style="fill:#2ecc71;fill:color(display-p3 .1804 .8 .4431);fill-opacity:1"/></g></svg>