<svg xmlns="http://www.w3.org/2000/svg" width="24" height="24" fill="none"><path fill="#2ECC71" d="M13.342 19h8.178c.26 0 .515-.065.74-.188.224-.121.41-.298.542-.512a1.34 1.34 0 0 0 0-1.4l-5.493-9a1.44 1.44 0 0 0-.542-.512 1.55 1.55 0 0 0-1.479 0c-.223.121-.41.298-.542.512l-1.404 2.303L10.596 5.7a1.44 1.44 0 0 0-.541-.512 1.55 1.55 0 0 0-1.48 0c-.224.121-.41.298-.542.512L1.2 16.9a1.34 1.34 0 0 0-.001 1.4c.131.214.318.39.542.512.225.123.48.188.74.188h5.133c2.034 0 3.534-.845 4.566-2.494l2.506-4.106 1.342-2.197 4.029 6.6h-5.37zM7.53 16.8H3.947L9.317 8l2.68 4.4-1.794 2.94c-.686 1.07-1.464 1.46-2.674 1.46" style="fill:#2ecc71;fill:color(display-p3 .1804 .8 .4431);fill-opacity:1"/></svg>