<svg xmlns="http://www.w3.org/2000/svg" width="24" height="24" fill="none"><path fill="#FFCB6B" d="M12.156 20.291c-.075-.146-.164-.45-.223-.582-.059-.116-.237-.435-.324-.537-.193-.218-.236-.233-.296-.523-.105-.494-.354-1.367-.665-1.976-.163-.32-.429-.582-.666-.814-.206-.203-.68-.537-.768-.523-.783.146-1.02.9-1.389 1.496-.207.334-.413.611-.577.96-.146.319-.132.682-.384.959a2.5 2.5 0 0 0-.546.944c-.03.072-.089.799-.163.973l1.153-.072c1.08.073.768.479 2.439.392l2.644-.086a5 5 0 0 0-.236-.611M19.84 3H4.145a2.68 2.68 0 0 0-1.87.76A2.56 2.56 0 0 0 1.5 5.6v5.667c.385-.13.916-.93 1.094-1.118.295-.335.354-.77.502-1.033.34-.61.399-1.045 1.167-1.045.356 0 .503.086.74.407.162.218.457.64.59.915.163.32.415.74.533.828.088.058.162.117.236.146.119.043.222-.044.31-.103.103-.086.149-.246.251-.478.149-.336.297-.712.385-.858.148-.232.207-.523.37-.654.236-.203.56-.218.65-.232.487-.102.708.232.945.436.162.144.37.421.533.783.118.291.266.568.339.728.06.159.207.421.296.74.088.277.295.494.385.64 0 0 .133.349.901.669q.347.143.709.246c.341.116.665.103 1.079.059.295 0 .458-.422.591-.756.074-.204.162-.77.207-.93.043-.159-.075-.275.03-.421.117-.16.192-.175.25-.378.15-.45.975-.465 1.449-.465.399 0 .34.379 1.005.247.384-.073.752.043 1.153.16.34.087.665.189.858.406.117.147.428.858.117.887.029.029.059.102.103.13-.074.277-.369.073-.547.044-.221-.043-.385 0-.606.102-.384.16-.93.146-1.27.421-.28.233-.28.74-.414 1.033 0 0-.37.914-1.153 1.481-.207.146-.605.494-1.463.625a6 6 0 0 1-1.153.043c-.193-.014-.383-.014-.576-.014-.119 0-.503-.015-.488.03l-.044.102a.5.5 0 0 0 .03.145c.014.086.014.16.029.232 0 .16-.015.334 0 .494.015.334.149.64.163.988.014.378.206.785.399 1.09.074.116.177.13.222.275.059.16 0 .35.029.524.103.683.31 1.41.621 2.034v.015c.384-.058.783-.203 1.286-.276.93-.131 2.216-.073 3.044-.146 2.099-.19 3.237.843 5.113.422V5.6a2.6 2.6 0 0 0-.786-1.839A2.7 2.7 0 0 0 19.84 3m-7.832 12.206q0-.045 0 0m-5.661 2.382c.148-.32.237-.67.355-.99.118-.304.295-.74.606-.9-.043-.043-.65-.058-.813-.073a7 7 0 0 1-.532-.072q-.505-.09-1.006-.203a11 11 0 0 1-.989-.335c-.34-.145-.561-.567-.813-.523-.162.03-.324.087-.43.247-.087.131-.116.364-.176.523-.073.175-.192.349-.28.523-.208.305-.548.582-.696.887-.028.073-.043.145-.073.218v3.502c.177.029.354.058.546.116 1.479.392 1.833.421 3.281.261l.133-.014c.104-.233.193-1.003.266-1.235.059-.19.134-.335.164-.508.029-.175 0-.35-.015-.508-.03-.422.309-.569.472-.916" style="fill:#ffcb6b;fill:color(display-p3 1 .7961 .4196);fill-opacity:1"/></svg>