<svg xmlns="http://www.w3.org/2000/svg" width="24" height="24" fill="none"><path fill="#B2CCD6" fill-rule="evenodd" d="M6.88 19.403c-.344-.237-.617-.466-.617-.466l8.874-15.371a9 9 0 0 0 1.363.64c4.302 2.483 5.778 7.992 3.294 12.294S11.802 22.278 7.5 19.794c0 0-.301-.173-.62-.391m8.87-13.898-7.5 12.99a7.504 7.504 0 0 0 10.245-2.745A7.504 7.504 0 0 0 15.75 5.505M4.615 17.146A9 9 0 0 1 12 3s.42-.001.769.032c.526.05.876.119.876.119l-8.487 14.7s-.201-.21-.543-.705m6.487-12.591A7.49 7.49 0 0 0 5.505 8.25a7.49 7.49 0 0 0-.401 6.695z" clip-rule="evenodd" style="fill:#b2ccd6;fill:color(display-p3 .698 .8 .8392);fill-opacity:1"/></svg>