<svg xmlns="http://www.w3.org/2000/svg" width="24" height="24" fill="none"><path fill="#FA6068" fill-rule="evenodd" d="M5.997 17.994V5.997h11.997v3.055a3.27 3.27 0 0 1 2.688 3.212v.463h.131q.096 0 .187.013V4.145C21 3.513 20.487 3 19.855 3H4.145C3.513 3 3 3.513 3 4.145v15.71C3 20.487 3.513 21 4.145 21h7.577a1.3 1.3 0 0 1-.077-.44v-2.566zM12 13.141c.24-.255.58-.414.954-.414h1.179v-.463c0-.851.328-1.627.864-2.208V8.994H12z" clip-rule="evenodd" style="fill:#fa6068;fill:color(display-p3 .9803 .3759 .4092);fill-opacity:1"/><path fill="#FFCB6B" fill-rule="evenodd" d="M20.355 14.195h-.491v-.998c0-1.378-1.1-2.495-2.456-2.495s-2.456 1.117-2.456 2.495v.998h-.491a.993.993 0 0 0-.983.997v4.99c0 .549.442.998.983.998h5.894c.54 0 .982-.449.982-.998v-4.99a.993.993 0 0 0-.982-.998m-2.947 4.49a.993.993 0 0 1-.983-.998c0-.549.442-.998.983-.998s.982.45.982.998a.993.993 0 0 1-.982.998m-1.523-4.49h3.045v-.998c0-.854-.682-1.547-1.522-1.547s-1.523.693-1.523 1.547z" clip-rule="evenodd" style="fill:#ffcb6b;fill:color(display-p3 1 .7961 .4196);fill-opacity:1"/></svg>