<svg xmlns="http://www.w3.org/2000/svg" width="24" height="24" fill="none"><path fill="#B2CCD6" d="M12.196 18.357 6.87 15.283a.22.22 0 0 1-.108-.185v-4.75c0-.082.09-.134.16-.095l6.185 3.57a.129.129 0 0 0 .194-.113v-2.315a.26.26 0 0 0-.13-.224L5.732 6.878a.21.21 0 0 0-.215 0l-.975.565a.22.22 0 0 0-.107.185v8.823c0 .078.043.147.107.186l7.643 4.413c.064.04.15.04.215 0l6.418-3.707a.13.13 0 0 0 0-.224l-2-1.155a.25.25 0 0 0-.259 0l-4.142 2.393a.21.21 0 0 1-.215 0zM20.041 7.439 12.4 3.029a.21.21 0 0 0-.215 0l-4.04 2.332a.13.13 0 0 0 0 .224l1.984 1.147a.25.25 0 0 0 .258 0l1.81-1.043a.21.21 0 0 1 .216 0l5.327 3.073a.22.22 0 0 1 .108.185v4.772c0 .09.048.176.13.224l1.982 1.142a.13.13 0 0 0 .194-.112V7.628a.22.22 0 0 0-.107-.185z" style="fill:#b2ccd6;fill:color(display-p3 .698 .8 .8392);fill-opacity:1"/></svg>