<svg xmlns="http://www.w3.org/2000/svg" width="24" height="24" fill="none"><path fill="#FA6068" fill-rule="evenodd" d="M11.043 2.625c-.665 0-1.302.264-1.772.734L5.029 7.6a2.5 2.5 0 0 0-.734 1.771v2.44H19.33V5.132a2.506 2.506 0 0 0-2.506-2.506zm-.066 6.682H5.966l5.011-5.012z" clip-rule="evenodd" style="fill:#fa6068;fill:color(display-p3 .9803 .3759 .4092);fill-opacity:1"/><path fill="#FF8B8B" fill-rule="evenodd" d="M2.625 13.483h2.923a2.923 2.923 0 0 1 0 5.846H4.295V21h-1.67zm1.67 4.176h1.253a1.253 1.253 0 1 0 0-2.506H4.295zM9.307 13.483h2.088a3.758 3.758 0 1 1 0 7.517H9.307zm1.67 1.67v4.176h.418a2.088 2.088 0 0 0 0-4.176zM15.989 13.483H21v1.67h-3.34v1.253h2.505v1.67h-2.506V21h-1.67z" clip-rule="evenodd" style="fill:#ff8b8b;fill:color(display-p3 1 .5434 .5434);fill-opacity:1"/></svg>