<svg xmlns="http://www.w3.org/2000/svg" width="24" height="24" fill="none"><path fill="#935EDD" d="M11.683 1.5c-.13 0-.18.603-.22 2.56-.051 2.502-.061 2.58-.446 3.424-.316.694-1.42 2.342-1.783 2.66-.326.287-1.035 1.365-1.382 2.101-.622 1.316-.577 3.08-.035 4.416.453 1.045 1.104 1.887 2.152 2.784.823.705 1.076.805 1.203.476.043-.112-.142-.5-.422-.89-.274-.382-.738-1.192-1.031-1.802-1.21-2.56-.613-4.687.79-7.04.778-1.218 1.227-2.311 1.38-3.37.193-1.325.038-5.319-.206-5.319m-.662 1.063c-.163 0-.2.228-.2 1.244 0 .685-.07 1.448-.155 1.696-.273.8-1.01 1.52-3.046 2.979-1.474 1.054-2.71 2.32-3.185 3.265-1.458 2.887-.17 6.397 2.992 8.166 1.412.79 2.596 1.097 2.596.672 0-.11-.048-.199-.106-.199-.059 0-.553-.29-1.098-.646-2.353-1.535-3.453-3.436-3.278-5.671.131-1.672.764-2.696 3.321-5.369 2.207-2.306 2.354-2.598 2.357-4.64 0-1.243-.032-1.497-.198-1.497m1.32.553c-.09.015-.123.792-.125 2.54l-.003 2.56-.651 2.461c-.727 2.223-.835 4.491-.302 6.76.488 1.926.696 2.308 1.37 2.5.301.085.78.31 1.065.5.644.428 1.22.38 2.375-.203 1.68-.849 2.808-1.945 3.56-3.46.651-1.441.748-3.245.059-4.68-.613-1.238-1.647-2.235-3.814-3.673-1.891-1.256-2.29-1.592-2.756-2.32-.282-.44-.323-.634-.27-1.264.036-.41.11-.855.169-.992.088-.21.06-.235-.177-.16-.228.072-.298.024-.368-.25-.053-.214-.098-.325-.133-.319m.624 4.013c.03-.006.118.099.22.268.127.207.895.875 1.709 1.485 2.527 1.915 4.61 3.83 3.576 7.175-.355 1.002-.866 1.81-1.718 2.71-.476.503-1.108.954-1.339.954-.04 0 .22-.376.581-.835 1.17-1.487 1.726-3.253 1.567-4.964-.147-1.572-1.363-3.479-3.284-5.154-.798-.697-1.328-1.344-1.323-1.616q0-.02.011-.023m-.953 13.555c-.182-.005-.26.306-.26.981 0 .823.016.865.3.825.264-.037.303-.132.338-.787.028-.537-.016-.79-.16-.91q-.127-.105-.218-.109m-.92.245c-.109-.001-.198.123-.286.377-.075.214-.222.42-.327.46-.281.11-.23.482.066.482a.78.78 0 0 0 .467-.21c.386-.387.507-.721.334-.93q-.144-.176-.253-.179zm1.814.056c-.273 0-.245.533.047.904.27.343.794.496.794.231 0-.22-.678-1.136-.84-1.136" style="fill:#935edd;fill:color(display-p3 .5755 .3673 .8671);fill-opacity:1"/></svg>