<svg xmlns="http://www.w3.org/2000/svg" width="24" height="24" fill="none"><g fill="#82AAFF"><path d="M3.248 8.334h3.275q1.44.012 2.09.831.647.819.427 2.236a4.3 4.3 0 0 1-.379 1.271q-.28.623-.782 1.125-.61.635-1.308.806a6 6 0 0 1-1.442.171H3.663l-.464 2.322H1.5zm1.43 1.393-.734 3.666a1 1 0 0 0 .147.012h.17q1.175.013 1.956-.232.782-.255 1.051-1.784.22-1.283-.44-1.478-.647-.196-1.625-.184a3 3 0 0 1-.281.012h-.257zM10.975 6h1.686l-.476 2.334H13.7q1.246.025 1.858.513.623.489.366 1.858l-.819 4.07h-1.71l.782-3.887q.121-.611-.074-.867-.195-.258-.843-.257l-1.356-.012-1.002 5.022H9.215zM17.735 8.334h3.275q1.442.012 2.09.831t.427 2.236a4.3 4.3 0 0 1-.378 1.271q-.281.623-.783 1.125-.61.635-1.307.806a6 6 0 0 1-1.442.171H18.15l-.465 2.322h-1.698zm1.43 1.393-.733 3.666a1 1 0 0 0 .146.012h.171q1.173.013 1.956-.232.78-.255 1.05-1.784.22-1.283-.44-1.478-.647-.196-1.625-.184a3 3 0 0 1-.28.012h-.258z" style="fill:#82aaff;fill:color(display-p3 .5098 .6667 1);fill-opacity:1"/></g></svg>