<svg xmlns="http://www.w3.org/2000/svg" width="24" height="24" fill="none"><path fill="#FF8B8B" d="M9.7 15.738v-1.346l-3.74 1.06s.276-1.605 2.227-2.159a3.24 3.24 0 0 1 1.513-.086v-5.52h1.872a11 11 0 0 0-.567-1.453c-.274-.557-.555-.188-1.192.346-.45.375-1.585 1.176-3.293 1.636s-3.09.338-3.666.239c-.816-.141-1.244-.32-1.204.3.035.549.166 1.398.465 2.52.647 2.43 2.785 7.114 6.826 6.025 1.055-.284 1.8-.846 2.316-1.563zm-6.035-4.429 2.872-.756s-.084 1.104-1.16 1.388c-1.077.284-1.712-.632-1.712-.632" style="fill:#ff8b8b;fill:color(display-p3 1 .5434 .5434);fill-opacity:1"/><path fill="#AEE33E" d="M20.507 7.75c-.746.131-2.537.294-4.75-.299s-3.683-1.63-4.265-2.117c-.825-.691-1.188-1.171-1.545-.445-.315.64-.72 1.683-1.11 3.143-.847 3.16-1.48 9.83 3.755 11.234 5.234 1.402 8.02-4.69 8.867-7.852.39-1.459.562-2.564.609-3.276.054-.808-.5-.573-1.56-.388M9.99 10.365s.825-1.283 2.224-.885 1.508 1.945 1.508 1.945zm3.415 5.758c-2.46-.721-2.84-2.684-2.84-2.684l6.61 1.849s-1.334 1.547-3.77.835m2.338-4.033s.823-1.282 2.222-.884c1.4.399 1.51 1.947 1.51 1.947z" style="fill:#aee33e;fill:color(display-p3 .6824 .8902 .2431);fill-opacity:1"/><path fill="#FA6068" d="m8.393 14.762-2.433.69s.264-1.506 2.056-2.102L6.64 8.18l-.12.036c-1.707.46-3.089.338-3.665.239-.817-.141-1.244-.32-1.204.3.035.549.165 1.398.464 2.52C2.761 13.707 4.9 18.39 8.94 17.3l.12-.037zM3.665 11.31l2.872-.756s-.084 1.104-1.16 1.388c-1.077.284-1.712-.632-1.712-.632" style="fill:#fa6068;fill:color(display-p3 .9803 .3759 .4092);fill-opacity:1"/><path fill="#2ECC71" d="m13.516 16.15-.111-.027c-2.461-.721-2.84-2.684-2.84-2.684l3.408.953 1.805-6.935-.022-.006c-2.213-.593-3.682-1.63-4.264-2.117-.825-.691-1.188-1.171-1.545-.445-.315.64-.72 1.683-1.11 3.143-.847 3.16-1.48 9.83 3.755 11.234l.107.024zM9.99 10.365s.825-1.283 2.224-.885 1.508 1.945 1.508 1.945z" style="fill:#2ecc71;fill:color(display-p3 .1804 .8 .4431);fill-opacity:1"/><path fill="#000" d="m8.517 14.727-.653.185c.154.87.426 1.703.853 2.44.074-.017.147-.03.223-.052.198-.053.382-.12.559-.191-.477-.707-.792-1.522-.982-2.382m-.255-6.12c-.335 1.251-.635 3.053-.553 4.86a4 4 0 0 1 .478-.174l.12-.027c-.147-1.93.171-3.896.53-5.234q.136-.507.273-.947a9 9 0 0 1-.483.287c-.121.374-.244.782-.365 1.235" opacity=".3" style="fill:#000;fill-opacity:1"/></svg>