<svg xmlns="http://www.w3.org/2000/svg" width="24" height="24" fill="none"><path fill="#6B7394" fill-rule="evenodd" d="M14.811 10.276V9.188H9.188v5.624h2.457v-.78c0-.718.59-1.305 1.31-1.305h1.178v-.463c0-.748.253-1.437.678-1.988m-3.166 5.099H9.188V21h2.534a1.3 1.3 0 0 1-.077-.44zM3 21v-5.625h5.625V21z" clip-rule="evenodd" style="fill:#6b7394;fill:color(display-p3 .42 .4493 .58);fill-opacity:1"/><path fill="#FFCB6B" fill-rule="evenodd" d="M3 3v5.625h5.625V3zm6.188 0v5.625h5.623V3zm6.187 5.625V3H21v5.625zm0 1.08c.279-.22.595-.396.937-.518h-.937zm3.129-.518a3.27 3.27 0 0 1 2.178 3.077v.463h.131q.096 0 .187.013V9.188zM20.355 14.195h-.491v-.998c0-1.378-1.1-2.495-2.456-2.495s-2.456 1.117-2.456 2.495v.998h-.491a.993.993 0 0 0-.983.997v4.99c0 .549.443.998.983.998h5.894c.54 0 .982-.449.982-.998v-4.99a.993.993 0 0 0-.982-.998m-2.947 4.49a.993.993 0 0 1-.983-.998c0-.549.442-.998.983-.998s.982.45.982.998a.993.993 0 0 1-.982.998m-1.523-5.488v.998h3.045v-.998c0-.854-.682-1.547-1.522-1.547s-1.523.693-1.523 1.547" clip-rule="evenodd" style="fill:#ffcb6b;fill:color(display-p3 1 .7961 .4196);fill-opacity:1"/></svg>