<svg xmlns="http://www.w3.org/2000/svg" width="24" height="24" fill="none"><path fill="#FF8B8B" stroke="#FF8B8B" stroke-linejoin="round" stroke-width=".2" d="M19.283 6.278c-.145-.185-.303-.36-.445-.546a3.4 3.4 0 0 0-.48-.537 9 9 0 0 0-1.185-.834c-.824-.5-1.794-.856-2.735-1.057-.5-.107-1.01-.144-1.52-.176-.52-.032-1.039-.058-1.56-.007-.983.096-2.019.184-2.953.528-.887.326-1.718.844-2.437 1.456-.37.316-.661.707-.967 1.082-.318.39-.613.79-.86 1.226-.535.942-.99 1.988-1.054 3.083-.016.27-.001.54.028.809.03.271.055.568.143.828.013.037.039.073.038.114-.001.037-.04.058-.035.098.005.041.043.048.054.084.016.05 0 .1.002.153.003.118.047.232.075.346a.53.53 0 0 1-.026.335c.05-.03.098-.063.15-.09.039.158.09.313.127.471.041.173.069.25.197.379 0-.2-.054-.368-.081-.565l.075.017c-.074.075.07.266.098.336.048-.048.088-.078.158-.071-.025-.063-.037-.13-.063-.193-.02-.048-.065-.099-.073-.133-.008-.032.01-.058-.009-.097-.014-.03-.05-.046-.065-.076-.042-.081.024-.165.011-.255-.028-.202-.096-.397-.12-.6-.021-.178.023-.398-.117-.537-.087.07-.067.246-.194.197-.099-.038-.072-.19.026-.164.001-.09-.037-.123.008-.2.041-.073.102-.123.137-.204.074-.173.087-.377.1-.563.03-.425.114-.806.254-1.21.266-.767.652-1.495 1.073-2.187.788-1.295 1.967-2.416 3.364-3.033.432-.19.886-.336 1.344-.449.45-.11.916-.1 1.375-.147-.384.542-.755 1.099-1.158 1.626-.388.507-.784 1.006-1.168 1.515-.4.528-.751 1.088-1.122 1.635q-.273.403-.553.801a5 5 0 0 1-.287.362c-.048.058-.048.108-.072.176-.025.07-.07.132-.108.196l-.045-.084c-.089.142-.168.29-.255.433-.049.078-.212.232-.064.286q-.047.037-.091.075c.044.049.107.073.148.125l.034-.045c.015.113.058-.005.084-.04q.048-.067.102-.127c.076-.079.167-.141.245-.218.16-.157.302-.333.444-.506.316-.385.593-.8.92-1.175-.033.389-.046.779-.078 1.168-.015.184.004.366-.016.552-.02.19-.038.38-.035.57.004.389.025.772 0 1.161-.01.157.02.305.02.46 0 .097-.027.233.098.233 0 .249-.087.475-.068.729.009.115-.011.224-.012.339 0 .132.107.23.104.354-.078 0-.128-.024-.164.047-.03.062.004.187.008.254.007.121.004.244 0 .365-.002.072.018.273-.037.334-.057.063-.165.04-.246.043q-.222.005-.445.003c-.285 0-.569.011-.854.015-.576.006-1.151-.008-1.728.019-.242.01-.515.024-.742.117-.1.04-.103.082-.145.174-.009.02-.055.019-.06.047-.008.048.046.104.058.149a1 1 0 0 0 .08-.042l-.059.097.194-.072c0 .042.232.002.29.007.092.009.182.036.273.055.25.05.51.06.766.073.481.026.962.022 1.444.02.505 0 1.008.018 1.512.007.483-.011.966-.035 1.449-.05.988-.033 1.977-.025 2.964-.088a90 90 0 0 1 2.98-.153 44 44 0 0 0 1.643-.073c.54-.036 1.109-.089 1.648-.045l-.092.077c.157.002-.092.232-.108.258-.03.044-.034.105-.063.15-.031.047-.062.047-.102.084-.003.002-.025.05-.03.06-.028.048-.026.098-.055.146-.066.108-.094.128-.225.172l.09.03c-.036.019-.004.061-.022.12-.024.076-.085.148-.133.21a2.8 2.8 0 0 1-.394.41c-.23.2-.427.428-.673.613-.243.185-.498.361-.757.522-.254.157-.521.292-.773.452-.266.17-.549.26-.84.38-.282.115-.553.256-.859.3-.323.048-.649.08-.973.122-.33.044-.648.094-.98.096-.134.001-.265.014-.398-.011-.163-.032-.309-.061-.476-.071a3.5 3.5 0 0 1-.895-.158c-.116-.039-.183-.04-.3-.048-.139-.01-.263-.085-.401-.1-.115-.013-.123-.054-.216-.1-.126-.063-.25-.099-.373-.177-.116-.075-.23-.151-.36-.202s-.271-.074-.402-.128c-.116-.048-.215-.126-.32-.196-.115-.076-.22-.103-.345-.151-.263-.1-.503-.306-.708-.491-.186-.169-.49-.217-.588-.459-.035-.089-.094-.103-.166-.168a3 3 0 0 0-.348-.275c-.234-.158-.376-.38-.535-.609-.06-.085-.138-.232-.23-.287-.09-.053-.124.07-.23.07l.413.654c-.04-.031-.098-.022-.133-.065-.02-.024-.013-.076-.033-.098-.055-.06-.18-.03-.253-.04.098.152.192.335.263.473.079.152.248.25.342.392-.136.03.047.226.085.27.046.051.1.093.147.144.067.073.052.115.052.209.075-.076.09-.039.155.015.013.01.07.048.085.054q.029.023.064.032a1 1 0 0 0 .075-.016c.006.002.097.056.113.065.008.005.006.04.03.053.062.034.097.022.153.073.2.184.382.384.606.546a9.5 9.5 0 0 0 1.649.938c.28.126.57.218.868.29.324.08.645.187.972.249.252.047.518.119.774.127.155.005.31-.006.466.004.042.003.354.002.194.074.36.07.708.045 1.072.029.163-.007.338-.099.493-.093.024.001.046.032.082.026.03-.004.049-.034.074-.046.068-.03.125-.018.198-.023.303-.022.57-.127.89-.187.047-.01.13-.007.172-.037.05-.037.027-.065.059-.11.057-.085.242-.216.346-.207l-.06.06c.065-.004.168.01.227-.028.053-.034.05-.095.098-.13.041-.031.122-.026.172-.04.1-.028.202-.069.294-.116.083-.042.153-.062.234-.09.058-.02.1-.054.16-.074l.099-.035.03-.034q.033.016.067.009c.101-.024.182-.096.267-.155h-.145c.038-.021.093-.08.137-.08.028-.001.056.042.088.05.077.017.333-.091.268-.198.058-.032.08.019.124.005a.3.3 0 0 0 .09-.068c.059-.07.006-.11.058-.183.056-.078.166-.116.24-.174.043-.034.084-.094.14-.109a.3.3 0 0 0 .114-.087c.022-.038.06-.065.092-.094.108-.096.223-.183.328-.283.22-.208.422-.437.612-.672a8.4 8.4 0 0 0 .909-1.43c.071-.14.113-.364.282-.41.087-.024.184-.009.272-.013a.8.8 0 0 0 .328-.093c-.123-.192-.447-.511-.363-.755.111-.325.256-.647.333-.984a9.7 9.7 0 0 0 .24-2.39c-.023-.98-.048-1.979-.365-2.916a8.2 8.2 0 0 0-1.317-2.435ZM9.33 7.44c-.025.032-.005.007 0 0 .037-.05.073-.07.102-.12.047-.082.078-.139.151-.196.053-.04.075-.072.114-.127.033-.046.072-.088.107-.132.025-.03.065-.132.076-.052.074-.106.18-.229.207-.343a.1.1 0 0 1-.035-.03.1.1 0 0 1 .039-.057.4.4 0 0 1 .09-.11c.032-.025.058-.01.097-.038.043-.03.074-.098.109-.138.034-.038.093-.079.11-.129.012-.031-.013-.09.002-.111l.061.121c.026-.065.063-.13.086-.195.026-.075-.003-.07.009-.125.014-.067.107-.152.147-.209l.185-.268c.225-.329.427-.68.713-.962 1.008 1.27 1.91 2.606 2.81 3.953-.493 0-.98-.028-1.473.01-.491.037-.98.086-1.473.102-.97.03-1.943.112-2.915.099.23-.313.445-.636.681-.943Zm5.996 2.462.025 1.032c-.097-.276-.262-.518-.422-.76a2.8 2.8 0 0 0-.623-.694c-.244-.186-.53-.311-.811-.428 0 0 1.321-.033 1.483-.032.122 0 .172.045.24.142.152.22.102.483.108.74ZM9.02 9.25c.483-.022.966-.04 1.448-.07-.3.181-.552.427-.789.684-.24.262-.495.517-.691.816.025-.476.049-.953.032-1.43Zm.453 6.301c-.086.006-.354.054-.412-.016-.062-.073-.007-.291-.007-.405-.032-.487-.09-.973-.087-1.462.112.26.224.489.39.717.078.108.148.228.236.329.057.065.242.11.252.2.007.064-.075.076-.026.15.037.056.152.082.209.111.097.052.178.125.273.18.133.075.286.1.424.167-.417.008-.836.002-1.252.03Zm1.159-.711a.83.83 0 0 0 .025.01c-.235-.102-.457-.202-.641-.384-.09-.089-.195-.175-.276-.273-.077-.093-.127-.205-.188-.31-.118-.202-.309-.393-.388-.612-.022-.061-.076-.185-.152-.077-.05.07.028.184.047.254a.12.12 0 0 0-.09.041c.007-.364-.015-.727-.006-1.091.126.087.205-.104.234-.196.02-.065.021-.134.043-.198.012-.033.078-.114.07-.147-.019-.083-.098-.03-.06-.136.026-.07.095-.119.122-.198.02-.063.062-.27.12-.307l-.006.05c.125-.073.194-.124.225-.269.028-.13.121-.203.197-.31a.85.85 0 0 1 .275-.277c.109-.064.196-.206.311-.247.069-.024.114-.027.189-.074.04-.026.1-.061.12-.107.018-.035 0-.056.024-.087.063-.076.27-.122.36-.164.132-.062.266-.146.417-.142-.091.171.217.064.294.09 0-.164.035-.194.202-.197.184-.002.373-.008.554.021.36.059.661.287.953.49.303.21.59.403.8.716.092.136.165.282.209.44.052.193.123.422.108.622-.013.175-.056.347-.07.522-.017.22-.065.407-.166.604-.021.042-.083.111-.07.162.013.046.059.036.061.084.002.043-.062.152-.077.19q-.046.115-.097.226c-.282.606-.72 1.122-1.371 1.332-.692.223-1.635.302-2.302-.051Zm3.05.56q.138-.082.265-.181c.059-.045.129-.136.196-.168l-.003.003c-.02.013-.042.04-.056.053l.016-.014.048-.044c.11-.11.249-.185.363-.29.106-.098.2-.212.285-.328.187-.254.321-.54.461-.822.008.58.073 1.156.149 1.73l-1.724.06Zm5.41-.137c-.308-.013-.62.002-.93.002q-.544-.001-1.086.034c-.162.012-.324.014-.486.02-.064.001-.145.019-.208.01-.069-.011-.095-.051-.148-.091l-.02.037c-.047-.05-.05-.142-.044-.206.002-.024.018-.059.027-.09.051.01.102-.156.098-.184a.2.2 0 0 0-.049-.112c-.025-.034-.03 0-.047-.046-.013-.033.004-.119.003-.152.047.036.046-.048.085-.077.038-.028.085-.025.13-.025-.039-.069-.04-.142-.053-.217-.024-.126-.03-.114.094-.156-.073-.037-.101-.031-.126-.107-.018-.06 0-.14-.004-.202-.004-.065-.008-.143-.035-.203-.033-.07-.104-.073-.101-.14l.13.052c-.028-.096-.081-.183-.105-.28-.024-.096-.011-.19-.011-.289l.066.017c-.005-.063.005-.098-.016-.157-.01-.029-.036-.053-.047-.084-.03-.088-.009-.196-.009-.287l.06.024c-.015-.066.056-.108.095-.147-.074-.001-.074.01-.096-.043-.013-.033-.001-.095-.004-.13-.006-.098-.046-.166-.044-.257l.027-1.079c.732.966 1.307 2.042 2.037 3.01.196.259.956 1.256 1 1.316.028.035.124.124.125.177.003.12-.232.066-.307.062Zm.913-4.198-.075-.075c-.015.045-.017.163-.094.137-.009.126.03.25.017.376l.065-.043c-.018.092.082.18.07.27-.014.101-.083.032-.117.072-.04.046-.02.289.003.333.021.041.06.053.075.103.02.066 0 .147-.012.212-.055.284-.037.563-.062.848-.014.167-.042.07-.147.071-.122.001-.044.177-.024.246-.093-.008-.074.116-.076.177-.005.111-.06.196-.073.3-.343-.5-.646-1.026-.996-1.521-.362-.513-.711-1.034-1.071-1.549-.356-.509-.677-1.042-1.028-1.554-.068-.099-.174-.199-.214-.311-.04-.113-.028-.279-.029-.397 0-.128.007-.255.002-.382-.004-.14.019-.17.114-.265h-.692c-.15 0-.256-.162-.331-.271q-.17-.248-.337-.498c-.278-.41-.578-.805-.875-1.2-.56-.743-1.08-1.518-1.686-2.226.384.048.771.05 1.156.106.377.055.754.13 1.122.235.694.197 1.36.489 2 .82.14.074.286.143.422.225.155.093.272.22.395.35.26.274.505.56.75.847.414.488.872.966 1.12 1.566.154.372.261.778.347 1.17.045.204.041.41.081.611l.045.241a.3.3 0 0 0 .035.077c.02.045.026.116.076.066.053.274.055.556.044.833Zm-14.509.543.046-.031c-.1.028-.097-.06-.07-.124.04-.09.136-.149.189-.23a.4.4 0 0 0 .09.074q.099-.126.202-.246c.07.096.172.052.093.187-.049.083-.116.151-.178.223.018.039.056.06.05.114-.01.1-.179.28-.248.353-.062.066-.12.036-.164.11-.025.043-.01.081-.05.124-.027.029-.069.042-.097.07-.053.05-.072.14-.136.18-.079.048-.155.037-.152-.055-.052.008-.102.025-.153.038.055-.09.107-.19.175-.272.049-.059.114-.1.164-.158.053-.06.075-.136.126-.198.046-.056.083-.091.113-.159Z" style="fill:#ff8b8b;fill:color(display-p3 1 .5434 .5434);fill-opacity:1;stroke:#ff8b8b;stroke:color(display-p3 1 .5434 .5434);stroke-opacity:1"/></svg>