<svg xmlns="http://www.w3.org/2000/svg" width="24" height="24" fill="none"><path fill="#FFCB6B" d="M16.5 20.25h-9a.75.75 0 1 1 0-1.5h9a.75.75 0 1 1 0 1.5" style="fill:#ffcb6b;fill:color(display-p3 1 .7961 .4196);fill-opacity:1"/><path fill="#FA6068" fill-rule="evenodd" d="M3.75 3.75h16.5a.75.75 0 0 1 .75.75v12a.75.75 0 0 1-.75.75H3.75A.75.75 0 0 1 3 16.5v-12a.75.75 0 0 1 .75-.75m7.136 9.643 3.75-2.25a.75.75 0 0 0 0-1.286l-3.75-2.25a.748.748 0 0 0-1.136.643v4.5a.749.749 0 0 0 1.136.643" clip-rule="evenodd" style="fill:#fa6068;fill:color(display-p3 .9803 .3759 .4092);fill-opacity:1"/></svg>