<svg xmlns="http://www.w3.org/2000/svg" width="24" height="24" fill="none"><rect width="1.667" height=".853" x="17.75" y="6.458" fill="#89DDFF" rx=".426" style="fill:#89ddff;fill:color(display-p3 .5373 .8667 1);fill-opacity:1"/><rect width="5" height=".853" x="5.25" y="20.1" fill="#FF8B8B" rx=".426" style="fill:#ff8b8b;fill:color(display-p3 1 .5434 .5434);fill-opacity:1"/><rect width="3.333" height=".853" x="15.25" y="13.279" fill="#9883EC" rx=".426" style="fill:#9883ec;fill:color(display-p3 .5974 .5156 .9244);fill-opacity:1"/><rect width="4.167" height=".853" x="10.25" y="13.279" fill="#FF8B8B" rx=".426" style="fill:#ff8b8b;fill:color(display-p3 1 .5434 .5434);fill-opacity:1"/><rect width="4.167" height=".853" x="5.25" y="13.279" fill="#89DDFF" rx=".426" style="fill:#89ddff;fill:color(display-p3 .5373 .8667 1);fill-opacity:1"/><rect width="5" height=".853" x="5.25" y="16.689" fill="#9883EC" rx=".426" style="fill:#9883ec;fill:color(display-p3 .5974 .5156 .9244);fill-opacity:1"/><rect width="5" height=".853" x="5.25" y="9.868" fill="#9883EC" rx=".426" style="fill:#9883ec;fill:color(display-p3 .5974 .5156 .9244);fill-opacity:1"/><rect width="9.167" height=".853" x="9.417" y="4.753" fill="#FFCB6B" rx=".426" style="fill:#ffcb6b;fill:color(display-p3 1 .7961 .4196);fill-opacity:1"/><rect width="3.333" height=".853" x="5.25" y="4.753" fill="#FF8B8B" rx=".426" style="fill:#ff8b8b;fill:color(display-p3 1 .5434 .5434);fill-opacity:1"/><rect width="1.667" height=".853" x="8.583" y="18.395" fill="#FFCB6B" rx=".426" style="fill:#ffcb6b;fill:color(display-p3 1 .7961 .4196);fill-opacity:1"/><rect width="1.667" height=".853" x="8.583" y="8.163" fill="#89DDFF" rx=".426" style="fill:#89ddff;fill:color(display-p3 .5373 .8667 1);fill-opacity:1"/><rect width="2.5" height=".853" x="5.25" y="18.395" fill="#89DDFF" rx=".426" style="fill:#89ddff;fill:color(display-p3 .5373 .8667 1);fill-opacity:1"/><rect width="2.5" height=".853" x="5.25" y="8.163" fill="#FFCB6B" rx=".426" style="fill:#ffcb6b;fill:color(display-p3 1 .7961 .4196);fill-opacity:1"/><rect width="7.5" height=".853" x="11.917" y="11.574" fill="#89DDFF" rx=".426" style="fill:#89ddff;fill:color(display-p3 .5373 .8667 1);fill-opacity:1"/><rect width="3.333" height=".853" x="7.75" y="11.574" fill="#FFCB6B" rx=".426" style="fill:#ffcb6b;fill:color(display-p3 1 .7961 .4196);fill-opacity:1"/><rect width="1.667" height=".853" x="5.25" y="11.574" fill="#FF8B8B" rx=".426" style="fill:#ff8b8b;fill:color(display-p3 1 .5434 .5434);fill-opacity:1"/><rect width="4.167" height=".853" x="12.75" y="6.458" fill="#9883EC" rx=".426" style="fill:#9883ec;fill:color(display-p3 .5974 .5156 .9244);fill-opacity:1"/><rect width="6.667" height=".853" x="5.25" y="6.458" fill="#89DDFF" rx=".426" style="fill:#89ddff;fill:color(display-p3 .5373 .8667 1);fill-opacity:1"/><rect width="8.333" height=".853" x="7.75" y="14.984" fill="#FFCB6B" rx=".426" style="fill:#ffcb6b;fill:color(display-p3 1 .7961 .4196);fill-opacity:1"/><rect width="1.667" height=".853" x="5.25" y="14.984" fill="#9883EC" rx=".426" style="fill:#9883ec;fill:color(display-p3 .5974 .5156 .9244);fill-opacity:1"/><rect width="5" height=".853" x="15.25" y="8.163" fill="#FF8B8B" rx=".426" style="fill:#ff8b8b;fill:color(display-p3 1 .5434 .5434);fill-opacity:1"/><rect width="5" height=".853" x="15.25" y="9.868" fill="#FFCB6B" rx=".426" style="fill:#ffcb6b;fill:color(display-p3 1 .7961 .4196);fill-opacity:1"/><rect width="10.833" height=".853" x="5.25" y="3.047" fill="#89DDFF" rx=".426" style="fill:#89ddff;fill:color(display-p3 .5373 .8667 1);fill-opacity:1"/></svg>