<svg xmlns="http://www.w3.org/2000/svg" width="24" height="24" fill="none"><path fill="#B2CCD6" d="m18.007 17.278-8.134 2.39a.34.34 0 0 1-.434-.39L12.345 5.45c.054-.259.414-.3.527-.06l5.38 11.353a.385.385 0 0 1-.245.535m1.395-.564-6.23-13.146a1 1 0 0 0-.851-.566.99.99 0 0 0-.91.469L4.653 14.345c-.21.34-.205.757.012 1.092l3.302 5.084a1.06 1.06 0 0 0 1.194.436l9.586-2.818c.294-.086.534-.293.66-.566a1.01 1.01 0 0 0-.006-.86" style="fill:#b2ccd6;fill:color(display-p3 .698 .8 .8392);fill-opacity:1"/></svg>