<svg xmlns="http://www.w3.org/2000/svg" width="24" height="24" fill="none"><path fill="#C792EA" fill-rule="evenodd" d="M5.47 3.034h13.06c.902 0 1.633.723 1.633 1.614v14.705c0 .89-.731 1.614-1.633 1.614H5.47a1.623 1.623 0 0 1-1.632-1.614V4.648c0-.891.73-1.614 1.632-1.614m4.49 13.45L7.92 14.69v3.587zm4.308 1.793v-5.355c-.01-.419-.213-.922-1.134-.922-1.844 0-3.913.917-3.934.927l-1.28.573V5.724h1.813v5.09c.906-.29 2.171-.607 3.4-.607 1.122 0 1.793.436 2.159.801.78.78.79 1.774.79 1.889v5.38zm-1.36-9.639h1.813c.82-.92 1.238-1.896 1.36-2.914h-1.813c-.2 1.016-.648 1.99-1.36 2.914" clip-rule="evenodd" style="fill:#c792ea;fill:color(display-p3 .7804 .5725 .9176);fill-opacity:1"/></svg>