<svg xmlns="http://www.w3.org/2000/svg" width="24" height="24" fill="none"><path fill="#001E36" d="M5.219.502H18.78c2.057 0 3.719 1.704 3.719 3.813v13.369c0 2.109-1.663 3.813-3.719 3.813H5.22c-2.056 0-3.719-1.704-3.719-3.813V4.315C1.5 2.206 3.163.502 5.219.502" style="fill:#001e36;fill:color(display-p3 0 .1176 .2118);fill-opacity:1"/><path fill="#89DDFF" d="M6.225 15.212V6.556c0-.059.026-.092.088-.092.148 0 .288 0 .49-.009.21-.008.428-.008.665-.016.236-.009.49-.009.76-.017.272-.009.535-.009.797-.009.718 0 1.313.084 1.803.261.437.143.84.379 1.172.69.28.269.499.597.639.959.131.353.201.715.201 1.093q0 1.086-.525 1.792c-.35.471-.84.824-1.409 1.026-.595.21-1.251.286-1.968.286-.21 0-.35 0-.438-.008-.087-.009-.21-.009-.376-.009v2.7c.009.06-.035.11-.096.118H6.33c-.07 0-.105-.033-.105-.109m1.908-7.125v2.827c.122.008.236.016.34.016h.465c.34 0 .682-.05 1.006-.151.28-.076.525-.236.717-.446.184-.21.271-.496.271-.866a1.34 1.34 0 0 0-.2-.749 1.26 1.26 0 0 0-.613-.48 2.7 2.7 0 0 0-1.033-.168c-.227 0-.428 0-.595.009-.175-.009-.297 0-.358.008M18.3 10.4a3.2 3.2 0 0 0-.84-.286 4.8 4.8 0 0 0-.98-.109 1.8 1.8 0 0 0-.525.059.45.45 0 0 0-.271.168.43.43 0 0 0-.07.227c0 .076.035.152.087.22a1 1 0 0 0 .298.226c.201.101.411.194.621.278.473.151.927.361 1.348.614.288.176.524.412.69.698.14.27.21.564.202.866.009.396-.114.791-.341 1.12a2.2 2.2 0 0 1-.98.748c-.429.177-.954.269-1.584.269q-.601.002-1.19-.11a3.6 3.6 0 0 1-.893-.268c-.06-.034-.104-.093-.096-.16v-1.464c0-.025.009-.059.035-.076s.053-.008.079.009c.341.193.7.328 1.085.412a4.2 4.2 0 0 0 1.033.126c.332 0 .568-.042.726-.118a.39.39 0 0 0 .236-.353c0-.118-.07-.227-.21-.337-.14-.109-.429-.235-.858-.395a5.4 5.4 0 0 1-1.242-.605 2.2 2.2 0 0 1-.665-.716c-.14-.269-.21-.563-.201-.857 0-.362.105-.707.297-1.018.219-.337.543-.606.919-.774.411-.202.928-.295 1.549-.295.358 0 .726.026 1.085.076.262.034.516.101.752.194.035.008.07.042.088.075.008.034.017.068.017.101v1.371a.1.1 0 0 1-.044.084c-.078.017-.122.017-.157 0" style="fill:#89ddff;fill:color(display-p3 .5373 .8667 1);fill-opacity:1"/></svg>