<svg xmlns="http://www.w3.org/2000/svg" width="24" height="24" fill="none"><path fill="#FFCB6B" fill-rule="evenodd" d="M20.998 10.345c0 3.708-3.854 6.714-8.609 6.714-4.754 0-8.608-3.006-8.608-6.714S7.635 3.63 12.389 3.63s8.609 3.006 8.609 6.715m-8.624-.891c1.685 0 3.135.937 3.9 1.89.61.751.579 1.176.535 1.76a7 7 0 0 0-.025.57c0 2.555-.671 2.606-1.336 2.656-.213.016-.425.032-.614.13-.621.307-1.248.28-1.896.254a13 13 0 0 0-.564-.016h-.015c-.186 0-.37.008-.553.015-.651.026-1.282.05-1.907-.258-.19-.098-.403-.114-.616-.13-.665-.05-1.333-.1-1.333-2.656 0-.209-.015-.392-.028-.562-.046-.584-.08-1.01.533-1.764.76-.952 2.21-1.89 3.9-1.89h.019m-5.504 1.58c.77 0 1.395-.633 1.395-1.413S7.64 8.207 6.87 8.207s-1.395.633-1.395 1.414.624 1.413 1.395 1.413m12.389-1.413c0 .78-.625 1.413-1.395 1.413s-1.395-.633-1.395-1.413.624-1.414 1.395-1.414c.77 0 1.395.633 1.395 1.414m-6.995 2.092h.21v2.88l-.085-.007a1 1 0 0 0-.125.012zm0 2.885c-.193.03-.416.11-.646.193q-.196.072-.394.134a6 6 0 0 1-.443.131c-.174.047-.27.072-.182.087.246.01.505-.03.785-.074a6 6 0 0 1 1.005-.093c.364-.006.693.045.998.093.282.043.543.084.792.074.085-.011 0-.034-.161-.078a6 6 0 0 1-.464-.14 9 9 0 0 1-.394-.134c-.247-.088-.486-.174-.686-.198v.15h-.21zm.06 4.932c.569 0 1.03-.467 1.03-1.043 0-.577-.461-1.044-1.03-1.044s-1.03.467-1.03 1.044c0 .576.461 1.043 1.03 1.043m.925-1.038a.93.93 0 0 1-.925.937.93.93 0 0 1-.925-.937c0-.518.414-.937.925-.937s.925.42.925.937m-.655-.3c.055.052.085.122.085.224 0 .101-.03.172-.085.223a.43.43 0 0 1-.265.07h-.105v.229h-.18v-.816h.285q.181.001.265.07m-.1.214q0 .067-.03.106c-.02.025-.06.04-.12.035h-.12v-.273h.1q.091 0 .13.03.039.031.04.102" clip-rule="evenodd" style="fill:#ffcb6b;fill:color(display-p3 1 .7961 .4196);fill-opacity:1"/><path fill="#916B53" fill-rule="evenodd" d="M16.874 15.685c-2.945 1.1-6.18 1.1-9.124 0-.03-.01-.045-.025-.095-.046v.583c0 .258.21.557.454.649a12 12 0 0 0 8.405 0c.25-.092.44-.39.44-.649v-.583c0 .016-.05.03-.08.046M9.424 4.413s-5.564.78-5.084 6.378c.025.284-1.11-1.21-1.99-1.667-.88-.456-.85-1.93-.85-1.93s-.015-2.568 3.54-3.328c3.55-.755 4.384.547 4.384.547M15.289 4.413s5.564.78 5.085 6.378c-.025.284 1.11-1.21 1.99-1.667.88-.456.85-1.93.85-1.93s.014-2.568-3.54-3.328c-3.55-.755-4.385.547-4.385.547M13.669 11.904c.165.37-.405.972-1.31.972s-1.475-.603-1.31-.972c.16-.38.735-.502 1.31-.507.575.005 1.15.127 1.31.507" clip-rule="evenodd" style="fill:#916b53;fill:color(display-p3 .5686 .4196 .3255);fill-opacity:1"/></svg>