<svg xmlns="http://www.w3.org/2000/svg" width="24" height="24" fill="none"><g fill-rule="evenodd" clip-rule="evenodd"><path fill="#FFCB6B" d="M18.543 7.575h-1.517v2.142s.082 2.555-2.5 2.555h-4.307s-2.42-.04-2.42 2.351v3.953c-.371 3.11 8.73 3.207 8.654.408l-.005-2.055h-4.342v-.617h6.067c3.988.308 3.735-8.866.37-8.737M14.19 19.48a.788.788 0 0 1 0-1.36.783.783 0 0 1 1.172.68c0 .603-.653.981-1.172.68" style="fill:#ffcb6b;fill:color(display-p3 1 .7961 .4196);fill-opacity:1"/><path fill="#89DDFF" d="M5.7 16.433h1.517v-2.142s-.082-2.555 2.5-2.555h4.307s2.42.04 2.42-2.351V5.117C16.06 2.188 7.512 2.42 7.79 5.059v2.02h4.347v.618H6.07c-4.097-.087-3.659 8.736-.37 8.736M9.27 5.888a.788.788 0 0 1 0-1.36.783.783 0 0 1 1.173.68c0 .602-.653.98-1.173.68" style="fill:#89ddff;fill:color(display-p3 .5373 .8667 1);fill-opacity:1"/></g></svg>