<svg xmlns="http://www.w3.org/2000/svg" width="24" height="24" fill="none"><path fill="#343944" fill-rule="evenodd" d="M11.752 17.062C6.366 17.062 2 14.138 2 10.53S6.366 4 11.752 4c5.385 0 9.751 2.924 9.751 6.531s-4.366 6.53-9.751 6.53m1.492-10.509c-4.093 0-7.412 2-7.412 4.465 0 2.466 3.319 4.465 7.412 4.465 4.094 0 7.115-1.367 7.115-4.465s-3.021-4.465-7.115-4.465" clip-rule="evenodd" style="fill:#343944;fill:color(display-p3 .2039 .2235 .2667);fill-opacity:1"/><path fill="#4775D1" fill-rule="evenodd" d="M16.851 14.116s.59.178.933.351c.12.06.325.18.474.338.145.155.216.311.216.311l2.326 3.922-3.76.002-1.757-3.302s-.36-.618-.582-.798c-.185-.15-.264-.202-.446-.202h-.894l.001 4.3h-3.326V8.056h6.68s3.043.055 3.043 2.95-2.908 3.11-2.908 3.11m-1.447-3.678-2.014-.002v1.868h2.014s.933-.004.933-.95c0-.967-.933-.916-.933-.916" clip-rule="evenodd" style="fill:#4775d1;fill:color(display-p3 .28 .46 .82);fill-opacity:1"/></svg>