<svg xmlns="http://www.w3.org/2000/svg" width="24" height="24" fill="none"><g clip-path="url(#a)"><mask id="b" width="24" height="24" x="0" y="-3" maskUnits="userSpaceOnUse" style="mask-type:alpha"><circle cx="12" cy="9" r="12" fill="#D9D9D9" style="fill:#d9d9d9;fill:color(display-p3 .851 .851 .851);fill-opacity:1"/></mask><g mask="url(#b)"><path fill="#FA6068" d="M-.713 21H8.17s-1.698-7.425 3.924-10.43l.142-.068c1.366-.649 5.214-2.476 11.37 1.888.203-.162.394-.291.394-.291S18.153 6.506 11.643 7.13c-3.271.28-7.296 3.136-9.658 6.908C-.375 17.81-.713 21-.713 21m9.355-.797q-.112-.675-.135-1.358l1.214.42c.067.507.169.98.27 1.401zM.355 15.807l-1.293-.454a27 27 0 0 0-.562 1.294l1.293.452c.146-.366.383-.894.562-1.293m8.32.3.911.69q.067-.63.236-1.26l-.81-.614a10 10 0 0 0-.336 1.185m2.17-2.694-.54-.776c.203-.247.44-.494.697-.722l.506.734a6 6 0 0 0-.663.764m-7.893-3.092.799.668c-.27.27-.53.56-.765.851l-.866-.71q.392-.405.832-.81m10.411 1.046-.258-.744c.282-.119.607-.237.99-.345l.247.71q-.503.156-.979.379m3.317-.668.045-.68q.54.031 1.114.14l-.045.669a6.5 6.5 0 0 0-1.114-.13M8 7.789l-.505-.744c-.281.14-.574.291-.878.463l.518.755c.292-.172.574-.334.866-.474m9.794-.054.045-.722c-.101-.054-.383-.183-1.09-.378l-.046.712c.37.118.73.248 1.09.388m-5.229-1.078h.113L12.453 6a9 9 0 0 0-1.08.064l.214.637q.488-.047.978-.044" style="fill:#fa6068;fill:color(display-p3 .9803 .3759 .4092);fill-opacity:1"/></g></g><defs><clipPath id="a"><path fill="#fff" d="M0 0h24v24H0z" style="fill:#fff;fill-opacity:1"/></clipPath></defs></svg>