<svg xmlns="http://www.w3.org/2000/svg" width="24" height="24" fill="none"><path fill="#AEE33E" fill-rule="evenodd" d="M7.584 6.177c.402.02.788.157 1.108.422.88.72.93 2.107.112 3.101-.704.86-1.825 1.142-2.683.737.695.032 1.435-.287 1.95-.916.818-.995.767-2.386-.112-3.106a1.8 1.8 0 0 0-.375-.238" clip-rule="evenodd" style="fill:#aee33e;fill:color(display-p3 .6824 .8902 .2431);fill-opacity:1"/><path stroke="#4775D1" stroke-linejoin="round" stroke-miterlimit="10" stroke-width=".732" d="M6.836 12.194c-1.412-.94-3.363-1.67-4.201-2.925-.625-.933-1.334-1.3-.587-2.223.712-.872 1.11-1.809 2.1-1.965 1.113.15 1.979.248 2.691 1.487-.081.726.163 2.26-.78 2.99l-1.632.906" style="stroke:#4775d1;stroke:color(display-p3 .28 .46 .82);stroke-opacity:1"/><path fill="#FA6068" fill-rule="evenodd" d="M4.44 9.177c-.807 0-1.462-.64-1.462-1.435 0-.794.655-1.435 1.462-1.435.808 0 1.463.64 1.463 1.435 0 .794-.655 1.435-1.463 1.435" clip-rule="evenodd" style="fill:#fa6068;fill:color(display-p3 .9803 .3759 .4092);fill-opacity:1"/><path fill="#4775D1" fill-rule="evenodd" d="M5.092 8.553a.72.72 0 0 1-1.008-.109.71.71 0 0 1 .092-1.008.714.714 0 0 1 1.004.109.714.714 0 0 1-.088 1.008" clip-rule="evenodd" style="fill:#4775d1;fill:color(display-p3 .28 .46 .82);fill-opacity:1"/><path stroke="#4775D1" stroke-linejoin="round" stroke-miterlimit="10" stroke-width=".732" d="M6.962 12.29c-1.415-.944-3.553-.944-4.392-2.196-.624-.937-1.707-2.142-.96-3.061.682-1.083 1.547-1.826 2.63-1.826 1.116.146 2.263.577 2.535 1.452-.078.73.071 1.88-.872 2.61l-1.537 1.225" style="stroke:#4775d1;stroke:color(display-p3 .28 .46 .82);stroke-opacity:1"/><path fill="#4775D1" fill-rule="evenodd" d="M7.596 12.656c-.098.173-.519.115-.936-.126-.421-.24-.68-.577-.58-.75.101-.17.519-.115.94.126.417.244.678.577.576.75" clip-rule="evenodd" style="fill:#4775d1;fill:color(display-p3 .28 .46 .82);fill-opacity:1"/><path fill="#FFCB6B" fill-rule="evenodd" d="M12.059 17.271c-2.172 0-3.93-1.405-3.93-3.142 0-1.734 1.758-3.143 3.93-3.143s3.93 1.409 3.93 3.143c0 1.737-1.758 3.142-3.93 3.142" clip-rule="evenodd" style="fill:#ffcb6b;fill:color(display-p3 1 .7961 .4196);fill-opacity:1"/><path fill="#fff" fill-rule="evenodd" d="M9.364 14.091a1.572 1.572 0 1 1 .002-3.144 1.572 1.572 0 0 1-.002 3.144" clip-rule="evenodd" style="fill:#fff;fill-opacity:1"/><path fill="#AEE33E" fill-rule="evenodd" d="M20.637 11.78c.558.098 1.127-.024 1.569-.386.872-.717.92-2.098.108-3.085-.581-.71-1.447-1.025-2.211-.883a2.47 2.47 0 0 1 1.485.883c.811.987.76 2.368-.109 3.085a1.84 1.84 0 0 1-.842.387" clip-rule="evenodd" style="fill:#aee33e;fill:color(display-p3 .6824 .8902 .2431);fill-opacity:1"/><path stroke="#4775D1" stroke-linejoin="round" stroke-miterlimit="10" stroke-width=".732" d="M22.45 7c-.611-1.972-3.343-1.297-4.36-.615-1.406.937-1.23.75-2.06 1.995-.622.934-.286 2.159.457 3.075.703.869.985.468 2.09.322 1.107-.146 1.41-.183 1.677-1.052.336-1.089-.75-2.216-1.686-2.938l-1.056-.73" style="stroke:#4775d1;stroke:color(display-p3 .28 .46 .82);stroke-opacity:1"/><path fill="#FA6068" fill-rule="evenodd" d="M17.818 11.05a1.294 1.294 0 0 1-1.287-1.306c0-.723.574-1.306 1.287-1.306.709 0 1.282.583 1.282 1.306s-.573 1.307-1.282 1.307" clip-rule="evenodd" style="fill:#fa6068;fill:color(display-p3 .9803 .3759 .4092);fill-opacity:1"/><path fill="#4775D1" fill-rule="evenodd" d="M18.269 10.495a.713.713 0 0 1-1.001-.112.71.71 0 0 1 .085-1.002.713.713 0 0 1 1 .109.716.716 0 0 1-.084 1.005" clip-rule="evenodd" style="fill:#4775d1;fill:color(display-p3 .28 .46 .82);fill-opacity:1"/><path stroke="#4775D1" stroke-linejoin="round" stroke-miterlimit="10" stroke-width=".732" d="M22.637 6.938c-.611-1.972-3.96-1.606-4.979-.923-1.405.936-1.198.753-2.03 1.998-.62.93-.067 2.61.676 3.526.703.869 1.215.672 2.318.526 1.106-.146 1.493-.118 1.765-.99.336-1.087.135-2.427-.805-3.153l-2.07-.866" style="stroke:#4775d1;stroke:color(display-p3 .28 .46 .82);stroke-opacity:1"/><path fill="#fff" fill-rule="evenodd" d="M14.567 14.091a1.575 1.575 0 0 1-1.575-1.57 1.573 1.573 0 0 1 3.146 0c0 .864-.703 1.57-1.571 1.57" clip-rule="evenodd" style="fill:#fff;fill-opacity:1"/><path fill="#4E4E4E" fill-rule="evenodd" d="M9.412 13.3a.788.788 0 0 1 0-1.574c.434 0 .784.353.784.787s-.35.788-.784.788M14.624 13.213a.785.785 0 1 1-.004-1.57.785.785 0 0 1 .004 1.57" clip-rule="evenodd" style="fill:#4e4e4e;fill:color(display-p3 .3043 .3043 .3043);fill-opacity:1"/><path stroke="#FA6068" stroke-linejoin="round" stroke-miterlimit="10" stroke-width=".439" d="M10.718 14.964c-.156 1.075 2.97 1.852 2.593.183v-.092" style="stroke:#fa6068;stroke:color(display-p3 .9803 .3759 .4092);stroke-opacity:1"/><path stroke="#6B7394" stroke-linejoin="round" stroke-miterlimit="10" stroke-width=".342" d="M11.57 10.96c-.064-.856.248-1.827-.143-2.617l-.329-.784-.427.72.329.064m1.527 2.616c.065-.855-.251-1.826.14-2.616l.328-.784.428.72-.33.064" style="stroke:#6b7394;stroke:color(display-p3 .42 .4493 .58);stroke-opacity:1"/><path fill="#FA6068" fill-rule="evenodd" d="M4.647 19.399c-.902-.743-.933-2.2-.068-3.258.87-1.055 2.305-1.31 3.21-.567.903.744.934 2.2.065 3.255-.865 1.059-2.3 1.313-3.207.57" clip-rule="evenodd" style="fill:#fa6068;fill:color(display-p3 .9803 .3759 .4092);fill-opacity:1"/><path stroke="#6B7394" stroke-linejoin="round" stroke-miterlimit="10" stroke-width=".293" d="M11.244 17.305v1.015l.557.923m.682-1.938v1.018l.556.923" style="stroke:#6b7394;stroke:color(display-p3 .42 .4493 .58);stroke-opacity:1"/><path fill="#4775D1" fill-rule="evenodd" d="M5.706 18.194c-.407-.332-.343-1.086.146-1.68.489-.597 1.211-.807 1.622-.471.404.332.34 1.086-.146 1.683-.489.594-1.215.804-1.622.468" clip-rule="evenodd" style="fill:#4775d1;fill:color(display-p3 .28 .46 .82);fill-opacity:1"/><path fill="#FA6068" fill-rule="evenodd" d="M19.426 19.403c-.906.743-2.341.488-3.21-.57-.866-1.056-.835-2.515.068-3.255.906-.743 2.341-.489 3.21.567.865 1.059.835 2.514-.068 3.258" clip-rule="evenodd" style="fill:#fa6068;fill:color(display-p3 .9803 .3759 .4092);fill-opacity:1"/><path fill="#4775D1" fill-rule="evenodd" d="M18.245 18.29c-.407.332-1.133.122-1.619-.469-.488-.594-.553-1.347-.142-1.68.404-.336 1.13-.125 1.619.469.485.59.55 1.343.142 1.68M23.017 7.59c-.207.142-.655-.147-1.005-.649-.353-.499-.468-1.021-.265-1.164.204-.142.655.146 1.005.648.35.5.468 1.022.265 1.164" clip-rule="evenodd" style="fill:#4775d1;fill:color(display-p3 .28 .46 .82);fill-opacity:1"/></svg>