<svg xmlns="http://www.w3.org/2000/svg" width="24" height="24" fill="none"><g fill-rule="evenodd" clip-rule="evenodd"><path fill="#89DDFF" d="M11.988 18.762q1.072 1.06 2.074 1.648 1 .588 1.839.59.256 0 .513-.06.256-.06.466-.205.745-.433 1.014-1.516.268-1.083.012-2.67a14 14 0 0 0-.233-1.156q.281-.098.547-.18.267-.084.525-.18 1.467-.579 2.236-1.348.77-.771.769-1.661 0-.89-.77-1.66-.768-.771-2.235-1.349-.256-.096-.525-.192a7 7 0 0 0-.547-.168q.07-.29.128-.578.06-.288.105-.553.233-1.637-.024-2.73-.257-1.095-1.002-1.529a1.6 1.6 0 0 0-.489-.205Q16.135 3 15.88 3q-.816 0-1.83.59-1.013.59-2.06 1.648-1.05-1.06-2.05-1.648-1.002-.588-1.84-.59-.256 0-.513.06-.255.06-.466.205-.745.433-1.014 1.516t-.012 2.67a14 14 0 0 0 .233 1.156q-.281.098-.547.18a10 10 0 0 0-.525.18q-1.467.579-2.236 1.348-.77.771-.769 1.661 0 .89.77 1.66.768.771 2.235 1.349.256.097.525.192.268.096.547.168-.07.29-.128.578-.06.288-.105.553-.233 1.588.024 2.683.256 1.096 1.002 1.528a2.07 2.07 0 0 0 .98.265q.839.025 1.838-.565t2.05-1.625m-1.072-2.673q.281.025.547.025h1.072l.547-.025q-.28.36-.547.686-.267.325-.547.637-.256-.312-.525-.637a28 28 0 0 1-.547-.686m-2.374-2.046q.162.265.29.506.129.24.291.482l-.861-.145a13 13 0 0 1-.816-.168q.117-.385.269-.806.151-.42.314-.83a15 15 0 0 0 .513.964zM7.446 9.277q.397-.096.816-.168l.861-.144-.28.482-.303.505q-.14.24-.268.482t-.244.505a11 11 0 0 1-.327-.854q-.14-.423-.256-.806zm1.048 2.72q.187-.409.385-.805.198-.395.43-.806l.467-.77.489-.77q.419-.048.85-.06a31 31 0 0 1 1.77 0q.431.012.85.06.28.385.5.77.222.386.456.77.232.41.43.806.199.396.385.806l-.385.795-.43.794-.467.77-.489.77q-.419.05-.85.06a32 32 0 0 1-1.77 0 10 10 0 0 1-.85-.06 8 8 0 0 1-.5-.77 35 35 0 0 0-.456-.77 9 9 0 0 1-.43-.794zm7.5-1.082-.534-.988q-.14-.264-.269-.493a7 7 0 0 0-.29-.47 14 14 0 0 1 1.677.289q-.117.41-.269.83t-.314.83zm0 2.143q.164.41.315.83.153.42.269.805-.398.098-.816.168l-.861.145.28-.482.28-.505q.14-.218.268-.458l.269-.505zm.444 6.882a.7.7 0 0 1-.257.097 2 2 0 0 1-.303.025q-.699 0-1.548-.542-.85-.543-1.711-1.433.419-.457.827-.975.408-.517.803-1.095.676-.073 1.316-.168a10 10 0 0 0 1.247-.265q.07.264.116.542t.094.542q.21 1.253.058 2.118-.152.866-.641 1.156zm.977-10.446q1.632.483 2.539 1.156t.908 1.348q0 .578-.641 1.13-.642.554-1.805 1.01a7.5 7.5 0 0 1-1.002.338q-.186-.601-.419-1.228a21 21 0 0 0-.513-1.252q.28-.65.525-1.275.244-.626.407-1.228zM15.901 3.91q.14 0 .28.025a.55.55 0 0 1 .256.12q.49.265.653 1.12.165.855-.046 2.13-.045.266-.104.53a10 10 0 0 0-.105.553 15 15 0 0 0-1.246-.24 32 32 0 0 0-1.316-.168 16.4 16.4 0 0 0-1.63-2.095 11 11 0 0 1 1.7-1.42q.84-.553 1.56-.553zm-2.817 3.972q-.281 0-.547-.013a12 12 0 0 0-1.072 0q-.268.013-.547.013.28-.361.547-.686l.525-.638q.28.314.547.65.266.338.547.675zM7.562 4.055a.53.53 0 0 1 .257-.12q.14-.023.302-.025.7 0 1.55.543.849.542 1.71 1.432-.419.457-.827.975t-.803 1.12q-.676.048-1.317.157-.64.11-1.246.253a6 6 0 0 1-.116-.542q-.045-.278-.094-.542-.21-1.252-.058-2.106t.641-1.143zm-.977 10.421q-1.631-.457-2.539-1.143t-.908-1.335q0-.578.641-1.143.642-.566 1.805-1.023a8 8 0 0 1 1.002-.338q.186.603.419 1.228t.513 1.276q-.28.625-.525 1.263a14 14 0 0 0-.407 1.215zm.396 2.19.094-.53.116-.552q.606.144 1.246.252.642.108 1.317.18.396.578.803 1.096.407.517.827.975-.861.89-1.71 1.433-.85.542-1.55.542-.162 0-.29-.025a1 1 0 0 1-.269-.097q-.489-.29-.64-1.155-.153-.866.058-2.118z" style="fill:#89ddff;fill:color(display-p3 .5373 .8667 1);fill-opacity:1"/><path fill="#4775D1" d="M13.781 11.998q0 .745-.524 1.288-.525.542-1.27.542-.722 0-1.247-.542a1.8 1.8 0 0 1-.524-1.288q0-.77.524-1.313.525-.542 1.247-.542.745 0 1.27.542.524.543.524 1.313" style="fill:#4775d1;fill:color(display-p3 .28 .46 .82);fill-opacity:1"/></g></svg>