<svg xmlns="http://www.w3.org/2000/svg" width="24" height="24" fill="none"><path fill="#89DDFF" fill-rule="evenodd" d="M12 3c-4.963 0-9 4.037-9 9s4.037 9 9 9 9-4.037 9-9-4.037-9-9-9m1.852 13.77c-.624.258-2.152.889-3.062.086a1.26 1.26 0 0 1-.443-.988c0-.597.156-1.133.444-2.12q.11-.373.245-.848c.078-.296.174-.68.174-.985 0-.525-.2-.665-.74-.665-.265 0-.557.094-.822.193l.146-.6c.59-.24 1.332-.532 1.966-.532.952 0 1.652.475 1.652 1.378 0 .26-.045.716-.14 1.031l-.547 1.936c-.113.392-.318 1.255 0 1.511.312.253 1.05.118 1.415-.053l-.147.599zm-1.888-8.895a1.125 1.125 0 1 0 2.25 0 1.125 1.125 0 0 0-2.25 0" clip-rule="evenodd" style="fill:#89ddff;fill:color(display-p3 .5373 .8667 1);fill-opacity:1"/></svg>