<svg xmlns="http://www.w3.org/2000/svg" width="24" height="24" fill="none"><path fill="#B2CCD6" d="M18.34 16.339c.145 1.848.145 2.715.145 3.661h-4.278c0-.206.004-.395.007-.585.012-.595.024-1.214-.073-2.466-.126-1.831-.916-2.238-2.366-2.238H5.049v-3.334h6.931c1.832 0 2.748-.556 2.748-2.032 0-1.298-.916-2.084-2.748-2.084H5.049V4h7.694c4.147 0 6.208 1.959 6.208 5.088 0 2.34-1.45 3.867-3.409 4.121 1.653.332 2.62 1.273 2.799 3.13M5.05 20v-2.485H9.57c.756 0 .92.56.92.895V20z" style="fill:#b2ccd6;fill:color(display-p3 .698 .8 .8392);fill-opacity:1"/></svg>