<svg xmlns="http://www.w3.org/2000/svg" width="24" height="24" fill="none"><path fill="url(#a)" d="M19.117 8.433c0-.972-.264-1.882-.73-2.672-1.234-1.223-3.92-1.506-4.586-.005-.685 1.538 1.15 3.25 1.952 3.113 1.021-.173-.18-2.428-.18-2.428 1.562 2.833 1.201 1.966-1.622 4.568s-5.707 8.093-6.127 8.324a.3.3 0 0 1-.057.029H18.84c.195 0 .321-.2.234-.367l-2.895-5.517a.25.25 0 0 1 .102-.332c1.694-.937 2.835-2.695 2.835-4.713"/><path fill="url(#b)" d="M19.117 8.433c0-.972-.264-1.882-.73-2.672-1.234-1.223-3.92-1.506-4.586-.005-.685 1.538 1.15 3.25 1.952 3.113 1.021-.173-.18-2.428-.18-2.428 1.562 2.833 1.201 1.966-1.622 4.568s-5.707 8.093-6.127 8.324a.3.3 0 0 1-.057.029H18.84c.195 0 .321-.2.234-.367l-2.895-5.517a.25.25 0 0 1 .102-.332c1.694-.937 2.835-2.695 2.835-4.713"/><path fill="#FA6068" d="M7.823 19.332c.42-.231 3.304-5.725 6.127-8.327s3.184-1.734 1.622-4.568c0 0-5.977 8.067-8.14 12.057" style="fill:#fa6068;fill:color(display-p3 .9803 .3759 .4092);fill-opacity:1"/><path fill="#FF8B8B" d="M8.665 12.105C12.7 4.96 13.23 4.24 15.333 4.24c1.105 0 2.22.48 2.94 1.333C17.291 4.05 15.552 3.03 13.561 3H6.703a.257.257 0 0 0-.26.252v13.305c.408-1.015 1.101-2.466 2.222-4.452" style="fill:#ff8b8b;fill:color(display-p3 1 .5434 .5434);fill-opacity:1"/><path fill="url(#c)" d="M13.95 11.005c-2.823 2.602-5.706 8.096-6.127 8.327s-1.126.26-1.501-.145c-.4-.43-1.022-1.127 2.342-7.083C12.701 4.96 13.23 4.24 15.332 4.24c1.105 0 2.22.48 2.94 1.333q.06.091.117.188c-1.234-1.223-3.92-1.507-4.586-.006-.685 1.538 1.15 3.25 1.952 3.114 1.021-.174-.18-2.429-.18-2.429 1.559 2.83 1.198 1.963-1.625 4.565"/><path fill="url(#d)" d="M8.995 12.422c4.036-7.144 4.565-7.864 6.667-7.864.91 0 1.826.327 2.523.916-.72-.792-1.79-1.234-2.853-1.234-2.103 0-2.631.72-6.668 7.864-3.364 5.956-2.742 6.653-2.342 7.083q.087.091.192.156c-.352-.491-.508-1.633 2.48-6.921" opacity=".3"/><defs><linearGradient id="a" x1="10.408" x2="15.088" y1="14.769" y2="15.403" gradientUnits="userSpaceOnUse"><stop stop-color="#FF6533" style="stop-color:#ff6533;stop-color:color(display-p3 1 .3961 .2);stop-opacity:1"/><stop offset=".157" stop-color="#FF5633" style="stop-color:#ff5633;stop-color:color(display-p3 1 .3373 .2);stop-opacity:1"/><stop offset=".434" stop-color="#FF4333" style="stop-color:#ff4333;stop-color:color(display-p3 1 .2627 .2);stop-opacity:1"/><stop offset=".714" stop-color="#FF3733" style="stop-color:#ff3733;stop-color:color(display-p3 1 .2157 .2);stop-opacity:1"/><stop offset="1" stop-color="#F33" style="stop-color:#f33;stop-color:color(display-p3 1 .2 .2);stop-opacity:1"/></linearGradient><linearGradient id="b" x1="7.687" x2="16.898" y1="15.654" y2="19.793" gradientUnits="userSpaceOnUse"><stop stop-color="#AC4142" style="stop-color:#ac4142;stop-color:color(display-p3 .6745 .2549 .2588);stop-opacity:1"/><stop offset="1" stop-color="#D14748" style="stop-color:#d14748;stop-color:color(display-p3 .8196 .2784 .2824);stop-opacity:1"/></linearGradient><linearGradient id="c" x1="10.527" x2="12.373" y1="12.497" y2="13.293" gradientUnits="userSpaceOnUse"><stop stop-color="#F4BF75" style="stop-color:#f4bf75;stop-color:color(display-p3 .9569 .749 .4588);stop-opacity:1"/><stop offset="1" stop-color="#FB8840" style="stop-color:#fb8840;stop-color:color(display-p3 .9843 .5333 .251);stop-opacity:1"/></linearGradient><linearGradient id="d" x1="5.288" x2="2.631" y1="4.05" y2="22.364" gradientUnits="userSpaceOnUse"><stop stop-color="#fff" style="stop-color:white;stop-opacity:1"/><stop offset="1" stop-color="#fff" stop-opacity=".01" style="stop-color:white;stop-opacity:.01"/></linearGradient></defs></svg>