<svg xmlns="http://www.w3.org/2000/svg" width="24" height="24" fill="none"><g clip-path="url(#a)"><path fill="#FA6068" d="M14.591 6.29c-1.484 3.971-4.254 6.717-8.224 8.125-1.946.69-3.56-.998-2.115-3.885 1.528-3.056 3.863-5.288 6.997-6.64 2.813-.948 3.927.153 3.342 2.4m-.59 2.994v.002l6.56-.46c-.163-.156-.255-.258-.362-.343l-5.854-4.7c-.192-.155-.312-.4-.569-.741.836 0 1.511-.008 2.187.002.815.011 1.65-.068 2.442.079 1.713.317 2.627 1.421 2.594 3.162-.03 1.632-1.008 13.746-1.008 13.746l-2.636-2.349s-.204-.228-.328-.307c-1.057-.673-1.498-1.677-1.738-2.876-.424-2.024-1.042-4.151-1.289-5.215m-5.18 4.824 6.833 2.187a22.5 22.5 0 0 1-3.92 3.153l7.658.585v.098s-12.423.846-12.938.836C4.268 20.927 3.03 19.73 3 17.537c-.016-1.232.111-2.465.19-3.696.005-.093.138-.178.212-.267.11.098.27.175.324.297.653 1.513 2.11 4.957 2.11 4.957s.903-.092 1.318-.2c.164-.041.354-.24.407-.408.55-1.678 1.067-3.7 1.259-4.112" style="fill:#fa6068;fill:color(display-p3 .9803 .3759 .4092);fill-opacity:1"/></g><defs><clipPath id="a"><path fill="#fff" d="M0 0h18v18H0z" style="fill:#fff;fill-opacity:1" transform="translate(3 3)"/></clipPath></defs></svg>