<svg xmlns="http://www.w3.org/2000/svg" width="24" height="24" fill="none"><path fill="#FA6068" d="m22.355 11.74-.881-.546-.025-.257.758-.706a.305.305 0 0 0-.101-.506l-.969-.362a8 8 0 0 0-.076-.25l.604-.84a.303.303 0 0 0-.197-.476l-1.02-.166a8 8 0 0 0-.124-.23l.429-.941a.3.3 0 0 0-.138-.396.3.3 0 0 0-.149-.033l-1.036.036a6 6 0 0 0-.164-.198l.238-1.01a.304.304 0 0 0-.365-.364l-1.009.238q-.099-.083-.2-.164l.037-1.037a.3.3 0 0 0-.429-.287l-.941.43q-.115-.063-.23-.123l-.166-1.022a.306.306 0 0 0-.477-.198l-.84.605a7 7 0 0 0-.25-.075l-.362-.969a.304.304 0 0 0-.506-.101l-.706.758a8 8 0 0 0-.257-.024l-.545-.882a.304.304 0 0 0-.516 0l-.545.882-.257.024-.707-.758a.303.303 0 0 0-.506.1l-.362.97q-.127.035-.25.075l-.84-.605a.305.305 0 0 0-.476.198l-.166 1.022q-.116.06-.23.123l-.941-.43a.303.303 0 0 0-.43.287L6.07 4.57a7 7 0 0 0-.199.164l-1.009-.239a.304.304 0 0 0-.365.366l.237 1.009q-.083.098-.163.198l-1.036-.036a.303.303 0 0 0-.287.429l.43.942a8 8 0 0 0-.124.23l-1.02.165a.305.305 0 0 0-.198.477l.605.839q-.04.124-.077.25l-.968.362a.305.305 0 0 0-.1.506l.757.707q-.015.127-.025.256l-.882.546a.3.3 0 0 0 0 .516l.882.546q.011.13.025.257l-.758.707a.304.304 0 0 0 .101.506l.968.362q.036.127.077.25l-.605.84a.302.302 0 0 0 .199.476l1.02.166q.06.115.124.23l-.43.941a.303.303 0 0 0 .287.43l1.035-.037.164.2-.237 1.01a.303.303 0 0 0 .365.364l1.009-.238q.098.084.2.163l-.037 1.037a.3.3 0 0 0 .429.286l.941-.429q.114.064.23.123l.166 1.021a.305.305 0 0 0 .477.199l.839-.605q.124.04.25.077l.362.968a.302.302 0 0 0 .506.101l.707-.758q.127.015.256.026l.546.882a.303.303 0 0 0 .516 0l.545-.882q.13-.012.257-.026l.706.758a.305.305 0 0 0 .506-.1l.362-.97q.126-.035.25-.076l.84.605a.3.3 0 0 0 .476-.199l.166-1.02q.115-.06.23-.124l.941.43a.304.304 0 0 0 .43-.287l-.037-1.037q.1-.08.198-.163l1.01.238a.303.303 0 0 0 .364-.365l-.237-1.01q.083-.098.163-.2l1.036.037a.3.3 0 0 0 .287-.429l-.429-.942q.064-.113.123-.23l1.021-.165a.304.304 0 0 0 .198-.477l-.605-.839.077-.25.968-.362a.302.302 0 0 0 .1-.506l-.757-.707q.015-.128.025-.257l.882-.546a.3.3 0 0 0 .106-.406.3.3 0 0 0-.106-.11m-5.898 7.313a.625.625 0 1 1 .488-1.127.624.624 0 0 1-.49 1.128zm-.3-2.025a.57.57 0 0 0-.675.438l-.312 1.46a7.6 7.6 0 0 1-3.167.682 7.64 7.64 0 0 1-3.234-.712l-.312-1.46a.57.57 0 0 0-.675-.437l-1.29.276a8 8 0 0 1-.665-.786h6.271c.071 0 .119-.012.119-.077v-2.22c0-.065-.047-.077-.119-.077h-1.834v-1.407h1.984c.18 0 .968.051 1.22 1.058.079.31.251 1.317.37 1.64.118.36.598 1.083 1.11 1.083h3.125a1 1 0 0 0 .114-.011 8 8 0 0 1-.71.833zm-8.675 1.995a.624.624 0 1 1-.282-1.216.624.624 0 0 1 .282 1.216m-2.38-9.651a.625.625 0 1 1-1.126.54.625.625 0 0 1 1.127-.54m-.73 1.734 1.343-.597a.57.57 0 0 0 .289-.752l-.277-.625h1.088v4.903H4.621a7.7 7.7 0 0 1-.248-2.93m5.893-.476V9.185h2.59c.134 0 .944.155.944.761 0 .503-.622.684-1.133.684zm9.413 1.3q0 .289-.022.57h-.787c-.079 0-.11.052-.11.13v.361c0 .852-.481 1.037-.902 1.084-.4.046-.844-.167-.899-.413-.236-1.329-.63-1.613-1.252-2.103.772-.49 1.575-1.213 1.575-2.181 0-1.045-.717-1.703-1.205-2.027-.685-.452-1.443-.542-1.648-.542H6.285a7.67 7.67 0 0 1 4.293-2.424l.96 1.007a.57.57 0 0 0 .804.019l1.074-1.028a7.68 7.68 0 0 1 5.253 3.743l-.735 1.661a.57.57 0 0 0 .289.752l1.416.629q.037.377.037.763zM11.539 3.53a.623.623 0 1 1 .861.903.624.624 0 0 1-.86-.903m7.297 5.873a.622.622 0 0 1 1.097-.08.624.624 0 1 1-1.098.08z" style="fill:#fa6068;fill:color(display-p3 .9803 .3759 .4092);fill-opacity:1"/></svg>