<svg xmlns="http://www.w3.org/2000/svg" width="24" height="24" fill="none"><path fill="#89DDFF" fill-rule="evenodd" d="M10.49 7.307a3.23 3.23 0 0 1 2.282-.932c1.19 0 2.222.63 2.778 1.568a4 4 0 0 1 1.567-.318C19.26 7.625 21 9.294 21 11.353s-1.74 3.729-3.883 3.729q-.393 0-.767-.072a2.87 2.87 0 0 1-2.474 1.385c-.43.001-.856-.092-1.243-.272C12.14 17.225 10.993 18 9.657 18c-1.396 0-2.58-.838-3.036-2.015q-.305.06-.618.06c-1.66 0-3.003-1.297-3.003-2.89 0-1.07.605-2.003 1.501-2.507a3.2 3.2 0 0 1-.287-1.322C4.214 7.486 5.78 6 7.713 6c1.13 0 2.143.513 2.778 1.31" clip-rule="evenodd" style="fill:#89ddff;fill:color(display-p3 .5373 .8667 1);fill-opacity:1"/></svg>