<svg xmlns="http://www.w3.org/2000/svg" width="24" height="24" fill="none"><path fill="#F69DD5" d="M7.875 13.574 5.59 14.828c-1.32-1.292-2.564-1.92-3.289-2.9-.924-1.248-.628-2.887 1.417-4.506 4.451-3.39 8.777-3.519 9.83-2.196.966 1.216-.7 3.856-3.529 4.805-1.734.586-3.389.61-4.243-.358-.116-.16-.293-.017-.233.133.563 1.688 3.15 1.574 5.089 1.106 3.615-.874 6.327-5.514 3.015-7.324C8.809 1.323.371 6.478.011 10.104c-.205 2.065 2.472 3.526 4.708 5.206-1.76.94-3.047 1.811-3.485 2.56-.446.703-.604 1.453-.272 2.253.628 1.415 2.815.752 3.628.174 1.293-.92 2.306-2.739 1.442-4.853l1.317-.758.02.017q-.037.118-.071.236c-.41 1.325-.28 2.577.363 3.5.274.393.873.435 1.216.133.35-.31.629-1.072 1.073-2.025-.112.996-.027 1.827.567 1.889.37.039.706-.315.986-.785.739-1.237 1.434-2.77 2.125-4.413.137.679.352 1.302.653 1.864.074.149.066.245-.038.37l-1.282 1.575c-.616.718-.4 1.09.426 1.038 1.17-.105 2.61-.864 2.275-2.425-.127-.583-.286-.666-.158-.82.494-.704.967-1.565 1.359-2.33.127.662.324 1.32.667 1.898-.824.74-1.425 1.52-1.393 2.406.047.351.334.579.68.5.909-.139 1.953-.976 2.08-1.623.073-.369.048-.73-.153-1.289 3.688-1.234 5.894 1.524 4.117 2.737a.6.6 0 0 0-.183.135c-.056.075-.03.162.077.162.175-.002.314-.087.442-.162 1.758-1.037.475-3.91-2.35-3.955a5.4 5.4 0 0 0-2.381.494c-.486-.801-.647-1.537-.512-2.135.068-.281.157-.558.24-.836.037-.142.025-.273-.275-.337a2.3 2.3 0 0 0-.99.073c-.242.066-.21.226-.289.44-.188.97-.899 2.06-1.564 3.214-.237-.423-.435-.93-.39-1.584.022-.33.164-.758.276-1.108.053-.146.004-.243-.272-.32-.47-.065-.931.021-1.125.14-.153.095-.193.644-.396 1.095-.834 1.831-1.739 4.033-2.121 4.562-.233-.137.202-1.66.565-3.031.127-.41-.384-.666-.785-.376.388-2.07-1.404-1.936-2.808-.161a.5.5 0 0 1-.145.125m-2.561 3.431c-.064.855-.45 1.547-1.084 2.108-1.633 1.308-2.584.463-1.762-.95.346-.727 1.502-1.47 2.731-2.213.095.353.141.7.115 1.055m3.04.261c-.47-1.123.154-3.245 1.24-4.033.397-.233.572-.174.542.058a7 7 0 0 1-.182.81 24 24 0 0 1-1.011 2.678c-.283.598-.484.737-.59.487m5.07.216 1.182-1.38c.049.512-.822 1.535-1.182 1.38m3.48-.787c-.065.014-.092-.031-.054-.22.16-.564.455-1.052.92-1.457.216.592-.021 1.36-.866 1.677" style="fill:#f69dd5;fill:color(display-p3 .9645 .6138 .8359);fill-opacity:1"/></svg>