<svg xmlns="http://www.w3.org/2000/svg" width="24" height="24" fill="none"><g fill="#FA6068" opacity=".6"><path d="M5.869 9.556s12.112 1.222 12.112 3.259V7.927s0-2.037-12.112-3.26v4.889M5.869 16.074s12.112 1.222 12.112 3.258v-4.888s0-2.037-12.112-3.259z" style="fill:#fa6068;fill:color(display-p3 .9803 .3759 .4092);fill-opacity:1"/></g><path fill="#FF8B8B" d="M18 1.428v4.888s0 2.037-12.112 3.26V4.667C5.868 4.668 18 3.465 18 1.428M5.869 11.185S17.98 9.963 17.98 7.926v4.889s0 2.036-12.112 3.258zM5.869 22.572v-4.888s12.112-1.223 12.112-3.26v4.889c.019.02.019 2.037-12.112 3.259" style="fill:#ff8b8b;fill:color(display-p3 1 .5434 .5434);fill-opacity:1"/></svg>