<svg xmlns="http://www.w3.org/2000/svg" width="24" height="24" fill="none"><path fill="#8472F3" d="M13.433 4.821a1.676 1.676 0 0 0-2.883 0L8.178 8.915a11.64 11.64 0 0 1 4.478 3.985 11.77 11.77 0 0 1 1.92 5.701H12.91a10.1 10.1 0 0 0-1.698-4.873 10 10 0 0 0-3.874-3.38l-2.194 3.825a5.75 5.75 0 0 1 2.223 1.782c.581.773.96 1.68 1.103 2.64H4.646a.273.273 0 0 1-.255-.272q-.001-.07.031-.132l1.06-1.816a3.9 3.9 0 0 0-1.21-.69L3.221 17.5a1.66 1.66 0 0 0 .609 2.268c.249.141.53.216.815.218h5.237a7.1 7.1 0 0 0-.623-3.527A7.04 7.04 0 0 0 7 13.697l.832-1.453a8.65 8.65 0 0 1 2.876 3.374 8.73 8.73 0 0 1 .837 4.368h4.436a13.1 13.1 0 0 0-1.426-6.573 13 13 0 0 0-4.488-4.98l1.683-2.907a.277.277 0 0 1 .378-.098c.192.105 7.313 12.632 7.446 12.777a.277.277 0 0 1-.245.41h-1.715q.033.695 0 1.385h1.723a1.64 1.64 0 0 0 1.44-.83 1.68 1.68 0 0 0 .001-1.673z" style="fill:#8472f3;fill:color(display-p3 .5162 .4471 .9529);fill-opacity:1"/></svg>