<svg xmlns="http://www.w3.org/2000/svg" width="24" height="24" fill="none"><path fill="#6B7394" fill-rule="evenodd" d="M20.327 17.58a.6.6 0 0 1-.091-.344.6.6 0 0 1 .103-.331.6.6 0 0 1 .263-.218l.03-.013a.73.73 0 0 0 .39-.395.76.76 0 0 0 .005-.563.73.73 0 0 0-.383-.401.7.7 0 0 0-.547-.005l-.057.023a.575.575 0 0 1-.634-.133l-.01-.027a.622.622 0 0 1-.134-.666l.01-.029a.76.76 0 0 0-.147-.804.71.71 0 0 0-.504-.22.7.7 0 0 0-.508.211.7.7 0 0 0-.157.238l-.012.028a.6.6 0 0 1-.225.27.58.58 0 0 1-.334.094.6.6 0 0 1-.321-.107.6.6 0 0 1-.212-.27l-.012-.031a.73.73 0 0 0-.384-.402.7.7 0 0 0-.547-.005.73.73 0 0 0-.39.395.76.76 0 0 0-.005.563l.023.058a.62.62 0 0 1-.13.653l-.026.011a.575.575 0 0 1-.647.138l-.028-.012a.7.7 0 0 0-.78.153.74.74 0 0 0-.215.518.75.75 0 0 0 .205.523.7.7 0 0 0 .231.161l.028.013c.108.048.2.129.262.232a.6.6 0 0 1 .091.343.6.6 0 0 1-.092.344.6.6 0 0 1-.264.232l-.03.013a.73.73 0 0 0-.39.394.76.76 0 0 0-.005.564c.072.18.21.325.384.401a.7.7 0 0 0 .547.005l.056-.023a.57.57 0 0 1 .635.133.623.623 0 0 1 .134.666l-.012.029a.75.75 0 0 0 .148.803.71.71 0 0 0 .504.22.7.7 0 0 0 .508-.21.7.7 0 0 0 .157-.238l.012-.029a.6.6 0 0 1 .225-.27.58.58 0 0 1 .334-.093.58.58 0 0 1 .334.094c.1.065.179.16.226.272l.012.03c.07.181.209.326.383.402a.7.7 0 0 0 .547.005.73.73 0 0 0 .39-.395.76.76 0 0 0 .005-.563l-.023-.058a.63.63 0 0 1 .13-.652.575.575 0 0 1 .647-.138l.028.012a.695.695 0 0 0 .78-.153.74.74 0 0 0 .215-.519.75.75 0 0 0-.205-.522.7.7 0 0 0-.231-.162l-.028-.012a.6.6 0 0 1-.262-.232m-1.278-1.04c.372.947-.073 2.025-.994 2.408-.92.383-1.968-.075-2.34-1.023-.371-.947.073-2.025.994-2.408.92-.383 1.968.075 2.34 1.022" clip-rule="evenodd" style="fill:#6b7394;fill:color(display-p3 .42 .4493 .58);fill-opacity:1"/><path fill="#FFCB6B" d="m16.356 10.003-1.411-.318q.025-.534-.048-1.054l1.378-.45a.47.47 0 0 0 .295-.588l-.276-.89a.45.45 0 0 0-.57-.305l-1.375.45a6 6 0 0 0-.553-.889l.972-1.097a.477.477 0 0 0-.03-.66l-.671-.63a.446.446 0 0 0-.643.03l-.973 1.1a5.3 5.3 0 0 0-.91-.485l.31-1.452a.47.47 0 0 0-.347-.557l-.888-.2a.455.455 0 0 0-.541.357l-.31 1.452q-.518-.025-1.022.05l-.438-1.418a.45.45 0 0 0-.571-.304l-.866.283a.47.47 0 0 0-.295.588L7.01 4.43a5.5 5.5 0 0 0-.864.57L5.081 4a.446.446 0 0 0-.642.03l-.612.692a.477.477 0 0 0 .03.66l1.069 1.002a5.6 5.6 0 0 0-.471.937l-1.417-.32a.455.455 0 0 0-.541.357l-.194.914a.47.47 0 0 0 .346.557l1.412.318q-.025.535.048 1.052l-1.378.451a.47.47 0 0 0-.295.588l.276.89a.45.45 0 0 0 .57.305l1.375-.451q.236.47.553.889l-.972 1.097a.477.477 0 0 0 .03.66l.672.63c.185.175.473.16.642-.03l.973-1.1q.427.284.91.485l-.31 1.452a.47.47 0 0 0 .347.557l.888.2a.455.455 0 0 0 .541-.357l.31-1.452q.518.025 1.022-.05l.438 1.418a.45.45 0 0 0 .571.304l.866-.283a.47.47 0 0 0 .295-.588l-.438-1.415q.459-.243.864-.57l1.066 1c.185.175.473.161.642-.03l.612-.69a.477.477 0 0 0-.03-.662l-1.069-1.001q.276-.44.47-.936l1.412.318a.455.455 0 0 0 .541-.357l.195-.914a.47.47 0 0 0-.347-.556zm-7.63 3.068a3.6 3.6 0 0 1-.912-.36l2.007-2.266 2.913.657c-.731 1.483-2.359 2.34-4.008 1.969m1.554-7.31c1.65.372 2.78 1.852 2.843 3.513l-2.914-.656-.903-2.922c.32-.017.645-.008.974.066M5.95 8.617a3.73 3.73 0 0 1 1.62-2.364l.906 2.933-2.014 2.275a3.82 3.82 0 0 1-.512-2.844" style="fill:#ffcb6b;fill:color(display-p3 1 .7961 .4196);fill-opacity:1"/></svg>