<svg xmlns="http://www.w3.org/2000/svg" width="24" height="24" fill="none"><path fill="#6B7394" d="M1.393 6.879a1.5 1.5 0 0 0 0 2.121l3.182 3.182a1.5 1.5 0 1 0 2.122-2.121L4.64 8.005a12.03 12.03 0 0 1 14.718 0l-2.056 2.056a1.5 1.5 0 1 0 2.122 2.12L22.607 9a1.5 1.5 0 0 0 0-2.121 15.017 15.017 0 0 0-21.214 0" style="fill:#6b7394;fill:color(display-p3 .42 .4493 .58);fill-opacity:1"/><path fill="#FA6068" d="M11.276 7.743A97 97 0 0 0 9 17.485a3 3 0 0 0 6 0 97 97 0 0 0-2.276-9.742.75.75 0 0 0-1.449 0" style="fill:#fa6068;fill:color(display-p3 .9803 .3759 .4092);fill-opacity:1"/></svg>