<svg xmlns="http://www.w3.org/2000/svg" width="24" height="24" fill="none"><path fill="#4775D1" d="m7.42 21.928 11.34-7.832s.512-.293.512-.755c0-.616-.646-.816-.646-.816l-6.24-2.46c-.223-.088-.528.157-.242.466l2.066 2.059s.573.563.573.93c0 .37-.352.697-.352.697l-7.517 7.237c-.267.258.094.725.505.474m9.16-19.856L5.24 9.903s-.513.293-.513.755c0 .616.647.817.647.817l6.24 2.46c.223.087.53-.158.242-.465L9.79 11.403s-.573-.56-.573-.93.352-.697.352-.697l7.512-7.231c.271-.258-.088-.725-.5-.473" style="fill:#4775d1;fill:color(display-p3 .28 .46 .82);fill-opacity:1"/></svg>