<svg xmlns="http://www.w3.org/2000/svg" width="24" height="24" fill="none"><path fill="#89DDFF" d="M11.023 6c-.53 0-.96.387-.96.864v1.664c0 .477.43.864.96.864h1.907c.53 0 .961-.387.961-.864V6.864c0-.477-.43-.864-.96-.864zm4.688 2.632c-.398 0-.722.296-.722.66v1.27c0 .364.324.66.722.66h1.433c.399 0 .721-.296.721-.66v-1.27c0-.364-.322-.66-.721-.66zm-8.902 0c-.398 0-.721.296-.721.66v1.27c0 .364.323.66.721.66h1.433c.398 0 .722-.296.722-.66v-1.27c0-.364-.324-.66-.722-.66zm4.214 1.456c-.53 0-.96.387-.96.864v1.664c0 .477.43.864.96.864h1.907c.53 0 .961-.387.961-.864v-1.664c0-.477-.43-.864-.96-.864zm8.374.78c-.296 0-.536.22-.536.49v.945c0 .27.24.49.536.49h1.067c.296 0 .536-.22.536-.49v-.944c0-.271-.24-.491-.537-.491zm-15.86 0c-.297 0-.537.22-.537.49v.945c0 .27.24.49.537.49h1.065c.297 0 .537-.22.537-.49v-.944c0-.271-.24-.491-.537-.491zm12.174.994c-.398 0-.722.295-.722.66v1.269c0 .364.324.66.722.66h1.433c.399 0 .721-.296.721-.66v-1.27c0-.364-.322-.66-.721-.66zm-8.902 0c-.398 0-.721.295-.721.66v1.269c0 .364.323.66.721.66h1.433c.398 0 .722-.296.722-.66v-1.27c0-.364-.324-.66-.722-.66zm12.588 1.6c-.296 0-.536.219-.536.49v.944c0 .27.24.49.536.49h1.067c.296 0 .536-.22.536-.49v-.944c0-.271-.24-.49-.537-.49zm-15.86 0c-.297 0-.537.219-.537.49v.944c0 .27.24.49.537.49h1.065c.297 0 .537-.22.537-.49v-.944c0-.271-.24-.49-.537-.49zm7.486.679c-.53 0-.96.387-.96.864v1.664c0 .477.43.864.96.864h1.907c.53 0 .961-.387.961-.864v-1.664c0-.477-.43-.864-.96-.864zm4.688.951c-.398 0-.722.295-.722.66v1.269c0 .364.324.66.722.66h1.433c.399 0 .721-.296.721-.66v-1.27c0-.364-.322-.659-.721-.659zm-8.902 0c-.398 0-.721.295-.721.66v1.269c0 .364.323.66.721.66h1.433c.398 0 .722-.296.722-.66v-1.27c0-.364-.324-.659-.722-.659zm12.588.982c-.296 0-.536.22-.536.491v.944c0 .272.24.491.536.491h1.067c.296 0 .536-.22.536-.49v-.945c0-.27-.24-.49-.537-.49zm-15.86 0c-.297 0-.537.22-.537.491v.944c0 .272.24.491.537.491h1.065c.297 0 .537-.22.537-.49v-.945c0-.27-.24-.49-.537-.49z" style="fill:#89ddff;fill:color(display-p3 .5373 .8667 1);fill-opacity:1"/></svg>