<svg xmlns="http://www.w3.org/2000/svg" width="24" height="24" fill="none"><path fill="#89DDFF" d="m12.533 11.194-.507 1.608c-.27.999-.247 1.314-.11 1.546.034.057.126.244.256.743.188.723.353 1.814.357 1.866-.027.667-.012 1.374.041 2.05H5.876A1.38 1.38 0 0 1 4.5 17.631V5.175c0-.756.62-1.376 1.376-1.376h10.301c-1.577 1.674-3.14 4.85-3.644 7.395m7.272-7.803c1.887 1.684.013 5.534-1.707 8.244-1.252.402-2.71 1.29-2.71 1.29s.121-.064.572-.253c.305-.128 1.216-.345 1.77-.472-.925 1.397-1.718 2.375-1.718 2.375s-1.616.656-2.116 2.184c.29-1.63.77-3.33 1.449-5.143.605-1.619 2.63-5.99 4.124-7.34-1.64 1.307-3.433 4.045-4.725 7.458-.764 2.26-1.178 4.43-1.245 6.228-.045 1.176.057 2.196.307 2.975L13.69 21c-.245-.637-.47-1.758-.417-4.053l-.013-.17s-.149-1.004-.363-1.829c-.095-.366-.203-.697-.317-.889-.059-.099.006-.506.17-1.108.276.481.574 1.002.689 1.429 0 0-.221-1.137-.584-1.8.08-.268.175-.565.282-.882.268.468.54.913.65 1.358a8.3 8.3 0 0 0-.532-1.698c.456-2.373 1.924-5.48 3.505-7.157.844-.901 2.007-1.707 3.045-.81" style="fill:#89ddff;fill:color(display-p3 .5373 .8667 1);fill-opacity:1"/><path fill="#4775D1" d="M19.805 3.391c1.888 1.684.013 5.534-1.707 8.244-1.252.402-2.71 1.29-2.71 1.29s.121-.064.572-.253c.305-.128 1.216-.345 1.77-.472-.925 1.397-1.718 2.375-1.718 2.375s-1.616.656-2.116 2.184c.29-1.63.77-3.33 1.449-5.143.605-1.619 2.63-5.99 4.124-7.34-1.64 1.307-3.433 4.045-4.725 7.458-.764 2.26-1.178 4.43-1.245 6.228-.045 1.176.057 2.196.307 2.975L13.69 21c-.245-.637-.47-1.758-.417-4.053l-.013-.17s-.149-1.004-.363-1.829c-.095-.366-.203-.697-.317-.889-.058-.099.006-.506.17-1.108.276.481.574 1.002.689 1.429 0 0-.221-1.137-.584-1.8.08-.268.175-.565.282-.882.268.468.54.913.65 1.358a8.3 8.3 0 0 0-.532-1.698c.456-2.373 1.924-5.48 3.505-7.157.844-.901 2.007-1.707 3.045-.81" style="fill:#4775d1;fill:color(display-p3 .28 .46 .82);fill-opacity:1"/></svg>