<svg xmlns="http://www.w3.org/2000/svg" width="24" height="24" fill="none"><g fill="#69A7D3" fill-rule="evenodd" clip-rule="evenodd"><path d="M20.368 16.492c-.899.08-2.067-.158-2.682.657.004.91 1.162 1.461 1.915 1.874.712.234 1.413.939 2.014 1.068-.647-1.022-1.717-1.713-2.742-2.341-.158-1.234 1.77-.18 2.111-1.109-.39-1.042-1.562-1.447-2.384-2.094-.871-.456-2.021-.758-2.347-1.79-.955-2.067-1.727-4.343-3.53-5.879-1.14-1.057-2.451-2.103-4.016-2.423-1.357.05-2.335-1.088-3.603-1.329-1.382-.103-1.598 1.587-.655 2.295.867.862 1.123 2.049 1.55 3.138.377.814 1.122 1.383.593 2.31-.374 1.473-.403 3.23.69 4.427.782.77 1.618-.112 1.512-.97.414-.57.672.887 1.15 1.108.503.52 1.04 1.073 1.677 1.413-.943-.89-1.553-2.057-2.189-3.168.177-1.04-1.384-1.397-1.254-.173.022.487-.332 1.876-.855.9-.643-1.206-.439-2.62-.072-3.872.35-.986-.475-1.654-.885-2.427-.334-.884-.403-1.925-1.18-2.583-.747-.468-.947-2.12.318-1.604.953.658 1.967 1.133 3.15 1.186 1.746.522 3.208 1.73 4.346 3.098 1.369 1.595 1.898 3.653 2.904 5.45.28.755 1.174.84 1.835 1.12.858.238 1.483.875 2.233 1.307.152.116.29.252.396.41" style="fill:#69a7d3;fill:color(display-p3 .4123 .6542 .8294);fill-opacity:1"/><path d="M3.844 2.771c.36-.278.815-.402 1.314-.365a1 1 0 0 1 .081.011c.669.127 1.273.46 1.758.728l.217.119c.565.304.998.487 1.467.47a.7.7 0 0 1 .17.014c1.771.362 3.205 1.53 4.352 2.59.99.849 1.683 1.885 2.242 2.944.368.698.698 1.448 1.012 2.163.153.348.303.688.451 1.01a1 1 0 0 1 .033.085c.088.279.29.492.651.709.184.11.389.208.622.316l.124.057c.191.087.401.183.597.286q.06.03.111.072c.173.136.372.265.602.41q.052.031.106.065c.195.122.41.257.615.4.488.343 1.02.81 1.291 1.534.06.161.061.34.002.501-.2.544-.65.764-1.015.847a3 3 0 0 1-.377.052c.726.503 1.447 1.115 1.955 1.916a.722.722 0 0 1-.761 1.092c-.443-.095-.873-.377-1.176-.575l-.033-.022c-.365-.238-.633-.41-.88-.492a1 1 0 0 1-.12-.052l-.159-.086c-.339-.183-.799-.43-1.18-.732-.442-.348-.948-.898-.952-1.686 0-.158.05-.312.146-.438.364-.483.845-.708 1.302-.815-.304-.202-.576-.35-.866-.43a1 1 0 0 1-.089-.031c-.127-.054-.27-.101-.454-.161l-.014-.004a6 6 0 0 1-.602-.22c-.411-.183-.892-.49-1.137-1.09-.372-.67-.687-1.386-.987-2.066a58 58 0 0 0-.331-.744c-.422-.922-.863-1.76-1.48-2.48l-.007-.008c-1.066-1.282-2.39-2.363-3.918-2.844C7.34 5.75 6.322 5.307 5.41 4.725a.5.5 0 0 0 .157.187 1 1 0 0 1 .084.061c.531.45.797 1.015.972 1.522.078.225.142.455.2.662l.02.07c.06.214.116.404.18.58.077.138.174.28.295.455l.02.03c.12.173.265.38.386.6.268.484.472 1.113.214 1.862-.189.648-.313 1.282-.31 1.875q.082-.148.21-.274c.33-.322.763-.387 1.117-.32a1.5 1.5 0 0 1 1.213 1.479l.088.155c.577 1.015 1.099 1.935 1.86 2.654a.722.722 0 0 1-.836 1.16c-.719-.384-1.311-.984-1.788-1.477a1.5 1.5 0 0 1-.357-.347 1.8 1.8 0 0 1-.318.329c-.263.208-.61.348-1.002.322-.394-.026-.749-.213-1.04-.5l-.026-.027c-1.346-1.474-1.25-3.549-.857-5.091a.7.7 0 0 1 .072-.18.54.54 0 0 0 .089-.275c0-.06-.017-.14-.073-.261a4 4 0 0 0-.267-.459 6 6 0 0 1-.387-.695c-.1-.252-.19-.51-.275-.753l-.035-.1c-.097-.277-.19-.537-.294-.786-.201-.482-.43-.888-.754-1.22a2.18 2.18 0 0 1-.77-2.148c.086-.389.292-.77.645-1.044" style="fill:#69a7d3;fill:color(display-p3 .4123 .6542 .8294);fill-opacity:1"/></g></svg>