<svg xmlns="http://www.w3.org/2000/svg" width="24" height="24" fill="none"><path fill="#F69DD5" fill-rule="evenodd" d="M7.165 19.75 6.424 4.375l9.267-.67-.25 2.366 1.432-.764 1.193.763V3.536l-.108.006.571-.041v16.813zm6.34-9.67 2.386-.06c.06-2.34-1.142-3.495-3.232-3.495s-3.26 1.2-3.26 3c0 1.803 1.323 2.59 2.448 3.257.831.493 1.553.922 1.553 1.648 0 .48-.222.765-.711.765-.637 0-.89-.42-.86-1.59H9.324c-.193 2.895 1.482 3.555 3.395 3.555 1.853 0 3.305-.87 3.305-2.76 0-1.972-1.399-2.755-2.555-3.403-.813-.456-1.506-.844-1.506-1.532 0-.675.474-.765.756-.765.296 0 .83.12.785 1.38" clip-rule="evenodd" style="fill:#f69dd5;fill:color(display-p3 .9645 .6138 .8359);fill-opacity:1"/></svg>