<svg xmlns="http://www.w3.org/2000/svg" width="24" height="24" fill="none"><g fill="#C3E88D" fill-rule="evenodd" stroke="#C3E88D" stroke-width=".5" clip-rule="evenodd"><path d="M19.478 3.112a.56.56 0 0 1 .192.298q.051.187.014.424-.035.24-.17.477-.03.03-.073 0a.14.14 0 0 1-.06-.074q.03-.18-.125-.298-.156-.12-.48-.12-.607 0-1.22.455a6.2 6.2 0 0 0-1.19 1.2 11.3 11.3 0 0 0-1.079 1.713 16.3 16.3 0 0 0-1.456 4.037 9 9 0 0 0-.214 1.848q0 .447.252.447.177 0 .347-.15.17-.149.392-.446.044-.03.08.007.038.037.023.097a3 3 0 0 1-.695.745q-.399.298-.724.298-.28 0-.392-.164a.73.73 0 0 1-.11-.417q0-.7.295-1.75t.791-2.22 1.146-2.332 1.352-2.093 1.412-1.513q.708-.58 1.33-.581.22 0 .362.112ZM4.882 21.196a.56.56 0 0 1-.192-.298 1 1 0 0 1-.015-.425q.038-.238.17-.477.03-.03.074 0 .045.03.06.075-.03.179.125.298.156.12.48.119.607 0 1.22-.454a6.2 6.2 0 0 0 1.19-1.2q.576-.744 1.079-1.713a16.3 16.3 0 0 0 1.456-4.038 9 9 0 0 0 .214-1.847q0-.447-.252-.447a.53.53 0 0 0-.347.149q-.17.15-.392.447-.044.03-.08-.008-.038-.037-.023-.097.296-.446.695-.744t.724-.298q.28 0 .392.164a.73.73 0 0 1 .11.417q0 .7-.295 1.75t-.791 2.22-1.145 2.332a18 18 0 0 1-1.353 2.093q-.702.93-1.411 1.512t-1.33.582a.56.56 0 0 1-.363-.112Z" style="fill:#c3e88d;fill:color(display-p3 .7647 .9098 .5529);fill-opacity:1;stroke:#c3e88d;stroke:color(display-p3 .7647 .9098 .5529);stroke-opacity:1"/></g></svg>