<svg xmlns="http://www.w3.org/2000/svg" width="24" height="24" fill="none"><g fill-rule="evenodd" clip-rule="evenodd"><path fill="#6B7394" d="M12.14 21.693c2.151-7.68 2.089-7.715 3.644-13.191l.374.215c.203.117.37.022.37-.212V5.893c.412-1.443.736-2.558.83-2.893h1.686l2.799 2.589-1.839 1.586 1.39 1.5-9.161 13.018c-.045.073-.108.057-.093 0" style="fill:#6b7394;fill:color(display-p3 .42 .4493 .58);fill-opacity:1"/><path fill="#FF8B8B" d="m15.934 3.657-2.49 1.435a.27.27 0 0 1 .047.15V6.58c0 .069-.027.132-.072.182l2.515 1.45c.171.098.312.017.312-.18V3.836c0-.197-.14-.278-.312-.18m-5.407 2.922V5.241q.001-.083.046-.15l-2.49-1.434c-.172-.099-.312-.018-.312.18v4.195c0 .197.14.278.312.18l2.515-1.45a.28.28 0 0 1-.072-.183m2.614-1.44c.082 0 .15.045.15.102v1.338c0 .057-.068.103-.15.103h-2.264c-.083 0-.15-.046-.15-.103V5.241c0-.057.067-.103.15-.103z" style="fill:#ff8b8b;fill:color(display-p3 1 .5434 .5434);fill-opacity:1"/><path fill="#6B7394" d="M11.78 21.693h.092c-2.151-7.68-2.09-7.715-3.644-13.191l-.374.215c-.204.117-.37.022-.37-.212V5.893C7.071 4.45 6.748 3.335 6.653 3H4.968L2.17 5.589l1.838 1.586-1.39 1.5zM11.938 9.476a.679.679 0 1 0 0-1.358.679.679 0 0 0 0 1.358M11.938 13.51a.679.679 0 1 0 0-1.358.679.679 0 0 0 0 1.358M11.938 17.544a.679.679 0 1 0 0-1.358.679.679 0 0 0 0 1.358" style="fill:#6b7394;fill:color(display-p3 .42 .4493 .58);fill-opacity:1"/></g></svg>