<svg xmlns="http://www.w3.org/2000/svg" width="24" height="24" fill="none"><path fill="#F78C6C" d="M18.937 12.057c0-.21-.156-.333-.347-.272l-13.18 4.18a.54.54 0 0 0-.347.493v4.273c0 .211.155.333.347.272l13.18-4.18a.54.54 0 0 0 .347-.493z" style="fill:#f78c6c;fill:color(display-p3 .9686 .549 .4235);fill-opacity:1"/><path fill="#FFCB6B" d="M5.063 11.945c0 .211.155.432.347.493l13.18 4.18c.192.062.347-.06.347-.271v-4.273a.54.54 0 0 0-.347-.493L5.41 7.401c-.192-.062-.347.06-.347.272z" style="fill:#ffcb6b;fill:color(display-p3 1 .7961 .4196);fill-opacity:1"/><path fill="#FFCB6B" d="M18.937 3.288c0-.211-.156-.333-.347-.272L5.41 7.196a.54.54 0 0 0-.347.493v4.273c0 .21.155.333.347.272l13.18-4.18a.54.54 0 0 0 .347-.493z" style="fill:#ffcb6b;fill:color(display-p3 1 .7961 .4196);fill-opacity:1"/></svg>