<svg xmlns="http://www.w3.org/2000/svg" width="24" height="24" fill="none"><g clip-path="url(#a)"><path fill="#2ECC71" d="M13.52 20.567c-.472.574-1.43.26-1.44-.473l-.167-10.712h7.468c1.352 0 2.107 1.507 1.265 2.528z" style="fill:#2ecc71;fill:color(display-p3 .1804 .8 .4431);fill-opacity:1"/><path fill="url(#b)" fill-opacity=".8" d="M13.52 20.567c-.472.574-1.43.26-1.44-.473l-.167-10.712h7.468c1.352 0 2.107 1.507 1.265 2.528z"/><path fill="#2ECC71" d="M10.484 3.33c.472-.574 1.43-.26 1.44.473l.074 10.713H4.624c-1.353 0-2.107-1.507-1.266-2.53z" style="fill:#2ecc71;fill:color(display-p3 .1804 .8 .4431);fill-opacity:1"/></g><defs><linearGradient id="b" x1="8.971" x2="14.312" y1="7.871" y2="14.16" gradientUnits="userSpaceOnUse"><stop style="stop-color:black;stop-opacity:1"/><stop offset="1" stop-opacity="0" style="stop-color:none;stop-opacity:0"/></linearGradient><clipPath id="a"><path fill="#fff" d="M0 0h18v18H0z" style="fill:#fff;fill-opacity:1" transform="translate(3 3)"/></clipPath></defs></svg>