<svg xmlns="http://www.w3.org/2000/svg" width="24" height="24" fill="none"><path fill="#C792EA" d="m12 7.025 5 2.77V8.682l-5-2.76c-.744.41-4.337 2.397-5 2.762l11 6.077v1.106l-6 3.315a4987 4987 0 0 1-6-3.316v-3.315l6 3.316 1-.553-8-4.42v5.527l7 3.866 7-3.867v-2.21L9 8.683zm-7 .553V9.79l9.997 5.526-2.999 1.66L7 14.205v1.111l5 2.762c.743-.412 4.336-2.398 4.998-2.763-.615-.341-7.071-3.908-10.997-6.08V8.132l6-3.316c1.493.827 4.504 2.49 6 3.316v3.315L12 8.13l-1 .554 8 4.421V7.578L12 3.71c-.692.383-6.488 3.588-7 3.868M12 1.5 3 6.474v11.052l9 4.974 9-4.972V6.474zm7.997 15.473L12 21.394l-8-4.421V7.027l8-4.421 8 4.421z" style="fill:#c792ea;fill:color(display-p3 .7804 .5725 .9176);fill-opacity:1"/></svg>