<svg xmlns="http://www.w3.org/2000/svg" width="24" height="24" fill="none"><path fill="#F78C6C" fill-rule="evenodd" d="M15.159 3.107a5.5 5.5 0 0 1 3.377 2.256l.007-.006a5.14 5.14 0 0 1 .878 3.888 4.8 4.8 0 0 1-.722 1.805c.525 1.001.7 2.15.5 3.262a4.82 4.82 0 0 1-2.182 3.235l-4.205 2.68A5.51 5.51 0 0 1 5.43 18.64a5.14 5.14 0 0 1-.882-3.881 4.8 4.8 0 0 1 .722-1.806 5.08 5.08 0 0 1-.501-3.26A4.82 4.82 0 0 1 6.95 6.456l4.204-2.68a5.5 5.5 0 0 1 4.005-.67M8.742 18.765a3.34 3.34 0 0 0 2.001.1h-.001c.302-.08.59-.208.854-.376l4.205-2.679a2.9 2.9 0 0 0 1.31-1.943 3.1 3.1 0 0 0-.526-2.337 3.34 3.34 0 0 0-3.584-1.329 3 3 0 0 0-.855.377L10.541 11.6a1 1 0 0 1-.258.113 1.006 1.006 0 0 1-1.23-.738.9.9 0 0 1-.009-.368.88.88 0 0 1 .395-.585l4.204-2.683a1 1 0 0 1 .258-.113 1.01 1.01 0 0 1 1.08.401.95.95 0 0 1 .17.625l-.015.156.157.047a5.4 5.4 0 0 1 1.644.823l.215.158.08-.242a2.97 2.97 0 0 0 .073-1.614 3.1 3.1 0 0 0-.5-1.116 3.34 3.34 0 0 0-3.584-1.328c-.302.08-.59.207-.854.376L8.16 8.192a2.9 2.9 0 0 0-1.31 1.947 3.1 3.1 0 0 0 .526 2.337 3.34 3.34 0 0 0 3.585 1.329c.302-.081.59-.208.855-.376l1.604-1.024a1 1 0 0 1 .258-.112 1.007 1.007 0 0 1 1.231.737q.04.183.009.369a.88.88 0 0 1-.395.585l-4.201 2.678a1 1 0 0 1-.258.113 1.01 1.01 0 0 1-1.08-.401.94.94 0 0 1-.17-.625l.014-.155-.157-.048a5.4 5.4 0 0 1-1.644-.822l-.216-.158-.08.241q-.063.194-.1.393a3.1 3.1 0 0 0 .527 2.337c.39.562.942.99 1.583 1.228" clip-rule="evenodd" style="fill:#f78c6c;fill:color(display-p3 .9686 .549 .4235);fill-opacity:1"/></svg>