<svg xmlns="http://www.w3.org/2000/svg" width="24" height="24" fill="none"><g fill-rule="evenodd" clip-rule="evenodd"><path fill="#6B7394" d="M6.354 7.021c-.237.692-.876 1.188-1.628 1.188C3.773 8.209 3 7.41 3 6.427s.773-1.781 1.726-1.781c.752 0 1.391.495 1.628 1.187H16.38v.06q.687-.06 1.421-.06v1.072q-.737 0-1.42.064v.052h-.476c-3.58.457-6.025 2.245-7.564 4.976a12.8 12.8 0 0 0-1.33 3.535c-.093.422-.159.814-.202 1.163-.025.207-.037.35-.04.421l-1.05-.053c.005-.097.02-.267.048-.5.047-.384.118-.809.219-1.266a13.9 13.9 0 0 1 1.444-3.835c1.1-1.953 2.633-3.475 4.64-4.441z" style="fill:#6b7394;fill:color(display-p3 .42 .4493 .58);fill-opacity:1"/><path fill="#F69DD5" d="M6.514 15.571a2.71 2.71 0 0 0-2.725 2.7v.028C3.79 19.791 5.01 21 6.514 21a2.71 2.71 0 0 0 2.724-2.7v-.028c0-1.491-1.22-2.7-2.724-2.7M5.346 18.3v-.027c0-.638.518-1.155 1.168-1.155.645 0 1.167.518 1.167 1.155v.027c0 .639-.518 1.156-1.167 1.156a1.163 1.163 0 0 1-1.168-1.156M18.969 3.88a2.71 2.71 0 0 0-2.725 2.7v.028c0 1.491 1.221 2.7 2.725 2.7a2.71 2.71 0 0 0 2.724-2.7V6.58c0-1.49-1.22-2.7-2.724-2.7M17.8 6.608V6.58c0-.638.518-1.155 1.168-1.155.645 0 1.167.519 1.167 1.155v.028c0 .638-.518 1.155-1.167 1.155A1.163 1.163 0 0 1 17.8 6.608" style="fill:#f69dd5;fill:color(display-p3 .9645 .6138 .8359);fill-opacity:1"/></g></svg>