<svg xmlns="http://www.w3.org/2000/svg" width="24" height="24" fill="none"><path fill="#4775D1" d="M19.476 10.178a7.8 7.8 0 0 0-.932-2.138c.309-.435.605-.88.88-1.35l-2.121-2.114c-.483.282-.94.588-1.387.908a7.7 7.7 0 0 0-2.07-.854c-.09-.54-.2-1.086-.343-1.63H10.5c-.14.533-.245 1.066-.335 1.598-.75.174-1.469.46-2.134.846-.43-.305-.87-.598-1.333-.868l-2.121 2.12c.255.437.53.853.815 1.26a7.8 7.8 0 0 0-.99 2.24q-.706.126-1.401.303v3c.435.114.868.206 1.302.285.179.864.504 1.691.961 2.445q-.362.519-.687 1.074l2.121 2.121c.36-.209.701-.43 1.036-.66a7.8 7.8 0 0 0 2.505 1.044q.109.596.261 1.192h3c.107-.408.193-.814.27-1.223a7.7 7.7 0 0 0 2.443-1.055c.354.245.72.482 1.093.702l2.12-2.121c-.236-.402-.49-.788-.753-1.17.424-.723.728-1.51.9-2.332.475-.083.95-.18 1.426-.304V10.5a18 18 0 0 0-1.523-.321m-2.186 3.891a5.7 5.7 0 0 1-3.04 3.3 5.66 5.66 0 0 1-4.492.06 5.73 5.73 0 0 1-3.131-3.255 5.66 5.66 0 0 1 .216-4.458A5.7 5.7 0 0 1 9.71 6.98a5.67 5.67 0 0 1 4.589.06 5.668 5.668 0 0 1 2.99 7.028m-1.267-.106a1.139 1.139 0 1 1-2.128-.297l-.9-.672a1.56 1.56 0 0 1-1.813.328l-.72 1.12a.962.962 0 1 1-.304-.194l.72-1.122a1.56 1.56 0 0 1-.525-1.59l-1.547-.607a.72.72 0 1 1 .134-.351v.015l1.545.607a1.553 1.553 0 0 1 2.006-.707l.727-1.248a.777.777 0 1 1 .312.18l-.73 1.248c.634.475.81 1.35.41 2.034l.9.67a1.139 1.139 0 0 1 1.914.586" style="fill:#4775d1;fill:color(display-p3 .28 .46 .82);fill-opacity:1"/></svg>