<svg xmlns="http://www.w3.org/2000/svg" width="24" height="24" fill="none"><path fill="#F78C6C" d="M11.916 14.744c.99 0 1.793-.806 1.793-1.8s-.803-1.8-1.793-1.8-1.793.806-1.793 1.8.803 1.8 1.793 1.8" style="fill:#f78c6c;fill:color(display-p3 .9686 .549 .4235);fill-opacity:1"/><path fill="#B2CCD6" d="M9.086 11.375c-1.163 2.048-1.992 4.186-2.32 5.942-.183.98-.209 1.85-.085 2.524.112.607.335 1.007.618 1.173.296.172.784.166 1.398-.054.683-.245 1.458-.732 2.23-1.418 1.236-1.098 2.538-2.826 3.72-4.908 1.126-1.983 1.93-3.975 2.264-5.622.215-1.06.258-2.012.137-2.751-.11-.668-.345-1.108-.644-1.283-.282-.165-.742-.155-1.329.064-.647.242-1.39.717-2.144 1.383-1.324 1.17-2.697 2.928-3.845 4.95m-.737-.432c1.193-2.101 2.623-3.933 4.024-5.17.826-.731 1.655-1.261 2.408-1.542.802-.3 1.513-.316 2.048-.002 1.084.635 1.402 2.564.916 4.958-.354 1.745-1.192 3.821-2.36 5.879-1.225 2.158-2.583 3.96-3.897 5.127-1.748 1.552-3.544 2.196-4.614 1.57-.53-.311-.876-.93-1.03-1.763-.144-.789-.116-1.765.085-2.844.347-1.858 1.211-4.085 2.42-6.213" style="fill:#b2ccd6;fill:color(display-p3 .698 .8 .8392);fill-opacity:1"/><path fill="#FFCB6B" d="M5.751 10.676c-.93.327-1.688.738-2.203 1.181-.463.4-.694.794-.694 1.125 0 .344.25.77.747 1.197.552.476 1.357.913 2.332 1.249 1.559.536 3.691.817 6.067.817 2.262 0 4.37-.287 5.947-.813 1.015-.338 1.851-.774 2.423-1.248.517-.429.776-.853.776-1.202 0-.33-.24-.727-.722-1.132-.532-.447-1.31-.862-2.258-1.19-1.666-.578-3.859-.906-6.166-.906-2.335 0-4.581.337-6.249.922m6.25-1.782c2.396 0 4.682.341 6.443.952 1.04.36 1.91.823 2.527 1.343.659.553 1.029 1.168 1.029 1.793 0 1.265-1.492 2.503-3.784 3.267-1.671.558-3.87.857-6.216.857-2.463 0-4.684-.293-6.343-.864C3.452 15.482 2 14.23 2 12.982c0-.62.357-1.23.993-1.779.602-.519 1.453-.98 2.477-1.34 1.764-.619 4.104-.97 6.53-.97" style="fill:#ffcb6b;fill:color(display-p3 1 .7961 .4196);fill-opacity:1"/><path fill="#B2CCD6" d="M13.074 19.638c.752.651 1.49 1.108 2.134 1.336.58.205 1.038.208 1.324.042.298-.174.54-.607.66-1.257.134-.724.105-1.65-.097-2.674-.322-1.635-1.155-3.645-2.355-5.728-1.142-1.983-2.454-3.686-3.705-4.803-.806-.72-1.606-1.233-2.305-1.495-.631-.237-1.13-.25-1.432-.074-.284.166-.508.576-.615 1.202-.119.691-.084 1.583.11 2.579.34 1.751 1.164 3.838 2.328 5.86 1.18 2.047 2.604 3.846 3.953 5.012M8.376 15.06c-1.21-2.1-2.068-4.276-2.428-6.127-.213-1.093-.251-2.088-.114-2.891.147-.856.492-1.49 1.033-1.805 1.095-.637 2.92.047 4.74 1.671 1.326 1.184 2.693 2.959 3.878 5.016 1.244 2.16 2.112 4.255 2.454 5.994.457 2.316.105 4.22-.976 4.848-.536.311-1.245.307-2.04.025-.754-.266-1.582-.78-2.41-1.496-1.427-1.234-2.912-3.108-4.137-5.235" style="fill:#b2ccd6;fill:color(display-p3 .698 .8 .8392);fill-opacity:1"/></svg>