<svg xmlns="http://www.w3.org/2000/svg" width="24" height="24" fill="none"><path fill="#AEE33E" d="M12 21.523c-5.251 0-9.523-4.272-9.523-9.523S6.749 2.477 12 2.477 21.523 6.749 21.523 12 17.251 21.523 12 21.523" style="fill:#aee33e;fill:color(display-p3 .6824 .8902 .2431);fill-opacity:1"/><path fill="#343944" stroke="#343944" stroke-width=".5" d="M7.297 8.767c-.031.343.011.696-.012 1.042-.027.347-.069.689-.138 1.031-.096.488-.4.858-.82 1.165.816.53.908 1.354.962 2.188.027.45.016.904.062 1.35.034.346.169.434.527.446.146.004.295 0 .465 0v1.069c-1.057.18-1.93-.12-2.146-1.015a6 6 0 0 1-.13-1c-.024-.358.015-.715-.012-1.073-.077-.98-.204-1.311-1.142-1.357v-1.22c.069-.015.134-.026.204-.034.515-.027.734-.185.845-.692q.08-.426.097-.865c.038-.558.023-1.127.119-1.68.134-.796.627-1.181 1.446-1.227.23-.012.465 0 .73 0v1.092c-.111.008-.207.023-.307.023-.666-.023-.7.204-.75.757Zm2.28 2.53h-.015a.703.703 0 0 0-.07 1.404h.047c.38.023.707-.27.73-.65v-.038a.704.704 0 0 0-.692-.715Zm2.411 0a.674.674 0 0 0-.696.65c0 .024 0 .043.004.066 0 .419.285.688.716.688.422 0 .688-.277.688-.711-.004-.42-.285-.696-.712-.692Zm2.47 0a.72.72 0 0 0-.731.697c0 .392.315.707.707.707h.008c.354.062.711-.28.734-.692.02-.38-.327-.711-.719-.711Zm4.387.058c-.446-.019-.67-.169-.78-.592-.07-.27-.112-.55-.128-.827-.03-.515-.027-1.034-.061-1.55-.08-1.222-.965-1.65-2.25-1.438V8.01c.204 0 .362 0 .52.003.272.004.48.108.507.412.027.277.027.557.054.838.054.558.084 1.123.18 1.673.085.454.397.792.785 1.069-.68.457-.88 1.111-.915 1.846-.02.503-.03 1.011-.058 1.519-.023.461-.184.611-.65.623-.13.003-.257.015-.403.023v1.088c.273 0 .523.015.772 0 .777-.046 1.246-.423 1.4-1.177q.099-.623.116-1.253c.026-.385.023-.773.061-1.154.058-.596.33-.842.927-.88a1 1 0 0 0 .165-.039v-1.219c-.1-.011-.17-.023-.242-.027Z" style="fill:#343944;fill:color(display-p3 .2039 .2235 .2667);fill-opacity:1;stroke:#343944;stroke:color(display-p3 .2039 .2235 .2667);stroke-opacity:1"/></svg>