<svg xmlns="http://www.w3.org/2000/svg" width="24" height="24" fill="none"><path fill="#FFCB6B" d="M7.886 8a.75.75 0 0 0-.458.16.93.93 0 0 0-.304.422 1.07 1.07 0 0 0-.047.544 1 1 0 0 0 .226.483l3.322 3.793a.4.4 0 0 1 .103.214.45.45 0 0 1-.025.243.4.4 0 0 1-.134.191.32.32 0 0 1-.206.067.3.3 0 0 1-.141-.032.4.4 0 0 1-.12-.091L5.447 8.678a2 2 0 0 0-.654-.5 1.8 1.8 0 0 0-.772-.175c-.422 0-.825.144-1.162.414a2.3 2.3 0 0 0-.703 1.007c-.147.405-.19.849-.126 1.28.07.463.267.889.565 1.23L3.875 13.4a.44.44 0 0 1 .082.457.4.4 0 0 1-.134.193.32.32 0 0 1-.207.067h-.58c-.218 0-.427.1-.581.276a1 1 0 0 0-.241.665c0 .249.086.488.24.664a.78.78 0 0 0 .583.276h.587a1.84 1.84 0 0 0 1.161-.412c.313-.254.556-.604.703-1.009s.19-.848.125-1.28a2.4 2.4 0 0 0-.565-1.23L3.765 10.6a.4.4 0 0 1-.105-.215.45.45 0 0 1 .025-.244.4.4 0 0 1 .134-.192.34.34 0 0 1 .465.057l4.656 5.316c.187.215.409.385.654.501.244.116.507.175.772.175.328.004.651-.086.942-.26a2.1 2.1 0 0 0 .721-.737l.285.323c.187.215.409.385.653.501s.507.176.772.176h.042a1.84 1.84 0 0 0 1.16-.414c.311-.252.553-.6.701-1.008.147-.41.194-.853.127-1.28a2.4 2.4 0 0 0-.564-1.231l-1.284-1.465a.4.4 0 0 1-.105-.214.45.45 0 0 1 .025-.244.4.4 0 0 1 .133-.193.32.32 0 0 1 .207-.068h.877c-.045.27-.047.548-.006.82.07.463.266.889.565 1.23l2.968 3.39c.187.215.409.385.654.501.244.116.507.176.772.176 1.096 0 1.991-1.019 1.989-2.274a1.1 1.1 0 0 0-.055-.37 1 1 0 0 0-.177-.315.8.8 0 0 0-.27-.212.74.74 0 0 0-.644 0 .8.8 0 0 0-.271.212 1 1 0 0 0-.177.316q-.06.178-.055.37a.42.42 0 0 1-.1.274.32.32 0 0 1-.24.114.3.3 0 0 1-.14-.032.4.4 0 0 1-.119-.091l-2.969-3.39a.4.4 0 0 1-.105-.214.45.45 0 0 1 .024-.244.4.4 0 0 1 .134-.193.32.32 0 0 1 .207-.068h.494c.218 0 .427-.1.582-.276s.241-.415.241-.664-.087-.489-.241-.665a.78.78 0 0 0-.582-.276H14.18c-.423 0-.824.143-1.162.414a2.3 2.3 0 0 0-.703 1.007 2.6 2.6 0 0 0-.125 1.28c.07.463.266.889.564 1.23l1.28 1.466c.055.057.092.132.106.215a.45.45 0 0 1-.025.245.4.4 0 0 1-.133.19.32.32 0 0 1-.206.067h-.041a.3.3 0 0 1-.14-.03.4.4 0 0 1-.12-.091l-1.684-1.923-.004-.005-3.32-3.79a.78.78 0 0 0-.583-.276zm-3.867.826c.347 0 .672.152.917.433l4.658 5.317c.206.235.48.364.77.364a.98.98 0 0 0 .608-.206c.18-.137.319-.333.4-.561.17-.473.083-.99-.234-1.354L7.813 9.026a.1.1 0 0 1-.023-.037.13.13 0 0 1 .023-.128c.042-.048.106-.048.147 0l5.005 5.715c.206.235.48.364.77.364h.042a.98.98 0 0 0 .608-.206c.18-.137.32-.332.4-.561.084-.227.107-.478.065-.72a1.3 1.3 0 0 0-.303-.635l-1.284-1.466a1.53 1.53 0 0 1-.358-.757 1.65 1.65 0 0 1 .078-.855c.096-.272.262-.504.476-.667s.465-.248.722-.245h3.356c.058 0 .103.05.103.117 0 .066-.045.117-.103.117h-.494a.98.98 0 0 0-.608.206c-.18.137-.32.333-.4.562a1.4 1.4 0 0 0-.065.72c.043.24.148.462.303.635l2.968 3.391c.207.235.48.364.77.364.585 0 1.061-.543 1.061-1.21 0-.068.046-.119.105-.119.057 0 .102.051.102.118 0 .19-.033.378-.097.554a1.5 1.5 0 0 1-.275.469 1.3 1.3 0 0 1-.411.313 1.1 1.1 0 0 1-.485.11 1.21 1.21 0 0 1-.917-.433l-2.968-3.39a1.53 1.53 0 0 1-.358-.757 1.65 1.65 0 0 1 .078-.855c.099-.277.27-.514.488-.678h-2.153a.98.98 0 0 0-.608.206 1.2 1.2 0 0 0-.4.562 1.4 1.4 0 0 0-.066.719c.043.242.148.463.302.636l1.284 1.465c.184.205.309.469.359.757.05.287.022.585-.079.855a1.44 1.44 0 0 1-.474.667 1.16 1.16 0 0 1-.722.246h-.042a1.21 1.21 0 0 1-.917-.433l-1.185-1.352c.055.286.029.585-.075.872a1.44 1.44 0 0 1-.474.667 1.16 1.16 0 0 1-.721.246c-.346 0-.673-.153-.919-.433L4.788 9.424q-.152-.175-.353-.27a.982.982 0 0 0-1.025.112c-.18.137-.319.333-.4.562a1.4 1.4 0 0 0-.065.719c.043.242.148.463.302.636l1.283 1.465c.184.205.309.469.359.757.05.287.023.585-.078.855a1.43 1.43 0 0 1-.475.668 1.16 1.16 0 0 1-.722.245h-.577c-.058 0-.103-.052-.103-.117 0-.066.045-.117.103-.117h.579a.98.98 0 0 0 .608-.207c.18-.137.32-.332.4-.561.085-.227.107-.478.065-.72a1.3 1.3 0 0 0-.303-.634L3.103 11.35a1.53 1.53 0 0 1-.357-.755 1.65 1.65 0 0 1 .078-.855c.204-.564.66-.913 1.196-.913z" style="fill:#ffcb6b;fill:color(display-p3 1 .7961 .4196);fill-opacity:1"/></svg>