<svg xmlns="http://www.w3.org/2000/svg" width="24" height="24" fill="none"><path fill="#F78C6C" d="M16.575 18.343c-2.159 1.27-5.127 1.4-8.114.097-2.418-1.048-4.424-2.882-5.71-4.978.617.524 1.337.943 2.109 1.31 3.084 1.472 6.168 1.371 8.338.004l-.004-.004c-3.087-2.41-5.71-5.555-7.665-8.122-.412-.42-.72-.943-1.03-1.415 2.367 2.201 6.123 4.978 7.46 5.764C9.13 7.96 6.61 4.187 6.712 4.292c4.476 4.611 8.643 7.231 8.643 7.231.138.08.245.145.33.204q.136-.35.236-.728c.72-2.672-.103-5.712-1.903-8.227 4.166 2.568 6.636 7.389 5.607 11.424a7 7 0 0 1-.087.322l.036.045c2.057 2.62 1.491 5.397 1.234 4.873-1.116-2.225-3.182-1.545-4.233-1.093" style="fill:#f78c6c;fill:color(display-p3 .9686 .549 .4235);fill-opacity:1"/></svg>