<svg xmlns="http://www.w3.org/2000/svg" width="24" height="24" fill="none"><path fill="#89DDFF" fill-rule="evenodd" d="M11.25 6q-3.9 0-4.875 3.5 1.463-1.75 3.412-1.312c.742.166 1.272.649 1.86 1.183.955.871 2.061 1.879 4.478 1.879q3.9 0 4.875-3.5-1.463 1.75-3.413 1.313c-.741-.167-1.271-.65-1.858-1.184C14.773 7.008 13.667 6 11.25 6m-4.875 5.25q-3.9 0-4.875 3.5Q2.963 13 4.912 13.438c.742.166 1.272.649 1.86 1.183.955.871 2.061 1.879 4.478 1.879q3.9 0 4.875-3.5-1.463 1.75-3.412 1.313c-.742-.167-1.272-.65-1.86-1.184-.955-.871-2.061-1.879-4.478-1.879" clip-rule="evenodd" style="fill:#89ddff;fill:color(display-p3 .5373 .8667 1);fill-opacity:1"/></svg>