<svg xmlns="http://www.w3.org/2000/svg" width="24" height="24" fill="none"><g clip-path="url(#a)"><path fill="#FFCB6B" fill-rule="evenodd" d="M19.867 3.016q-.478-.891-1.404-1.02-.926-.127-2.078.32-.174.058-.34.13l-.35.157q-1.014.496-2.107 1.293a21 21 0 0 0-2.106 1.756 24 24 0 0 0-1.887 2A17 17 0 0 0 8.11 9.696q.039.402.036.835a9 9 0 0 1-.036.778q-.01.117-.023.187-.011.07-.012.16a3 3 0 0 0-.037.269l-.006.103-.004-.076v-.254a.1.1 0 0 0 .005-.058.2.2 0 0 1 .015-.084q-.028-.011-.018-.037l.01-.027a8 8 0 0 0-.108-.726 13 13 0 0 1-.117-.7 9 9 0 0 0-.392.485l-.356.468q.108.726.024 1.591l-.084.866.006-.103v-.344q0-.343-.114-.832a5 5 0 0 1-.133-.78q-.366.492-.55.83-.183.336-.158.435.043.224.037.535-.007.311-.021.694a29 29 0 0 1-.215 1.61l-.127.775-.077.21q-.258.623-.48 1.275t-.378 1.251a23 23 0 0 0-.328 1.494q-.123.672-.093 1.102l.193-.02a7.7 7.7 0 0 1 .25-1.746q.237-.944.685-2.006.649-1.615 1.75-3.409a34 34 0 0 1 2.56-3.592 32 32 0 0 1 2.398-2.472 30 30 0 0 1 2.419-2.017 20 20 0 0 1 2.32-1.5q1.135-.617 2.111-.92-.93.348-2.157 1.26a37 37 0 0 0-2.435 1.98 52 52 0 0 0-2.25 2.108 29 29 0 0 0-1.584 1.679 39 39 0 0 0-2.275 2.814q-1.017 1.392-1.837 2.797.973-1.229 2.295-1.464l1.321-.236.948-.566 2.29-1.54q-.566-.058-1.338-.144a13 13 0 0 0-1.11-.09q-.503.025-.663.041l-.16.017 1.326-.204 2.66-.137a48 48 0 0 0 2.536-2.092 16 16 0 0 0 2.224-2.371q.927-1.23 1.28-2.46t-.267-2.322z" clip-rule="evenodd" style="fill:#ffcb6b;fill:color(display-p3 1 .7961 .4196);fill-opacity:1"/></g><defs><clipPath id="a"><path fill="#fff" d="M0 0h24v24H0z" style="fill:#fff;fill-opacity:1"/></clipPath></defs></svg>