<svg xmlns="http://www.w3.org/2000/svg" width="24" height="24" fill="none"><path fill="#F78C6C" fill-rule="evenodd" d="M.012 6.17H7.21l.012 2.41h-.345q-.17-1.29-.969-1.745-.45-.251-1.343-.274v6.293q0 .66.23.876.232.216.961.216v.303H1.495v-.303q.7 0 .93-.219t.231-.873V6.561q-.876.023-1.342.274-.86.467-.97 1.746H0zM7.864 16.81v-.303q.514-.017.73-.14.332-.187.332-.7V9.881q0-.525-.344-.707-.198-.11-.718-.14v-.303h6.889v2.41h-.292q-.228-1.155-.774-1.581T11.7 9.135q-.548 0-.697.113-.15.114-.15.453v2.767q1.023.011 1.384-.37.363-.384.555-1.399h.304v4.04h-.304q-.129-1.021-.522-1.439-.395-.418-1.416-.418v2.896q0 .38.195.517t.803.137q1.145 0 1.868-.444.724-.443 1.285-1.663h.332l-.484 2.486zm7.975-2.865q.455-.081.653-.17.32-.145.59-.49l2.09-2.644-2.364-3.474q-.264-.38-.462-.528a.9.9 0 0 0-.496-.167V6.17h4.14v.303q-.579.029-.768.094-.19.064-.19.303 0 .105.047.205.045.1.134.233l1.162 1.798q.981-1.372 1.179-1.687t.198-.525q0-.258-.291-.35-.17-.054-.584-.07V6.17h2.989v.303q-.795.076-1.255.534-.462.458-1.945 2.543l2.172 3.374q.426.66.628.818a1.1 1.1 0 0 0 .534.204v.303h-4.07v-.303q.526-.024.696-.07.262-.075.262-.304a.8.8 0 0 0-.055-.242 2 2 0 0 0-.196-.377l-1.202-1.938-.456.607q-.578.777-.782 1.086-.339.52-.339.736 0 .315.415.432.233.07.555.07v.303h-2.99z" clip-rule="evenodd" style="fill:#f78c6c;fill:color(display-p3 .9686 .549 .4235);fill-opacity:1"/></svg>