<svg xmlns="http://www.w3.org/2000/svg" width="24" height="24" fill="none"><g fill="#FFCB6B"><path d="M7.319 5.83a.874.874 0 0 1-.486-1.604A9.2 9.2 0 0 1 10.2 2.842a.875.875 0 1 1 .334 1.718 7.5 7.5 0 0 0-2.73 1.123.87.87 0 0 1-.484.146M3.693 11.278a.875.875 0 0 1-.86-1.039 9.2 9.2 0 0 1 1.406-3.423.875.875 0 1 1 1.453.974 7.5 7.5 0 0 0-1.14 2.777.876.876 0 0 1-.859.71M10.367 21.174a1 1 0 0 1-.168-.016 9.2 9.2 0 0 1-3.366-1.384.875.875 0 0 1 .97-1.457 7.5 7.5 0 0 0 2.73 1.123.875.875 0 0 1-.166 1.734M4.966 17.572a.87.87 0 0 1-.727-.388 9.2 9.2 0 0 1-1.406-3.423.875.875 0 0 1 1.719-.328c.19.998.574 1.932 1.14 2.777a.875.875 0 0 1-.726 1.362" opacity=".4" style="fill:#ffcb6b;fill:color(display-p3 1 .7961 .4196);fill-opacity:1"/><path d="M10.834 16.083a.88.88 0 0 1-.651-.289l-2.625-2.917a.876.876 0 0 1 1.301-1.17l1.923 2.137L15.1 8.257a.874.874 0 1 1 1.384 1.07l-4.958 6.416a.87.87 0 0 1-.66.34z" style="fill:#ffcb6b;fill:color(display-p3 1 .7961 .4196);fill-opacity:1"/><path d="M13.67 21.168a.875.875 0 0 1-.17-1.733c3.525-.707 6.084-3.833 6.084-7.435s-2.558-6.727-6.082-7.435a.875.875 0 0 1 .344-1.716c4.339.871 7.488 4.72 7.488 9.151 0 4.43-3.15 8.28-7.49 9.15a1 1 0 0 1-.173.018" style="fill:#ffcb6b;fill:color(display-p3 1 .7961 .4196);fill-opacity:1"/></g></svg>