<svg xmlns="http://www.w3.org/2000/svg" width="24" height="24" fill="none"><path stroke="#6B7394" d="M3.844 3.5h16.312c.191 0 .344.153.344.344v16.312a.34.34 0 0 1-.344.344H3.844a.34.34 0 0 1-.344-.344V3.844c0-.191.153-.344.344-.344Z" style="stroke:#6b7394;stroke:color(display-p3 .42 .4493 .58);stroke-opacity:1"/><path fill="#89DDFF" d="M16.969 12.055a7 7 0 0 0-.92-.055 5 5 0 0 0-1.002.099 2.8 2.8 0 0 0-.831.31q-.36.21-.568.536-.21.325-.209.779 0 .577.383.987.383.409 1.16.691.288.103.57.215.24.093.457.219.177.1.304.246a.45.45 0 0 1 .042.536.6.6 0 0 1-.211.187 1.3 1.3 0 0 1-.353.123q-.21.044-.493.044a3.1 3.1 0 0 1-1.831-.59v1.294c.27.117.558.199.855.243a6.4 6.4 0 0 0 1.041.081q.532 0 1.012-.089c.3-.052.584-.151.842-.293.238-.134.435-.318.572-.534q.21-.33.211-.816 0-.351-.121-.616a1.4 1.4 0 0 0-.347-.472 2.5 2.5 0 0 0-.545-.37 6 6 0 0 0-.716-.31 9 9 0 0 1-.524-.204 3 3 0 0 1-.394-.202 1 1 0 0 1-.25-.219.42.42 0 0 1-.01-.501.65.65 0 0 1 .223-.184q.165-.085.352-.12a2.3 2.3 0 0 1 .464-.042c.272.002.544.035.806.098q.208.051.406.129.191.074.364.177v-1.21a4 4 0 0 0-.74-.167M12.91 12.093H7.5v1.066h1.931v4.749h1.537v-4.749h1.941z" style="fill:#89ddff;fill:color(display-p3 .5373 .8667 1);fill-opacity:1"/></svg>