<svg xmlns="http://www.w3.org/2000/svg" width="24" height="24" fill="none"><path fill="#80CBC4" d="M17.978 3.825H5.91a3.164 3.164 0 0 0-3.16 3.16v2.586h18.387V6.985a3.164 3.164 0 0 0-3.16-3.16M5.622 7.847a1.15 1.15 0 1 1 0-2.298 1.15 1.15 0 0 1 0 2.298m3.448 0a1.15 1.15 0 1 1 0-2.298 1.15 1.15 0 0 1 0 2.298" style="fill:#80cbc4;fill:color(display-p3 .502 .7961 .7686);fill-opacity:1"/><path fill="#80CBC4" d="M12.225 19.473a2.584 2.584 0 0 1-.002-4.289 2.7 2.7 0 0 1-.047-.497c0-.69.27-1.34.758-1.828a2.57 2.57 0 0 1 1.828-.758q.255 0 .497.048a2.587 2.587 0 0 1 4.288 0q.243-.047.497-.047c.385 0 .755.092 1.094.251V9.571H2.75v7.182a3.16 3.16 0 0 0 3.16 3.16h6.283c.003-.147.004-.295.032-.44" opacity=".4" style="fill:#80cbc4;fill:color(display-p3 .502 .7961 .7686);fill-opacity:1"/><path fill="#FFCB6B" d="M21.138 16.466h-.71a3 3 0 0 0-.277-.668l.503-.501a.861.861 0 1 0-1.22-1.219l-.501.502a3 3 0 0 0-.668-.278v-.709a.862.862 0 0 0-1.724 0v.71q-.354.101-.668.277l-.502-.502a.862.862 0 1 0-1.219 1.219l.502.501q-.176.314-.277.668h-.71a.862.862 0 0 0 0 1.724h.71q.101.354.277.668l-.502.502a.861.861 0 1 0 1.219 1.218l.502-.501q.314.176.668.277v.71a.862.862 0 0 0 1.724 0v-.71q.353-.101.668-.277l.502.501a.86.86 0 0 0 1.219 0 .86.86 0 0 0 0-1.218l-.502-.502q.176-.314.277-.668h.71a.862.862 0 1 0-.001-1.724m-3.735 2.299a1.438 1.438 0 0 1 0-2.873c.792 0 1.436.644 1.436 1.436 0 .793-.644 1.437-1.436 1.437" style="fill:#ffcb6b;fill:color(display-p3 1 .7961 .4196);fill-opacity:1"/></svg>