<svg xmlns="http://www.w3.org/2000/svg" width="24" height="24" fill="none"><path fill="#B2CCD6" d="M12.305 6.253a6.06 6.06 0 0 0-6.052 6.052 6.06 6.06 0 0 0 6.052 6.052 6.06 6.06 0 0 0 6.051-6.052 6.06 6.06 0 0 0-6.051-6.052m0 9.184a3.131 3.131 0 1 1 0-6.263 3.131 3.131 0 0 1 0 6.263" style="fill:#b2ccd6;fill:color(display-p3 .698 .8 .8392);fill-opacity:1"/><path fill="url(#a)" fill-rule="evenodd" d="M12.812 5.26V3a9.319 9.319 0 0 1 0 18.61v-2.26c3.66-.261 6.559-3.32 6.559-7.045s-2.899-6.784-6.559-7.046M6.968 16.924a7.04 7.04 0 0 1-1.707-4.113H3a9.28 9.28 0 0 0 2.368 5.712l1.599-1.599m4.83 4.685v-2.26a7.03 7.03 0 0 1-4.115-1.707l-1.599 1.6a9.28 9.28 0 0 0 5.713 2.367" clip-rule="evenodd"/><defs><linearGradient id="a" x1="13.177" x2="4.018" y1="4.308" y2="13.468" gradientUnits="userSpaceOnUse"><stop stop-color="#3965BD" style="stop-color:#3965bd;stop-color:color(display-p3 .2235 .3961 .7412);stop-opacity:1"/><stop offset="1" stop-color="#FA6068" style="stop-color:#fa6068;stop-color:color(display-p3 .9803 .3759 .4092);stop-opacity:1"/></linearGradient></defs></svg>