<svg xmlns="http://www.w3.org/2000/svg" width="24" height="24" fill="none"><path fill="#4775D1" d="M3.844 3A.84.84 0 0 0 3 3.844v16.312c0 .468.377.844.844.844h16.312a.84.84 0 0 0 .844-.844V3.844A.84.84 0 0 0 20.156 3zm13.022 7.313q.689 0 1.22.083.504.075.98.255v1.843a3 3 0 0 0-.482-.27 4 4 0 0 0-.538-.196 4 4 0 0 0-1.07-.15q-.338 0-.614.065a1.6 1.6 0 0 0-.467.181.9.9 0 0 0-.295.281.67.67 0 0 0-.105.368q0 .22.117.396t.332.333.522.308q.308.152.695.312.528.222.95.47.42.25.721.566.301.313.461.717t.16.94q0 .74-.28 1.242c-.181.33-.442.61-.758.814-.341.216-.72.368-1.116.447q-.636.135-1.342.135a7.4 7.4 0 0 1-1.38-.123 4.2 4.2 0 0 1-1.134-.37v-1.973a3.78 3.78 0 0 0 2.428.9q.375 0 .654-.067.28-.068.467-.187a.84.84 0 0 0 .28-.285.77.77 0 0 0-.056-.817 1.6 1.6 0 0 0-.402-.375 4 4 0 0 0-.606-.333q-.374-.171-.755-.327-1.032-.432-1.54-1.054-.506-.623-.507-1.504 0-.69.277-1.186.276-.496.753-.817c.336-.222.71-.382 1.103-.472a5.7 5.7 0 0 1 1.327-.15m-11.335.14h7.173v1.625h-2.575v7.235H8.093v-7.235h-2.56z" style="fill:#4775d1;fill:color(display-p3 .28 .46 .82);fill-opacity:1"/></svg>