<svg xmlns="http://www.w3.org/2000/svg" width="24" height="24" fill="none"><path fill="#4775D1" d="m12.898 5.578 3.219 1.828c.116.064.12.242 0 .306l-3.825 2.173a.36.36 0 0 1-.36 0L8.108 7.712c-.118-.062-.12-.244 0-.306l3.216-1.828V2L3.111 6.665v9.33l3.15-1.789v-3.655c-.003-.13.153-.223.269-.153l3.824 2.173c.116.066.181.184.181.306v4.344c.002.13-.153.224-.269.154l-3.219-1.828-3.15 1.788L12.112 22l8.213-4.665-3.149-1.788-3.219 1.828c-.113.068-.273-.021-.27-.154v-4.344c0-.13.075-.246.182-.306l3.824-2.173c.114-.068.274.019.27.153v3.655l3.15 1.788v-9.33L12.897 2z" style="fill:#4775d1;fill:color(display-p3 .28 .46 .82);fill-opacity:1"/></svg>