<svg xmlns="http://www.w3.org/2000/svg" width="24" height="24" fill="none"><path fill="#6B7394" d="M18.3 3H5.7A2.703 2.703 0 0 0 3 5.7v12.6C3 19.789 4.211 21 5.7 21h12.6c1.489 0 2.7-1.211 2.7-2.7V5.7C21 4.211 19.789 3 18.3 3M12 17.85c-.62 0-1.125-.505-1.125-1.125S11.38 15.6 12 15.6s1.125.505 1.125 1.125S12.62 17.85 12 17.85m1.972-5.834c-.633.466-.978.746-1.081 1.364l.005.87h-1.92l.117-1.01c.184-1.476 1.125-2.167 1.812-2.673.697-.513 1.034-.793 1.059-1.542.04-1.187-.853-1.482-1.61-1.52-.979-.057-1.711.494-1.964 1.457l-.229.87-1.741-.456.228-.872C9.12 6.71 10.6 5.608 12.446 5.706c2.08.107 3.382 1.433 3.317 3.379-.056 1.656-1.059 2.394-1.791 2.932" style="fill:#6b7394;fill:color(display-p3 .42 .4493 .58);fill-opacity:1"/></svg>