<svg xmlns="http://www.w3.org/2000/svg" width="24" height="24" fill="none"><path fill="#FFCB6B" d="M16.29 6.086H7.71c-.918 0-1.67.75-1.67 1.668v8.581c0 .918.752 1.669 1.67 1.669h8.58c.918 0 1.67-.751 1.67-1.669v-8.58c0-.918-.752-1.67-1.67-1.67m-1.4 8.896H9.254V9.347h5.636zM9.41 21H8.362v-2.523h1.05zm2.106 0h-1.05v-2.523h1.05zm2.105 0h-1.05v-2.523h1.05zm2.105 0h-1.05v-2.523h1.05zM5.568 9.41H3V8.36h2.568zm0 2.105H3v-1.05h2.568zm0 2.105H3v-1.05h2.568zm0 2.105H3v-1.05h2.568zM21 9.41h-2.568V8.36H21zm0 2.105h-2.568v-1.05H21zm0 2.105h-2.568v-1.05H21zm0 2.105h-2.568v-1.05H21zM9.41 5.523H8.362V3h1.05zm2.106 0h-1.05V3h1.05zm2.105 0h-1.05V3h1.05zm2.105 0h-1.05V3h1.05zM8.328 16.468a.563.563 0 1 1-1.125 0 .563.563 0 0 1 1.125 0" style="fill:#ffcb6b;fill:color(display-p3 1 .7961 .4196);fill-opacity:1"/></svg>