<svg xmlns="http://www.w3.org/2000/svg" width="24" height="24" fill="none"><path fill="url(#a)" fill-rule="evenodd" d="m3.378 3.339 4.82.86-.077 1.407-4.503-.803 6.82 11.935-.021.109a1.185 1.185 0 0 0 .873 1.383l.69 1.207 8.198-14.632-3.449.612a1 1 0 0 0-.201-.008l-.194.025-.566.115.398-1.455 4.247-.753c.968-.174 1.71.856 1.226 1.72l-8.637 15.416a1.17 1.17 0 0 1-2.037.01L2.158 5.067c-.462-.809.16-1.773 1.041-1.748zm17.169.757.087.471-.114-.622z" clip-rule="evenodd"/><path fill="url(#b)" d="M17.704 6.339a.9.9 0 0 1 .014.483c.027-.16.021-.325-.014-.483"/><path fill="url(#c)" d="M15.413 2.005 9.376 3.252a.22.22 0 0 0-.124.076.24.24 0 0 0-.054.14l-.371 6.616a.24.24 0 0 0 .078.192.22.22 0 0 0 .193.05l1.68-.41c.158-.038.3.108.267.275l-.5 2.579c-.033.174.122.322.283.27l1.038-.332c.16-.052.315.097.281.27l-.793 4.052c-.05.254.27.392.403.175l.089-.145 4.919-10.356c.082-.173-.06-.37-.24-.334l-1.73.352c-.163.033-.301-.126-.256-.294l1.13-4.13c.045-.167-.093-.327-.256-.293"/><defs><linearGradient id="a" x1="7.714" x2="17.271" y1="1.923" y2="13.401" gradientUnits="userSpaceOnUse"><stop stop-color="#89DDFF" style="stop-color:#89ddff;stop-color:color(display-p3 .5373 .8667 1);stop-opacity:1"/><stop offset="1" stop-color="#935EDD" style="stop-color:#935edd;stop-color:color(display-p3 .5755 .3673 .8671);stop-opacity:1"/></linearGradient><linearGradient id="b" x1="7.714" x2="17.271" y1="1.923" y2="13.401" gradientUnits="userSpaceOnUse"><stop stop-color="#89DDFF" style="stop-color:#89ddff;stop-color:color(display-p3 .5373 .8667 1);stop-opacity:1"/><stop offset="1" stop-color="#935EDD" style="stop-color:#935edd;stop-color:color(display-p3 .5755 .3673 .8671);stop-opacity:1"/></linearGradient><linearGradient id="c" x1="9.307" x2="16.097" y1="3.742" y2="12.321" gradientUnits="userSpaceOnUse"><stop stop-color="#935EDD" style="stop-color:#935edd;stop-color:color(display-p3 .5755 .3673 .8671);stop-opacity:1"/><stop offset=".75" stop-color="#FFCB6B" style="stop-color:#ffcb6b;stop-color:color(display-p3 1 .7961 .4196);stop-opacity:1"/><stop offset=".917" stop-color="#FFF3E6" style="stop-color:#fff3e6;stop-color:color(display-p3 1 .9529 .902);stop-opacity:1"/></linearGradient></defs></svg>