<svg xmlns="http://www.w3.org/2000/svg" width="24" height="24" fill="none"><path fill="#FFCB6B" d="m17.575 8.328-5.256 7.6a.452.452 0 0 1-.823-.276l.21-4.196-3.396-.72a.45.45 0 0 1-.354-.49.45.45 0 0 1 .077-.205l5.257-7.6a.453.453 0 0 1 .823.277l-.21 4.196 3.395.72a.45.45 0 0 1 .354.49.45.45 0 0 1-.077.204" style="fill:#ffcb6b;fill:color(display-p3 1 .7961 .4196);fill-opacity:1"/><path fill="#2ECC71" d="M12.067 22.305a1.06 1.06 0 0 0 .752-.312l4.967-4.967a1.064 1.064 0 0 0-1.505-1.505l-4.214 4.214-9.181-9.18A1.065 1.065 0 0 0 1.38 12.06l9.933 9.933a1.06 1.06 0 0 0 .752.312" style="fill:#2ecc71;fill:color(display-p3 .1804 .8 .4431);fill-opacity:1"/><path fill="#C3E88D" d="M12.07 22.304a1.06 1.06 0 0 1-.752-.311l-4.967-4.967a1.064 1.064 0 0 1 1.505-1.505l4.215 4.214 9.18-9.18a1.065 1.065 0 0 1 1.506 1.505l-9.934 9.933a1.06 1.06 0 0 1-.752.311" style="fill:#c3e88d;fill:color(display-p3 .7647 .9098 .5529);fill-opacity:1"/></svg>