<svg xmlns="http://www.w3.org/2000/svg" width="24" height="24" fill="none"><path fill="#89DDFF" fill-rule="evenodd" d="M11.814 4.5a.9.9 0 0 0-.495.136l-6.86 3.368c-.279.13-.46.38-.46.668v8.156c0 .288.181.539.46.668l6.86 3.368a.9.9 0 0 0 .495.136.9.9 0 0 0 .495-.136l6.861-3.368c.278-.13.46-.38.46-.668V8.672c0-.288-.182-.539-.46-.668l-6.86-3.368a.9.9 0 0 0-.496-.136m0 1.631 6.08 2.989v1.596h-.014v5.255h.013v.41l-6.079 2.988-6.079-2.989V9.12zM7.56 9.856l4.255-2.147 4.256 2.147-4.256 2.147zm-.087 1.707v2.716l3.474 1.752v-2.716zm5.21 1.752 3.474-1.752v2.716l-3.473 1.752z" clip-rule="evenodd" style="fill:#89ddff;fill:color(display-p3 .5373 .8667 1);fill-opacity:1"/><path fill="#4775D1" d="M10.946 13.315v4.043l-3.474-1.751v-4.044zm5.21 2.292-3.473 1.75v-4.042l3.474-1.752zm-.086-5.751-4.256 2.147-4.255-2.147 4.255-2.147z" style="fill:#4775d1;fill:color(display-p3 .28 .46 .82);fill-opacity:1"/></svg>