<svg xmlns="http://www.w3.org/2000/svg" width="24" height="24" fill="none"><path fill="#C3E88D" fill-rule="evenodd" d="M18.75 16.5V5.25A2.25 2.25 0 0 0 16.5 3H5.625A2.625 2.625 0 0 0 3 5.625V7.5h3.75v11.25A2.25 2.25 0 0 0 9 21h9.375A2.625 2.625 0 0 0 21 18.375V16.5zM4.5 6v-.375c0-.62.505-1.125 1.125-1.125s1.125.505 1.125 1.125V6zM15 8.69l-1.06 1.06 1.5 1.5-1.5 1.5L15 13.81l2.03-2.03a.75.75 0 0 0 0-1.06zm-5.78 3.09a.75.75 0 0 1 0-1.06l2.03-2.03 1.06 1.06-1.5 1.5 1.5 1.5-1.06 1.06zm9.155 7.72c.62 0 1.125-.505 1.125-1.125V18H12v.375c0 .439-.091.81-.244 1.125z" clip-rule="evenodd" style="fill:#c3e88d;fill:color(display-p3 .7647 .9098 .5529);fill-opacity:1"/></svg>