<svg xmlns="http://www.w3.org/2000/svg" width="24" height="24" fill="none"><g fill-rule="evenodd" clip-rule="evenodd"><path fill="#935EDD" d="M13.443 20.852v-4.473c0-.732.59-1.33 1.31-1.33h1.178v-.473c0-.452.09-.882.25-1.275-.343-.53-.683-.841-.888-1.029-.138-.127-.215-.197-.19-.24.077-.13.178-.275.292-.44.438-.636 1.082-1.567 1.375-3.038.22-1.125.163-2.974-.335-3.942-.093-.18-.915.301-.915.301s-.77-1.716-.984-1.855c-.694-.446-1.435 1.832-1.435 1.832s-1.586-.255-2.83 1.09c-.25.272-.585.417-.932.55l-.018.006c-.096.031-.22.072-.503.835-.463 1.246.781 2.62.781 2.62s-1.482 1.05-2.032 2.354c-.607 1.432-.422 2.829-.422 2.829s-1.053.916-1.135 1.872c-.063.83.174 1.502.429 1.896.283.429.636.22.636.22s-.7.818-.046 1.165c.596.313 1.603.493 2.136-.046.267-.268.386-.762.482-1.158.043-.18.08-.338.126-.448.022-.053.08.023.148.113.036.047.074.099.112.136.122.117.33.244.33.244s-.943.406-.556 1.333c.128.308.585.505 1.332.499a62 62 0 0 0 2.304-.148" style="fill:#935edd;fill:color(display-p3 .5755 .3673 .8671);fill-opacity:1"/><path fill="#FFCB6B" d="M22.875 16h-.562v-1.143c0-1.577-1.26-2.857-2.813-2.857-1.552 0-2.812 1.28-2.812 2.857V16h-.563c-.619 0-1.125.514-1.125 1.143v5.714c0 .629.506 1.143 1.125 1.143h6.75c.619 0 1.125-.514 1.125-1.143v-5.714c0-.629-.506-1.143-1.125-1.143M19.5 21.143A1.137 1.137 0 0 1 18.375 20c0-.629.506-1.143 1.125-1.143s1.125.514 1.125 1.143-.506 1.143-1.125 1.143m-1.744-6.286V16h3.488v-1.143c0-.977-.782-1.771-1.744-1.771s-1.744.794-1.744 1.771" style="fill:#ffcb6b;fill:color(display-p3 1 .7961 .4196);fill-opacity:1"/></g></svg>