<svg xmlns="http://www.w3.org/2000/svg" width="24" height="24" fill="none"><path fill="#935EDD" d="M19.2 17.406c-.926.22-1.395.423-2.541 1.17-1.794 1.16-3.75 1.7-3.75 1.7s-.163.243-.632.353c-.81.197-3.86.365-4.138.37-.747.007-1.204-.19-1.332-.498-.387-.927.556-1.333.556-1.333s-.208-.127-.33-.244c-.11-.11-.226-.33-.26-.249-.145.354-.22 1.218-.608 1.606-.533.54-1.54.36-2.136.046-.654-.347.046-1.165.046-1.165s-.353.209-.636-.22c-.255-.394-.492-1.067-.429-1.896.082-.956 1.135-1.872 1.135-1.872s-.185-1.397.422-2.83C5.117 11.042 6.6 9.992 6.6 9.992s-1.244-1.374-.781-2.62c.3-.812.422-.806.52-.84.348-.134.684-.279.933-.551 1.244-1.345 2.83-1.09 2.83-1.09s.74-2.278 1.435-1.832c.215.14.984 1.855.984 1.855s.822-.481.915-.301c.498.968.556 2.817.335 3.942-.37 1.855-1.296 2.852-1.666 3.478-.087.145.995.603 1.678 2.498.631 1.734.07 3.189.168 3.351l.023.04s.724.059 2.176-.84c.776-.481 1.696-1.02 2.744-1.032 1.013-.017 1.065 1.177.307 1.357" style="fill:#935edd;fill:color(display-p3 .5755 .3673 .8671);fill-opacity:1"/></svg>