<svg xmlns="http://www.w3.org/2000/svg" width="24" height="24" fill="none"><path fill="#FA6068" fill-rule="evenodd" d="M11.635 3.007c-.287.047-.992.286-1.568.53-.04.017-.323.126-.63.243-.308.116-.591.225-.631.243s-.315.124-.613.236c-1.889.714-1.873.707-1.92.892-.081.313.007.382.896.702.405.145 1.012.365 1.349.487l.919.33c.168.06.493.177.72.261.228.084.553.201.721.26.169.06.493.178.721.262.839.31.908.328 1.243.338.54.016.607-.018 2.994-1.507C17.961 4.96 18.05 4.897 18.05 4.71a.34.34 0 0 0-.244-.309c-.3-.08-.609-.156-.711-.175a22 22 0 0 1-.937-.222 6 6 0 0 0-.325-.076c-.12-.021-.605-.136-.937-.222a8 8 0 0 0-.486-.113 48 48 0 0 1-1.225-.294 9 9 0 0 0-.325-.077l-.502-.113a.5.5 0 0 1-.11-.034 1 1 0 0 0-.201-.037l-.25-.033a.6.6 0 0 0-.162.003m8.343 2c-.08.026-1.19.766-2.469 1.642-3.824 2.624-3.458 2.385-3.776 2.461-.282.068-.856.057-1.149-.021-.299-.08-.352-.099-.877-.296-.228-.086-.455-.17-.504-.187-.05-.016-.277-.1-.505-.186a13 13 0 0 0-.487-.177.4.4 0 0 1-.108-.048.7.7 0 0 0-.162-.067c-.07-.02-.288-.1-.486-.175a26 26 0 0 0-.505-.185c-.08-.027-.257-.094-.396-.149s-.301-.115-.36-.136c-.06-.02-.141-.053-.18-.071a7 7 0 0 0-.343-.13 10 10 0 0 1-.568-.217l-.657-.258a89 89 0 0 1-1.413-.563c-1.002-.405-1.436-.387-1.776.074-.284.384-.3.614-.203 2.754.042.902.085 1.908.098 2.236.012.327.033.719.045.869l.023.273.36-.252c.199-.139.453-.32.566-.404.112-.083.433-.31.713-.505l.509-.354-.02-.335c-.01-.185-.029-.528-.04-.764a26 26 0 0 0-.031-.547l-.01-.118.094.038c.777.314 2.205.863 2.76 1.062a156.086 156.086 0 0 0 1.424.51c.267.093.624.221.792.283a6 6 0 0 0 .32.113c.024 0-.275.229-.612.468-.265.189-3.145 2.27-4.998 3.612a70 70 0 0 1-.834.596c-.823.57-.937 1.185-.406 2.18.314.587.63.818 1.737 1.27a107 107 0 0 1 2.253.947l.432.186c.06.027.327.142.595.255s.624.267.793.341c.168.075.363.158.432.185.137.053.473.199 1.983.86 1.002.44 1.197.484 1.64.37.366-.096.144.076 2.49-1.924 1.577-1.345 1.568-1.337 1.659-1.522l.083-.168v-1.24c.002-1.346-.005-1.401-.195-1.49-.255-.12-.293-.102-1.136.583l-2.29 1.858c-.619.506-1.06.606-1.68.378a80 80 0 0 0-.878-.312c-.317-.112-.885-.313-1.261-.448-.377-.136-.847-.304-1.045-.374l-.775-.28a45 45 0 0 0-.7-.248l-.285-.098.085-.058c.046-.032.402-.291.79-.576a1669 1669 0 0 1 3.08-2.258l2.706-1.979c1.096-.8 2.608-1.908 3.604-2.64.416-.307.769-.558.784-.56.014 0 .027 1.878.027 4.174 0 4.476-.007 4.317.178 4.488.063.057.132.075.3.075h.217l.698-.746c.427-.456.73-.81.779-.912l.08-.168.01-5.142c.008-3.471 0-5.184-.026-5.275-.126-.449-.584-.716-.993-.578" clip-rule="evenodd" style="fill:#fa6068;fill:color(display-p3 .9803 .3759 .4092);fill-opacity:1"/></svg>