<svg xmlns="http://www.w3.org/2000/svg" width="24" height="24" fill="none"><path fill="#935EDD" fill-rule="evenodd" d="M12.727 3.273h6.546c.401 0 .727.325.727.727v16a.727.727 0 0 1-.727.727H4.727A.727.727 0 0 1 4 20V4c0-.402.326-.727.727-.727h6.546v3.636H9.09v5.09h5.818V6.91h-2.182zm-3.394 14.06h5.334V16H9.333zM14.667 20H9.333v-1.334h5.334zm-5.334-5.334h5.334v-1.333H9.333z" clip-rule="evenodd" style="fill:#935edd;fill:color(display-p3 .5755 .3673 .8671);fill-opacity:1"/><path fill="#F69DD5" d="M10.545 8.364h2.909v2.182h-2.909z" style="fill:#f69dd5;fill:color(display-p3 .9645 .6138 .8359);fill-opacity:1"/></svg>