<svg xmlns="http://www.w3.org/2000/svg" width="16" height="16" fill="none"><path fill="#FF7042" d="M9.014 2.8H12.8A2.2 2.2 0 0 1 15 5v.529A5.98 5.98 0 0 0 11 4a6 6 0 0 0-2.88.735L6.386 3H3.2a.2.2 0 0 0-.2.2V11c0 .11.09.2.2.2h1.92c.147.722.424 1.397.805 2H3.2A2.2 2.2 0 0 1 1 11V3.2A2.2 2.2 0 0 1 3.2 1h4.014z"/><path fill="#FF7042" fill-rule="evenodd" d="M11 7.222c.23 0 .417.187.417.417v2.143l1.626 1.125a.417.417 0 0 1-.475.686l-1.805-1.25a.42.42 0 0 1-.18-.343V7.639c0-.23.187-.417.417-.417" clip-rule="evenodd"/><path fill="#FF7042" fill-rule="evenodd" d="M10.583 5.972c0-.23.187-.416.417-.416a4.444 4.444 0 0 1 0 8.888.417.417 0 1 1 0-.833 3.611 3.611 0 0 0 0-7.222.417.417 0 0 1-.417-.417" clip-rule="evenodd" opacity=".6"/><path fill="#FF7042" d="M8.152 13.265a.417.417 0 1 0 0-.834.417.417 0 0 0 0 .834M6.972 10.417a.417.417 0 1 0 0-.834.417.417 0 0 0 0 .834M8.152 7.568a.417.417 0 1 0 0-.833.417.417 0 0 0 0 .833M9.459 14.138a.417.417 0 1 0 0-.834.417.417 0 0 0 0 .834M7.279 11.958a.417.417 0 1 0 0-.834.417.417 0 0 0 0 .834M7.279 8.876a.417.417 0 1 0 0-.834.417.417 0 0 0 0 .834M9.459 6.696a.417.417 0 1 0 0-.834.417.417 0 0 0 0 .834" opacity=".6"/></svg>