<svg xmlns="http://www.w3.org/2000/svg" width="16" height="16" fill="none"><path fill="#686F93" d="M9.014 2.8H12.8A2.2 2.2 0 0 1 15 5v.96a2.02 2.02 0 0 0-1.452-1.256 4.505 4.505 0 0 0-5.499 4.624l-2.188 2.187c-.471.471-.73 1.071-.78 1.685H3.2A2.2 2.2 0 0 1 1 11V3.2A2.2 2.2 0 0 1 3.2 1h4.013zM6.668 13.076l.02-.054zm.19-.36a1 1 0 0 0-.112.172l.01-.02a1 1 0 0 1 .103-.153m5.858-.645q-.052.002-.103.003zm-.372-.004-.074-.007zm.917-.077-.074.017zm.857-.36-.073.045q.037-.022.073-.045m.882-.836q-.02.03-.042.057.022-.029.042-.058zM13.077 9.61c.04.016.084.016.123 0l-.062.013a.17.17 0 0 1-.116-.05zm-3.48-.75.01-.116zm.022-.195.014-.09zm2.433-.204a.16.16 0 0 0 0 .123l.036.056a.164.164 0 0 1 0-.233zM9.694 8.31l.03-.1zm1.275-1.714.059-.037zm.797-.353.087-.022zm1.078-.09.177.022a3 3 0 0 0-.187-.023zm-.041-.003c-.049-.004-.098-.01-.147-.01.05 0 .098.006.147.01m-.506-.001.096-.006zm.283-.01h-.107z"/><path fill="#FFCB6B" d="M15.061 8.661a.45.45 0 0 0-.319-.336.45.45 0 0 0-.445.112l-1.254 1.254a.15.15 0 0 1-.215 0l-.859-.859a.15.15 0 0 1 0-.214l1.254-1.254a.45.45 0 0 0 .113-.446.44.44 0 0 0-.337-.319 2.72 2.72 0 0 0-2.532.73 2.72 2.72 0 0 0-.704 2.637l-2.516 2.517a1.06 1.06 0 0 0 0 1.502l.429.43a1.06 1.06 0 0 0 1.503 0l2.516-2.516a2.72 2.72 0 0 0 2.637-.705 2.72 2.72 0 0 0 .73-2.533"/></svg>