<svg xmlns="http://www.w3.org/2000/svg" width="16" height="16" fill="none"><path fill="#2E483C" d="M9.014 2.8H12.8A2.2 2.2 0 0 1 15 5v.779a4 4 0 0 0-.839-.49l-.319-.127c-.85-.306-1.912-.461-3.003-.461-.954 0-1.887.119-2.675.354l-.328.107a4.3 4.3 0 0 0-1.116.581l-.149.119c-.353.3-.81.844-.865 1.625l-.006.159v2.33c0 .333.085.624.208.874-.13.208-.208.46-.208.75v1.255q0 .18.028.345H3.2A2.2 2.2 0 0 1 1 11V3.2A2.2 2.2 0 0 1 3.2 1h4.014zm5.564 7.528-.021.033zm-7.556-.185-.002-.007-.014-.073a1 1 0 0 0 .016.08"/><path fill="#916B53" d="M7.411 7.234A.41.41 0 0 0 7 7.645v2.33c0 .235.125.444.322.62.198.178.48.335.825.466.69.262 1.642.423 2.692.423s2-.161 2.691-.423c.345-.131.628-.288.826-.466.197-.176.321-.385.321-.62v-2.33a.41.41 0 0 0-.41-.411z"/><path fill="#916B53" d="M14.677 11.6c0-.088-.1-.141-.177-.095a4 4 0 0 1-.678.325c-.805.305-1.86.476-2.983.476s-2.178-.17-2.984-.476a4 4 0 0 1-.678-.325c-.076-.046-.177.007-.177.096v1.254c0 .337.19.603.414.793.225.192.526.345.862.466.675.244 1.582.386 2.563.386.98 0 1.887-.142 2.563-.386.336-.12.637-.274.861-.466.223-.19.414-.456.414-.793z"/><path fill="#FFCB6B" d="M8.276 6.386C8.95 6.142 9.858 6 10.839 6c.98 0 1.887.142 2.563.386.336.12.637.274.861.466.223.19.414.456.414.793s-.19.604-.414.794-.525.345-.861.466c-.676.243-1.582.385-2.563.385s-1.888-.142-2.563-.385c-.336-.121-.637-.275-.862-.466C7.191 8.249 7 7.982 7 7.645s.19-.603.414-.793c.225-.192.526-.345.862-.466"/></svg>