<svg xmlns="http://www.w3.org/2000/svg" width="16" height="16" fill="none"><path fill="#2E483C" d="M9.014 2.8H12.8A2.2 2.2 0 0 1 15 5v5.985l-.353-.354-.134-.12a1.75 1.75 0 0 0-.744-.354 3.29 3.29 0 0 0-2.612-2.877 1.756 1.756 0 0 0-1.726-1.44h-.092a1.75 1.75 0 0 0-.377-.88l-.121-.134-.134-.12a1.76 1.76 0 0 0-2.22 0l-.133.12-1.528 1.528a1.76 1.76 0 0 0 0 2.487l1.529 1.527.132.12c.221.18.477.298.744.355A3.29 3.29 0 0 0 8.627 13.2H3.2A2.2 2.2 0 0 1 1 11V3.2A2.2 2.2 0 0 1 3.2 1h4.014zm.838 9.575-.087-.03zm-.17-.066-.089-.044zm-.313-.178q-.037-.026-.073-.055.036.029.073.055m-.46-.446-.035-.046zm-.094-.137q-.023-.035-.043-.071.02.036.043.071m-.161-.316-.025-.07zm3.822-.926.004.074zm-.03-.195q.011.056.018.113-.007-.057-.018-.113m-.046-.188.02.076zm-.063-.178q.023.058.042.117-.019-.06-.042-.117m-.998-1.044q.041.02.081.04zm-.155-.064.071.026q-.035-.014-.071-.026m-1.66-1.489a.5.5 0 0 1-.093-.009z"/><path fill="#FF8B8B" d="M10.5 12.486a1.986 1.986 0 1 0 0-3.972 1.986 1.986 0 0 0 0 3.972" opacity=".6"/><path fill="#C3E88D" d="M7.176 8.056h2.255a.459.459 0 0 0 0-.917H7.176l.746-.746a.458.458 0 1 0-.649-.648L5.746 7.273c-.18.18-.18.47 0 .649L7.273 9.45a.457.457 0 1 0 .648-.649zM15.254 13.079l-1.527-1.528a.459.459 0 0 0-.649.649l.746.745h-2.255a.458.458 0 0 0 0 .917h2.255l-.746.745a.458.458 0 0 0 .648.649l1.528-1.528c.179-.18.179-.47 0-.649"/></svg>