<svg xmlns="http://www.w3.org/2000/svg" width="16" height="16" fill="none"><path fill="#2E483C" d="M9.014 2.8H12.8A2.2 2.2 0 0 1 15 5v.956l-.313-.312-.01-.012a1.855 1.855 0 0 0-2.482-.127l-.14.127a1.85 1.85 0 0 0-.541 1.258H7.666c-.96 0-1.75.73-1.846 1.664l-.008.19.008.189c.08.788.655 1.428 1.408 1.611a1.855 1.855 0 0 0-1.407 1.61l-.01.191.01.188q.038.36.199.667H3.2A2.2 2.2 0 0 1 1 11V3.2A2.2 2.2 0 0 1 3.2 1h4.014zm-1.619 9.902-.036-.03q.016.015.036.03m7.514-1.081c-.112.383-.326.72-.609.985q.033-.233.007-.466.201-.116.374-.287l-.001-.001zm-2.031.902q-.012.027-.03.053.017-.026.03-.053m-5.619-.368q.011-.027.026-.051-.014.024-.026.05m.101-.14q.015-.015.034-.027-.019.012-.034.027m.035-2.914q-.02-.014-.036-.03.016.016.036.03m-.136-.547q.011-.026.026-.05-.014.024-.026.05m.101-.14q.015-.014.034-.027-.019.013-.034.027m.188-.103q-.026.007-.05.015.024-.008.05-.015"/><path fill="#B2CCD6" d="M10.88 10.122a.45.45 0 1 0-.637.636l1.032 1.032H7.561a.45.45 0 0 0 0 .9h3.714l-1.032 1.033a.45.45 0 0 0 .636.636l1.8-1.8a.45.45 0 0 0 0-.637z" opacity=".6"/><path fill="#B2CCD6" d="M13.58 6.52a.45.45 0 1 0-.636.638l1.032 1.032H7.56a.45.45 0 0 0 0 .9h6.415l-1.033 1.032a.45.45 0 0 0 .637.637l1.8-1.8a.45.45 0 0 0 0-.637l-1.8-1.8z"/></svg>