<svg xmlns="http://www.w3.org/2000/svg" width="16" height="16" fill="none"><path fill="#57D7FF" d="M9.014 2.8H12.8A2.2 2.2 0 0 1 15 5v.918a2.5 2.5 0 0 0-1.15-.31 2.39 2.39 0 0 0-2.012-1.596L11.595 4c-.709 0-1.345.31-1.782.8H8.185L6.385 3H3.2a.2.2 0 0 0-.2.2V11c0 .11.09.2.2.2h2.232a2.4 2.4 0 0 0 1.443 1.382c.005.214.04.42.095.618H3.2A2.2 2.2 0 0 1 1 11V3.2A2.2 2.2 0 0 1 3.2 1h4.015z" style="fill:#57D7FF;fill:color(display-p3 .502 .7961 .7686);fill-opacity:1"/><path fill="#57D7FF" d="M14.367 9.372c.217 0 .418.069.584.185V8.204c0-.644-.523-1.167-1.168-1.167h-1.352a1.022 1.022 0 1 0-1.673 0H9.405c-.645 0-1.167.523-1.167 1.167v1.353a1.018 1.018 0 0 0-1.605.836 1.021 1.021 0 0 0 1.605.837v1.352c0 .645.522 1.168 1.167 1.168h1.353a1.022 1.022 0 1 1 1.673 0h1.352c.645 0 1.168-.523 1.168-1.168V11.23a1.022 1.022 0 1 1-.584-1.858" style="fill:#57D7FF;fill:color(display-p3 .502 .7961 .7686);fill-opacity:1"/></svg>