<svg width="24" height="24" viewBox="0 0 24 24" fill="none" xmlns="http://www.w3.org/2000/svg">
<g filter="url(#filter0_i_1422_2583)">
<path d="M12 5.77777C8.56922 5.77777 5.77777 8.56922 5.77777 12C5.77777 15.4308 8.56922 18.2222 12 18.2222C15.4308 18.2222 18.2222 15.4308 18.2222 12C18.2222 8.56922 15.4308 5.77777 12 5.77777ZM12 6.94444C13.1838 6.94444 14.2719 7.35666 15.1344 8.0411L8.04033 15.1344C7.35588 14.2719 6.94444 13.1838 6.94444 12C6.94444 9.21244 9.21244 6.94444 12 6.94444Z" fill="#C6FF00"/>
</g>
<path d="M12 5.27777C8.29307 5.27777 5.27777 8.29307 5.27777 12C5.27777 15.7069 8.29307 18.7222 12 18.7222C15.7069 18.7222 18.7222 15.7069 18.7222 12C18.7222 8.29307 15.7069 5.27777 12 5.27777ZM12 7.44444C12.8633 7.44444 13.6703 7.68775 14.3597 8.10873L8.10804 14.3597C7.68732 13.6705 7.44444 12.8635 7.44444 12C7.44444 9.48858 9.48858 7.44444 12 7.44444Z" stroke="black" stroke-opacity="0.2"/>
<defs>
<filter id="filter0_i_1422_2583" x="4.77777" y="4.77777" width="14.4445" height="14.4445" filterUnits="userSpaceOnUse" color-interpolation-filters="sRGB">
<feFlood flood-opacity="0" result="BackgroundImageFix"/>
<feBlend mode="normal" in="SourceGraphic" in2="BackgroundImageFix" result="shape"/>
<feColorMatrix in="SourceAlpha" type="matrix" values="0 0 0 0 0 0 0 0 0 0 0 0 0 0 0 0 0 0 127 0" result="hardAlpha"/>
<feMorphology radius="2" operator="erode" in="SourceAlpha" result="effect1_innerShadow_1422_2583"/>
<feOffset/>
<feComposite in2="hardAlpha" operator="arithmetic" k2="-1" k3="1"/>
<feColorMatrix type="matrix" values="0 0 0 0 1 0 0 0 0 1 0 0 0 0 1 0 0 0 0.08 0"/>
<feBlend mode="normal" in2="shape" result="effect1_innerShadow_1422_2583"/>
</filter>
</defs>
</svg>
