<svg width="24" height="24" viewBox="0 0 24 24" fill="none" xmlns="http://www.w3.org/2000/svg">
<g filter="url(#filter0_i_1488_3863)">
<path d="M12 5.77777C8.56922 5.77777 5.77777 8.56922 5.77777 12C5.77777 15.4308 8.56922 18.2222 12 18.2222C15.4308 18.2222 18.2222 15.4308 18.2222 12C18.2222 8.56922 15.4308 5.77777 12 5.77777ZM12 6.94444C13.1838 6.94444 14.2719 7.35666 15.1344 8.0411L8.04033 15.1344C7.35588 14.2719 6.94444 13.1838 6.94444 12C6.94444 9.21244 9.21244 6.94444 12 6.94444Z" fill="#5393FF"/>
</g>
<path d="M12.0004 5.27777C15.7071 5.27801 18.7221 8.29365 18.7221 12.0004C18.7219 15.707 15.707 18.7219 12.0004 18.7221C8.29365 18.7221 5.27801 15.7071 5.27777 12.0004C5.27777 8.29351 8.29351 5.27777 12.0004 5.27777ZM12.0004 7.44476C9.48901 7.44476 7.44476 9.48901 7.44476 12.0004C7.44484 12.8635 7.68746 13.6699 8.10785 14.3588L14.3598 8.10785C13.6707 7.68705 12.8635 7.44484 12.0004 7.44476Z" stroke="black" stroke-opacity="0.2"/>
<defs>
<filter id="filter0_i_1488_3863" x="4.77777" y="4.77777" width="14.4444" height="14.4445" filterUnits="userSpaceOnUse" color-interpolation-filters="sRGB">
<feFlood flood-opacity="0" result="BackgroundImageFix"/>
<feBlend mode="normal" in="SourceGraphic" in2="BackgroundImageFix" result="shape"/>
<feColorMatrix in="SourceAlpha" type="matrix" values="0 0 0 0 0 0 0 0 0 0 0 0 0 0 0 0 0 0 127 0" result="hardAlpha"/>
<feMorphology radius="2" operator="erode" in="SourceAlpha" result="effect1_innerShadow_1488_3863"/>
<feOffset/>
<feComposite in2="hardAlpha" operator="arithmetic" k2="-1" k3="1"/>
<feColorMatrix type="matrix" values="0 0 0 0 1 0 0 0 0 1 0 0 0 0 1 0 0 0 0.08 0"/>
<feBlend mode="normal" in2="shape" result="effect1_innerShadow_1488_3863"/>
</filter>
</defs>
</svg>
